<?xml version="1.0" encoding="UTF-8" standalone="no"?>
<!-- Created with Inkscape (http://www.inkscape.org/) -->

<svg
   xmlns:dc="http://purl.org/dc/elements/1.1/"
   xmlns:cc="http://creativecommons.org/ns#"
   xmlns:rdf="http://www.w3.org/1999/02/22-rdf-syntax-ns#"
   xmlns:svg="http://www.w3.org/2000/svg"
   xmlns="http://www.w3.org/2000/svg"
   xmlns:sodipodi="http://sodipodi.sourceforge.net/DTD/sodipodi-0.dtd"
   xmlns:inkscape="http://www.inkscape.org/namespaces/inkscape"
   width="3222.458"
   height="1170.39"
   id="svg2"
   version="1.1"
   inkscape:version="0.91 r13725"
   sodipodi:docname="skylake_soc_block_diagram.svg">
  <defs
     id="defs4" />
  <sodipodi:namedview
     id="base"
     pagecolor="#ffffff"
     bordercolor="#666666"
     borderopacity="1.0"
     inkscape:pageopacity="0.0"
     inkscape:pageshadow="2"
     inkscape:zoom="0.70710678"
     inkscape:cx="1305.884"
     inkscape:cy="666.94757"
     inkscape:document-units="px"
     inkscape:current-layer="layer1"
     showgrid="false"
     inkscape:window-width="3200"
     inkscape:window-height="1727"
     inkscape:window-x="0"
     inkscape:window-y="0"
     inkscape:window-maximized="1"
     fit-margin-top="0"
     fit-margin-left="0"
     fit-margin-right="0"
     fit-margin-bottom="0" />
  <metadata
     id="metadata7">
    <rdf:RDF>
      <cc:Work
         rdf:about="">
        <dc:format>image/svg+xml</dc:format>
        <dc:type
           rdf:resource="http://purl.org/dc/dcmitype/StillImage" />
        <dc:title />
      </cc:Work>
    </rdf:RDF>
  </metadata>
  <g
     inkscape:label="Layer 1"
     inkscape:groupmode="layer"
     id="layer1"
     transform="translate(1883.887,52.230713)">
    <rect
       transform="scale(-1,-1)"
       ry="21.213205"
       rx="21.213202"
       y="-1099.1523"
       x="82.46965"
       height="1123.3683"
       width="76.018127"
       id="rect9340"
       style="fill:#e5ffd5;fill-opacity:1;fill-rule:evenodd;stroke:none" />
    <g
       id="g4846">
      <rect
         style="fill:#ffd5d5;fill-opacity:1;fill-rule:evenodd;stroke:none"
         id="rect5028-8"
         width="1004.1224"
         height="926.18451"
         x="753.22406"
         y="-1116.1675"
         rx="21.213203"
         ry="21.213205"
         transform="scale(-1,-1)" />
      <path
         sodipodi:nodetypes="ssssssccssssccs"
         inkscape:connector-curvature="0"
         id="rect4563-9"
         d="m -213.98241,-27.151541 c 13.0064,0 23.47682,9.977765 23.47682,22.3720699 l 0,1089.4690711 c 0,12.3942 -10.47042,22.372 -23.47682,22.372 l -490.58534,0 c -13.00642,0 -23.47693,-9.9778 -23.47693,-22.372 l 0,-888.53021 c 0.24974,-17.02551 -6.43355,-20.34942 -19.47065,-20.34942 l -987.39157,0 c -13.0064,0 -23.4769,-9.97776 -23.4769,-22.37207 l 0,-158.2173711 c 0,-12.3943049 10.4705,-22.3720699 23.4769,-22.3720699 l 1087.01588,0 298.43206,0 z"
         style="fill:#d5e5ff;fill-opacity:1;fill-rule:evenodd;stroke:none" />
      <rect
         transform="scale(-1,-1)"
         ry="21.213205"
         rx="21.213203"
         y="-1105.4802"
         x="1774.1202"
         height="1135.9181"
         width="109.76678"
         id="rect5016-1"
         style="fill:#f4eed7;fill-opacity:1;fill-rule:evenodd;stroke:none" />
    </g>
    <g
       id="g4462"
       transform="matrix(0.40833967,0,0,0.40833967,-1.1833206,-43.869108)">
      <rect
         style="fill:#d5ffe6;fill-opacity:1;fill-rule:evenodd;stroke:none"
         id="rect4236"
         width="681"
         height="583"
         x="-2"
         y="481.36218"
         rx="51.949894"
         ry="51.949894" />
      <path
         sodipodi:nodetypes="sscsssscsscsss"
         inkscape:connector-curvature="0"
         id="rect4244"
         d="m 686.27966,555.375 c -14.18032,0 -25.60293,9.8894 -25.60293,22.1664 l 0,257.41 -343.97884,0 c -14.1803,0 -25.60293,9.8894 -25.60293,22.1664 l 0,163.122 c 0,12.277 11.42263,22.1665 25.60293,22.1665 l 305.23505,0 146.18934,0 c 14.18031,0 25.56522,-9.8895 25.56522,-22.1665 l 0,-238.0753 0,-204.6231 c 0,-12.277 -11.38491,-22.1664 -25.56522,-22.1664 z"
         style="fill:#e5d5ff;fill-opacity:1;fill-rule:evenodd;stroke:none" />
      <rect
         ry="51.949894"
         rx="51.94989"
         y="10.362183"
         x="36"
         height="461"
         width="754.7229"
         id="rect3023"
         style="fill:#fff6d5;fill-opacity:1;fill-rule:evenodd;stroke:none" />
    </g>
    <g
       transform="matrix(0.40833967,0,0,0.40833967,417.49374,-47.869108)"
       id="g4467">
      <rect
         ry="51.949894"
         rx="51.949894"
         y="481.36218"
         x="-2"
         height="583"
         width="681"
         id="rect4469"
         style="fill:#d5ffe6;fill-opacity:1;fill-rule:evenodd;stroke:none" />
      <path
         style="fill:#e5d5ff;fill-opacity:1;fill-rule:evenodd;stroke:none"
         d="m 686.27966,555.375 c -14.18032,0 -25.60293,9.8894 -25.60293,22.1664 l 0,257.41 -343.97884,0 c -14.1803,0 -25.60293,9.8894 -25.60293,22.1664 l 0,163.122 c 0,12.277 11.42263,22.1665 25.60293,22.1665 l 305.23505,0 146.18934,0 c 14.18031,0 25.56522,-9.8895 25.56522,-22.1665 l 0,-238.0753 0,-204.6231 c 0,-12.277 -11.38491,-22.1664 -25.56522,-22.1664 z"
         id="path4471"
         inkscape:connector-curvature="0"
         sodipodi:nodetypes="sscsssscsscsss" />
      <rect
         style="fill:#fff6d5;fill-opacity:1;fill-rule:evenodd;stroke:none"
         id="rect4473"
         width="754.7229"
         height="461"
         x="36"
         y="10.362183"
         rx="51.94989"
         ry="51.949894" />
    </g>
    <g
       id="g4475"
       transform="matrix(-0.40833967,0,0,-0.40833967,740.77115,1122.3906)">
      <rect
         style="fill:#d5ffe6;fill-opacity:1;fill-rule:evenodd;stroke:none"
         id="rect4477"
         width="681"
         height="583"
         x="-2"
         y="481.36218"
         rx="51.949894"
         ry="51.949894" />
      <path
         sodipodi:nodetypes="sscsssscsscsss"
         inkscape:connector-curvature="0"
         id="path4479"
         d="m 686.27966,555.375 c -14.18032,0 -25.60293,9.8894 -25.60293,22.1664 l 0,257.41 -343.97884,0 c -14.1803,0 -25.60293,9.8894 -25.60293,22.1664 l 0,163.122 c 0,12.277 11.42263,22.1665 25.60293,22.1665 l 305.23505,0 146.18934,0 c 14.18031,0 25.56522,-9.8895 25.56522,-22.1665 l 0,-238.0753 0,-204.6231 c 0,-12.277 -11.38491,-22.1664 -25.56522,-22.1664 z"
         style="fill:#e5d5ff;fill-opacity:1;fill-rule:evenodd;stroke:none" />
      <rect
         ry="51.949894"
         rx="51.94989"
         y="10.362183"
         x="36"
         height="461"
         width="754.7229"
         id="rect4481"
         style="fill:#fff6d5;fill-opacity:1;fill-rule:evenodd;stroke:none" />
    </g>
    <g
       transform="matrix(-0.40833967,0,0,-0.40833967,322.09409,1122.3906)"
       id="g4483">
      <rect
         ry="51.949894"
         rx="51.949894"
         y="481.36218"
         x="-2"
         height="583"
         width="681"
         id="rect4485"
         style="fill:#d5ffe6;fill-opacity:1;fill-rule:evenodd;stroke:none" />
      <path
         style="fill:#e5d5ff;fill-opacity:1;fill-rule:evenodd;stroke:none"
         d="m 686.27966,555.375 c -14.18032,0 -25.60293,9.8894 -25.60293,22.1664 l 0,257.41 -343.97884,0 c -14.1803,0 -25.60293,9.8894 -25.60293,22.1664 l 0,163.122 c 0,12.277 11.42263,22.1665 25.60293,22.1665 l 305.23505,0 146.18934,0 c 14.18031,0 25.56522,-9.8895 25.56522,-22.1665 l 0,-238.0753 0,-204.6231 c 0,-12.277 -11.38491,-22.1664 -25.56522,-22.1664 z"
         id="path4487"
         inkscape:connector-curvature="0"
         sodipodi:nodetypes="sscsssscsscsss" />
      <rect
         style="fill:#fff6d5;fill-opacity:1;fill-rule:evenodd;stroke:none"
         id="rect4489"
         width="754.7229"
         height="461"
         x="36"
         y="10.362183"
         rx="51.94989"
         ry="51.949894" />
    </g>
    <rect
       style="fill:#d5ffe6;fill-opacity:1;fill-rule:evenodd;stroke:none"
       id="rect4493"
       width="436.07932"
       height="1169.062"
       x="-1231.5879"
       y="-1116.8313"
       rx="21.213203"
       ry="21.213205"
       transform="scale(-1,-1)" />
    <rect
       ry="21.213203"
       rx="21.213202"
       y="-632.9845"
       x="-727.52917"
       height="87.244583"
       width="308.18329"
       id="rect4497"
       style="fill:#f4d7d7;fill-opacity:1;fill-rule:evenodd;stroke:none"
       transform="scale(-1,-1)" />
    <text
       xml:space="preserve"
       style="font-style:normal;font-variant:normal;font-weight:normal;font-stretch:normal;font-size:43.75px;line-height:125%;font-family:sans-serif;-inkscape-font-specification:sans-serif;text-align:center;letter-spacing:0px;word-spacing:0px;text-anchor:middle;fill:#000000;fill-opacity:1;stroke:none;stroke-width:1px;stroke-linecap:butt;stroke-linejoin:miter;stroke-opacity:1"
       x="572.45483"
       y="602.76703"
       id="text4502"
       sodipodi:linespacing="125%"><tspan
         sodipodi:role="line"
         x="572.45483"
         y="602.76703"
         id="tspan4506">L3$ Slice</tspan></text>
    <rect
       transform="scale(-1,-1)"
       style="fill:#f4d7d7;fill-opacity:1;fill-rule:evenodd;stroke:none"
       id="rect4510"
       width="308.18329"
       height="87.244583"
       x="-727.52917"
       y="-518.9845"
       rx="21.213202"
       ry="21.213203" />
    <text
       sodipodi:linespacing="125%"
       id="text4512"
       y="488.76703"
       x="572.45483"
       style="font-style:normal;font-variant:normal;font-weight:normal;font-stretch:normal;font-size:43.75px;line-height:125%;font-family:sans-serif;-inkscape-font-specification:sans-serif;text-align:center;letter-spacing:0px;word-spacing:0px;text-anchor:middle;fill:#000000;fill-opacity:1;stroke:none;stroke-width:1px;stroke-linecap:butt;stroke-linejoin:miter;stroke-opacity:1"
       xml:space="preserve"><tspan
         id="tspan4514"
         y="488.76703"
         x="572.45483"
         sodipodi:role="line">L3$ Slice</tspan></text>
    <rect
       transform="scale(-1,-1)"
       style="fill:#f4d7d7;fill-opacity:1;fill-rule:evenodd;stroke:none"
       id="rect4516"
       width="308.18329"
       height="87.244583"
       x="-307.52917"
       y="-632.9845"
       rx="21.213202"
       ry="21.213203" />
    <text
       sodipodi:linespacing="125%"
       id="text4518"
       y="602.76703"
       x="152.45483"
       style="font-style:normal;font-variant:normal;font-weight:normal;font-stretch:normal;font-size:43.75px;line-height:125%;font-family:sans-serif;-inkscape-font-specification:sans-serif;text-align:center;letter-spacing:0px;word-spacing:0px;text-anchor:middle;fill:#000000;fill-opacity:1;stroke:none;stroke-width:1px;stroke-linecap:butt;stroke-linejoin:miter;stroke-opacity:1"
       xml:space="preserve"><tspan
         id="tspan4520"
         y="602.76703"
         x="152.45483"
         sodipodi:role="line">L3$ Slice</tspan></text>
    <rect
       ry="21.213203"
       rx="21.213202"
       y="-518.9845"
       x="-307.52917"
       height="87.244583"
       width="308.18329"
       id="rect4522"
       style="fill:#f4d7d7;fill-opacity:1;fill-rule:evenodd;stroke:none"
       transform="scale(-1,-1)" />
    <text
       xml:space="preserve"
       style="font-style:normal;font-variant:normal;font-weight:normal;font-stretch:normal;font-size:43.75px;line-height:125%;font-family:sans-serif;-inkscape-font-specification:sans-serif;text-align:center;letter-spacing:0px;word-spacing:0px;text-anchor:middle;fill:#000000;fill-opacity:1;stroke:none;stroke-width:1px;stroke-linecap:butt;stroke-linejoin:miter;stroke-opacity:1"
       x="152.45483"
       y="488.76703"
       id="text4524"
       sodipodi:linespacing="125%"><tspan
         sodipodi:role="line"
         x="152.45483"
         y="488.76703"
         id="tspan4526">L3$ Slice</tspan></text>
    <text
       xml:space="preserve"
       style="font-style:normal;font-weight:normal;font-size:80px;line-height:125%;font-family:sans-serif;letter-spacing:0px;word-spacing:0px;fill:#000000;fill-opacity:1;stroke:none;stroke-width:1px;stroke-linecap:butt;stroke-linejoin:miter;stroke-opacity:1"
       x="327.4375"
       y="183.36218"
       id="text4528"
       sodipodi:linespacing="125%"><tspan
         sodipodi:role="line"
         id="tspan4530"
         x="327.4375"
         y="183.36218">⋯</tspan></text>
    <text
       sodipodi:linespacing="125%"
       id="text4532"
       y="943.36218"
       x="327.4375"
       style="font-style:normal;font-weight:normal;font-size:80px;line-height:125%;font-family:sans-serif;letter-spacing:0px;word-spacing:0px;fill:#000000;fill-opacity:1;stroke:none;stroke-width:1px;stroke-linecap:butt;stroke-linejoin:miter;stroke-opacity:1"
       xml:space="preserve"><tspan
         y="943.36218"
         x="327.4375"
         id="tspan4534"
         sodipodi:role="line">⋯</tspan></text>
    <text
       xml:space="preserve"
       style="font-style:normal;font-variant:normal;font-weight:normal;font-stretch:normal;font-size:43.75px;line-height:125%;font-family:sans-serif;-inkscape-font-specification:sans-serif;text-align:center;letter-spacing:0px;word-spacing:0px;text-anchor:middle;fill:#000000;fill-opacity:1;stroke:none;stroke-width:1px;stroke-linecap:butt;stroke-linejoin:miter;stroke-opacity:1"
       x="1013.9755"
       y="-3.3582764"
       id="text4536"
       sodipodi:linespacing="125%"><tspan
         sodipodi:role="line"
         x="1013.9755"
         y="-3.3582764"
         id="tspan4538"
         style="font-weight:bold">System</tspan><tspan
         sodipodi:role="line"
         x="1013.9755"
         y="51.329224"
         id="tspan4540"
         style="font-weight:bold">Agent</tspan></text>
    <rect
       style="opacity:1;fill:none;fill-opacity:1;stroke:#000080;stroke-width:15.00000191;stroke-linejoin:miter;stroke-miterlimit:4;stroke-dasharray:none;stroke-opacity:1"
       id="rect4542"
       width="954"
       height="245.99998"
       x="-113.5625"
       y="411.36212"
       rx="21.213202"
       ry="21.213198" />
    <rect
       style="fill:#d4aa00;fill-opacity:1;fill-rule:evenodd;stroke:none"
       id="rect4550"
       width="89.183289"
       height="56.244583"
       x="-894.3938"
       y="-562.48438"
       rx="11.932419"
       ry="14.05374"
       transform="scale(-1,-1)" />
    <rect
       transform="matrix(0,-1,1,0,0,0)"
       ry="14.05374"
       rx="11.932419"
       y="659.38843"
       x="-444.01767"
       height="56.244583"
       width="89.183289"
       id="rect4555"
       style="fill:#d4aa00;fill-opacity:1;fill-rule:evenodd;stroke:none" />
    <rect
       style="fill:#d4aa00;fill-opacity:1;fill-rule:evenodd;stroke:none"
       id="rect4557"
       width="89.183289"
       height="56.244583"
       x="-706.0177"
       y="435.38843"
       rx="11.932419"
       ry="14.05374"
       transform="matrix(0,-1,1,0,0,0)" />
    <rect
       transform="matrix(0,-1,1,0,0,0)"
       ry="14.05374"
       rx="11.932419"
       y="15.388428"
       x="-706.0177"
       height="56.244583"
       width="89.183289"
       id="rect4559"
       style="fill:#d4aa00;fill-opacity:1;fill-rule:evenodd;stroke:none" />
    <rect
       style="fill:#d4aa00;fill-opacity:1;fill-rule:evenodd;stroke:none"
       id="rect4561"
       width="89.183289"
       height="56.244583"
       x="-444.01767"
       y="239.38843"
       rx="11.932419"
       ry="14.05374"
       transform="matrix(0,-1,1,0,0,0)" />
    <text
       sodipodi:linespacing="125%"
       id="text4594"
       y="668.76703"
       x="741.45483"
       style="font-style:normal;font-variant:normal;font-weight:normal;font-stretch:normal;font-size:43.75px;line-height:125%;font-family:sans-serif;-inkscape-font-specification:sans-serif;text-align:center;letter-spacing:1px;word-spacing:0px;text-anchor:middle;fill:#ffffff;fill-opacity:1;stroke:#000000;stroke-width:2;stroke-linecap:butt;stroke-linejoin:miter;stroke-miterlimit:4;stroke-dasharray:none;stroke-opacity:1"
       xml:space="preserve"><tspan
         id="tspan4596"
         y="668.76703"
         x="741.95483"
         sodipodi:role="line"
         style="font-weight:bold;letter-spacing:1px;stroke-width:2;stroke-miterlimit:4;stroke-dasharray:none">Ring</tspan></text>
    <rect
       style="fill:#fff6d5;fill-opacity:1;fill-rule:evenodd;stroke:none"
       id="rect4667"
       width="284.18329"
       height="236.24458"
       x="902.9566"
       y="79.362183"
       rx="21.213202"
       ry="21.213203" />
    <text
       sodipodi:linespacing="125%"
       id="text4613"
       y="186.45084"
       x="1043.8413"
       style="font-style:normal;font-variant:normal;font-weight:normal;font-stretch:normal;font-size:43.75px;line-height:125%;font-family:sans-serif;-inkscape-font-specification:sans-serif;text-align:center;letter-spacing:0px;word-spacing:0px;text-anchor:middle;fill:#000000;fill-opacity:1;stroke:none;stroke-width:1px;stroke-linecap:butt;stroke-linejoin:miter;stroke-opacity:1"
       xml:space="preserve"><tspan
         id="tspan4617"
         y="186.45084"
         x="1043.8413"
         sodipodi:role="line">Display</tspan><tspan
         y="241.13834"
         x="1043.8413"
         sodipodi:role="line"
         id="tspan4621">Controller</tspan></text>
    <rect
       ry="21.213203"
       rx="21.213202"
       y="894.36218"
       x="902.9566"
       height="158.24458"
       width="284.18329"
       id="rect4665"
       style="fill:#fff6d5;fill-opacity:1;fill-rule:evenodd;stroke:none" />
    <text
       xml:space="preserve"
       style="font-style:normal;font-variant:normal;font-weight:normal;font-stretch:normal;font-size:43.75px;line-height:125%;font-family:sans-serif;-inkscape-font-specification:sans-serif;text-align:center;letter-spacing:0px;word-spacing:0px;text-anchor:middle;fill:#000000;fill-opacity:1;stroke:none;stroke-width:1px;stroke-linecap:butt;stroke-linejoin:miter;stroke-opacity:1"
       x="1043.8413"
       y="961.77795"
       id="text4625"
       sodipodi:linespacing="125%"><tspan
         id="tspan4629"
         sodipodi:role="line"
         x="1043.8413"
         y="961.77795">Memory</tspan><tspan
         sodipodi:role="line"
         x="1043.8413"
         y="1016.4655"
         id="tspan4633">Controller</tspan></text>
    <rect
       style="fill:#fff6d5;fill-opacity:1;fill-rule:evenodd;stroke:none"
       id="rect4663"
       width="284.18329"
       height="199.24458"
       x="902.9566"
       y="384.36218"
       rx="21.213202"
       ry="21.213203" />
    <text
       sodipodi:linespacing="125%"
       id="text4637"
       y="499.91006"
       x="1044.0656"
       style="font-style:normal;font-variant:normal;font-weight:normal;font-stretch:normal;font-size:43.75px;line-height:125%;font-family:sans-serif;-inkscape-font-specification:sans-serif;text-align:center;letter-spacing:0px;word-spacing:0px;text-anchor:middle;fill:#000000;fill-opacity:1;stroke:none;stroke-width:1px;stroke-linecap:butt;stroke-linejoin:miter;stroke-opacity:1"
       xml:space="preserve"><tspan
         id="tspan4641"
         y="499.91006"
         x="1044.0656"
         sodipodi:role="line">PCIe</tspan></text>
    <rect
       ry="21.213203"
       rx="21.213202"
       y="638.36218"
       x="902.9566"
       height="158.24458"
       width="284.18329"
       id="rect4645"
       style="fill:#fff6d5;fill-opacity:1;fill-rule:evenodd;stroke:none" />
    <text
       xml:space="preserve"
       style="font-style:normal;font-variant:normal;font-weight:normal;font-stretch:normal;font-size:43.75px;line-height:125%;font-family:sans-serif;-inkscape-font-specification:sans-serif;text-align:center;letter-spacing:0px;word-spacing:0px;text-anchor:middle;fill:#000000;fill-opacity:1;stroke:none;stroke-width:1px;stroke-linecap:butt;stroke-linejoin:miter;stroke-opacity:1"
       x="1043.8413"
       y="692.95081"
       id="text4647"
       sodipodi:linespacing="125%"><tspan
         sodipodi:role="line"
         x="1043.8413"
         y="692.95081"
         id="tspan4649">eDRAM</tspan><tspan
         sodipodi:role="line"
         x="1043.8413"
         y="747.63831"
         id="tspan4651">Controller</tspan></text>
    <text
       sodipodi:linespacing="125%"
       id="text4655"
       y="782.95081"
       x="1045.0543"
       style="font-style:normal;font-variant:normal;font-weight:normal;font-stretch:normal;font-size:43.75px;line-height:125%;font-family:sans-serif;-inkscape-font-specification:sans-serif;text-align:center;letter-spacing:0px;word-spacing:0px;text-anchor:middle;fill:#000000;fill-opacity:1;stroke:none;stroke-width:1px;stroke-linecap:butt;stroke-linejoin:miter;stroke-opacity:1"
       xml:space="preserve"><tspan
         id="tspan4659"
         y="782.95081"
         x="1045.0543"
         sodipodi:role="line"
         style="font-size:25px">(optional)</tspan></text>
    <path
       style="opacity:1;fill:#e3dbdb;fill-opacity:1;stroke:#241c1c;stroke-width:1.99999988;stroke-linejoin:miter;stroke-miterlimit:4;stroke-dasharray:none;stroke-opacity:1"
       d="m 1293.4631,88.01129 -0.028,11.4465 -90.4138,0 0,-11.4465 -43.0215,23.06701 43.0215,23.11263 0,-11.44244 90.3989,0 -0.014,11.44244 43.0501,-23.11263 z"
       id="rect4669"
       inkscape:connector-curvature="0"
       sodipodi:nodetypes="ccccccccccc" />
    <path
       sodipodi:nodetypes="ccccccccccc"
       inkscape:connector-curvature="0"
       id="path4715"
       d="m 1293.4631,142.01129 -0.028,11.4465 -90.4138,0 0,-11.4465 -43.0215,23.06701 43.0215,23.11263 0,-11.44244 90.3989,0 -0.014,11.44244 43.0501,-23.11263 z"
       style="opacity:1;fill:#e3dbdb;fill-opacity:1;stroke:#241c1c;stroke-width:1.99999988;stroke-linejoin:miter;stroke-miterlimit:4;stroke-dasharray:none;stroke-opacity:1" />
    <path
       style="opacity:1;fill:#e3dbdb;fill-opacity:1;stroke:#241c1c;stroke-width:1.99999988;stroke-linejoin:miter;stroke-miterlimit:4;stroke-dasharray:none;stroke-opacity:1"
       d="m 1293.4631,196.01129 -0.028,11.4465 -90.4138,0 0,-11.4465 -43.0215,23.06701 43.0215,23.11263 0,-11.44244 90.3989,0 -0.014,11.44244 43.0501,-23.11263 z"
       id="path4717"
       inkscape:connector-curvature="0"
       sodipodi:nodetypes="ccccccccccc" />
    <path
       sodipodi:nodetypes="ccccccccccc"
       inkscape:connector-curvature="0"
       id="path4719"
       d="m 1293.4631,252.01129 -0.028,11.4465 -90.4138,0 0,-11.4465 -43.0215,23.06701 43.0215,23.11263 0,-11.44244 90.3989,0 -0.014,11.44244 43.0501,-23.11263 z"
       style="opacity:1;fill:#e3dbdb;fill-opacity:1;stroke:#241c1c;stroke-width:1.99999988;stroke-linejoin:miter;stroke-miterlimit:4;stroke-dasharray:none;stroke-opacity:1" />
    <path
       style="opacity:1;fill:#e3dbdb;fill-opacity:1;stroke:#241c1c;stroke-width:1.99999988;stroke-linejoin:miter;stroke-miterlimit:4;stroke-dasharray:none;stroke-opacity:1"
       d="m 1293.4631,408.01129 -0.028,11.4465 -90.4138,0 0,-11.4465 -43.0215,23.06701 43.0215,23.11263 0,-11.44244 90.3989,0 -0.014,11.44244 43.0501,-23.11263 z"
       id="path4721"
       inkscape:connector-curvature="0"
       sodipodi:nodetypes="ccccccccccc" />
    <path
       sodipodi:nodetypes="ccccccccccc"
       inkscape:connector-curvature="0"
       id="path4723"
       d="m 1293.4631,458.01129 -0.028,11.4465 -90.4138,0 0,-11.4465 -43.0215,23.06701 43.0215,23.11263 0,-11.44244 90.3989,0 -0.014,11.44244 43.0501,-23.11263 z"
       style="opacity:1;fill:#e3dbdb;fill-opacity:1;stroke:#241c1c;stroke-width:1.99999988;stroke-linejoin:miter;stroke-miterlimit:4;stroke-dasharray:none;stroke-opacity:1" />
    <path
       style="opacity:1;fill:#e3dbdb;fill-opacity:1;stroke:#241c1c;stroke-width:1.99999988;stroke-linejoin:miter;stroke-miterlimit:4;stroke-dasharray:none;stroke-opacity:1"
       d="m 1293.4631,516.01129 -0.028,11.4465 -90.4138,0 0,-11.4465 -43.0215,23.06701 43.0215,23.11263 0,-11.44244 90.3989,0 -0.014,11.44244 43.0501,-23.11263 z"
       id="path4725"
       inkscape:connector-curvature="0"
       sodipodi:nodetypes="ccccccccccc" />
    <path
       sodipodi:nodetypes="ccccccccccc"
       inkscape:connector-curvature="0"
       id="path4727"
       d="m 1293.4631,658.01129 -0.028,11.4465 -90.4138,0 0,-11.4465 -43.0215,23.06701 43.0215,23.11263 0,-11.44244 90.3989,0 -0.014,11.44244 43.0501,-23.11263 z"
       style="opacity:1;fill:#e3dbdb;fill-opacity:1;stroke:#241c1c;stroke-width:1.99999988;stroke-linejoin:miter;stroke-miterlimit:4;stroke-dasharray:none;stroke-opacity:1" />
    <path
       style="opacity:1;fill:#e3dbdb;fill-opacity:1;stroke:#241c1c;stroke-width:1.99999988;stroke-linejoin:miter;stroke-miterlimit:4;stroke-dasharray:none;stroke-opacity:1"
       d="m 1293.4631,718.01129 -0.028,11.4465 -90.4138,0 0,-11.4465 -43.0215,23.06701 43.0215,23.11263 0,-11.44244 90.3989,0 -0.014,11.44244 43.0501,-23.11263 z"
       id="path4729"
       inkscape:connector-curvature="0"
       sodipodi:nodetypes="ccccccccccc" />
    <path
       sodipodi:nodetypes="ccccccccccc"
       inkscape:connector-curvature="0"
       id="path4731"
       d="m 1293.4631,918.01129 -0.028,11.4465 -90.4138,0 0,-11.4465 -43.0215,23.06701 43.0215,23.11263 0,-11.44244 90.3989,0 -0.014,11.44244 43.0501,-23.11263 z"
       style="opacity:1;fill:#e3dbdb;fill-opacity:1;stroke:#241c1c;stroke-width:1.99999988;stroke-linejoin:miter;stroke-miterlimit:4;stroke-dasharray:none;stroke-opacity:1" />
    <path
       style="opacity:1;fill:#e3dbdb;fill-opacity:1;stroke:#241c1c;stroke-width:1.99999988;stroke-linejoin:miter;stroke-miterlimit:4;stroke-dasharray:none;stroke-opacity:1"
       d="m 1293.4631,978.01129 -0.028,11.4465 -90.4138,0 0,-11.4465 -43.0215,23.06701 43.0215,23.1126 0,-11.4424 90.3989,0 -0.014,11.4424 43.0501,-23.1126 z"
       id="path4733"
       inkscape:connector-curvature="0"
       sodipodi:nodetypes="ccccccccccc" />
    <text
       sodipodi:linespacing="125%"
       id="text4735"
       y="165.48279"
       x="579.08972"
       style="font-style:normal;font-variant:normal;font-weight:normal;font-stretch:normal;font-size:43.75px;line-height:125%;font-family:sans-serif;-inkscape-font-specification:sans-serif;text-align:center;letter-spacing:0px;word-spacing:0px;text-anchor:middle;fill:#000000;fill-opacity:1;stroke:none;stroke-width:1px;stroke-linecap:butt;stroke-linejoin:miter;stroke-opacity:1"
       xml:space="preserve"><tspan
         style="font-weight:bold"
         id="tspan4739"
         y="165.48279"
         x="579.08972"
         sodipodi:role="line">Core</tspan></text>
    <text
       xml:space="preserve"
       style="font-style:normal;font-variant:normal;font-weight:normal;font-stretch:normal;font-size:43.75px;line-height:125%;font-family:sans-serif;-inkscape-font-specification:sans-serif;text-align:center;letter-spacing:0px;word-spacing:0px;text-anchor:middle;fill:#000000;fill-opacity:1;stroke:none;stroke-width:1px;stroke-linecap:butt;stroke-linejoin:miter;stroke-opacity:1"
       x="160.41266"
       y="165.48279"
       id="text4743"
       sodipodi:linespacing="125%"><tspan
         sodipodi:role="line"
         x="160.41266"
         y="165.48279"
         id="tspan4745"
         style="font-weight:bold">Core</tspan></text>
    <text
       sodipodi:linespacing="125%"
       id="text4747"
       y="941.48279"
       x="160.41266"
       style="font-style:normal;font-variant:normal;font-weight:normal;font-stretch:normal;font-size:43.75px;line-height:125%;font-family:sans-serif;-inkscape-font-specification:sans-serif;text-align:center;letter-spacing:0px;word-spacing:0px;text-anchor:middle;fill:#000000;fill-opacity:1;stroke:none;stroke-width:1px;stroke-linecap:butt;stroke-linejoin:miter;stroke-opacity:1"
       xml:space="preserve"><tspan
         style="font-weight:bold"
         id="tspan4749"
         y="941.48279"
         x="160.41266"
         sodipodi:role="line">Core</tspan></text>
    <text
       xml:space="preserve"
       style="font-style:normal;font-variant:normal;font-weight:normal;font-stretch:normal;font-size:43.75px;line-height:125%;font-family:sans-serif;-inkscape-font-specification:sans-serif;text-align:center;letter-spacing:0px;word-spacing:0px;text-anchor:middle;fill:#000000;fill-opacity:1;stroke:none;stroke-width:1px;stroke-linecap:butt;stroke-linejoin:miter;stroke-opacity:1"
       x="579.08972"
       y="941.48279"
       id="text4751"
       sodipodi:linespacing="125%"><tspan
         sodipodi:role="line"
         x="579.08972"
         y="941.48279"
         id="tspan4753"
         style="font-weight:bold">Core</tspan></text>
    <text
       sodipodi:linespacing="125%"
       id="text4586"
       y="558.79041"
       x="-1037.3993"
       style="font-style:normal;font-variant:normal;font-weight:normal;font-stretch:normal;font-size:43.75px;line-height:125%;font-family:sans-serif;-inkscape-font-specification:sans-serif;text-align:center;letter-spacing:0px;word-spacing:0px;text-anchor:middle;fill:#000000;fill-opacity:1;stroke:none;stroke-width:1px;stroke-linecap:butt;stroke-linejoin:miter;stroke-opacity:1"
       xml:space="preserve"><tspan
         id="tspan4590"
         y="558.79041"
         x="-1037.3993"
         sodipodi:role="line"
         style="font-weight:bold;font-size:62.5px">Gen9</tspan></text>
    <rect
       transform="scale(-1,-1)"
       ry="14.05374"
       rx="11.932419"
       y="-562.48438"
       x="75.606201"
       height="56.244583"
       width="89.183289"
       id="rect4565"
       style="fill:#d4aa00;fill-opacity:1;fill-rule:evenodd;stroke:none" />
  </g>
</svg>
