<?xml version="1.0" encoding="UTF-8" standalone="no"?>
<svg
   xmlns:dc="http://purl.org/dc/elements/1.1/"
   xmlns:cc="http://creativecommons.org/ns#"
   xmlns:rdf="http://www.w3.org/1999/02/22-rdf-syntax-ns#"
   xmlns:svg="http://www.w3.org/2000/svg"
   xmlns="http://www.w3.org/2000/svg"
   xmlns:xlink="http://www.w3.org/1999/xlink"
   xmlns:sodipodi="http://sodipodi.sourceforge.net/DTD/sodipodi-0.dtd"
   xmlns:inkscape="http://www.inkscape.org/namespaces/inkscape"
   id="svg8"
   version="1.1"
   viewBox="0 0 22.483334 7.4020834"
   height="7.4020834mm"
   width="22.483334mm"
   sodipodi:docname="powered by linode.svg"
   inkscape:version="0.92.2 (5c3e80d, 2017-08-06)">
  <sodipodi:namedview
     pagecolor="#ffffff"
     bordercolor="#666666"
     borderopacity="1"
     objecttolerance="10"
     gridtolerance="10"
     guidetolerance="10"
     inkscape:pageopacity="0"
     inkscape:pageshadow="2"
     inkscape:window-width="3200"
     inkscape:window-height="1727"
     id="namedview27"
     showgrid="false"
     fit-margin-top="0"
     fit-margin-left="0"
     fit-margin-right="0"
     fit-margin-bottom="0"
     inkscape:zoom="13.455443"
     inkscape:cx="83.188493"
     inkscape:cy="-6.8869548"
     inkscape:window-x="0"
     inkscape:window-y="0"
     inkscape:window-maximized="1"
     inkscape:current-layer="text865" />
  <defs
     id="defs2">
    <linearGradient
       id="linearGradient871">
      <stop
         id="stop867"
         offset="0"
         style="stop-color:#000000;stop-opacity:1;" />
      <stop
         id="stop869"
         offset="1"
         style="stop-color:#000000;stop-opacity:0;" />
    </linearGradient>
    <linearGradient
       gradientUnits="userSpaceOnUse"
       y2="229.83954"
       x2="71.820076"
       y1="141.29863"
       x1="75.179527"
       id="linearGradient873"
       xlink:href="#linearGradient871" />
    <linearGradient
       gradientTransform="translate(2e-6,2e-5)"
       y2="3.7010412"
       x2="22.483333"
       y1="-9.9455423"
       x1="-2.0450211"
       gradientUnits="userSpaceOnUse"
       id="linearGradient951"
       xlink:href="#linearGradient871" />
    <linearGradient
       inkscape:collect="always"
       xlink:href="#linearGradient871"
       id="linearGradient874"
       gradientUnits="userSpaceOnUse"
       gradientTransform="translate(23.324324,184.8652)"
       x1="35.726665"
       y1="173.78262"
       x2="35.726665"
       y2="193.32872" />
  </defs>
  <metadata
     id="metadata5">
    <rdf:RDF>
      <cc:Work
         rdf:about="">
        <dc:format>image/svg+xml</dc:format>
        <dc:type
           rdf:resource="http://purl.org/dc/dcmitype/StillImage" />
        <dc:title></dc:title>
      </cc:Work>
    </rdf:RDF>
  </metadata>
  <g
     id="layer1"
     transform="translate(-23.324322,-184.86518)">
    <rect
       ry="0.72760415"
       rx="0.72760415"
       style="opacity:1;fill:url(#linearGradient874);fill-opacity:1;stroke:#1a1a1a;stroke-width:0.2;stroke-linecap:square;stroke-linejoin:miter;stroke-miterlimit:4;stroke-dasharray:none;stroke-dashoffset:0;stroke-opacity:1"
       id="rect921"
       width="22.283333"
       height="7.2020836"
       x="23.424322"
       y="184.96518" />
    <g
       transform="translate(-1.0583334,-0.2720116)"
       id="g998">
      <path
         id="path939"
         style="fill:#123d10;fill-opacity:1;fill-rule:nonzero;stroke:none;stroke-width:0.01136771"
         d="m 27.209158,188.5031 -0.250946,-1.7132 -1.030008,-0.64045 0.33451,1.61601 z m 0.286554,1.95916 -0.176788,-1.20811 -0.903606,-0.75285 0.242582,1.17168 z m -0.701747,-0.13308 0.178828,0.8641 0.745982,0.7918 -0.127679,-0.87189 z m 2.415724,-0.3746 -0.3812,-0.29095 0.0029,0.0682 c 6.44e-4,0.0137 -0.0059,0.0268 -0.01744,0.0345 l -0.287484,0.19371 0.312639,0.25519 c 2.24e-4,1.6e-4 3.97e-4,5e-4 6.2e-4,7.4e-4 8.18e-4,7.5e-4 0.0015,0.001 0.0022,0.002 0.0016,0.001 0.0031,0.003 0.0044,0.005 6.94e-4,9.9e-4 0.0013,0.002 0.0019,0.003 0.001,0.002 0.002,0.004 0.0027,0.006 4.46e-4,0.001 8.17e-4,0.002 0.0012,0.004 5.7e-4,0.002 9.42e-4,0.004 0.0012,0.006 8.8e-5,7.4e-4 3.72e-4,0.001 4.21e-4,0.002 l 0.01276,0.2987 0.350692,0.29519 z m 1.306846,-0.93498 -0.07457,0.86168 -0.246912,-0.17182 0.0267,-0.43945 c 2.2e-5,-5e-4 -1.03e-4,-9.9e-4 -1.03e-4,-0.001 0,-4.9e-4 1.91e-4,-0.001 1.67e-4,-0.002 -2.1e-5,-0.002 -4.71e-4,-0.003 -7.43e-4,-0.005 -1.92e-4,-0.001 -2.24e-4,-0.002 -5.45e-4,-0.004 -7.69e-4,-0.003 -0.0019,-0.006 -0.0034,-0.009 -1.04e-4,-2.4e-4 -1.68e-4,-5e-4 -3.22e-4,-7.4e-4 -0.0017,-0.003 -0.0038,-0.006 -0.0063,-0.008 -4.96e-4,-5e-4 -0.0011,-9.9e-4 -0.0016,-0.001 -0.0016,-0.001 -0.0031,-0.003 -0.005,-0.004 l -0.531206,-0.35084 0.0077,-0.38497 0.836009,0.52092"
         inkscape:connector-curvature="0" />
      <path
         id="path941"
         style="fill:#33b652;fill-opacity:1;fill-rule:nonzero;stroke:none;stroke-width:0.01136771"
         d="m 28.670397,187.81789 -0.06958,-1.62658 -1.562215,0.60031 0.255282,1.74258 z m 0.08085,1.89513 -0.0511,-1.19913 -1.301046,0.74054 0.182445,1.2466 z m 0.02631,0.60777 -1.106474,0.79164 0.134414,0.91745 1.010681,-0.80517 z m 0.511487,-0.36563 0.0074,0.88695 0.78857,-0.62896 0.05257,-0.86494 z m 1.966763,-1.40693 -0.110878,0.82051 -0.621915,0.49575 0.07302,-0.84404 0.659776,-0.47222"
         inkscape:connector-curvature="0" />
      <path
         id="path943"
         style="fill:#231f20;fill-opacity:1;fill-rule:nonzero;stroke:none;stroke-width:0.01136771"
         d="m 28.853645,190.24425 c -6.4e-5,-7.5e-4 -3.47e-4,-0.001 -4.22e-4,-0.002 -2.23e-4,-0.002 -5.94e-4,-0.004 -0.0012,-0.006 -3.47e-4,-0.001 -6.94e-4,-0.002 -0.0012,-0.004 -7.43e-4,-0.002 -0.0017,-0.004 -0.0027,-0.006 -6.19e-4,-9.9e-4 -0.0012,-0.002 -0.0019,-0.003 -0.0013,-0.002 -0.0028,-0.003 -0.0044,-0.005 -7.69e-4,-7.4e-4 -0.0014,-0.001 -0.0022,-0.002 -2.23e-4,-1.6e-4 -3.96e-4,-5e-4 -6.19e-4,-7.4e-4 l -0.312639,-0.2552 0.287483,-0.1937 c 0.01149,-0.008 0.01808,-0.0208 0.01744,-0.0345 l -0.0029,-0.0682 0.3812,0.29094 0.0074,0.88356 -0.350691,-0.29519 z m -1.534721,-0.9901 0.176788,1.20811 -0.837812,-0.78928 -0.242582,-1.17168 z m 1.432322,0.45887 -1.169702,0.78801 -0.182445,-1.2466 1.301046,-0.74054 z m -0.150424,-3.52171 0.06958,1.62658 -1.376508,0.71631 -0.255282,-1.74258 z m -1.64261,0.59859 0.250946,1.7132 -0.946444,-0.73764 -0.33451,-1.61601 z m 0.01458,4.40338 -0.178827,-0.8641 0.79713,0.78401 0.12768,0.87189 z m 1.843386,0.0314 -1.010682,0.80517 -0.134414,-0.91745 1.106474,-0.79164 z m 1.268816,-1.01156 -0.78857,0.62896 -0.0074,-0.88695 0.848516,-0.60695 z m 0.110061,-0.50369 0.02671,-0.43945 c 2.1e-5,-5e-4 -1.04e-4,-9.9e-4 -1.04e-4,-0.001 0,-4.9e-4 1.91e-4,-0.001 1.67e-4,-0.002 -2.1e-5,-0.002 -4.7e-4,-0.003 -7.43e-4,-0.005 -1.92e-4,-0.001 -2.24e-4,-0.002 -5.45e-4,-0.004 -7.68e-4,-0.003 -0.0019,-0.006 -0.0034,-0.009 -1.04e-4,-2.4e-4 -1.68e-4,-5e-4 -3.22e-4,-7.4e-4 -0.0017,-0.003 -0.0038,-0.006 -0.0063,-0.008 -4.96e-4,-5e-4 -0.0011,-9.9e-4 -0.0016,-0.001 -0.0016,-0.001 -0.0031,-0.003 -0.005,-0.004 l -0.531207,-0.35084 0.0077,-0.38497 0.836009,0.52092 -0.07457,0.86168 z m 0.327958,0.15503 0.07302,-0.84404 0.659776,-0.47222 -0.110878,0.82051 z m 0.823924,-1.40426 c -2.1e-5,-7.5e-4 -3.22e-4,-10e-4 -3.97e-4,-0.002 -1.67e-4,-0.001 -4.7e-4,-0.003 -7.93e-4,-0.004 -4.95e-4,-0.002 -0.0012,-0.004 -0.002,-0.006 -5.2e-4,-0.001 -0.001,-0.002 -0.0017,-0.004 -0.0011,-0.002 -0.0024,-0.004 -0.0039,-0.006 -7.93e-4,-9.9e-4 -0.0015,-0.002 -0.0024,-0.003 -0.0018,-0.002 -0.0039,-0.003 -0.0061,-0.005 -6.94e-4,-5e-4 -0.0012,-0.001 -0.0019,-0.001 -1.68e-4,-8e-5 -3.72e-4,-8e-5 -5.7e-4,-2.4e-4 -2.24e-4,-1.6e-4 -3.97e-4,-4.9e-4 -6.44e-4,-4.9e-4 l -0.902998,-0.50036 c -0.01242,-0.007 -0.02769,-0.007 -0.03986,9.9e-4 l -0.762146,0.4659 c -0.0012,7.5e-4 -0.0022,0.002 -0.0033,0.003 -0.0014,9.9e-4 -0.0028,0.002 -0.0039,0.003 -0.0013,10e-4 -0.0023,0.003 -0.0034,0.004 -9.67e-4,0.001 -0.002,0.002 -0.0028,0.004 -9.66e-4,0.002 -0.0016,0.003 -0.0023,0.005 -5.69e-4,0.001 -0.0013,0.003 -0.0017,0.004 -5.45e-4,0.002 -6.69e-4,0.004 -9.42e-4,0.006 -1.51e-4,0.001 -5.69e-4,0.003 -5.94e-4,0.004 l -0.0081,0.40461 -0.310041,-0.20477 c -0.01285,-0.009 -0.02938,-0.009 -0.04257,-7.4e-4 l -0.446019,0.27269 -0.01935,-0.45346 c -6.4e-5,-9.9e-4 -3.72e-4,-0.002 -4.71e-4,-0.003 -2.48e-4,-0.002 -5.2e-4,-0.004 -0.001,-0.006 -3.72e-4,-0.001 -9.42e-4,-0.003 -0.0015,-0.004 -6.69e-4,-0.002 -0.0014,-0.003 -0.0022,-0.005 -8.18e-4,-10e-4 -0.0017,-0.003 -0.0027,-0.004 -0.001,-0.001 -0.002,-0.003 -0.0032,-0.004 -0.0012,-0.001 -0.0025,-0.002 -0.0039,-0.003 -8.67e-4,-7.4e-4 -0.0016,-0.001 -0.0025,-0.002 l -0.464192,-0.31181 0.434501,-0.2261 c 0.01363,-0.007 0.02189,-0.0215 0.02127,-0.0369 l -0.07296,-1.7069 c -1.04e-4,-0.002 -5.94e-4,-0.004 -0.001,-0.006 -1.67e-4,-7.4e-4 -1.67e-4,-0.002 -4.21e-4,-0.003 -8.92e-4,-0.003 -0.0023,-0.007 -0.0041,-0.01 -3.22e-4,-4.9e-4 -7.68e-4,-9.9e-4 -0.0011,-0.001 -0.0016,-0.002 -0.0034,-0.005 -0.0055,-0.007 -7.68e-4,-7.4e-4 -0.0016,-0.001 -0.0024,-0.002 -0.0011,-0.001 -0.0021,-0.002 -0.0034,-0.003 -9.67e-4,-7.5e-4 -0.0021,-9.9e-4 -0.0031,-0.001 -4.96e-4,-2.5e-4 -8.92e-4,-7.4e-4 -0.0014,-9.9e-4 l -1.170717,-0.5649 c -0.0091,-0.004 -0.01942,-0.005 -0.02903,-0.002 l -1.596737,0.49738 c -1.19e-4,2e-5 -2.07e-4,8e-5 -3.22e-4,1.6e-4 -6.44e-4,1.6e-4 -0.0012,7.4e-4 -0.0018,9.9e-4 -0.003,0.001 -0.0059,0.002 -0.0084,0.004 -7.7e-5,5e-5 -1.67e-4,5e-5 -2.39e-4,8e-5 -8.92e-4,7.4e-4 -0.0015,0.001 -0.0023,0.002 -0.002,0.002 -0.0041,0.003 -0.0057,0.005 -0.0012,0.001 -0.002,0.003 -0.0029,0.005 -9.66e-4,0.001 -0.0021,0.003 -0.0028,0.005 -8.67e-4,0.002 -0.0013,0.004 -0.0018,0.006 -3.22e-4,0.001 -8.92e-4,0.003 -0.0011,0.004 -2.2e-5,1.6e-4 3.3e-5,5e-4 1.1e-5,5e-4 -2.32e-4,0.002 0,0.004 8.7e-5,0.006 6.7e-5,0.002 -2.1e-5,0.004 3.23e-4,0.005 5.5e-5,2.4e-4 -1.1e-5,4.9e-4 4.4e-5,9.9e-4 l 0.356287,1.72081 c 0.002,0.009 0.007,0.0174 0.01446,0.0232 l 0.483548,0.37689 -0.349595,0.16646 c -6.2e-4,2.4e-4 -0.0011,7.4e-4 -0.0017,9.9e-4 -5.21e-4,2.4e-4 -0.0011,4.9e-4 -0.0016,7.4e-4 -7.68e-4,5e-4 -0.0013,0.001 -0.002,0.002 -0.002,0.001 -0.0038,0.003 -0.0055,0.005 -9.67e-4,9.9e-4 -0.0019,0.002 -0.0028,0.003 -0.0017,0.002 -0.0031,0.004 -0.0043,0.007 -4.46e-4,9.9e-4 -0.001,0.002 -0.0014,0.003 -0.0014,0.003 -0.0024,0.007 -0.0029,0.0104 -2.3e-5,1.6e-4 2e-5,2.5e-4 0,4.9e-4 -6.7e-5,5e-4 4.2e-5,0.001 0,0.002 -2.23e-4,0.003 -7.8e-5,0.006 4.71e-4,0.01 7.6e-5,5e-4 -2.3e-5,7.5e-4 6.6e-5,0.001 l 0.268034,1.2951 c 0.0017,0.008 0.0057,0.0152 0.01163,0.0208 l 0.336592,0.31703 -0.223029,0.13643 c -0.0029,0.002 -0.0055,0.004 -0.0078,0.006 -5.94e-4,7.4e-4 -0.0011,0.001 -0.0016,0.002 -0.0019,0.002 -0.0036,0.005 -0.005,0.007 -4.46e-4,0.001 -8.92e-4,0.002 -0.0013,0.003 -0.0015,0.003 -0.0027,0.007 -0.0031,0.0109 -4.22e-4,0.004 -1.12e-4,0.008 5.45e-4,0.0113 6.5e-5,4.9e-4 -3.4e-5,7.4e-4 5.7e-5,0.001 l 0.207665,1.00303 c 0.0015,0.007 0.0049,0.0138 0.01,0.0191 l 0.839905,0.89166 c 0.0013,0.001 0.0027,0.002 0.0041,0.004 5.21e-4,5e-4 9.42e-4,9.9e-4 0.0015,0.001 0.0026,0.002 0.0054,0.003 0.0084,0.005 1.36e-4,6e-5 2.39e-4,1.5e-4 3.71e-4,1.5e-4 2.4e-4,9e-5 5.21e-4,7e-5 7.69e-4,1.7e-4 0.0044,0.002 0.0091,0.003 0.01377,0.003 0.0039,0 0.0078,-7.4e-4 0.01162,-0.002 8.68e-4,-2.5e-4 0.0017,-5e-4 0.0026,-9.9e-4 0.001,-5e-4 0.0021,-5e-4 0.003,-9.9e-4 0.0016,-7.5e-4 0.0028,-0.002 0.0043,-0.003 0.001,-7.4e-4 0.0022,-9.9e-4 0.0032,-0.002 l 1.080406,-0.86072 c 0.0099,-0.008 0.01544,-0.0201 0.01493,-0.0327 l -0.02527,-0.59102 0.360946,0.30379 c 6.44e-4,5e-4 0.0015,7.4e-4 0.0021,0.001 0.002,0.001 0.004,0.003 0.0063,0.004 7.68e-4,2.5e-4 0.0016,5e-4 0.0023,7.5e-4 9.91e-4,4.9e-4 0.0019,7.4e-4 0.0029,9.9e-4 0.0039,0.001 0.0078,0.002 0.01178,0.002 0.0039,0 0.0077,-7.4e-4 0.01152,-0.002 8.92e-4,-2.5e-4 0.0018,-5e-4 0.0026,-9.9e-4 9.42e-4,-5e-4 0.0019,-5e-4 0.0027,-0.001 0.002,-9.9e-4 0.0036,-0.002 0.0054,-0.004 7.93e-4,-5e-4 0.0017,-7.5e-4 0.0024,-0.001 l 0.866066,-0.69068 c 0.0088,-0.007 0.01417,-0.0174 0.01485,-0.0287 l 0.02637,-0.4334 0.263505,0.18342 c 5.45e-4,4.9e-4 0.0012,4.9e-4 0.0017,7.4e-4 7.69e-4,4.9e-4 0.0014,0.001 0.0021,0.001 0.0015,7.4e-4 0.0032,0.001 0.0048,0.002 0.0011,5e-4 0.0021,9.9e-4 0.0033,0.001 0.0035,9.9e-4 0.007,0.001 0.01062,0.001 0.0039,0 0.0078,-7.5e-4 0.01158,-0.002 8.93e-4,-2.4e-4 0.0017,-4.9e-4 0.0026,-9.9e-4 8.93e-4,-2.5e-4 0.0018,-4.9e-4 0.0027,-9.9e-4 0.0021,-9.9e-4 0.004,-0.002 0.0059,-0.004 6.2e-4,-5e-4 0.0014,-5e-4 0.0019,-0.001 l 0.706538,-0.56306 c 0.008,-0.006 0.01318,-0.0157 0.01456,-0.0258 l 0.12533,-0.92733 c 1.51e-4,-9.9e-4 -8.8e-5,-0.002 -2.2e-5,-0.003 8.8e-5,-0.001 3.97e-4,-0.003 3.22e-4,-0.005"
         inkscape:connector-curvature="0" />
    </g>
    <g
       transform="translate(0,0.16443338)"
       id="g1010">
      <g
         style="stroke-width:4.03535938"
         transform="matrix(0.2478094,0,0,0.2478094,17.004933,136.39401)"
         id="g937">
        <g
           style="stroke-width:4.03535938"
           id="g935">
          <path
             id="path923"
             style="fill:#231f20;fill-opacity:1;fill-rule:nonzero;stroke:none;stroke-width:0.0458728"
             d="m 65.379425,209.03316 1.762222,-0.42299 v 8.48736 c 0,0.93047 0.277371,1.4854 0.831888,1.66341 -0.272484,0.51751 -0.737764,0.77585 -1.395727,0.77585 -0.799036,0 -1.198383,-0.55426 -1.198383,-1.66377 v -8.83986"
             inkscape:connector-curvature="0" />
          <path
             id="path925"
             style="fill:#231f20;fill-opacity:1;fill-rule:nonzero;stroke:none;stroke-width:0.0458728"
             d="m 70.715881,208.92051 c 0.282033,0 0.522461,0.0999 0.722305,0.29942 0.19973,0.19985 0.299768,0.44062 0.299768,0.72265 0,0.28192 -0.100038,0.5228 -0.299768,0.72253 -0.199844,0.19973 -0.440272,0.29954 -0.722305,0.29954 -0.281919,0 -0.5228,-0.0998 -0.72253,-0.29954 -0.199958,-0.19973 -0.299767,-0.44061 -0.299767,-0.72253 0,-0.28203 0.09981,-0.5228 0.299767,-0.72265 0.19973,-0.1995 0.440611,-0.29942 0.72253,-0.29942 z m -0.909302,10.47521 v -6.10478 h -0.965801 v -1.44506 h 2.749396 v 7.54984 h -1.783595"
             inkscape:connector-curvature="0" />
          <path
             id="path927"
             style="fill:#231f20;fill-opacity:1;fill-rule:nonzero;stroke:none;stroke-width:0.0458728"
             d="m 78.498216,219.39572 v -4.36359 c 0,-0.64375 -0.123454,-1.11392 -0.369906,-1.40982 -0.247021,-0.29613 -0.649891,-0.44414 -1.208842,-0.44414 -0.258728,0 -0.534738,0.073 -0.828477,0.21849 -0.293742,0.14573 -0.523028,0.32682 -0.687406,0.54281 v 5.45625 h -1.762222 v -7.54984 h 1.268862 l 0.324209,0.70502 c 0.479601,-0.56407 1.186561,-0.84598 2.121897,-0.84598 0.897593,0 1.605915,0.26907 2.125418,0.80688 0.519278,0.5386 0.778802,1.28921 0.778802,2.25228 v 4.63164 h -1.762335"
             inkscape:connector-curvature="0" />
          <path
             id="path929"
             style="fill:#231f20;fill-opacity:1;fill-rule:nonzero;stroke:none;stroke-width:0.0458728"
             d="m 83.503533,215.60302 c 0,1.66388 0.599192,2.49567 1.797574,2.49567 0.549516,0 0.985467,-0.21621 1.307743,-0.64853 0.321819,-0.43234 0.482672,-1.04788 0.482672,-1.84714 0,-1.63991 -0.596917,-2.45998 -1.790415,-2.45998 -0.54997,0 -0.986945,0.21611 -1.311152,0.64853 -0.324319,0.4322 -0.486422,1.03617 -0.486422,1.81145 z m -1.833046,0 c 0,-1.15132 0.332394,-2.0887 0.997518,-2.81249 0.665124,-0.72378 1.542713,-1.08561 2.633102,-1.08561 1.146436,0 2.03732,0.34773 2.671639,1.04333 0.634434,0.69547 0.951931,1.64718 0.951931,2.85477 0,1.20317 -0.323181,2.15987 -0.969777,2.86907 -0.646028,0.70973 -1.530664,1.0647 -2.653793,1.0647 -1.146773,0 -2.038344,-0.35853 -2.675276,-1.07491 -0.636706,-0.71674 -0.955344,-1.6699 -0.955344,-2.85886"
             inkscape:connector-curvature="0" />
          <path
             id="path931"
             style="fill:#231f20;fill-opacity:1;fill-rule:nonzero;stroke:none;stroke-width:0.0458728"
             d="m 95.191016,213.6505 c -0.375702,-0.30068 -0.768003,-0.45107 -1.177012,-0.45107 -0.704913,0 -1.247949,0.21485 -1.628086,0.64489 -0.380816,0.43015 -0.571453,1.04662 -0.571453,1.85055 0,1.5694 0.75686,2.35449 2.270244,2.35449 0.16904,0 0.37684,-0.0505 0.623861,-0.15165 0.246564,-0.10097 0.407304,-0.20337 0.482446,-0.30671 z m 0,5.74522 v -0.45809 c -0.145733,0.15982 -0.391959,0.29987 -0.739924,0.41946 -0.347626,0.11993 -0.707414,0.1797 -1.078457,0.1797 -1.052991,0 -1.881468,-0.33374 -2.485206,-1.00089 -0.603625,-0.66732 -0.905781,-1.59831 -0.905781,-2.79181 0,-1.19361 0.346601,-2.16532 1.040146,-2.91479 0.692975,-0.74959 1.561129,-1.12438 2.604343,-1.12438 0.573728,0 1.095052,0.11742 1.564879,0.35239 v -3.02415 l 1.762448,-0.42299 v 10.78555 h -1.762448"
             inkscape:connector-curvature="0" />
          <path
             id="path933"
             style="fill:#231f20;fill-opacity:1;fill-rule:nonzero;stroke:none;stroke-width:0.0458728"
             d="m 100.12596,214.8349 h 3.70792 c -0.12231,-1.10448 -0.73287,-1.65673 -1.8327,-1.65673 -1.00592,0 -1.63081,0.55225 -1.87522,1.65673 z m 5.32941,1.32525 h -5.39295 c 0.033,0.60145 0.23963,1.06927 0.62034,1.4028 0.38082,0.3336 0.89304,0.50048 1.53714,0.50048 0.80324,0 1.41437,-0.20915 1.83247,-0.62727 l 0.68411,1.34605 c -0.62068,0.50347 -1.54657,0.75458 -2.77781,0.75458 -1.15155,0 -2.062105,-0.33726 -2.731437,-1.01194 -0.670012,-0.67407 -1.005017,-1.61524 -1.005017,-2.82305 0,-1.18872 0.368085,-2.15224 1.103575,-2.89012 0.735489,-0.73788 1.617739,-1.10676 2.647199,-1.10676 1.09471,0 1.97378,0.32671 2.63617,0.97978 0.66297,0.65341 0.99388,1.48508 0.99388,2.49555 0,0.21633 -0.0492,0.54281 -0.14767,0.9799"
             inkscape:connector-curvature="0" />
        </g>
      </g>
      <text
         id="text947"
         y="187.35751"
         x="32.192436"
         style="font-size:1.77847993px;line-height:0%;font-family:'DejaVu Sans';-inkscape-font-specification:'DejaVu Sans';letter-spacing:0px;word-spacing:0px;fill:#000000;stroke:none;stroke-width:0.08971007px;stroke-linecap:butt;stroke-linejoin:miter;stroke-opacity:1"
         xml:space="preserve"><tspan
           style="font-weight:bold;fill:#000000;stroke:none;stroke-width:0.08971007px"
           y="187.35751"
           x="32.192436"
           id="tspan945">Powered By</tspan></text>
    </g>
  </g>
  <rect
     ry="0.72760415"
     rx="0.72760415"
     style="opacity:1;fill:#dee3db;fill-opacity:1;stroke:#4d4d4d;stroke-width:0.13229167;stroke-linecap:square;stroke-linejoin:miter;stroke-miterlimit:4;stroke-dasharray:none;stroke-dashoffset:0;stroke-opacity:1"
     id="rect837"
     width="22.283333"
     height="7.2020836"
     x="0.10000013"
     y="0.099999443" />
  <path
     d="M 2.826503,3.36591 2.575557,1.65271 1.545549,1.01226 1.880059,2.62827 Z M 3.113057,5.32507 2.936269,4.11696 2.032663,3.36411 2.275245,4.53579 Z M 2.41131,5.19199 2.590138,6.05609 3.33612,6.84789 3.208441,5.976 Z m 2.415724,-0.3746 -0.3812,-0.29095 0.0029,0.0682 c 6.44e-4,0.0137 -0.0059,0.0268 -0.01744,0.0345 L 4.14381,4.82285 4.456449,5.07804 c 2.24e-4,1.6e-4 3.97e-4,5e-4 6.2e-4,7.4e-4 8.18e-4,7.5e-4 0.0015,0.001 0.0022,0.002 0.0016,0.001 0.0031,0.003 0.0044,0.005 6.94e-4,9.9e-4 0.0013,0.002 0.0019,0.003 10e-4,0.002 0.002,0.004 0.0027,0.006 4.46e-4,0.001 8.17e-4,0.002 0.0012,0.004 5.7e-4,0.002 9.42e-4,0.004 0.0012,0.006 8.8e-5,7.4e-4 3.72e-4,0.001 4.21e-4,0.002 l 0.01276,0.2987 0.350692,0.29519 z M 6.13388,3.88241 6.05931,4.74409 5.812398,4.57227 5.839098,4.13282 c 2.2e-5,-5e-4 -1.03e-4,-9.9e-4 -1.03e-4,-10e-4 0,-4.9e-4 1.91e-4,-0.001 1.67e-4,-0.002 -2.1e-5,-0.002 -4.71e-4,-0.003 -7.43e-4,-0.005 -1.92e-4,-10e-4 -2.24e-4,-0.002 -5.45e-4,-0.004 -7.69e-4,-0.003 -0.0019,-0.006 -0.0034,-0.009 -1.04e-4,-2.4e-4 -1.68e-4,-5e-4 -3.22e-4,-7.4e-4 -0.0017,-0.003 -0.0038,-0.006 -0.0063,-0.008 -4.96e-4,-5e-4 -0.0011,-9.9e-4 -0.0016,-0.001 -0.0016,-0.001 -0.0031,-0.003 -0.005,-0.004 L 5.290046,3.74724 5.297746,3.36227 6.133755,3.88319"
     style="fill:#123d10;fill-opacity:1;fill-rule:nonzero;stroke:none;stroke-width:0.01136771"
     id="path839"
     inkscape:connector-curvature="0" />
  <path
     d="M 4.287742,2.6807 4.218162,1.05412 2.655947,1.65443 2.911229,3.39701 Z M 4.368592,4.57583 4.317492,3.3767 3.016446,4.11724 3.198891,5.36384 Z M 4.394902,5.1836 3.288428,5.97524 3.422842,6.89269 4.433523,6.08752 Z m 0.511487,-0.36563 0.0074,0.88695 0.78857,-0.62896 0.05257,-0.86494 z M 6.873152,3.41104 6.762274,4.23155 6.140359,4.7273 6.213379,3.88326 6.873155,3.41104"
     style="fill:#33b652;fill-opacity:1;fill-rule:nonzero;stroke:none;stroke-width:0.01136771"
     id="path841"
     inkscape:connector-curvature="0" />
  <path
     d="m 4.47099,5.10706 c -6.4e-5,-7.5e-4 -3.47e-4,-10e-4 -4.22e-4,-0.002 -2.23e-4,-0.002 -5.94e-4,-0.004 -0.0012,-0.006 -3.47e-4,-10e-4 -6.94e-4,-0.002 -0.0012,-0.004 -7.43e-4,-0.002 -0.0017,-0.004 -0.0027,-0.006 -6.19e-4,-9.9e-4 -0.0012,-0.002 -0.0019,-0.003 -0.0013,-0.002 -0.0028,-0.003 -0.0044,-0.005 -7.69e-4,-7.4e-4 -0.0014,-0.001 -0.0022,-0.002 -2.23e-4,-1.6e-4 -3.96e-4,-5e-4 -6.19e-4,-7.4e-4 L 4.14371,4.82312 4.431193,4.62942 c 0.01149,-0.008 0.01808,-0.0208 0.01744,-0.0345 l -0.0029,-0.0682 0.3812,0.29094 0.0074,0.88356 L 4.483642,5.40603 Z M 2.936269,4.11696 3.113057,5.32507 2.275245,4.53579 2.032663,3.36411 Z M 4.368591,4.57583 3.198889,5.36384 3.016444,4.11724 4.31749,3.3767 Z M 4.218167,1.05412 4.287747,2.6807 2.911239,3.39701 2.655957,1.65443 Z M 2.575557,1.65271 2.826503,3.36591 1.880059,2.62827 1.545549,1.01226 Z M 2.590137,6.05609 2.41131,5.19199 3.20844,5.976 3.33612,6.84789 Z M 4.433523,6.08749 3.422841,6.89266 3.288427,5.97521 4.394901,5.18357 Z M 5.702339,5.07593 4.913769,5.70489 4.906369,4.81794 5.754885,4.21099 Z M 5.8124,4.57224 5.83911,4.13279 c 2.1e-5,-5e-4 -1.04e-4,-9.9e-4 -1.04e-4,-0.001 0,-4.9e-4 1.91e-4,-10e-4 1.67e-4,-0.002 -2.1e-5,-0.002 -4.7e-4,-0.003 -7.43e-4,-0.005 -1.92e-4,-0.001 -2.24e-4,-0.002 -5.45e-4,-0.004 -7.68e-4,-0.003 -0.0019,-0.006 -0.0034,-0.009 -1.04e-4,-2.4e-4 -1.68e-4,-5e-4 -3.22e-4,-7.4e-4 -0.0017,-0.003 -0.0038,-0.006 -0.0063,-0.008 -4.96e-4,-5e-4 -0.0011,-9.9e-4 -0.0016,-10e-4 -0.0016,-0.001 -0.0031,-0.003 -0.005,-0.004 L 5.290056,3.74721 5.297756,3.36224 6.133765,3.88316 6.059195,4.74484 Z M 6.140358,4.72727 6.213378,3.88323 6.873154,3.41101 6.762276,4.23152 Z M 6.964282,3.32301 c -2.1e-5,-7.5e-4 -3.22e-4,-10e-4 -3.97e-4,-0.002 -1.67e-4,-10e-4 -4.7e-4,-0.003 -7.93e-4,-0.004 -4.95e-4,-0.002 -0.0012,-0.004 -0.002,-0.006 -5.2e-4,-10e-4 -10e-4,-0.002 -0.0017,-0.004 -0.0011,-0.002 -0.0024,-0.004 -0.0039,-0.006 -7.93e-4,-9.9e-4 -0.0015,-0.002 -0.0024,-0.003 -0.0018,-0.002 -0.0039,-0.003 -0.0061,-0.005 -6.94e-4,-5e-4 -0.0012,-0.001 -0.0019,-0.001 -1.68e-4,-8e-5 -3.72e-4,-8e-5 -5.7e-4,-2.4e-4 -2.24e-4,-1.6e-4 -3.97e-4,-4.9e-4 -6.44e-4,-4.9e-4 L 6.04088,2.79092 c -0.01242,-0.007 -0.02769,-0.007 -0.03986,9.9e-4 l -0.762146,0.4659 c -0.0012,7.5e-4 -0.0022,0.002 -0.0033,0.003 -0.0014,9.9e-4 -0.0028,0.002 -0.0039,0.003 -0.0013,0.001 -0.0023,0.003 -0.0034,0.004 -9.67e-4,0.001 -0.002,0.002 -0.0028,0.004 -9.66e-4,0.002 -0.0016,0.003 -0.0023,0.005 -5.69e-4,0.001 -0.0013,0.003 -0.0017,0.004 -5.45e-4,0.002 -6.69e-4,0.004 -9.42e-4,0.006 -1.51e-4,10e-4 -5.69e-4,0.003 -5.94e-4,0.004 L 5.211838,3.69542 4.901797,3.49065 c -0.01285,-0.009 -0.02938,-0.009 -0.04257,-7.4e-4 L 4.413208,3.7626 4.393858,3.30914 c -6.4e-5,-9.9e-4 -3.72e-4,-0.002 -4.71e-4,-0.003 -2.48e-4,-0.002 -5.2e-4,-0.004 -10e-4,-0.006 -3.72e-4,-10e-4 -9.42e-4,-0.003 -0.0015,-0.004 -6.69e-4,-0.002 -0.0014,-0.003 -0.0022,-0.005 -8.18e-4,-10e-4 -0.0017,-0.003 -0.0027,-0.004 -0.001,-10e-4 -0.002,-0.003 -0.0032,-0.004 -0.0012,-10e-4 -0.0025,-0.002 -0.0039,-0.003 -8.67e-4,-7.4e-4 -0.0016,-10e-4 -0.0025,-0.002 L 3.912195,2.96633 4.346696,2.74023 c 0.01363,-0.007 0.02189,-0.0215 0.02127,-0.0369 l -0.07296,-1.7069 c -1.04e-4,-0.002 -5.94e-4,-0.004 -10e-4,-0.006 -1.67e-4,-7.4e-4 -1.67e-4,-0.002 -4.21e-4,-0.003 -8.92e-4,-0.003 -0.0023,-0.007 -0.0041,-0.01 -3.22e-4,-4.9e-4 -7.68e-4,-9.9e-4 -0.0011,-0.001 -0.0016,-0.002 -0.0034,-0.005 -0.0055,-0.007 -7.68e-4,-7.4e-4 -0.0016,-0.001 -0.0024,-0.002 -0.0011,-0.001 -0.0021,-0.002 -0.0034,-0.003 -9.67e-4,-7.5e-4 -0.0021,-9.9e-4 -0.0031,-0.001 -4.96e-4,-2.5e-4 -8.92e-4,-7.4e-4 -0.0014,-9.9e-4 L 3.101868,0.39754 c -0.0091,-0.004 -0.01942,-0.005 -0.02903,-0.002 L 1.476101,0.89292 c -1.19e-4,2e-5 -2.07e-4,8e-5 -3.22e-4,1.6e-4 -6.44e-4,1.6e-4 -0.0012,7.4e-4 -0.0018,9.9e-4 -0.003,0.001 -0.0059,0.002 -0.0084,0.004 -7.7e-5,5e-5 -1.67e-4,5e-5 -2.39e-4,8e-5 -8.92e-4,7.4e-4 -0.0015,0.001 -0.0023,0.002 -0.002,0.002 -0.0041,0.003 -0.0057,0.005 -0.0012,0.001 -0.002,0.003 -0.0029,0.005 -9.66e-4,0.001 -0.0021,0.003 -0.0028,0.005 -8.67e-4,0.002 -0.0013,0.004 -0.0018,0.006 -3.22e-4,0.001 -8.92e-4,0.003 -0.0011,0.004 -2.2e-5,1.6e-4 3.3e-5,5e-4 1.1e-5,5e-4 -2.32e-4,0.002 0,0.004 8.7e-5,0.006 6.7e-5,0.002 -2.1e-5,0.004 3.23e-4,0.005 5.5e-5,2.4e-4 -1.1e-5,4.9e-4 4.4e-5,9.9e-4 l 0.356287,1.72081 c 0.002,0.009 0.007,0.0174 0.01446,0.0232 L 2.3035,3.05854 1.953905,3.225 c -6.2e-4,2.4e-4 -0.0011,7.4e-4 -0.0017,9.9e-4 -5.21e-4,2.4e-4 -0.0011,4.9e-4 -0.0016,7.4e-4 -7.68e-4,5e-4 -0.0013,0.001 -0.002,0.002 -0.002,10e-4 -0.0038,0.003 -0.0055,0.005 -9.67e-4,9.9e-4 -0.0019,0.002 -0.0028,0.003 -0.0017,0.002 -0.0031,0.004 -0.0043,0.007 -4.46e-4,9.9e-4 -10e-4,0.002 -0.0014,0.003 -0.0014,0.003 -0.0024,0.007 -0.0029,0.0104 -2.3e-5,1.6e-4 2e-5,2.5e-4 0,4.9e-4 -6.7e-5,5e-4 4.2e-5,10e-4 0,0.002 -2.23e-4,0.003 -7.8e-5,0.006 4.71e-4,0.01 7.6e-5,5e-4 -2.3e-5,7.5e-4 6.6e-5,10e-4 l 0.268034,1.2951 c 0.0017,0.008 0.0057,0.0152 0.01163,0.0208 L 2.548498,4.90355 2.325469,5.03998 c -0.0029,0.002 -0.0055,0.004 -0.0078,0.006 -5.94e-4,7.4e-4 -0.0011,10e-4 -0.0016,0.002 -0.0019,0.002 -0.0036,0.005 -0.005,0.007 -4.46e-4,0.001 -8.92e-4,0.002 -0.0013,0.003 -0.0015,0.003 -0.0027,0.007 -0.0031,0.0109 -4.22e-4,0.004 -1.12e-4,0.008 5.45e-4,0.0113 6.5e-5,4.9e-4 -3.4e-5,7.4e-4 5.7e-5,10e-4 l 0.207665,1.00303 c 0.0015,0.007 0.0049,0.0138 0.01,0.0191 l 0.839905,0.89166 c 0.0013,10e-4 0.0027,0.002 0.0041,0.004 5.21e-4,5e-4 9.42e-4,9.9e-4 0.0015,0.001 0.0026,0.002 0.0054,0.003 0.0084,0.005 1.36e-4,6e-5 2.39e-4,1.5e-4 3.71e-4,1.5e-4 2.4e-4,9e-5 5.21e-4,7e-5 7.69e-4,1.7e-4 0.0044,0.002 0.0091,0.003 0.01377,0.003 0.0039,0 0.0078,-7.4e-4 0.01162,-0.002 8.68e-4,-2.5e-4 0.0017,-5e-4 0.0026,-9.9e-4 0.001,-5e-4 0.0021,-5e-4 0.003,-9.9e-4 0.0016,-7.5e-4 0.0028,-0.002 0.0043,-0.003 10e-4,-7.4e-4 0.0022,-9.9e-4 0.0032,-0.002 L 4.498877,6.13859 c 0.0099,-0.008 0.01544,-0.0201 0.01493,-0.0327 L 4.488537,5.51487 4.849483,5.81866 c 6.44e-4,5e-4 0.0015,7.4e-4 0.0021,10e-4 0.002,0.001 0.004,0.003 0.0063,0.004 7.68e-4,2.5e-4 0.0016,5e-4 0.0023,7.5e-4 9.91e-4,4.9e-4 0.0019,7.4e-4 0.0029,9.9e-4 0.0039,10e-4 0.0078,0.002 0.01178,0.002 0.0039,0 0.0077,-7.4e-4 0.01152,-0.002 8.92e-4,-2.5e-4 0.0018,-5e-4 0.0026,-9.9e-4 9.42e-4,-5e-4 0.0019,-5e-4 0.0027,-0.001 0.002,-9.9e-4 0.0036,-0.002 0.0054,-0.004 7.93e-4,-5e-4 0.0017,-7.5e-4 0.0024,-0.001 L 5.765549,5.12773 c 0.0088,-0.007 0.01417,-0.0174 0.01485,-0.0287 l 0.02637,-0.4334 0.263505,0.18342 c 5.45e-4,4.9e-4 0.0012,4.9e-4 0.0017,7.4e-4 7.69e-4,4.9e-4 0.0014,0.001 0.0021,0.001 0.0015,7.4e-4 0.0032,0.001 0.0048,0.002 0.0011,5e-4 0.0021,9.9e-4 0.0033,0.001 0.0035,9.9e-4 0.007,0.001 0.01062,0.001 0.0039,0 0.0078,-7.5e-4 0.01158,-0.002 8.93e-4,-2.4e-4 0.0017,-4.9e-4 0.0026,-9.9e-4 8.93e-4,-2.5e-4 0.0018,-4.9e-4 0.0027,-9.9e-4 0.0021,-9.9e-4 0.004,-0.002 0.0059,-0.004 6.2e-4,-5e-4 0.0014,-5e-4 0.0019,-10e-4 L 6.824012,4.28275 c 0.008,-0.006 0.01318,-0.0157 0.01456,-0.0258 l 0.12533,-0.92733 c 1.51e-4,-9.9e-4 -8.8e-5,-0.002 -2.2e-5,-0.003 8.8e-5,-0.001 3.97e-4,-0.003 3.22e-4,-0.005"
     style="fill:#231f20;fill-opacity:1;fill-rule:nonzero;stroke:none;stroke-width:0.01136771"
     id="path843"
     inkscape:connector-curvature="0" />
  <g
     id="g861"
     transform="matrix(0.2478094,0,0,0.2478094,-6.319389,-48.30674)"
     style="stroke-width:4.03535938">
    <g
       id="g859"
       style="stroke-width:4.03535938">
      <path
         d="m 65.379425,209.03316 1.762222,-0.42299 v 8.48736 c 0,0.93047 0.277371,1.4854 0.831888,1.66341 -0.272484,0.51751 -0.737764,0.77585 -1.395727,0.77585 -0.799036,0 -1.198383,-0.55426 -1.198383,-1.66377 v -8.83986"
         style="fill:#231f20;fill-opacity:1;fill-rule:nonzero;stroke:none;stroke-width:0.0458728"
         id="path847"
         inkscape:connector-curvature="0" />
      <path
         d="m 70.715881,208.92051 c 0.282033,0 0.522461,0.0999 0.722305,0.29942 0.19973,0.19985 0.299768,0.44062 0.299768,0.72265 0,0.28192 -0.100038,0.5228 -0.299768,0.72253 -0.199844,0.19973 -0.440272,0.29954 -0.722305,0.29954 -0.281919,0 -0.5228,-0.0998 -0.72253,-0.29954 -0.199958,-0.19973 -0.299767,-0.44061 -0.299767,-0.72253 0,-0.28203 0.09981,-0.5228 0.299767,-0.72265 0.19973,-0.1995 0.440611,-0.29942 0.72253,-0.29942 z m -0.909302,10.47521 v -6.10478 h -0.965801 v -1.44506 h 2.749396 v 7.54984 h -1.783595"
         style="fill:#231f20;fill-opacity:1;fill-rule:nonzero;stroke:none;stroke-width:0.0458728"
         id="path849"
         inkscape:connector-curvature="0" />
      <path
         d="m 78.498216,219.39572 v -4.36359 c 0,-0.64375 -0.123454,-1.11392 -0.369906,-1.40982 -0.247021,-0.29613 -0.649891,-0.44414 -1.208842,-0.44414 -0.258728,0 -0.534738,0.073 -0.828477,0.21849 -0.293742,0.14573 -0.523028,0.32682 -0.687406,0.54281 v 5.45625 h -1.762222 v -7.54984 h 1.268862 l 0.324209,0.70502 c 0.479601,-0.56407 1.186561,-0.84598 2.121897,-0.84598 0.897593,0 1.605915,0.26907 2.125418,0.80688 0.519278,0.5386 0.778802,1.28921 0.778802,2.25228 v 4.63164 h -1.762335"
         style="fill:#231f20;fill-opacity:1;fill-rule:nonzero;stroke:none;stroke-width:0.0458728"
         id="path851"
         inkscape:connector-curvature="0" />
      <path
         d="m 83.503533,215.60302 c 0,1.66388 0.599192,2.49567 1.797574,2.49567 0.549516,0 0.985467,-0.21621 1.307743,-0.64853 0.321819,-0.43234 0.482672,-1.04788 0.482672,-1.84714 0,-1.63991 -0.596917,-2.45998 -1.790415,-2.45998 -0.54997,0 -0.986945,0.21611 -1.311152,0.64853 -0.324319,0.4322 -0.486422,1.03617 -0.486422,1.81145 z m -1.833046,0 c 0,-1.15132 0.332394,-2.0887 0.997518,-2.81249 0.665124,-0.72378 1.542713,-1.08561 2.633102,-1.08561 1.146436,0 2.03732,0.34773 2.671639,1.04333 0.634434,0.69547 0.951931,1.64718 0.951931,2.85477 0,1.20317 -0.323181,2.15987 -0.969777,2.86907 -0.646028,0.70973 -1.530664,1.0647 -2.653793,1.0647 -1.146773,0 -2.038344,-0.35853 -2.675276,-1.07491 -0.636706,-0.71674 -0.955344,-1.6699 -0.955344,-2.85886"
         style="fill:#231f20;fill-opacity:1;fill-rule:nonzero;stroke:none;stroke-width:0.0458728"
         id="path853"
         inkscape:connector-curvature="0" />
      <path
         d="m 95.191016,213.6505 c -0.375702,-0.30068 -0.768003,-0.45107 -1.177012,-0.45107 -0.704913,0 -1.247949,0.21485 -1.628086,0.64489 -0.380816,0.43015 -0.571453,1.04662 -0.571453,1.85055 0,1.5694 0.75686,2.35449 2.270244,2.35449 0.16904,0 0.37684,-0.0505 0.623861,-0.15165 0.246564,-0.10097 0.407304,-0.20337 0.482446,-0.30671 z m 0,5.74522 v -0.45809 c -0.145733,0.15982 -0.391959,0.29987 -0.739924,0.41946 -0.347626,0.11993 -0.707414,0.1797 -1.078457,0.1797 -1.052991,0 -1.881468,-0.33374 -2.485206,-1.00089 -0.603625,-0.66732 -0.905781,-1.59831 -0.905781,-2.79181 0,-1.19361 0.346601,-2.16532 1.040146,-2.91479 0.692975,-0.74959 1.561129,-1.12438 2.604343,-1.12438 0.573728,0 1.095052,0.11742 1.564879,0.35239 v -3.02415 l 1.762448,-0.42299 v 10.78555 h -1.762448"
         style="fill:#231f20;fill-opacity:1;fill-rule:nonzero;stroke:none;stroke-width:0.0458728"
         id="path855"
         inkscape:connector-curvature="0" />
      <path
         d="m 100.12596,214.8349 h 3.70792 c -0.12231,-1.10448 -0.73287,-1.65673 -1.8327,-1.65673 -1.00592,0 -1.63081,0.55225 -1.87522,1.65673 z m 5.32941,1.32525 h -5.39295 c 0.033,0.60145 0.23963,1.06927 0.62034,1.4028 0.38082,0.3336 0.89304,0.50048 1.53714,0.50048 0.80324,0 1.41437,-0.20915 1.83247,-0.62727 l 0.68411,1.34605 c -0.62068,0.50347 -1.54657,0.75458 -2.77781,0.75458 -1.15155,0 -2.062105,-0.33726 -2.731437,-1.01194 -0.670012,-0.67407 -1.005017,-1.61524 -1.005017,-2.82305 0,-1.18872 0.368085,-2.15224 1.103575,-2.89012 0.735489,-0.73788 1.617739,-1.10676 2.647199,-1.10676 1.09471,0 1.97378,0.32671 2.63617,0.97978 0.66297,0.65341 0.99388,1.48508 0.99388,2.49555 0,0.21633 -0.0492,0.54281 -0.14767,0.9799"
         style="fill:#231f20;fill-opacity:1;fill-rule:nonzero;stroke:none;stroke-width:0.0458728"
         id="path857"
         inkscape:connector-curvature="0" />
    </g>
  </g>
  <g
     aria-label="Powered By"
     style="font-size:1.82043529px;line-height:0%;font-family:'DejaVu Sans';-inkscape-font-specification:'DejaVu Sans';letter-spacing:0px;word-spacing:0px;fill:#000000;stroke:none;stroke-width:0.08971009px;stroke-linecap:butt;stroke-linejoin:miter;stroke-opacity:1"
     id="text865">
    <path
       d="m 8.8937281,1.3410696 h 0.5679971 q 0.2533321,0 0.3884425,0.1128883 0.1359993,0.1119995 0.1359993,0.3199984 0,0.2088878 -0.1359993,0.3217762 Q 9.7150573,2.2077319 9.4617252,2.2077319 H 9.2359486 V 2.668174 H 8.8937281 Z M 9.2359486,1.5890683 V 1.9597331 H 9.425281 q 0.099555,0 0.153777,-0.048 0.054222,-0.048889 0.054222,-0.1377771 0,-0.088888 -0.054222,-0.1368882 -0.054222,-0.048 -0.153777,-0.048 z"
       style="font-weight:bold;fill:#000000;stroke:none;stroke-width:0.08971009px"
       id="path940" />
    <path
       d="m 10.686608,1.876178 q -0.105777,0 -0.161777,0.076444 -0.05511,0.075555 -0.05511,0.2186655 0,0.1431104 0.05511,0.2195545 0.056,0.075555 0.161777,0.075555 0.103999,0 0.15911,-0.075555 0.05511,-0.076444 0.05511,-0.2195545 0,-0.1431104 -0.05511,-0.2186655 -0.05511,-0.076444 -0.15911,-0.076444 z m 0,-0.2275544 q 0.256888,0 0.400887,0.138666 0.144888,0.1386659 0.144888,0.383998 0,0.2453321 -0.144888,0.3839981 -0.143999,0.138666 -0.400887,0.138666 -0.257777,0 -0.403554,-0.138666 -0.144888,-0.138666 -0.144888,-0.3839981 0,-0.2453321 0.144888,-0.383998 0.145777,-0.138666 0.403554,-0.138666 z"
       style="font-weight:bold;fill:#000000;stroke:none;stroke-width:0.08971009px"
       id="path942" />
    <path
       d="m 11.375493,1.6726235 h 0.309332 l 0.16711,0.6862188 0.168,-0.6862188 h 0.265776 l 0.16711,0.6791077 0.167999,-0.6791077 h 0.309332 L 12.667931,2.668174 h -0.347554 l -0.167999,-0.684441 -0.16711,0.684441 h -0.347554 z"
       style="font-weight:bold;fill:#000000;stroke:none;stroke-width:0.08971009px"
       id="path944" />
    <path
       d="m 14.139924,2.1677321 v 0.090666 h -0.743996 q 0.01155,0.1119994 0.08089,0.1679992 0.06933,0.056 0.193777,0.056 0.100444,0 0.205332,-0.029333 0.105778,-0.030222 0.216888,-0.090666 v 0.2453321 q -0.112888,0.042666 -0.225776,0.064 -0.112889,0.022222 -0.225777,0.022222 -0.270221,0 -0.420442,-0.1368882 -0.149333,-0.1377771 -0.149333,-0.3857759 0,-0.2435543 0.146666,-0.3831091 0.147555,-0.1395549 0.405331,-0.1395549 0.234666,0 0.37511,0.1413326 0.141332,0.1413326 0.141332,0.3777759 z M 13.812815,2.0619549 q 0,-0.090666 -0.05333,-0.1457771 -0.05245,-0.056 -0.137777,-0.056 -0.09244,0 -0.150222,0.052444 -0.05778,0.051555 -0.072,0.1493326 z"
       style="font-weight:bold;fill:#000000;stroke:none;stroke-width:0.08971009px"
       id="path946" />
    <path
       d="m 15.119475,1.9437332 q -0.04178,-0.019555 -0.08356,-0.028444 -0.04089,-0.00978 -0.08267,-0.00978 -0.122666,0 -0.189332,0.079111 -0.06578,0.078222 -0.06578,0.2248878 V 2.668174 h -0.31822 V 1.6726235 h 0.31822 v 0.1635547 q 0.06133,-0.097777 0.140444,-0.1422215 0.08,-0.045333 0.19111,-0.045333 0.016,0 0.03467,0.00178 0.01867,8.889e-4 0.05422,0.00533 z"
       style="font-weight:bold;fill:#000000;stroke:none;stroke-width:0.08971009px"
       id="path948" />
    <path
       d="m 16.273246,2.1677321 v 0.090666 H 15.52925 q 0.01156,0.1119994 0.08089,0.1679992 0.06933,0.056 0.193776,0.056 0.100444,0 0.205333,-0.029333 0.105777,-0.030222 0.216888,-0.090666 v 0.2453321 q -0.112889,0.042666 -0.225777,0.064 -0.112888,0.022222 -0.225777,0.022222 -0.270221,0 -0.420442,-0.1368882 -0.149333,-0.1377771 -0.149333,-0.3857759 0,-0.2435543 0.146666,-0.3831091 0.147555,-0.1395549 0.405332,-0.1395549 0.234665,0 0.375109,0.1413326 0.141332,0.1413326 0.141332,0.3777759 z M 15.946137,2.0619549 q 0,-0.090666 -0.05333,-0.1457771 -0.05244,-0.056 -0.137777,-0.056 -0.09244,0 -0.150222,0.052444 -0.05778,0.051555 -0.072,0.1493326 z"
       style="font-weight:bold;fill:#000000;stroke:none;stroke-width:0.08971009px"
       id="path950" />
    <path
       d="M 17.190575,1.8184005 V 1.2850699 h 0.319999 V 2.668174 H 17.190575 V 2.5241748 q -0.06578,0.088 -0.144888,0.1288882 -0.07911,0.040889 -0.18311,0.040889 -0.183999,0 -0.302221,-0.1457771 -0.118221,-0.1466659 -0.118221,-0.376887 0,-0.230221 0.118221,-0.3759981 0.118222,-0.1466659 0.302221,-0.1466659 0.103111,0 0.182221,0.041778 0.08,0.040889 0.145777,0.1279993 z m -0.209776,0.6444412 q 0.102221,0 0.155554,-0.074666 0.05422,-0.074666 0.05422,-0.2168878 0,-0.1422215 -0.05422,-0.2168878 -0.05333,-0.074666 -0.155554,-0.074666 -0.101333,0 -0.155555,0.074666 -0.05333,0.074666 -0.05333,0.2168878 0,0.1422215 0.05333,0.2168878 0.05422,0.074666 0.155555,0.074666 z"
       style="font-weight:bold;fill:#000000;stroke:none;stroke-width:0.08971009px"
       id="path952" />
    <path
       d="m 18.996788,1.8548448 q 0.08089,0 0.122666,-0.035555 0.04178,-0.035555 0.04178,-0.1048884 0,-0.068444 -0.04178,-0.1039994 -0.04178,-0.036444 -0.122666,-0.036444 h -0.189332 v 0.2808875 z m 0.01156,0.5804415 q 0.103111,0 0.154666,-0.043555 0.05244,-0.043555 0.05244,-0.1315549 0,-0.086222 -0.05156,-0.1288883 -0.05156,-0.043555 -0.155555,-0.043555 h -0.200888 v 0.3475538 z m 0.318221,-0.4773309 q 0.110221,0.032 0.170665,0.1182216 0.06044,0.086222 0.06044,0.2115545 0,0.191999 -0.129777,0.2862208 -0.129777,0.094222 -0.394664,0.094222 H 18.465236 V 1.3410696 h 0.513775 q 0.276443,0 0.399998,0.083555 0.124444,0.083555 0.124444,0.2675542 0,0.096888 -0.04533,0.1653325 -0.04533,0.067555 -0.131554,0.100444 z"
       style="font-weight:bold;fill:#000000;stroke:none;stroke-width:0.08971009px"
       id="path954" />
    <path
       d="m 19.707007,1.6726235 h 0.318221 l 0.267554,0.6755521 0.227554,-0.6755521 h 0.318221 l -0.418665,1.0897723 q -0.06311,0.1662214 -0.147555,0.2319988 -0.08356,0.066666 -0.221332,0.066666 H 19.867006 V 2.8521731 h 0.09955 q 0.08089,0 0.117333,-0.025778 0.03733,-0.025778 0.05778,-0.092444 l 0.0089,-0.027555 z"
       style="font-weight:bold;fill:#000000;stroke:none;stroke-width:0.08971009px"
       id="path956" />
  </g>
</svg>

