<?xml version="1.0" encoding="UTF-8" standalone="no"?>
<svg
   xmlns:dc="http://purl.org/dc/elements/1.1/"
   xmlns:cc="http://creativecommons.org/ns#"
   xmlns:rdf="http://www.w3.org/1999/02/22-rdf-syntax-ns#"
   xmlns:svg="http://www.w3.org/2000/svg"
   xmlns="http://www.w3.org/2000/svg"
   version="1.1"
   id="svg2"
   viewBox="0 0 74.827498 57.199997"
   height="16.14311mm"
   width="21.117983mm">
  <defs
     id="defs4" />
  <metadata
     id="metadata7">
    <rdf:RDF>
      <cc:Work
         rdf:about="">
        <dc:format>image/svg+xml</dc:format>
        <dc:type
           rdf:resource="http://purl.org/dc/dcmitype/StillImage" />
        <dc:title></dc:title>
      </cc:Work>
    </rdf:RDF>
  </metadata>
  <g
     transform="translate(-145.07429,-423.73362)"
     id="layer1">
    <path
       d="m 180.83429,475.73362 -3.76,-11.44 -16.48,0 -3.84,11.04 q 2.24,1.84 6.8,2.4 l -0.4,3.2 -18.08,0 0.48,-3.2 q 3.68,-0.16 4.88,-2 l 17.04,-48.16 8.32,0 17.2,47.44 q 1.28,2.08 4.88,2.72 l -0.4,3.2 -21.92,0 0.48,-3.2 q 3.68,-0.56 4.8,-2 z m -11.68,-35.68 -6.8,19.2 13.04,0 -6.24,-19.2 z"
       style="font-style:normal;font-variant:normal;font-weight:bold;font-stretch:normal;font-size:medium;line-height:125%;font-family:Caladea;-inkscape-font-specification:Caladea;letter-spacing:0px;word-spacing:0px;fill:#000000;fill-opacity:1;stroke:none;stroke-width:1px;stroke-linecap:butt;stroke-linejoin:miter;stroke-opacity:1"
       id="path4141" />
    <path
       d="m 187.18179,443.89362 0,-7.6 12.24,0 0,-12.56 8,0 0,12.56 12.48,0 0,7.6 -12.48,0 0,12.48 -8,0 0,-12.48 -12.24,0 z"
       style="font-style:normal;font-variant:normal;font-weight:bold;font-stretch:normal;font-size:medium;line-height:125%;font-family:Caladea;-inkscape-font-specification:Caladea;letter-spacing:0px;word-spacing:0px;fill:#000000;fill-opacity:1;stroke:none;stroke-width:1px;stroke-linecap:butt;stroke-linejoin:miter;stroke-opacity:1"
       id="path4143" />
  </g>
</svg>
