<?xml version="1.0" encoding="UTF-8" standalone="no"?>
<svg
   xmlns:dc="http://purl.org/dc/elements/1.1/"
   xmlns:cc="http://creativecommons.org/ns#"
   xmlns:rdf="http://www.w3.org/1999/02/22-rdf-syntax-ns#"
   xmlns:svg="http://www.w3.org/2000/svg"
   xmlns="http://www.w3.org/2000/svg"
   xmlns:sodipodi="http://sodipodi.sourceforge.net/DTD/sodipodi-0.dtd"
   xmlns:inkscape="http://www.inkscape.org/namespaces/inkscape"
   version="1.1"
   id="svg2"
   viewBox="0 0 669.00002 492.5"
   height="138.99445mm"
   width="188.80667mm"
   inkscape:version="0.91 r13725"
   sodipodi:docname="broadwell edram setup.svg">
  <sodipodi:namedview
     pagecolor="#ffffff"
     bordercolor="#666666"
     borderopacity="1"
     objecttolerance="10"
     gridtolerance="10"
     guidetolerance="10"
     inkscape:pageopacity="0"
     inkscape:pageshadow="2"
     inkscape:window-width="3200"
     inkscape:window-height="1727"
     id="namedview101"
     showgrid="false"
     inkscape:zoom="2.7106956"
     inkscape:cx="289.39117"
     inkscape:cy="273.85965"
     inkscape:window-x="0"
     inkscape:window-y="0"
     inkscape:window-maximized="1"
     inkscape:current-layer="layer1" />
  <defs
     id="defs4">
    <marker
       orient="auto"
       refY="0"
       refX="0"
       id="marker8822"
       style="overflow:visible">
      <path
         id="path8824"
         d="M 0,0 5,-5 -12.5,0 5,5 0,0 Z"
         style="fill:#000000;fill-opacity:1;fill-rule:evenodd;stroke:#000000;stroke-width:1pt;stroke-opacity:1"
         transform="matrix(-0.8,0,0,-0.8,-10,0)" />
    </marker>
    <marker
       orient="auto"
       refY="0"
       refX="0"
       id="marker8722"
       style="overflow:visible">
      <path
         id="path8724"
         d="M 0,0 5,-5 -12.5,0 5,5 0,0 Z"
         style="fill:#000000;fill-opacity:1;fill-rule:evenodd;stroke:#000000;stroke-width:1pt;stroke-opacity:1"
         transform="matrix(0.8,0,0,0.8,10,0)" />
    </marker>
    <marker
       style="overflow:visible"
       id="marker8366"
       refX="0"
       refY="0"
       orient="auto">
      <path
         transform="matrix(-0.8,0,0,-0.8,-10,0)"
         style="fill:#000000;fill-opacity:1;fill-rule:evenodd;stroke:#000000;stroke-width:1pt;stroke-opacity:1"
         d="M 0,0 5,-5 -12.5,0 5,5 0,0 Z"
         id="path8368" />
    </marker>
    <marker
       style="overflow:visible"
       id="marker8278"
       refX="0"
       refY="0"
       orient="auto">
      <path
         transform="matrix(0.8,0,0,0.8,10,0)"
         style="fill:#000000;fill-opacity:1;fill-rule:evenodd;stroke:#000000;stroke-width:1pt;stroke-opacity:1"
         d="M 0,0 5,-5 -12.5,0 5,5 0,0 Z"
         id="path8280" />
    </marker>
    <marker
       orient="auto"
       refY="0"
       refX="0"
       id="marker7998"
       style="overflow:visible">
      <path
         id="path8000"
         d="M 0,0 5,-5 -12.5,0 5,5 0,0 Z"
         style="fill:#000000;fill-opacity:1;fill-rule:evenodd;stroke:#000000;stroke-width:1pt;stroke-opacity:1"
         transform="matrix(-0.8,0,0,-0.8,-10,0)" />
    </marker>
    <marker
       orient="auto"
       refY="0"
       refX="0"
       id="marker7922"
       style="overflow:visible">
      <path
         id="path7924"
         d="M 0,0 5,-5 -12.5,0 5,5 0,0 Z"
         style="fill:#000000;fill-opacity:1;fill-rule:evenodd;stroke:#000000;stroke-width:1pt;stroke-opacity:1"
         transform="matrix(0.8,0,0,0.8,10,0)" />
    </marker>
    <marker
       orient="auto"
       refY="0"
       refX="0"
       id="marker7235"
       style="overflow:visible">
      <path
         id="path7237"
         d="M 0,0 5,-5 -12.5,0 5,5 0,0 Z"
         style="fill:#000000;fill-opacity:1;fill-rule:evenodd;stroke:#000000;stroke-width:1pt;stroke-opacity:1"
         transform="matrix(-0.8,0,0,-0.8,-10,0)" />
    </marker>
    <marker
       orient="auto"
       refY="0"
       refX="0"
       id="marker7171"
       style="overflow:visible">
      <path
         id="path7173"
         d="M 0,0 5,-5 -12.5,0 5,5 0,0 Z"
         style="fill:#000000;fill-opacity:1;fill-rule:evenodd;stroke:#000000;stroke-width:1pt;stroke-opacity:1"
         transform="matrix(0.8,0,0,0.8,10,0)" />
    </marker>
    <marker
       style="overflow:visible"
       id="marker6975"
       refX="0"
       refY="0"
       orient="auto">
      <path
         transform="matrix(-0.8,0,0,-0.8,-10,0)"
         style="fill:#000000;fill-opacity:1;fill-rule:evenodd;stroke:#000000;stroke-width:1pt;stroke-opacity:1"
         d="M 0,0 5,-5 -12.5,0 5,5 0,0 Z"
         id="path6977" />
    </marker>
    <marker
       style="overflow:visible"
       id="marker6923"
       refX="0"
       refY="0"
       orient="auto">
      <path
         transform="matrix(0.8,0,0,0.8,10,0)"
         style="fill:#000000;fill-opacity:1;fill-rule:evenodd;stroke:#000000;stroke-width:1pt;stroke-opacity:1"
         d="M 0,0 5,-5 -12.5,0 5,5 0,0 Z"
         id="path6925" />
    </marker>
    <marker
       style="overflow:visible"
       id="marker6827"
       refX="0"
       refY="0"
       orient="auto">
      <path
         transform="matrix(-0.8,0,0,-0.8,-10,0)"
         style="fill:#000000;fill-opacity:1;fill-rule:evenodd;stroke:#000000;stroke-width:1pt;stroke-opacity:1"
         d="M 0,0 5,-5 -12.5,0 5,5 0,0 Z"
         id="path6829" />
    </marker>
    <marker
       style="overflow:visible"
       id="marker6787"
       refX="0"
       refY="0"
       orient="auto">
      <path
         transform="matrix(0.8,0,0,0.8,10,0)"
         style="fill:#000000;fill-opacity:1;fill-rule:evenodd;stroke:#000000;stroke-width:1pt;stroke-opacity:1"
         d="M 0,0 5,-5 -12.5,0 5,5 0,0 Z"
         id="path6789" />
    </marker>
    <marker
       orient="auto"
       refY="0"
       refX="0"
       id="marker6699"
       style="overflow:visible">
      <path
         id="path6701"
         d="M 0,0 5,-5 -12.5,0 5,5 0,0 Z"
         style="fill:#000000;fill-opacity:1;fill-rule:evenodd;stroke:#000000;stroke-width:1pt;stroke-opacity:1"
         transform="matrix(-0.8,0,0,-0.8,-10,0)" />
    </marker>
    <marker
       orient="auto"
       refY="0"
       refX="0"
       id="marker6671"
       style="overflow:visible">
      <path
         id="path6673"
         d="M 0,0 5,-5 -12.5,0 5,5 0,0 Z"
         style="fill:#000000;fill-opacity:1;fill-rule:evenodd;stroke:#000000;stroke-width:1pt;stroke-opacity:1"
         transform="matrix(0.8,0,0,0.8,10,0)" />
    </marker>
    <marker
       style="overflow:visible"
       id="Arrow1Lend"
       refX="0"
       refY="0"
       orient="auto">
      <path
         transform="matrix(-0.8,0,0,-0.8,-10,0)"
         style="fill:#000000;fill-opacity:1;fill-rule:evenodd;stroke:#000000;stroke-width:1pt;stroke-opacity:1"
         d="M 0,0 5,-5 -12.5,0 5,5 0,0 Z"
         id="path4288" />
    </marker>
    <marker
       style="overflow:visible"
       id="Arrow1Lstart"
       refX="0"
       refY="0"
       orient="auto">
      <path
         transform="matrix(0.8,0,0,0.8,10,0)"
         style="fill:#000000;fill-opacity:1;fill-rule:evenodd;stroke:#000000;stroke-width:1pt;stroke-opacity:1"
         d="M 0,0 5,-5 -12.5,0 5,5 0,0 Z"
         id="path4285" />
    </marker>
  </defs>
  <metadata
     id="metadata7">
    <rdf:RDF>
      <cc:Work
         rdf:about="">
        <dc:format>image/svg+xml</dc:format>
        <dc:type
           rdf:resource="http://purl.org/dc/dcmitype/StillImage" />
        <dc:title />
      </cc:Work>
    </rdf:RDF>
  </metadata>
  <g
     transform="translate(-25,-21.362206)"
     id="layer1">
    <path
       style="opacity:1;fill:#f4e3d7;fill-opacity:1;stroke:#000000;stroke-width:2;stroke-linejoin:miter;stroke-miterlimit:4;stroke-dasharray:none;stroke-opacity:1"
       d="m 26,22.362206 189,0 0,203.000004 -189,0 z"
       id="rect4136" />
    <path
       style="opacity:1;fill:#e3dbdb;fill-opacity:1;stroke:#000000;stroke-width:2;stroke-linejoin:miter;stroke-miterlimit:4;stroke-dasharray:none;stroke-opacity:1"
       d="m 446,22.362206 247,0 0,203.000004 -247,0 z"
       id="rect4142" />
    <g
       style="font-style:normal;font-variant:normal;font-weight:normal;font-stretch:normal;font-size:50px;line-height:125%;font-family:'Bitstream Charter';-inkscape-font-specification:'Bitstream Charter';letter-spacing:0px;word-spacing:0px;fill:#000000;fill-opacity:1;stroke:none;stroke-width:1px;stroke-linecap:butt;stroke-linejoin:miter;stroke-opacity:1"
       id="text4144">
      <path
         d="m 474.70001,50.412207 0,2.05 3.55,0.25 0.85,0.7 0,10.4 c -1.95,0.45 -3.65,0.65 -5.1,0.65 -7.85,0 -12.85,-5.65 -12.85,-15.1 0,-9 4.8,-14.35 12.45,-14.35 2,0 3.85,0.45 5.7,1.3 l 0.7,0.9 0.75,4.55 2.8,0 0,-7.95 c -3.3,-0.95 -6.55,-1.45 -9.6,-1.45 -11.05,0 -17.95,6.8 -17.95,17.35 0,6.55 3.25,12.35 8.65,15.4 2.3,1.3 5.25,2 8.6,2 2.95,0 6.4,-0.6 10.35,-1.75 l 0,-11.95 0.85,-0.7 2.75,-0.25 0,-2.05 -12.5,0 z"
         style=""
         id="path4328" />
      <path
         d="m 490.16797,66.512207 12.6,0 0,-2.05 -3.55,-0.25 -0.85,-0.7 0,-9.85 c 1.55,0.15 2.8,0.25 3.75,0.25 8.05,0 12.95,-4.35 12.95,-10.75 0,-7.6 -4.3,-10.2 -13.9,-10.2 l -11.4,0 0,2 3.25,0.3 0.85,0.7 0,27.55 -0.85,0.7 -2.85,0.25 0,2.05 z m 8.2,-15.25 0,-15.9 c 0.9,-0.1 1.8,-0.1 2.6,-0.1 6.4,0 9.45,2.45 9.45,7.8 0,5.5 -3.05,8.45 -8.75,8.45 -0.75,0 -1.85,-0.1 -3.3,-0.25 z"
         style=""
         id="path4330" />
      <path
         d="m 517.69766,32.962207 0,2 2.85,0.3 0.85,0.7 0,18.55 c 0,3.7 0.25,6.45 2.2,8.8 1.9,2.3 5.6,3.8 10.35,3.8 4.75,0 8.45,-1.5 10.35,-3.8 1.95,-2.35 2.2,-5.15 2.2,-8.8 l 0,-18.2 0.9,-0.9 3,-0.45 0,-2 -10.55,0 0,2 3,0.45 0.95,0.9 0,17.75 c 0,6.8 -2.6,9.95 -8.9,9.95 -6.4,0 -8.95,-3.15 -8.95,-9.95 l 0,-18.1 0.9,-0.7 3.1,-0.3 0,-2 -12.25,0 z"
         style=""
         id="path4332" />
    </g>
    <g
       style="font-style:normal;font-variant:normal;font-weight:normal;font-stretch:normal;font-size:50px;line-height:125%;font-family:'Bitstream Charter';-inkscape-font-specification:'Bitstream Charter';letter-spacing:0px;word-spacing:0px;fill:#000000;fill-opacity:1;stroke:none;stroke-width:1px;stroke-linecap:butt;stroke-linejoin:miter;stroke-opacity:1"
       id="text4152">
      <path
         d="m 63.249998,67.362207 0,-7.9 -2.8,0 -1.1,5.55 -0.8,0.8 c -1.5,0.45 -2.95,0.65 -4.35,0.65 -8.1,0 -13.05,-5.6 -13.05,-15.1 0,-8.95 4.85,-14.35 12.3,-14.35 1.95,0 3.75,0.45 5.6,1.3 l 0.65,0.9 0.75,4.55 2.8,0 0,-7.7 c -3.65,-1.15 -6.95,-1.7 -9.9,-1.7 -10.4,0 -17.35,6.95 -17.35,17.35 0,6.55 3.3,12.35 8.65,15.4 2.3,1.3 5.2,2 8.5,2 3.35,0 6.8,-0.6 10.1,-1.75 z"
         style=""
         id="path4335" />
      <path
         d="m 67.140623,68.512207 12.6,0 0,-2.05 -3.55,-0.25 -0.85,-0.7 0,-9.85 c 1.55,0.15 2.8,0.25 3.75,0.25 8.05,0 12.95,-4.35 12.95,-10.75 0,-7.6 -4.3,-10.2 -13.9,-10.2 l -11.4,0 0,2 3.25,0.3 0.85,0.7 0,27.55 -0.85,0.7 -2.85,0.25 0,2.05 z m 8.2,-15.25 0,-15.9 c 0.9,-0.1 1.8,-0.1 2.6,-0.1 6.4,0 9.45,2.45 9.45,7.8 0,5.5 -3.05,8.45 -8.75,8.45 -0.75,0 -1.85,-0.1 -3.3,-0.25 z"
         style=""
         id="path4337" />
      <path
         d="m 94.670311,34.962207 0,2 2.85,0.3 0.85,0.7 0,18.55 c 0,3.7 0.25,6.45 2.199999,8.8 1.9,2.3 5.6,3.8 10.35,3.8 4.75,0 8.45,-1.5 10.35,-3.8 1.95,-2.35 2.2,-5.15 2.2,-8.8 l 0,-18.2 0.9,-0.9 3,-0.45 0,-2 -10.55,0 0,2 3,0.45 0.95,0.9 0,17.75 c 0,6.8 -2.6,9.95 -8.9,9.95 -6.4,0 -8.95,-3.15 -8.95,-9.95 l 0,-18.1 0.9,-0.7 3.1,-0.3 0,-2 -12.249999,0 z"
         style=""
         id="path4339" />
    </g>
    <path
       style="opacity:1;fill:#f6ffd5;fill-opacity:1;stroke:#000000;stroke-width:2;stroke-linejoin:miter;stroke-miterlimit:4;stroke-dasharray:none;stroke-opacity:1"
       d="m 501,85.564636 137,0 0,112.595134 -137,0 z"
       id="rect4156" />
    <g
       style="font-style:normal;font-variant:normal;font-weight:normal;font-stretch:normal;font-size:31.25px;line-height:125%;font-family:'Bitstream Charter';-inkscape-font-specification:'Bitstream Charter';text-align:center;letter-spacing:0px;word-spacing:0px;text-anchor:middle;fill:#000000;fill-opacity:1;stroke:none;stroke-width:1px;stroke-linecap:butt;stroke-linejoin:miter;stroke-opacity:1"
       id="text4158">
      <path
         d="m 522.75269,123.58096 0,1.28125 2.21875,0.15625 0.53125,0.4375 0,6.5 c -1.21875,0.28125 -2.28125,0.40625 -3.1875,0.40625 -4.90625,0 -8.03125,-3.53125 -8.03125,-9.4375 0,-5.625 3,-8.96875 7.78125,-8.96875 1.25,0 2.40625,0.28125 3.5625,0.8125 l 0.4375,0.5625 0.46875,2.84375 1.75,0 0,-4.96875 c -2.0625,-0.59375 -4.09375,-0.90625 -6,-0.90625 -6.90625,0 -11.21875,4.25 -11.21875,10.84375 0,4.09375 2.03125,7.71875 5.40625,9.625 1.4375,0.8125 3.28125,1.25 5.375,1.25 1.84375,0 4,-0.375 6.46875,-1.09375 l 0,-7.46875 0.53125,-0.4375 1.71875,-0.15625 0,-1.28125 -7.8125,0 z"
         style=""
         id="path4343" />
      <path
         d="m 532.32642,133.64346 7.53125,0 0,-1.125 -2.1875,-0.15625 -0.53125,-0.5 0,-8.9375 c 1.28125,-1.5 2.375,-2.28125 3.40625,-2.28125 0.65625,0 1.1875,0.25 1.59375,0.75 l 1,0 0,-2.6875 c -0.65625,-0.28125 -1.25,-0.40625 -1.875,-0.40625 -0.25,0 -0.53125,0 -0.78125,0.0625 -1.125,0.90625 -2.25,1.90625 -3.34375,3.03125 l 0,-2.9375 -1.1875,0 -3.625,1.125 0,0.96875 2.21875,0 0,11.3125 -0.5625,0.5 -1.65625,0.15625 0,1.125 z"
         style=""
         id="path4345" />
      <path
         d="m 553.78931,131.83096 0.40625,1.8125 4.40625,0 0,-1.125 -1.65625,-0.15625 -0.5625,-0.5 0,-9.0625 c 0,-3.15625 -1.375,-4.5 -4.65625,-4.5 -3.9375,0 -6.3125,1.625 -6.3125,3.53125 0,0.75 0.25,0.96875 0.96875,0.96875 l 2.15625,0 0,-2.625 c 0.84375,-0.34375 1.59375,-0.5 2.375,-0.5 2.25,0 2.875,1.03125 2.875,3.5 l 0,1 c -6.25,1.5 -9.125,2.4375 -9.125,5.6875 0,2.34375 1.53125,4 4,4 1.5,0 3.15625,-0.6875 5.125,-2.03125 z m 0,-1.0625 c -1.5625,0.90625 -2.84375,1.40625 -3.875,1.40625 -1.5625,0 -2.5,-1.03125 -2.5,-2.5625 0,-2.28125 1.96875,-3.125 6.375,-4.34375 l 0,5.5 z"
         style=""
         id="path4347" />
      <path
         d="m 559.9397,140.45596 7.34375,0 0,-1.125 -2,-0.15625 -0.53125,-0.5 0,-5.21875 c 1.15625,0.1875 2.125,0.28125 2.90625,0.28125 4.625,0 7.6875,-3.1875 7.6875,-8.125 0,-4.375 -2.5625,-7.3125 -6,-7.3125 -1.46875,0 -2.9375,0.625 -4.59375,1.875 l 0,-1.71875 -1.1875,0 -3.625,1.125 0,0.96875 2.21875,0 0,18.125 -0.53125,0.5 -1.6875,0.15625 0,1.125 z m 4.8125,-8.625 0,-10.5 c 1.1875,-0.6875 2.21875,-1.0625 3.28125,-1.0625 2.71875,0 4.5625,2.15625 4.5625,5.75 0,3.84375 -2.125,6.3125 -5.1875,6.3125 -0.75,0 -1.625,-0.15625 -2.65625,-0.5 z"
         style=""
         id="path4349" />
      <path
         d="m 580.83911,110.64346 -3.8125,1.125 0,0.96875 2.40625,0 0,19.125 -0.53125,0.5 -1.6875,0.15625 0,1.125 6.84375,0 0,-1.125 -1.46875,-0.15625 -0.5625,-0.5 0,-10.46875 c 1.34375,-0.6875 2.5,-1.03125 3.5,-1.03125 2.3125,0 3.15625,0.9375 3.15625,3.21875 l 0,8.28125 -0.53125,0.5 -1.46875,0.15625 0,1.125 6.8125,0 0,-1.125 -1.65625,-0.15625 -0.5625,-0.5 0,-8.8125 c 0,-3.125 -1.46875,-4.75 -4.1875,-4.75 -1.34375,0 -2.96875,0.71875 -5.0625,1.875 l 0,-9.53125 -1.1875,0 z"
         style=""
         id="path4351" />
      <path
         d="m 598.88452,111.51846 c -1,0 -1.8125,0.78125 -1.8125,1.8125 0,1 0.8125,1.78125 1.8125,1.78125 1,0 1.8125,-0.78125 1.8125,-1.78125 0,-1 -0.8125,-1.8125 -1.8125,-1.8125 z m -0.125,6.9375 -3.59375,1.125 0,0.96875 2.1875,0 0,11.3125 -0.53125,0.5 -1.65625,0.15625 0,1.125 7.03125,0 0,-1.125 -1.6875,-0.15625 -0.5625,-0.5 0,-13.40625 -1.1875,0 z"
         style=""
         id="path4353" />
      <path
         d="m 616.0813,132.33096 0,-1.625 c -1.3125,0.875 -2.59375,1.3125 -3.96875,1.3125 -3.25,0 -5.3125,-2.28125 -5.3125,-6.125 0,-3.9375 1.90625,-6.34375 4.59375,-6.34375 0.53125,0 1.03125,0.15625 1.5,0.4375 l 0,2.5625 c 0.46875,0.3125 0.9375,0.46875 1.40625,0.46875 1.0625,0 1.75,-0.65625 1.75,-1.65625 0,-1.8125 -1.6875,-3.0625 -4.6875,-3.0625 -4.375,0 -7.40625,3.15625 -7.40625,7.8125 0,4.625 2.78125,7.75 7.03125,7.75 1.6875,0 3.375,-0.53125 5.09375,-1.53125 z"
         style=""
         id="path4355" />
      <path
         d="m 627.46606,118.98721 c -1.0625,-0.46875 -2.28125,-0.6875 -3.65625,-0.6875 -3.5625,0 -5.53125,1.625 -5.53125,4.375 0,2.09375 1.375,3.09375 4.03125,4.28125 2.0625,0.9375 3.1875,1.5 3.1875,3.125 0,1.46875 -1.125,2.53125 -2.9375,2.53125 -0.90625,0 -1.78125,-0.25 -2.65625,-0.75 l -0.375,-2.65625 -1.5,0 0,4.0625 c 1.09375,0.40625 2.46875,0.65625 4.0625,0.65625 3.6875,0 5.84375,-1.78125 5.84375,-4.6875 0,-1.15625 -0.4375,-2.09375 -1.1875,-2.6875 -1.03125,-0.84375 -2.21875,-1.28125 -3.3125,-1.8125 -1.75,-0.84375 -2.65625,-1.5 -2.65625,-2.84375 0,-1.40625 0.9375,-2.25 2.59375,-2.25 0.75,0 1.5,0.21875 2.3125,0.65625 l 0.25,2.21875 1.53125,0 0,-3.53125 z"
         style=""
         id="path4357" />
      <path
         d="m 540.33398,171.98721 0,-4.9375 -1.75,0 -0.6875,3.46875 -0.5,0.5 c -0.9375,0.28125 -1.84375,0.40625 -2.71875,0.40625 -5.0625,0 -8.15625,-3.5 -8.15625,-9.4375 0,-5.59375 3.03125,-8.96875 7.6875,-8.96875 1.21875,0 2.34375,0.28125 3.5,0.8125 l 0.40625,0.5625 0.46875,2.84375 1.75,0 0,-4.8125 c -2.28125,-0.71875 -4.34375,-1.0625 -6.1875,-1.0625 -6.5,0 -10.84375,4.34375 -10.84375,10.84375 0,4.09375 2.0625,7.71875 5.40625,9.625 1.4375,0.8125 3.25,1.25 5.3125,1.25 2.09375,0 4.25,-0.375 6.3125,-1.09375 z"
         style=""
         id="path4359" />
      <path
         d="m 552.17187,170.89346 0.40625,1.8125 4.40625,0 0,-1.125 -1.65625,-0.15625 -0.5625,-0.5 0,-9.0625 c 0,-3.15625 -1.375,-4.5 -4.65625,-4.5 -3.9375,0 -6.3125,1.625 -6.3125,3.53125 0,0.75 0.25,0.96875 0.96875,0.96875 l 2.15625,0 0,-2.625 c 0.84375,-0.34375 1.59375,-0.5 2.375,-0.5 2.25,0 2.875,1.03125 2.875,3.5 l 0,1 c -6.25,1.5 -9.125,2.4375 -9.125,5.6875 0,2.34375 1.53125,4 4,4 1.5,0 3.15625,-0.6875 5.125,-2.03125 z m 0,-1.0625 c -1.5625,0.90625 -2.84375,1.40625 -3.875,1.40625 -1.5625,0 -2.5,-1.03125 -2.5,-2.5625 0,-2.28125 1.96875,-3.125 6.375,-4.34375 l 0,5.5 z"
         style=""
         id="path4361" />
      <path
         d="m 570.88477,171.39346 0,-1.625 c -1.3125,0.875 -2.59375,1.3125 -3.96875,1.3125 -3.25,0 -5.3125,-2.28125 -5.3125,-6.125 0,-3.9375 1.90625,-6.34375 4.59375,-6.34375 0.53125,0 1.03125,0.15625 1.5,0.4375 l 0,2.5625 c 0.46875,0.3125 0.9375,0.46875 1.40625,0.46875 1.0625,0 1.75,-0.65625 1.75,-1.65625 0,-1.8125 -1.6875,-3.0625 -4.6875,-3.0625 -4.375,0 -7.40625,3.15625 -7.40625,7.8125 0,4.625 2.78125,7.75 7.03125,7.75 1.6875,0 3.375,-0.53125 5.09375,-1.53125 z"
         style=""
         id="path4363" />
      <path
         d="m 575.92578,149.70596 -3.8125,1.125 0,0.96875 2.40625,0 0,19.125 -0.53125,0.5 -1.6875,0.15625 0,1.125 6.84375,0 0,-1.125 -1.46875,-0.15625 -0.5625,-0.5 0,-10.46875 c 1.34375,-0.6875 2.5,-1.03125 3.5,-1.03125 2.3125,0 3.15625,0.9375 3.15625,3.21875 l 0,8.28125 -0.53125,0.5 -1.46875,0.15625 0,1.125 6.8125,0 0,-1.125 -1.65625,-0.15625 -0.5625,-0.5 0,-8.8125 c 0,-3.125 -1.46875,-4.75 -4.1875,-4.75 -1.34375,0 -2.96875,0.71875 -5.0625,1.875 l 0,-9.53125 -1.1875,0 z"
         style=""
         id="path4365" />
      <path
         d="m 603.15869,169.39346 c -1.78125,1.1875 -3.34375,1.8125 -4.90625,1.8125 -3.15625,0 -5.25,-2.375 -5.25,-6.375 0,-0.0937 0,-0.21875 0,-0.34375 l 10.125,0 c 0.0312,-0.34375 0.0312,-0.65625 0.0312,-0.96875 0,-3.84375 -2.21875,-6.15625 -5.625,-6.15625 -4.1875,0 -7.21875,3.21875 -7.21875,7.9375 0,4.59375 2.84375,7.6875 6.96875,7.6875 1.96875,0 4,-0.625 5.875,-1.875 l 0,-1.71875 z m -2.78125,-6.21875 -7.21875,0 c 0.1875,-2.65625 1.96875,-4.40625 3.96875,-4.40625 2.09375,0 3.25,1.375 3.25,3.90625 0,0.15625 0,0.34375 0,0.5 z"
         style=""
         id="path4367" />
      <path
         d="m 615.22852,158.04971 c -1.0625,-0.46875 -2.28125,-0.6875 -3.65625,-0.6875 -3.5625,0 -5.53125,1.625 -5.53125,4.375 0,2.09375 1.375,3.09375 4.03125,4.28125 2.0625,0.9375 3.1875,1.5 3.1875,3.125 0,1.46875 -1.125,2.53125 -2.9375,2.53125 -0.90625,0 -1.78125,-0.25 -2.65625,-0.75 l -0.375,-2.65625 -1.5,0 0,4.0625 c 1.09375,0.40625 2.46875,0.65625 4.0625,0.65625 3.6875,0 5.84375,-1.78125 5.84375,-4.6875 0,-1.15625 -0.4375,-2.09375 -1.1875,-2.6875 -1.03125,-0.84375 -2.21875,-1.28125 -3.3125,-1.8125 -1.75,-0.84375 -2.65625,-1.5 -2.65625,-2.84375 0,-1.40625 0.9375,-2.25 2.59375,-2.25 0.75,0 1.5,0.21875 2.3125,0.65625 l 0.25,2.21875 1.53125,0 0,-3.53125 z"
         style=""
         id="path4369" />
    </g>
    <path
       style="opacity:1;fill:#f6ffd5;fill-opacity:1;stroke:#000000;stroke-width:2;stroke-linejoin:miter;stroke-miterlimit:4;stroke-dasharray:none;stroke-opacity:1"
       d="m 45.45459,84.4543 68.09082,0 0,46.81583 -68.09082,0 z"
       id="rect4166" />
    <g
       style="font-style:normal;font-variant:normal;font-weight:normal;font-stretch:normal;font-size:31.25px;line-height:125%;font-family:'Bitstream Charter';-inkscape-font-specification:'Bitstream Charter';letter-spacing:0px;word-spacing:0px;fill:#000000;fill-opacity:1;stroke:none;stroke-width:1px;stroke-linecap:butt;stroke-linejoin:miter;stroke-opacity:1"
       id="text4168">
      <path
         d="m 51.493359,115.87472 11.975,0 0,-4.55 -1.3,0 -0.425,3 -0.35,0.4 -5.65,0 0,-14.125 0.425,-0.35 1.425,-0.15 0,-1.000002 -6.1,0 0,1.000002 1.575,0.15 0.425,0.35 0,13.775 -0.425,0.35 -1.575,0.125 0,1.025 z"
         style="font-size:25px"
         id="path4373" />
      <path
         d="m 71.581641,98.799718 -5.425,1.625002 0,1.05 3.925,-0.7 0,13.45 -0.3,0.425 -2.875,0.15 0,1.075 8.375,0 0,-1.05 -2.7,-0.125 -0.3,-0.375 0,-15.525002 -0.7,0 z"
         style="font-size:25px"
         id="path4375" />
      <path
         d="m 84.722656,99.099718 -6.175,0 0,1.000002 1.425,0.15 0.425,0.35 0,13.775 -0.425,0.35 -1.425,0.125 0,1.025 6.175,0 c 2.5,0 4.4,-0.275 6.1,-1.55 2.05,-1.55 3.125,-3.875 3.125,-6.85 0,-5.25 -3.3,-8.375002 -9.225,-8.375002 z m -2.075,1.150002 1.975,0 c 4.575,0 6.8,2.35 6.8,7.225 0,4.85 -2.225,7.25 -6.8,7.25 l -1.975,0 0,-14.475 z"
         style="font-size:25px"
         id="path4377" />
      <path
         d="m 101.53164,97.299718 0,1.85 c -2.949999,0.5 -4.574999,2.225002 -4.574999,4.500002 0,2.325 1.525,3.85 4.574999,4.55 l 0,6.525 c -1.25,0 -2.324999,-0.2 -3.199999,-0.625 l -0.225,-0.325 -0.45,-2.725 -1.15,0 0,4.2 c 1.225,0.325 2.9,0.55 5.024999,0.625 l 0,2.55 1.05,0 0,-2.55 c 3.1,-0.55 4.925,-2.425 4.925,-4.8 0,-2.5 -1.525,-3.775 -4.925,-4.7 l 0,-6.125 c 0.825,0 1.6,0.15 2.35,0.425 l 0.375,0.525 0.375,2.325 1.125,0 0,-3.900002 c -1.525,-0.35 -2.875,-0.55 -4.025,-0.55 -0.075,0 -0.125,0 -0.2,0 l 0,-1.775 -1.05,0 z m 0,3.025002 0,5.75 c -1.649999,-0.525 -2.449999,-1.475 -2.449999,-2.875 0,-1.45 0.875,-2.525 2.449999,-2.875 z m 1.1,8.2 c 1.875,0.55 2.8,1.55 2.8,3 0,1.6 -1.05,2.825 -2.8,3.1 l 0,-6.1 z"
         style="font-size:25px"
         id="path4379" />
    </g>
    <path
       style="opacity:1;fill:#f6ffd5;fill-opacity:1;stroke:#000000;stroke-width:2;stroke-linejoin:miter;stroke-miterlimit:4;stroke-dasharray:none;stroke-opacity:1"
       d="m 127.45459,84.4543 68.09082,0 0,46.81583 -68.09082,0 z"
       id="rect4179" />
    <g
       style="font-style:normal;font-variant:normal;font-weight:normal;font-stretch:normal;font-size:31.25px;line-height:125%;font-family:'Bitstream Charter';-inkscape-font-specification:'Bitstream Charter';letter-spacing:0px;word-spacing:0px;fill:#000000;fill-opacity:1;stroke:none;stroke-width:1px;stroke-linecap:butt;stroke-linejoin:miter;stroke-opacity:1"
       id="text4181">
      <path
         d="m 133.49336,115.87472 11.975,0 0,-4.55 -1.3,0 -0.425,3 -0.35,0.4 -5.65,0 0,-14.125 0.425,-0.35 1.425,-0.15 0,-1.000002 -6.1,0 0,1.000002 1.575,0.15 0.425,0.35 0,13.775 -0.425,0.35 -1.575,0.125 0,1.025 z"
         style="font-size:25px"
         id="path4383" />
      <path
         d="m 153.58164,98.799718 -5.425,1.625002 0,1.05 3.925,-0.7 0,13.45 -0.3,0.425 -2.875,0.15 0,1.075 8.375,0 0,-1.05 -2.7,-0.125 -0.3,-0.375 0,-15.525002 -0.7,0 z"
         style="font-size:25px"
         id="path4385" />
      <path
         d="m 160.59766,115.87472 6.325,0 0,-1.025 -1.6,-0.125 -0.425,-0.35 0,-13.775 0.425,-0.35 1.6,-0.15 0,-1.000002 -6.325,0 0,1.000002 1.6,0.15 0.425,0.35 0,13.775 -0.425,0.35 -1.6,0.125 0,1.025 z"
         style="font-size:25px"
         id="path4387" />
      <path
         d="m 174.30312,97.299718 0,1.85 c -2.95,0.5 -4.575,2.225002 -4.575,4.500002 0,2.325 1.525,3.85 4.575,4.55 l 0,6.525 c -1.25,0 -2.325,-0.2 -3.2,-0.625 l -0.225,-0.325 -0.45,-2.725 -1.15,0 0,4.2 c 1.225,0.325 2.9,0.55 5.025,0.625 l 0,2.55 1.05,0 0,-2.55 c 3.1,-0.55 4.925,-2.425 4.925,-4.8 0,-2.5 -1.525,-3.775 -4.925,-4.7 l 0,-6.125 c 0.825,0 1.6,0.15 2.35,0.425 l 0.375,0.525 0.375,2.325 1.125,0 0,-3.900002 c -1.525,-0.35 -2.875,-0.55 -4.025,-0.55 -0.075,0 -0.125,0 -0.2,0 l 0,-1.775 -1.05,0 z m 0,3.025002 0,5.75 c -1.65,-0.525 -2.45,-1.475 -2.45,-2.875 0,-1.45 0.875,-2.525 2.45,-2.875 z m 1.1,8.2 c 1.875,0.55 2.8,1.55 2.8,3 0,1.6 -1.05,2.825 -2.8,3.1 l 0,-6.1 z"
         style="font-size:25px"
         id="path4389" />
    </g>
    <path
       style="opacity:1;fill:#f6ffd5;fill-opacity:1;stroke:#000000;stroke-width:2;stroke-linejoin:miter;stroke-miterlimit:4;stroke-dasharray:none;stroke-opacity:1"
       d="m 77.685539,141.73759 87.628931,0 0,60.24926 -87.628931,0 z"
       id="rect4187" />
    <g
       style="font-style:normal;font-variant:normal;font-weight:normal;font-stretch:normal;font-size:31.25px;line-height:125%;font-family:'Bitstream Charter';-inkscape-font-specification:'Bitstream Charter';letter-spacing:0px;word-spacing:0px;fill:#000000;fill-opacity:1;stroke:none;stroke-width:1px;stroke-linecap:butt;stroke-linejoin:miter;stroke-opacity:1"
       id="text4189">
      <path
         d="m 97.325439,181.87784 14.968751,0 0,-5.6875 -1.625,0 -0.53125,3.75 -0.4375,0.5 -7.0625,0 0,-17.65625 0.53125,-0.4375 1.78125,-0.1875 0,-1.25 -7.625001,0 0,1.25 1.96875,0.1875 0.53125,0.4375 0,17.21875 -0.53125,0.4375 -1.96875,0.15625 0,1.28125 z"
         style="font-size:31.25px"
         id="path4393" />
      <path
         d="m 117.12329,179.40909 c 6.90625,-5.5 10.6875,-9.03125 10.6875,-12.96875 0,-3.53125 -2.46875,-5.90625 -6.5,-5.90625 -3.875,0 -6.625,2.21875 -6.625,4.40625 0,1.0625 0.65625,1.75 1.75,1.75 0.5,0 0.96875,-0.15625 1.40625,-0.46875 l 0,-3.34375 c 0.9375,-0.53125 1.84375,-0.75 2.78125,-0.75 2.59375,0 4.15625,1.75 4.15625,4.71875 0,4.09375 -3.90625,7.5 -10.75,13.0625 l 0,1.96875 14.46875,0 0,-5.125 -1.40625,0 -0.5625,2.65625 -9.40625,0 z"
         style="font-size:31.25px"
         id="path4395" />
      <path
         d="m 138.20581,158.65909 0,2.3125 c -3.6875,0.625 -5.71875,2.78125 -5.71875,5.625 0,2.90625 1.90625,4.8125 5.71875,5.6875 l 0,8.15625 c -1.5625,0 -2.90625,-0.25 -4,-0.78125 l -0.28125,-0.40625 -0.5625,-3.40625 -1.4375,0 0,5.25 c 1.53125,0.40625 3.625,0.6875 6.28125,0.78125 l 0,3.1875 1.3125,0 0,-3.1875 c 3.875,-0.6875 6.15625,-3.03125 6.15625,-6 0,-3.125 -1.90625,-4.71875 -6.15625,-5.875 l 0,-7.65625 c 1.03125,0 2,0.1875 2.9375,0.53125 l 0.46875,0.65625 0.46875,2.90625 1.40625,0 0,-4.875 c -1.90625,-0.4375 -3.59375,-0.6875 -5.03125,-0.6875 -0.0937,0 -0.15625,0 -0.25,0 l 0,-2.21875 -1.3125,0 z m 0,3.78125 0,7.1875 c -2.0625,-0.65625 -3.0625,-1.84375 -3.0625,-3.59375 0,-1.8125 1.09375,-3.15625 3.0625,-3.59375 z m 1.375,10.25 c 2.34375,0.6875 3.5,1.9375 3.5,3.75 0,2 -1.3125,3.53125 -3.5,3.875 l 0,-7.625 z"
         style="font-size:31.25px"
         id="path4397" />
    </g>
    <path
       style="opacity:1;fill:#f4e3d7;fill-opacity:1;stroke:#000000;stroke-width:2;stroke-linejoin:miter;stroke-miterlimit:4;stroke-dasharray:none;stroke-opacity:1"
       d="m 234,22.362206 189,0 0,203.000004 -189,0 z"
       id="rect4219" />
    <g
       style="font-style:normal;font-variant:normal;font-weight:normal;font-stretch:normal;font-size:50px;line-height:125%;font-family:'Bitstream Charter';-inkscape-font-specification:'Bitstream Charter';letter-spacing:0px;word-spacing:0px;fill:#000000;fill-opacity:1;stroke:none;stroke-width:1px;stroke-linecap:butt;stroke-linejoin:miter;stroke-opacity:1"
       id="text4221">
      <path
         d="m 271.25001,67.362207 0,-7.9 -2.8,0 -1.1,5.55 -0.8,0.8 c -1.5,0.45 -2.95,0.65 -4.35,0.65 -8.1,0 -13.05,-5.6 -13.05,-15.1 0,-8.95 4.85,-14.35 12.3,-14.35 1.95,0 3.75,0.45 5.6,1.3 l 0.65,0.9 0.75,4.55 2.8,0 0,-7.7 c -3.65,-1.15 -6.95,-1.7 -9.9,-1.7 -10.4,0 -17.35,6.95 -17.35,17.35 0,6.55 3.3,12.35 8.65,15.4 2.3,1.3 5.2,2 8.5,2 3.35,0 6.8,-0.6 10.1,-1.75 z"
         style=""
         id="path4401" />
      <path
         d="m 275.14063,68.512207 12.6,0 0,-2.05 -3.55,-0.25 -0.85,-0.7 0,-9.85 c 1.55,0.15 2.8,0.25 3.75,0.25 8.05,0 12.95,-4.35 12.95,-10.75 0,-7.6 -4.3,-10.2 -13.9,-10.2 l -11.4,0 0,2 3.25,0.3 0.85,0.7 0,27.55 -0.85,0.7 -2.85,0.25 0,2.05 z m 8.2,-15.25 0,-15.9 c 0.9,-0.1 1.8,-0.1 2.6,-0.1 6.4,0 9.45,2.45 9.45,7.8 0,5.5 -3.05,8.45 -8.75,8.45 -0.75,0 -1.85,-0.1 -3.3,-0.25 z"
         style=""
         id="path4403" />
      <path
         d="m 302.67032,34.962207 0,2 2.85,0.3 0.85,0.7 0,18.55 c 0,3.7 0.25,6.45 2.2,8.8 1.9,2.3 5.6,3.8 10.35,3.8 4.75,0 8.45,-1.5 10.35,-3.8 1.95,-2.35 2.2,-5.15 2.2,-8.8 l 0,-18.2 0.9,-0.9 3,-0.45 0,-2 -10.55,0 0,2 3,0.45 0.95,0.9 0,17.75 c 0,6.8 -2.6,9.95 -8.9,9.95 -6.4,0 -8.95,-3.15 -8.95,-9.95 l 0,-18.1 0.9,-0.7 3.1,-0.3 0,-2 -12.25,0 z"
         style=""
         id="path4405" />
    </g>
    <path
       style="opacity:1;fill:#f6ffd5;fill-opacity:1;stroke:#000000;stroke-width:2;stroke-linejoin:miter;stroke-miterlimit:4;stroke-dasharray:none;stroke-opacity:1"
       d="m 253.45459,84.4543 68.09082,0 0,46.81583 -68.09082,0 z"
       id="rect4227" />
    <g
       style="font-style:normal;font-variant:normal;font-weight:normal;font-stretch:normal;font-size:31.25px;line-height:125%;font-family:'Bitstream Charter';-inkscape-font-specification:'Bitstream Charter';letter-spacing:0px;word-spacing:0px;fill:#000000;fill-opacity:1;stroke:none;stroke-width:1px;stroke-linecap:butt;stroke-linejoin:miter;stroke-opacity:1"
       id="text4229">
      <path
         d="m 259.49336,115.87472 11.975,0 0,-4.55 -1.3,0 -0.425,3 -0.35,0.4 -5.65,0 0,-14.125 0.425,-0.35 1.425,-0.15 0,-1.000002 -6.1,0 0,1.000002 1.575,0.15 0.425,0.35 0,13.775 -0.425,0.35 -1.575,0.125 0,1.025 z"
         style="font-size:25px"
         id="path4409" />
      <path
         d="m 279.58164,98.799718 -5.425,1.625002 0,1.05 3.925,-0.7 0,13.45 -0.3,0.425 -2.875,0.15 0,1.075 8.375,0 0,-1.05 -2.7,-0.125 -0.3,-0.375 0,-15.525002 -0.7,0 z"
         style="font-size:25px"
         id="path4411" />
      <path
         d="m 292.72266,99.099718 -6.175,0 0,1.000002 1.425,0.15 0.425,0.35 0,13.775 -0.425,0.35 -1.425,0.125 0,1.025 6.175,0 c 2.5,0 4.4,-0.275 6.1,-1.55 2.05,-1.55 3.125,-3.875 3.125,-6.85 0,-5.25 -3.3,-8.375002 -9.225,-8.375002 z m -2.075,1.150002 1.975,0 c 4.575,0 6.8,2.35 6.8,7.225 0,4.85 -2.225,7.25 -6.8,7.25 l -1.975,0 0,-14.475 z"
         style="font-size:25px"
         id="path4413" />
      <path
         d="m 309.53164,97.299718 0,1.85 c -2.95,0.5 -4.575,2.225002 -4.575,4.500002 0,2.325 1.525,3.85 4.575,4.55 l 0,6.525 c -1.25,0 -2.325,-0.2 -3.2,-0.625 l -0.225,-0.325 -0.45,-2.725 -1.15,0 0,4.2 c 1.225,0.325 2.9,0.55 5.025,0.625 l 0,2.55 1.05,0 0,-2.55 c 3.1,-0.55 4.925,-2.425 4.925,-4.8 0,-2.5 -1.525,-3.775 -4.925,-4.7 l 0,-6.125 c 0.825,0 1.6,0.15 2.35,0.425 l 0.375,0.525 0.375,2.325 1.125,0 0,-3.900002 c -1.525,-0.35 -2.875,-0.55 -4.025,-0.55 -0.075,0 -0.125,0 -0.2,0 l 0,-1.775 -1.05,0 z m 0,3.025002 0,5.75 c -1.65,-0.525 -2.45,-1.475 -2.45,-2.875 0,-1.45 0.875,-2.525 2.45,-2.875 z m 1.1,8.2 c 1.875,0.55 2.8,1.55 2.8,3 0,1.6 -1.05,2.825 -2.8,3.1 l 0,-6.1 z"
         style="font-size:25px"
         id="path4415" />
    </g>
    <path
       style="opacity:1;fill:#f6ffd5;fill-opacity:1;stroke:#000000;stroke-width:2;stroke-linejoin:miter;stroke-miterlimit:4;stroke-dasharray:none;stroke-opacity:1"
       d="m 335.45459,84.4543 68.09082,0 0,46.81583 -68.09082,0 z"
       id="rect4235" />
    <g
       style="font-style:normal;font-variant:normal;font-weight:normal;font-stretch:normal;font-size:31.25px;line-height:125%;font-family:'Bitstream Charter';-inkscape-font-specification:'Bitstream Charter';letter-spacing:0px;word-spacing:0px;fill:#000000;fill-opacity:1;stroke:none;stroke-width:1px;stroke-linecap:butt;stroke-linejoin:miter;stroke-opacity:1"
       id="text4237">
      <path
         d="m 341.49336,115.87472 11.975,0 0,-4.55 -1.3,0 -0.425,3 -0.35,0.4 -5.65,0 0,-14.125 0.425,-0.35 1.425,-0.15 0,-1.000002 -6.1,0 0,1.000002 1.575,0.15 0.425,0.35 0,13.775 -0.425,0.35 -1.575,0.125 0,1.025 z"
         style="font-size:25px"
         id="path4419" />
      <path
         d="m 361.58164,98.799718 -5.425,1.625002 0,1.05 3.925,-0.7 0,13.45 -0.3,0.425 -2.875,0.15 0,1.075 8.375,0 0,-1.05 -2.7,-0.125 -0.3,-0.375 0,-15.525002 -0.7,0 z"
         style="font-size:25px"
         id="path4421" />
      <path
         d="m 368.59766,115.87472 6.325,0 0,-1.025 -1.6,-0.125 -0.425,-0.35 0,-13.775 0.425,-0.35 1.6,-0.15 0,-1.000002 -6.325,0 0,1.000002 1.6,0.15 0.425,0.35 0,13.775 -0.425,0.35 -1.6,0.125 0,1.025 z"
         style="font-size:25px"
         id="path4423" />
      <path
         d="m 382.30313,97.299718 0,1.85 c -2.95001,0.5 -4.57501,2.225002 -4.57501,4.500002 0,2.325 1.525,3.85 4.57501,4.55 l 0,6.525 c -1.25,0 -2.32501,-0.2 -3.20001,-0.625 l -0.225,-0.325 -0.44999,-2.725 -1.15001,0 0,4.2 c 1.225,0.325 2.90001,0.55 5.02501,0.625 l 0,2.55 1.04999,0 0,-2.55 c 3.1,-0.55 4.925,-2.425 4.925,-4.8 0,-2.5 -1.525,-3.775 -4.925,-4.7 l 0,-6.125 c 0.82501,0 1.6,0.15 2.35,0.425 l 0.375,0.525 0.375,2.325 1.125,0 0,-3.900002 c -1.52499,-0.35 -2.875,-0.55 -4.02499,-0.55 -0.075,0 -0.125,0 -0.20001,0 l 0,-1.775 -1.04999,0 z m 0,3.025002 0,5.75 c -1.65001,-0.525 -2.45001,-1.475 -2.45001,-2.875 0,-1.45 0.875,-2.525 2.45001,-2.875 z m 1.09999,8.2 c 1.875,0.55 2.8,1.55 2.8,3 0,1.6 -1.05,2.825 -2.8,3.1 l 0,-6.1 z"
         style="font-size:25px"
         id="path4425" />
    </g>
    <path
       style="opacity:1;fill:#f6ffd5;fill-opacity:1;stroke:#000000;stroke-width:2;stroke-linejoin:miter;stroke-miterlimit:4;stroke-dasharray:none;stroke-opacity:1"
       d="m 285.68555,141.73759 87.62893,0 0,60.24926 -87.62893,0 z"
       id="rect4243" />
    <g
       style="font-style:normal;font-variant:normal;font-weight:normal;font-stretch:normal;font-size:31.25px;line-height:125%;font-family:'Bitstream Charter';-inkscape-font-specification:'Bitstream Charter';letter-spacing:0px;word-spacing:0px;fill:#000000;fill-opacity:1;stroke:none;stroke-width:1px;stroke-linecap:butt;stroke-linejoin:miter;stroke-opacity:1"
       id="text4245">
      <path
         d="m 305.32544,181.87784 14.96875,0 0,-5.6875 -1.625,0 -0.53125,3.75 -0.4375,0.5 -7.0625,0 0,-17.65625 0.53125,-0.4375 1.78125,-0.1875 0,-1.25 -7.625,0 0,1.25 1.96875,0.1875 0.53125,0.4375 0,17.21875 -0.53125,0.4375 -1.96875,0.15625 0,1.28125 z"
         style="font-size:31.25px"
         id="path4429" />
      <path
         d="m 325.12329,179.40909 c 6.90625,-5.5 10.6875,-9.03125 10.6875,-12.96875 0,-3.53125 -2.46875,-5.90625 -6.5,-5.90625 -3.875,0 -6.625,2.21875 -6.625,4.40625 0,1.0625 0.65625,1.75 1.75,1.75 0.5,0 0.96875,-0.15625 1.40625,-0.46875 l 0,-3.34375 c 0.9375,-0.53125 1.84375,-0.75 2.78125,-0.75 2.59375,0 4.15625,1.75 4.15625,4.71875 0,4.09375 -3.90625,7.5 -10.75,13.0625 l 0,1.96875 14.46875,0 0,-5.125 -1.40625,0 -0.5625,2.65625 -9.40625,0 z"
         style="font-size:31.25px"
         id="path4431" />
      <path
         d="m 346.20581,158.65909 0,2.3125 c -3.6875,0.625 -5.71875,2.78125 -5.71875,5.625 0,2.90625 1.90625,4.8125 5.71875,5.6875 l 0,8.15625 c -1.5625,0 -2.90625,-0.25 -4,-0.78125 l -0.28125,-0.40625 -0.5625,-3.40625 -1.4375,0 0,5.25 c 1.53125,0.40625 3.625,0.6875 6.28125,0.78125 l 0,3.1875 1.3125,0 0,-3.1875 c 3.875,-0.6875 6.15625,-3.03125 6.15625,-6 0,-3.125 -1.90625,-4.71875 -6.15625,-5.875 l 0,-7.65625 c 1.03125,0 2,0.1875 2.9375,0.53125 l 0.46875,0.65625 0.46875,2.90625 1.40625,0 0,-4.875 c -1.90625,-0.4375 -3.59375,-0.6875 -5.03125,-0.6875 -0.0937,0 -0.15625,0 -0.25,0 l 0,-2.21875 -1.3125,0 z m 0,3.78125 0,7.1875 c -2.0625,-0.65625 -3.0625,-1.84375 -3.0625,-3.59375 0,-1.8125 1.09375,-3.15625 3.0625,-3.59375 z m 1.375,10.25 c 2.34375,0.6875 3.5,1.9375 3.5,3.75 0,2 -1.3125,3.53125 -3.5,3.875 l 0,-7.625 z"
         style="font-size:31.25px"
         id="path4433" />
    </g>
    <path
       style="opacity:1;fill:#f6ffd5;fill-opacity:1;stroke:#000000;stroke-width:2;stroke-linejoin:miter;stroke-miterlimit:4;stroke-dasharray:none;stroke-opacity:1"
       d="m 26,240.71078 666.96362,0 0,68.64605 -666.96362,0 z"
       id="rect4249" />
    <g
       style="font-style:normal;font-variant:normal;font-weight:normal;font-stretch:normal;font-size:31.25px;line-height:125%;font-family:'Bitstream Charter';-inkscape-font-specification:'Bitstream Charter';letter-spacing:0px;word-spacing:0px;fill:#000000;fill-opacity:1;stroke:none;stroke-width:1px;stroke-linecap:butt;stroke-linejoin:miter;stroke-opacity:1"
       id="text4269">
      <path
         d="m 330.47234,287.05255 17.9625,0 0,-6.825 -1.95,0 -0.6375,4.5 -0.525,0.6 -8.475,0 0,-21.1875 0.6375,-0.525 2.1375,-0.225 0,-1.5 -9.15,0 0,1.5 2.3625,0.225 0.6375,0.525 0,20.6625 -0.6375,0.525 -2.3625,0.1875 0,1.5375 z"
         style="font-size:37.5px"
         id="path4437" />
      <path
         d="m 360.82976,273.81505 c 3.675,-1.05 5.5875,-3.1875 5.5875,-6.075 0,-3.7875 -2.8875,-6.3 -7.3875,-6.3 -4.6875,0 -7.9125,2.5125 -7.9125,4.9875 0,1.2 0.825,2.025 2.025,2.025 0.6,0 1.0875,-0.15 1.5375,-0.4875 l 0,-3.525 c 1.0875,-0.75 2.25,-1.0875 3.5625,-1.0875 2.8875,0 4.7625,1.9125 4.7625,4.875 0,3.0375 -2.025,4.8375 -5.8125,4.8375 -0.2625,0 -0.525,-0.0375 -0.7875,-0.0375 l 0,2.2125 c 0.7125,-0.1125 1.3875,-0.15 1.9875,-0.15 3.6,0 5.55,1.725 5.55,4.6875 0,3.3375 -2.475,5.925 -5.8875,5.925 -1.125,0 -2.175,-0.3 -3.1875,-0.9 l -1.1625,-3.1875 c -0.4125,-0.15 -0.7875,-0.1875 -1.125,-0.1875 -1.2,0 -2.1,0.825 -2.1,1.9125 0,1.9125 2.9625,4.125 7.425,4.125 5.775,0 9.4875,-3.4125 9.4875,-7.6125 0,-3.4125 -2.4,-5.7375 -6.5625,-6.0375 z"
         style="font-size:37.5px"
         id="path4439" />
      <path
         d="m 379.52878,259.19005 0,2.775 c -4.425,0.75 -6.8625,3.3375 -6.8625,6.75 0,3.4875 2.2875,5.775 6.8625,6.825 l 0,9.7875 c -1.875,0 -3.4875,-0.3 -4.8,-0.9375 l -0.3375,-0.4875 -0.675,-4.0875 -1.725,0 0,6.3 c 1.8375,0.4875 4.35,0.825 7.5375,0.9375 l 0,3.825 1.575,0 0,-3.825 c 4.65,-0.825 7.3875,-3.6375 7.3875,-7.2 0,-3.75 -2.2875,-5.6625 -7.3875,-7.05 l 0,-9.1875 c 1.2375,0 2.4,0.225 3.525,0.6375 l 0.5625,0.7875 0.5625,3.4875 1.6875,0 0,-5.85 c -2.2875,-0.525 -4.3125,-0.825 -6.0375,-0.825 -0.1125,0 -0.1875,0 -0.3,0 l 0,-2.6625 -1.575,0 z m 0,4.5375 0,8.625 c -2.475,-0.7875 -3.675,-2.2125 -3.675,-4.3125 0,-2.175 1.3125,-3.7875 3.675,-4.3125 z m 1.65,12.3 c 2.8125,0.825 4.2,2.325 4.2,4.5 0,2.4 -1.575,4.2375 -4.2,4.65 l 0,-9.15 z"
         style="font-size:37.5px"
         id="path4441" />
    </g>
    <path
       style="opacity:1;fill:#f6ffd5;fill-opacity:1;stroke:#000000;stroke-width:1.99999988;stroke-linejoin:miter;stroke-miterlimit:4;stroke-dasharray:none;stroke-opacity:1"
       d="m 26,322.71078 666.96362,0 0,100.64605 -666.96362,0 z"
       id="rect4273" />
    <g
       style="font-style:normal;font-variant:normal;font-weight:normal;font-stretch:normal;font-size:31.25px;line-height:125%;font-family:'Bitstream Charter';-inkscape-font-specification:'Bitstream Charter';letter-spacing:0px;word-spacing:0px;fill:#000000;fill-opacity:1;stroke:none;stroke-width:1px;stroke-linecap:butt;stroke-linejoin:miter;stroke-opacity:1"
       id="text4275">
      <path
         d="m 247.99227,384.30255 17.9625,0 0,-6.825 -1.95,0 -0.6375,4.5 -0.525,0.6 -8.475,0 0,-21.1875 0.6375,-0.525 2.1375,-0.225 0,-1.5 -9.15,0 0,1.5 2.3625,0.225 0.6375,0.525 0,20.6625 -0.6375,0.525 -2.3625,0.1875 0,1.5375 z"
         style="font-size:37.5px"
         id="path4445" />
      <path
         d="m 280.26219,358.91505 -12.7875,15.675 0,2.4375 12.075,0 0,8.6625 2.8875,0 0,-8.6625 4.2375,0 0,-2.4375 -4.2375,0 0,-15.675 -2.175,0 z m -0.7125,4.0875 0,11.5875 -9.2625,0 9.2625,-11.5875 z"
         style="font-size:37.5px"
         id="path4447" />
      <path
         d="m 297.04871,356.44005 0,2.775 c -4.425,0.75 -6.8625,3.3375 -6.8625,6.75 0,3.4875 2.2875,5.775 6.8625,6.825 l 0,9.7875 c -1.875,0 -3.4875,-0.3 -4.8,-0.9375 l -0.3375,-0.4875 -0.675,-4.0875 -1.725,0 0,6.3 c 1.8375,0.4875 4.35,0.825 7.5375,0.9375 l 0,3.825 1.575,0 0,-3.825 c 4.65,-0.825 7.3875,-3.6375 7.3875,-7.2 0,-3.75 -2.2875,-5.6625 -7.3875,-7.05 l 0,-9.1875 c 1.2375,0 2.4,0.225 3.525,0.6375 l 0.5625,0.7875 0.5625,3.4875 1.6875,0 0,-5.85 c -2.2875,-0.525 -4.3125,-0.825 -6.0375,-0.825 -0.1125,0 -0.1875,0 -0.3,0 l 0,-2.6625 -1.575,0 z m 0,4.5375 0,8.625 c -2.475,-0.7875 -3.675,-2.2125 -3.675,-4.3125 0,-2.175 1.3125,-3.7875 3.675,-4.3125 z m 1.65,12.3 c 2.8125,0.825 4.2,2.325 4.2,4.5 0,2.4 -1.575,4.2375 -4.2,4.65 l 0,-9.15 z"
         style="font-size:37.5px"
         id="path4449" />
      <path
         d="m 333.08563,357.37755 c -6.675,0.825 -10.5,6.4875 -10.5,16.2375 0,9.6 3.975,15.2625 10.5,16.0125 l 0,-1.575 c -5.025,-0.8625 -7.3125,-5.5875 -7.3125,-14.4 0,-9 2.175,-13.8 7.3125,-14.7 l 0,-1.575 z"
         style="font-size:37.5px"
         id="path4451" />
      <path
         d="m 351.08445,380.32755 c -2.1375,1.425 -4.0125,2.175 -5.8875,2.175 -3.7875,0 -6.3,-2.85 -6.3,-7.65 0,-0.1125 0,-0.2625 0,-0.4125 l 12.15,0 c 0.0375,-0.4125 0.0375,-0.7875 0.0375,-1.1625 0,-4.6125 -2.6625,-7.3875 -6.75,-7.3875 -5.025,0 -8.6625,3.8625 -8.6625,9.525 0,5.5125 3.4125,9.225 8.3625,9.225 2.3625,0 4.8,-0.75 7.05,-2.25 l 0,-2.0625 z m -3.3375,-7.4625 -8.6625,0 c 0.225,-3.1875 2.3625,-5.2875 4.7625,-5.2875 2.5125,0 3.9,1.65 3.9,4.6875 0,0.1875 0,0.4125 0,0.6 z"
         style="font-size:37.5px"
         id="path4453" />
      <path
         d="m 363.16824,359.14005 -9.2625,0 0,1.5 2.1375,0.225 0.6375,0.525 0,20.6625 -0.6375,0.525 -2.1375,0.1875 0,1.5375 9.2625,0 c 3.75,0 6.6,-0.4125 9.15,-2.325 3.075,-2.325 4.6875,-5.8125 4.6875,-10.275 0,-7.875 -4.95,-12.5625 -13.8375,-12.5625 z m -3.1125,1.725 2.9625,0 c 6.8625,0 10.2,3.525 10.2,10.8375 0,7.275 -3.3375,10.875 -10.2,10.875 l -2.9625,0 0,-21.7125 z"
         style="font-size:37.5px"
         id="path4455" />
      <path
         d="m 379.90672,359.14005 0,1.5 2.1375,0.225 0.6375,0.525 0,20.6625 -0.6375,0.525 -2.1375,0.1875 0,1.5375 8.925,0 0,-1.5375 -2.1375,-0.1875 -0.6375,-0.525 0,-8.925 c 0.675,-0.0375 1.3125,-0.075 1.875,-0.075 3.4125,0 4.875,0.975 5.8875,4.05 0.7875,2.4 0.9375,4.8375 2.7375,6.4125 0.8625,0.75 2.1,1.0875 3.7875,1.0875 0.8625,0 1.8,-0.1125 2.925,-0.3375 l 0,-1.425 c -0.1125,0 -0.225,0 -0.3375,0 -2.85,0 -4.05,-0.45 -4.875,-2.6625 -0.675,-1.7625 -0.7125,-3.825 -1.7625,-5.55 -0.75,-1.2375 -2.025,-2.025 -3.8625,-2.5125 4.05,-0.9 6.075,-3 6.075,-6.225 0,-4.6125 -2.9625,-6.75 -9.0375,-6.75 l -9.5625,0 z m 6.15,1.725 1.8,0 c 4.65,0 6.9,1.425 6.9,5.325 0,3.7125 -2.1375,5.175 -6.6375,5.175 -0.225,0 -0.9,0 -2.0625,-0.0375 l 0,-10.4625 z"
         style="font-size:37.5px"
         id="path4457" />
      <path
         d="m 413.56238,358.84005 -8.775,23.475 -2.175,0.45 0,1.5375 7.35,0 0,-1.5375 -2.4375,-0.1875 -0.375,-0.525 2.6625,-7.1625 8.85,0 2.7,7.1625 -0.2625,0.525 -2.325,0.1875 0,1.5375 8.5125,0 0,-1.5375 -2.25,-0.45 -9,-23.475 -2.475,0 z m 0.6,3.9375 3.8625,10.3875 -7.575,0 3.7125,-10.3875 z"
         style="font-size:37.5px"
         id="path4459" />
      <path
         d="m 428.02508,384.30255 7.9125,0 0,-1.5375 -2.2875,-0.3 -0.675,-0.7125 0,-20.475 8.55,23.025 1.6125,0 8.8875,-23.4 0,21.15 -0.375,0.525 -2.475,0.1875 0,1.5375 8.9625,0 0,-1.5375 -2.3625,-0.1875 -0.45,-0.525 0,-20.6625 0.45,-0.525 2.3625,-0.225 0,-1.5 -8.025,0 0,1.1625 -7.125,18.675 -7.05,-18.825 0,-1.0125 -7.95,0 0,1.5 2.475,0.225 0.4875,0.525 0,20.3625 -0.675,0.7125 -2.25,0.3 0,1.5375 z"
         style="font-size:37.5px"
         id="path4461" />
      <path
         d="m 460.47137,357.37755 0,1.575 c 5.1375,0.9 7.3125,5.7 7.3125,14.7 0,8.8125 -2.2875,13.5375 -7.3125,14.4 l 0,1.575 c 6.525,-0.75 10.5,-6.4125 10.5,-16.0125 0,-9.75 -3.825,-15.4125 -10.5,-16.2375 z"
         style="font-size:37.5px"
         id="path4463" />
    </g>
    <path
       id="path4279"
       d="m 120.5,207.88776 0,50.6993"
       style="fill:none;fill-rule:evenodd;stroke:#000000;stroke-width:1;stroke-linecap:butt;stroke-linejoin:miter;stroke-miterlimit:4;stroke-dasharray:none;stroke-opacity:1;marker-start:url(#Arrow1Lstart);marker-end:url(#Arrow1Lend)" />
    <path
       style="fill:none;fill-rule:evenodd;stroke:#000000;stroke-width:1;stroke-linecap:butt;stroke-linejoin:miter;stroke-miterlimit:4;stroke-dasharray:none;stroke-opacity:1;marker-start:url(#marker6671);marker-end:url(#marker6699)"
       d="m 328.5,207.88776 0,50.6993"
       id="path6669" />
    <path
       id="path6785"
       d="m 569.5,207.88776 0,50.6993"
       style="fill:none;fill-rule:evenodd;stroke:#000000;stroke-width:1;stroke-linecap:butt;stroke-linejoin:miter;stroke-miterlimit:4;stroke-dasharray:none;stroke-opacity:1;marker-start:url(#marker6787);marker-end:url(#marker6827)" />
    <path
       id="path6921"
       d="m 359.48181,291.88776 0,50.6993"
       style="fill:none;fill-rule:evenodd;stroke:#000000;stroke-width:1;stroke-linecap:butt;stroke-linejoin:miter;stroke-miterlimit:4;stroke-dasharray:none;stroke-opacity:1;marker-start:url(#marker6923);marker-end:url(#marker6975)" />
    <path
       style="opacity:1;fill:#ffaaaa;fill-opacity:1;stroke:#000000;stroke-width:1.99999988;stroke-linejoin:miter;stroke-miterlimit:4;stroke-dasharray:none;stroke-opacity:1"
       d="m 289.5,446.36221 116.5,0 0,65 -116.5,0 z"
       id="rect7131" />
    <g
       style="font-style:normal;font-variant:normal;font-weight:normal;font-stretch:normal;font-size:25px;line-height:125%;font-family:'Bitstream Charter';-inkscape-font-specification:'Bitstream Charter';text-align:center;letter-spacing:0px;word-spacing:0px;text-anchor:middle;fill:#000000;fill-opacity:1;stroke:none;stroke-width:1px;stroke-linecap:butt;stroke-linejoin:miter;stroke-opacity:1"
       id="text7133">
      <path
         d="m 309.74512,468.54968 c 1.15,0.5 2.7,0.8 4.5,0.8 4,0 6.475,-2.075 6.475,-5.025 0,-1.1 -0.375,-2.025 -1.1,-2.75 -1.15,-1.125 -2.5,-1.525 -3.775,-2.05 -2.3,-0.975 -3.5,-1.6 -3.5,-3.275 0,-1.825 1.275,-3.025 3.4,-3.025 0.875,0 1.625,0.175 2.25,0.525 l 0.375,0.425 0.375,2.375 1.3,0 0,-3.875 c -1.475,-0.475 -2.875,-0.7 -4.25,-0.7 -3.55,0 -5.775,1.975 -5.775,4.8 0,2.425 1.45,3.35 4.225,4.55 2.725,1.175 4.175,1.625 4.175,3.7 0,1.75 -1.35,3 -3.775,3 -1.125,0 -2.075,-0.2 -2.8,-0.575 l -0.325,-0.425 -0.3,-2.875 -1.475,0 0,4.4 z"
         style=""
         id="path4467" />
      <path
         d="m 322.13613,457.02468 0,0.925 1.525,0.15 4.2,10.85 c -0.625,1.775 -1.35,3.025 -2.025,3.75 l -2.4,-0.95 c -0.425,0.4 -0.65,0.85 -0.65,1.35 0,0.825 0.675,1.4 1.725,1.4 1.625,0 2.825,-1.375 4,-4.2 l 5,-12.15 1.45,-0.2 0,-0.925 -4.45,0 0,0.925 1.35,0.1 0.2,0.4 -3.125,7.775 -3,-7.775 0.3,-0.4 1.325,-0.1 0,-0.925 -5.425,0 z"
         style=""
         id="path4469" />
      <path
         d="m 343.11465,457.32468 c -0.85,-0.375 -1.825,-0.55 -2.925,-0.55 -2.85,0 -4.425,1.3 -4.425,3.5 0,1.675 1.1,2.475 3.225,3.425 1.65,0.75 2.55,1.2 2.55,2.5 0,1.175 -0.9,2.025 -2.35,2.025 -0.725,0 -1.425,-0.2 -2.125,-0.6 l -0.3,-2.125 -1.2,0 0,3.25 c 0.875,0.325 1.975,0.525 3.25,0.525 2.95,0 4.675,-1.425 4.675,-3.75 0,-0.925 -0.35,-1.675 -0.95,-2.15 -0.825,-0.675 -1.775,-1.025 -2.65,-1.45 -1.4,-0.675 -2.125,-1.2 -2.125,-2.275 0,-1.125 0.75,-1.8 2.075,-1.8 0.6,0 1.2,0.175 1.85,0.525 l 0.2,1.775 1.225,0 0,-2.825 z"
         style=""
         id="path4471" />
      <path
         d="m 346.72441,458.52468 0,8.075 c 0,1.775 0.525,2.525 2.6,2.525 0.975,0 2.1,-0.175 3.275,-0.55 l 0,-0.925 c -0.575,0.125 -1.15,0.2 -1.725,0.2 -1.75,0 -2.075,-0.825 -2.075,-2.725 l 0,-6.6 3.8,0 0,-1.175 -3.8,0 0,-2.65 -0.925,0 -1.075,2.325 -1.65,0.725 0,0.775 1.575,0 z"
         style=""
         id="path4473" />
      <path
         d="m 364.07402,466.39968 c -1.425,0.95 -2.675,1.45 -3.925,1.45 -2.525,0 -4.2,-1.9 -4.2,-5.1 0,-0.075 0,-0.175 0,-0.275 l 8.1,0 c 0.025,-0.275 0.025,-0.525 0.025,-0.775 0,-3.075 -1.775,-4.925 -4.5,-4.925 -3.35,0 -5.775,2.575 -5.775,6.35 0,3.675 2.275,6.15 5.575,6.15 1.575,0 3.2,-0.5 4.7,-1.5 l 0,-1.375 z m -2.225,-4.975 -5.775,0 c 0.15,-2.125 1.575,-3.525 3.175,-3.525 1.675,0 2.6,1.1 2.6,3.125 0,0.125 0,0.275 0,0.4 z"
         style=""
         id="path4475" />
      <path
         d="m 376.47988,458.44968 c -0.575,-1.1 -1.525,-1.675 -2.75,-1.675 -1.05,0 -2.35,0.525 -4,1.5 l 0,-1.375 -0.95,0 -2.9,0.9 0,0.775 1.775,0 0,9.05 -0.425,0.4 -1.35,0.125 0,0.9 5.475,0 0,-0.9 -1.2,-0.125 -0.425,-0.4 0,-8.375 c 1.1,-0.55 2.025,-0.825 2.85,-0.825 1.5,0 2.2,0.825 2.2,2.575 l 0,6.625 -0.425,0.4 -1.2,0.125 0,0.9 5.325,0 0,-0.9 -1.175,-0.125 -0.45,-0.4 0,-8.375 c 1.075,-0.525 2.025,-0.825 2.825,-0.825 1.55,0 2.25,0.825 2.25,2.575 l 0,6.625 -0.45,0.4 -1.175,0.125 0,0.9 5.45,0 0,-0.9 -1.325,-0.125 -0.425,-0.4 0,-7.05 c 0,-2.475 -1.25,-3.8 -3.225,-3.8 -1,0 -2.425,0.575 -4.3,1.675 z"
         style=""
         id="path4477" />
      <path
         d="m 322.40078,483.32468 -5.85,15.65 -1.45,0.3 0,1.025 4.9,0 0,-1.025 -1.625,-0.125 -0.25,-0.35 1.775,-4.775 5.9,0 1.8,4.775 -0.175,0.35 -1.55,0.125 0,1.025 5.675,0 0,-1.025 -1.5,-0.3 -6,-15.65 -1.65,0 z m 0.4,2.625 2.575,6.925 -5.05,0 2.475,-6.925 z"
         style=""
         id="path4479" />
      <path
         d="m 340.49258,488.72468 c -0.95,-0.475 -1.875,-0.7 -2.825,-0.7 -2.95,0 -4.85,1.7 -4.85,4.125 0,1.875 1.175,3.35 3.1,3.775 -0.8,0.95 -1.2,1.725 -1.2,2.375 0,0.4 0.1,0.775 0.25,1.125 -1.7,0.3 -2.7,1.5 -2.7,3.1 0,2 1.65,3.225 4.525,3.225 1.9,0 3.625,-0.575 4.95,-1.65 0.975,-0.8 1.5,-1.875 1.5,-2.8 0,-1.85 -1.3,-2.625 -4.25,-3.075 l -2.4,-0.375 c -0.025,-0.275 -0.05,-0.475 -0.05,-0.6 0,-0.4 0.1,-0.775 0.275,-1.125 0.15,0 0.3,0 0.425,0 2.9,0 4.775,-1.675 4.775,-3.9 0,-0.875 -0.225,-1.6 -0.7,-2.325 l 2.75,0 0,-1.175 -3.575,0 z m -3.075,0.275 c 1.45,0 2.45,1.175 2.45,3.075 0,1.875 -1,3.075 -2.45,3.075 -1.45,0 -2.45,-1.2 -2.45,-3.075 0,-1.925 1,-3.075 2.45,-3.075 z m -1,10.55 2.425,0.45 c 1.75,0.325 2.55,0.6 2.55,1.95 0,1.4 -1.5,2.65 -3.725,2.65 -2.05,0 -3.4,-1.15 -3.4,-2.6 0,-1.1 0.775,-2.025 2.15,-2.45 z"
         style=""
         id="path4481" />
      <path
         d="m 355.55352,497.64968 c -1.425,0.95 -2.675,1.45 -3.925,1.45 -2.525,0 -4.2,-1.9 -4.2,-5.1 0,-0.075 0,-0.175 0,-0.275 l 8.1,0 c 0.025,-0.275 0.025,-0.525 0.025,-0.775 0,-3.075 -1.775,-4.925 -4.5,-4.925 -3.35,0 -5.775,2.575 -5.775,6.35 0,3.675 2.275,6.15 5.575,6.15 1.575,0 3.2,-0.5 4.7,-1.5 l 0,-1.375 z m -2.225,-4.975 -5.775,0 c 0.15,-2.125 1.575,-3.525 3.175,-3.525 1.675,0 2.6,1.1 2.6,3.125 0,0.125 0,0.275 0,0.4 z"
         style=""
         id="path4483" />
      <path
         d="m 357.35937,500.29968 5.47501,0 0,-0.9 -1.20001,-0.125 -0.42499,-0.4 0,-8.375 c 1.07499,-0.55 2,-0.825 2.79999,-0.825 1.85,0 2.525,0.75 2.525,2.575 l 0,6.625 -0.425,0.4 -1.2,0.125 0,0.9 5.475,0 0,-0.9 -1.35,-0.125 -0.425,-0.4 0,-7.05 c 0,-2.5 -1.2,-3.8 -3.375,-3.8 -1.075,0 -2.35,0.575 -4.02499,1.5 l 0,-1.375 -0.95001,0 -2.9,0.9 0,0.775 1.775,0 0,9.05 -0.42499,0.4 -1.35001,0.125 0,0.9 z"
         style=""
         id="path4485" />
      <path
         d="m 373.01836,489.77468 0,8.075 c 0,1.775 0.525,2.525 2.6,2.525 0.975,0 2.1,-0.175 3.275,-0.55 l 0,-0.925 c -0.575,0.125 -1.15,0.2 -1.725,0.2 -1.75,0 -2.075,-0.825 -2.075,-2.725 l 0,-6.6 3.8,0 0,-1.175 -3.8,0 0,-2.65 -0.925,0 -1.075,2.325 -1.65,0.725 0,0.775 1.575,0 z"
         style=""
         id="path4487" />
    </g>
    <path
       style="opacity:1;fill:#d7eef4;fill-opacity:1;stroke:#000000;stroke-width:1.99999988;stroke-linejoin:miter;stroke-miterlimit:4;stroke-dasharray:none;stroke-opacity:1"
       d="m 69.5,446.36221 116.5,0 0,65 -116.5,0 z"
       id="rect7147" />
    <g
       style="font-style:normal;font-variant:normal;font-weight:normal;font-stretch:normal;font-size:25px;line-height:125%;font-family:'Bitstream Charter';-inkscape-font-specification:'Bitstream Charter';text-align:center;letter-spacing:0px;word-spacing:0px;text-anchor:middle;fill:#000000;fill-opacity:1;stroke:none;stroke-width:1px;stroke-linecap:butt;stroke-linejoin:miter;stroke-opacity:1"
       id="text7149">
      <path
         d="m 93.69278,470.82473 -6.175,0 0,1 1.425,0.15 0.425,0.35 0,13.775 -0.425,0.35 -1.425,0.125 0,1.025 6.175,0 c 2.5,0 4.4,-0.275 6.1,-1.55 2.05,-1.55 3.125,-3.875 3.125,-6.85 0,-5.25 -3.3,-8.375 -9.225,-8.375 z m -2.075,1.15 1.975,0 c 4.575,0 6.8,2.35 6.8,7.225 0,4.85 -2.225,7.25 -6.8,7.25 l -1.975,0 0,-14.475 z"
         style=""
         id="path4491" />
      <path
         d="m 115.22676,484.94973 c -1.425,0.95 -2.675,1.45 -3.925,1.45 -2.525,0 -4.2,-1.9 -4.2,-5.1 0,-0.075 0,-0.175 0,-0.275 l 8.1,0 c 0.025,-0.275 0.025,-0.525 0.025,-0.775 0,-3.075 -1.775,-4.925 -4.5,-4.925 -3.35,0 -5.775,2.575 -5.775,6.35 0,3.675 2.275,6.15 5.575,6.15 1.575,0 3.2,-0.5 4.7,-1.5 l 0,-1.375 z m -2.225,-4.975 -5.775,0 c 0.15,-2.125 1.575,-3.525 3.175,-3.525 1.675,0 2.6,1.1 2.6,3.125 0,0.125 0,0.275 0,0.4 z"
         style=""
         id="path4493" />
      <path
         d="m 116.15762,475.57473 0,0.925 1.525,0.15 4.025,10.95 1.4,0 4.375,-10.9 1.475,-0.2 0,-0.925 -4.425,0 0,0.925 1.35,0.1 0.2,0.4 -3.2,8.175 -2.925,-8.175 0.3,-0.4 1.325,-0.1 0,-0.925 -5.425,0 z"
         style=""
         id="path4495" />
      <path
         d="m 132.48614,469.89973 c -0.8,0 -1.45,0.625 -1.45,1.45 0,0.8 0.65,1.425 1.45,1.425 0.8,0 1.45,-0.625 1.45,-1.425 0,-0.8 -0.65,-1.45 -1.45,-1.45 z m -0.1,5.55 -2.875,0.9 0,0.775 1.75,0 0,9.05 -0.425,0.4 -1.325,0.125 0,0.9 5.625,0 0,-0.9 -1.35,-0.125 -0.45,-0.4 0,-10.725 -0.95,0 z"
         style=""
         id="path4497" />
      <path
         d="m 146.24356,486.54973 0,-1.3 c -1.05,0.7 -2.075,1.05 -3.175,1.05 -2.6,0 -4.25,-1.825 -4.25,-4.9 0,-3.15 1.525,-5.075 3.675,-5.075 0.425,0 0.825,0.125 1.2,0.35 l 0,2.05 c 0.375,0.25 0.75,0.375 1.125,0.375 0.85,0 1.4,-0.525 1.4,-1.325 0,-1.45 -1.35,-2.45 -3.75,-2.45 -3.5,0 -5.925,2.525 -5.925,6.25 0,3.7 2.225,6.2 5.625,6.2 1.35,0 2.7,-0.425 4.075,-1.225 z"
         style=""
         id="path4499" />
      <path
         d="m 157.95137,484.94973 c -1.425,0.95 -2.675,1.45 -3.925,1.45 -2.525,0 -4.2,-1.9 -4.2,-5.1 0,-0.075 0,-0.175 0,-0.275 l 8.1,0 c 0.025,-0.275 0.025,-0.525 0.025,-0.775 0,-3.075 -1.775,-4.925 -4.5,-4.925 -3.35,0 -5.775,2.575 -5.775,6.35 0,3.675 2.275,6.15 5.575,6.15 1.575,0 3.2,-0.5 4.7,-1.5 l 0,-1.375 z m -2.225,-4.975 -5.775,0 c 0.15,-2.125 1.575,-3.525 3.175,-3.525 1.675,0 2.6,1.1 2.6,3.125 0,0.125 0,0.275 0,0.4 z"
         style=""
         id="path4501" />
      <path
         d="m 167.60723,475.87473 c -0.85,-0.375 -1.825,-0.55 -2.925,-0.55 -2.85,0 -4.425,1.3 -4.425,3.5 0,1.675 1.1,2.475 3.225,3.425 1.65,0.75 2.55,1.2 2.55,2.5 0,1.175 -0.9,2.025 -2.35,2.025 -0.725,0 -1.425,-0.2 -2.125,-0.6 l -0.3,-2.125 -1.2,0 0,3.25 c 0.875,0.325 1.975,0.525 3.25,0.525 2.95,0 4.675,-1.425 4.675,-3.75 0,-0.925 -0.35,-1.675 -0.95,-2.15 -0.825,-0.675 -1.775,-1.025 -2.65,-1.45 -1.4,-0.675 -2.125,-1.2 -2.125,-2.275 0,-1.125 0.75,-1.8 2.075,-1.8 0.6,0 1.2,0.175 1.85,0.525 l 0.2,1.775 1.225,0 0,-2.825 z"
         style=""
         id="path4503" />
    </g>
    <path
       id="rect7845"
       d="m 224.88672,476.49736 -19.52344,13.60526 19.52344,11.40076 0,-11.06916 25.72656,0 0,11.06916 19.52344,-11.40076 -19.52344,-13.60526 0,11.06794 -25.72656,0 z"
       style="opacity:1;fill:#f4e3d7;fill-opacity:1;stroke:#000000;stroke-width:1;stroke-linejoin:miter;stroke-miterlimit:4;stroke-dasharray:none;stroke-opacity:1" />
    <g
       style="font-style:normal;font-variant:normal;font-weight:normal;font-stretch:normal;font-size:25px;line-height:125%;font-family:'Bitstream Charter';-inkscape-font-specification:'Bitstream Charter';letter-spacing:0px;word-spacing:0px;fill:#000000;fill-opacity:1;stroke:none;stroke-width:1px;stroke-linecap:butt;stroke-linejoin:miter;stroke-opacity:1"
       id="text7898">
      <path
         d="m 213.71718,472.96942 6.3,0 0,-1.025 -1.775,-0.125 -0.425,-0.35 0,-4.925 c 0.775,0.075 1.4,0.125 1.875,0.125 4.025,0 6.475,-2.175 6.475,-5.375 0,-3.8 -2.15,-5.1 -6.95,-5.1 l -5.7,0 0,1 1.625,0.15 0.425,0.35 0,13.775 -0.425,0.35 -1.425,0.125 0,1.025 z m 4.1,-7.625 0,-7.95 c 0.45,-0.05 0.9,-0.05 1.3,-0.05 3.2,0 4.725,1.225 4.725,3.9 0,2.75 -1.525,4.225 -4.375,4.225 -0.375,0 -0.925,-0.05 -1.65,-0.125 z"
         style="font-size:25px"
         id="path4506" />
      <path
         d="m 241.55703,472.39442 0,-3.95 -1.4,0 -0.55,2.775 -0.4,0.4 c -0.75,0.225 -1.475,0.325 -2.175,0.325 -4.05,0 -6.525,-2.8 -6.525,-7.55 0,-4.475 2.425,-7.175 6.15,-7.175 0.975,0 1.875,0.225 2.8,0.65 l 0.325,0.45 0.375,2.275 1.4,0 0,-3.85 c -1.825,-0.575 -3.475,-0.85 -4.95,-0.85 -5.2,0 -8.675,3.475 -8.675,8.675 0,3.275 1.65,6.175 4.325,7.7 1.15,0.65 2.6,1 4.25,1 1.675,0 3.4,-0.3 5.05,-0.875 z"
         style="font-size:25px"
         id="path4508" />
      <path
         d="m 243.55234,472.96942 6.325,0 0,-1.025 -1.6,-0.125 -0.425,-0.35 0,-13.775 0.425,-0.35 1.6,-0.15 0,-1 -6.325,0 0,1 1.6,0.15 0.425,0.35 0,13.775 -0.425,0.35 -1.6,0.125 0,1.025 z"
         style="font-size:25px"
         id="path4510" />
      <path
         d="m 261.98281,470.31942 c -1.425,0.95 -2.675,1.45 -3.925,1.45 -2.525,0 -4.2,-1.9 -4.2,-5.1 0,-0.075 0,-0.175 0,-0.275 l 8.1,0 c 0.025,-0.275 0.025,-0.525 0.025,-0.775 0,-3.075 -1.775,-4.925 -4.5,-4.925 -3.35,0 -5.775,2.575 -5.775,6.35 0,3.675 2.275,6.15 5.575,6.15 1.575,0 3.2,-0.5 4.7,-1.5 l 0,-1.375 z m -2.225,-4.975 -5.775,0 c 0.15,-2.125 1.575,-3.525 3.175,-3.525 1.675,0 2.6,1.1 2.6,3.125 0,0.125 0,0.275 0,0.4 z"
         style="font-size:25px"
         id="path4512" />
    </g>
    <path
       style="opacity:1;fill:#e5d5ff;fill-opacity:1;stroke:#000000;stroke-width:1.99999988;stroke-linejoin:miter;stroke-miterlimit:4;stroke-dasharray:none;stroke-opacity:1"
       d="m 471.5,446.36221 54.25,0 0,65 -54.25,0 z"
       id="rect7902" />
    <g
       style="font-style:normal;font-variant:normal;font-weight:normal;font-stretch:normal;font-size:25px;line-height:125%;font-family:'Bitstream Charter';-inkscape-font-specification:'Bitstream Charter';text-align:center;letter-spacing:0px;word-spacing:0px;text-anchor:middle;fill:#000000;fill-opacity:1;stroke:none;stroke-width:1px;stroke-linecap:butt;stroke-linejoin:miter;stroke-opacity:1"
       id="text7904">
      <path
         d="m 480.85956,487.59973 5.275,0 0,-1.025 -1.525,-0.2 -0.45,-0.475 0,-13.65 5.7,15.35 1.075,0 5.925,-15.6 0,14.1 -0.25,0.35 -1.65,0.125 0,1.025 5.975,0 0,-1.025 -1.575,-0.125 -0.3,-0.35 0,-13.775 0.3,-0.35 1.575,-0.15 0,-1 -5.35,0 0,0.775 -4.75,12.45 -4.7,-12.55 0,-0.675 -5.3,0 0,1 1.65,0.15 0.325,0.35 0,13.575 -0.45,0.475 -1.5,0.2 0,1.025 z"
         style=""
         id="path4516" />
      <path
         d="m 516.41542,487.02473 0,-3.95 -1.4,0 -0.55,2.775 -0.4,0.4 c -0.75,0.225 -1.475,0.325 -2.175,0.325 -4.05,0 -6.525,-2.8 -6.525,-7.55 0,-4.475 2.425,-7.175 6.15,-7.175 0.975,0 1.875,0.225 2.8,0.65 l 0.325,0.45 0.375,2.275 1.4,0 0,-3.85 c -1.825,-0.575 -3.475,-0.85 -4.95,-0.85 -5.2,0 -8.675,3.475 -8.675,8.675 0,3.275 1.65,6.175 4.325,7.7 1.15,0.65 2.6,1 4.25,1 1.675,0 3.4,-0.3 5.05,-0.875 z"
         style=""
         id="path4518" />
    </g>
    <path
       style="fill:none;fill-rule:evenodd;stroke:#000000;stroke-width:1;stroke-linecap:butt;stroke-linejoin:miter;stroke-miterlimit:4;stroke-dasharray:none;stroke-opacity:1;marker-start:url(#marker7922);marker-end:url(#marker7998)"
       d="m 462.83146,478.86221 -50.6993,0"
       id="path7920" />
    <path
       style="opacity:1;fill:#d7e3f4;fill-opacity:1;stroke:#000000;stroke-width:2;stroke-linejoin:miter;stroke-miterlimit:4;stroke-dasharray:none;stroke-opacity:1"
       d="m 601.70929,444.36221 81.54069,0 0,44.5 -81.54069,0 z"
       id="rect8260" />
    <g
       style="font-style:normal;font-variant:normal;font-weight:normal;font-stretch:normal;font-size:25px;line-height:125%;font-family:'Bitstream Charter';-inkscape-font-specification:'Bitstream Charter';text-align:center;letter-spacing:0px;word-spacing:0px;text-anchor:middle;fill:#000000;fill-opacity:1;stroke:none;stroke-width:1px;stroke-linecap:butt;stroke-linejoin:miter;stroke-opacity:1"
       id="text8536">
      <path
         d="m 623.53314,458.12472 -6.175,0 0,1 1.425,0.15 0.425,0.35 0,13.775 -0.425,0.35 -1.425,0.125 0,1.025 6.175,0 c 2.5,0 4.4,-0.275 6.1,-1.55 2.05,-1.55 3.125,-3.875 3.125,-6.85 0,-5.25 -3.3,-8.375 -9.225,-8.375 z m -2.075,1.15 1.975,0 c 4.575,0 6.8,2.35 6.8,7.225 0,4.85 -2.225,7.25 -6.8,7.25 l -1.975,0 0,-14.475 z"
         style=""
         id="path4522" />
      <path
         d="m 640.86713,458.12472 -6.175,0 0,1 1.425,0.15 0.425,0.35 0,13.775 -0.425,0.35 -1.425,0.125 0,1.025 6.175,0 c 2.5,0 4.4,-0.275 6.1,-1.55 2.05,-1.55 3.125,-3.875 3.125,-6.85 0,-5.25 -3.3,-8.375 -9.225,-8.375 z m -2.075,1.15 1.975,0 c 4.575,0 6.8,2.35 6.8,7.225 0,4.85 -2.225,7.25 -6.8,7.25 l -1.975,0 0,-14.475 z"
         style=""
         id="path4524" />
      <path
         d="m 652.02611,458.12472 0,1 1.425,0.15 0.425,0.35 0,13.775 -0.425,0.35 -1.425,0.125 0,1.025 5.95,0 0,-1.025 -1.425,-0.125 -0.425,-0.35 0,-5.95 c 0.45,-0.025 0.875,-0.05 1.25,-0.05 2.275,0 3.25,0.65 3.925,2.7 0.525,1.6 0.625,3.225 1.825,4.275 0.575,0.5 1.4,0.725 2.525,0.725 0.575,0 1.2,-0.075 1.95,-0.225 l 0,-0.95 c -0.075,0 -0.15,0 -0.225,0 -1.9,0 -2.7,-0.3 -3.25,-1.775 -0.45,-1.175 -0.475,-2.55 -1.175,-3.7 -0.5,-0.825 -1.35,-1.35 -2.575,-1.675 2.7,-0.6 4.05,-2 4.05,-4.15 0,-3.075 -1.975,-4.5 -6.025,-4.5 l -6.375,0 z m 4.1,1.15 1.2,0 c 3.1,0 4.6,0.95 4.6,3.55 0,2.475 -1.425,3.45 -4.425,3.45 -0.15,0 -0.6,0 -1.375,-0.025 l 0,-6.975 z"
         style=""
         id="path4526" />
    </g>
    <path
       style="opacity:1;fill:#d7e3f4;fill-opacity:1;stroke:#000000;stroke-width:2;stroke-linejoin:miter;stroke-miterlimit:4;stroke-dasharray:none;stroke-opacity:1"
       d="m 585.5,468.36221 81.5407,0 0,44.5 -81.5407,0 z"
       id="rect8262" />
    <path
       id="path8276"
       d="m 577.99893,478.86221 -46.03424,0"
       style="fill:none;fill-rule:evenodd;stroke:#000000;stroke-width:1;stroke-linecap:butt;stroke-linejoin:miter;stroke-miterlimit:4;stroke-dasharray:none;stroke-opacity:1;marker-start:url(#marker8278);marker-end:url(#marker8366)" />
    <g
       style="font-style:normal;font-variant:normal;font-weight:normal;font-stretch:normal;font-size:25px;line-height:125%;font-family:'Bitstream Charter';-inkscape-font-specification:'Bitstream Charter';text-align:center;letter-spacing:0px;word-spacing:0px;text-anchor:middle;fill:#000000;fill-opacity:1;stroke:none;stroke-width:1px;stroke-linecap:butt;stroke-linejoin:miter;stroke-opacity:1"
       id="text8532">
      <path
         d="m 607.32385,482.12472 -6.175,0 0,1 1.425,0.15 0.425,0.35 0,13.775 -0.425,0.35 -1.425,0.125 0,1.025 6.175,0 c 2.5,0 4.4,-0.275 6.1,-1.55 2.05,-1.55 3.125,-3.875 3.125,-6.85 0,-5.25 -3.3,-8.375 -9.225,-8.375 z m -2.075,1.15 1.975,0 c 4.575,0 6.8,2.35 6.8,7.225 0,4.85 -2.225,7.25 -6.8,7.25 l -1.975,0 0,-14.475 z"
         style=""
         id="path4530" />
      <path
         d="m 624.65784,482.12472 -6.175,0 0,1 1.425,0.15 0.425,0.35 0,13.775 -0.425,0.35 -1.425,0.125 0,1.025 6.175,0 c 2.5,0 4.4,-0.275 6.1,-1.55 2.05,-1.55 3.125,-3.875 3.125,-6.85 0,-5.25 -3.3,-8.375 -9.225,-8.375 z m -2.075,1.15 1.975,0 c 4.575,0 6.8,2.35 6.8,7.225 0,4.85 -2.225,7.25 -6.8,7.25 l -1.975,0 0,-14.475 z"
         style=""
         id="path4532" />
      <path
         d="m 635.81682,482.12472 0,1 1.425,0.15 0.425,0.35 0,13.775 -0.425,0.35 -1.425,0.125 0,1.025 5.95,0 0,-1.025 -1.425,-0.125 -0.425,-0.35 0,-5.95 c 0.45,-0.025 0.875,-0.05 1.25,-0.05 2.275,0 3.25,0.65 3.925,2.7 0.525,1.6 0.625,3.225 1.825,4.275 0.575,0.5 1.4,0.725 2.525,0.725 0.575,0 1.2,-0.075 1.95,-0.225 l 0,-0.95 c -0.075,0 -0.15,0 -0.225,0 -1.9,0 -2.7,-0.3 -3.25,-1.775 -0.45,-1.175 -0.475,-2.55 -1.175,-3.7 -0.5,-0.825 -1.35,-1.35 -2.575,-1.675 2.7,-0.6 4.05,-2 4.05,-4.15 0,-3.075 -1.975,-4.5 -6.025,-4.5 l -6.375,0 z m 4.1,1.15 1.2,0 c 3.1,0 4.6,0.95 4.6,3.55 0,2.475 -1.425,3.45 -4.425,3.45 -0.15,0 -0.6,0 -1.375,-0.025 l 0,-6.975 z"
         style=""
         id="path4534" />
    </g>
    <path
       style="fill:none;fill-rule:evenodd;stroke:#000000;stroke-width:1;stroke-linecap:butt;stroke-linejoin:miter;stroke-miterlimit:4;stroke-dasharray:none;stroke-opacity:1;marker-start:url(#marker8722);marker-end:url(#marker8822)"
       d="m 359.48181,399.88776 0,50.6993"
       id="path8720" />
  </g>
</svg>
