<?xml version="1.0" encoding="UTF-8" standalone="no"?>
<svg xmlns:xlink="http://www.w3.org/1999/xlink" height="162.19mm" width="140.5mm" xmlns="http://www.w3.org/2000/svg" version="1.1" viewBox="0 0 70.25 81.095"><defs><path id="0" d="M0.343,-0.8 L0.229,-0.762 0.152,-0.648 0.114,-0.457 v0.114 l0.038,0.19 L0.229,-0.038 0.343,0 h0.076 L0.533,-0.038 0.61,-0.152 0.648,-0.343 v-0.114 L0.61,-0.648 0.533,-0.762 0.419,-0.8 h-0.076" stroke-linejoin="round" stroke-linecap="round"/><path id="1" d="M0.19,-0.076 L0.152,-0.038 0.19,0 0.229,-0.038 0.19,-0.076" stroke-linejoin="round" stroke-linecap="round"/><path id="2" d="M-0.8,-0.343 l0.038,0.114 0.114,0.076 0.19,0.038 h0.114 l0.19,-0.038 L-0.038,-0.229 0,-0.343 v-0.076 L-0.038,-0.533 -0.152,-0.61 -0.343,-0.648 h-0.114 L-0.648,-0.61 -0.762,-0.533 -0.8,-0.419 v0.076" stroke-linejoin="round" stroke-linecap="round"/><path id="3" d="M-0.076,-0.19 l0.038,0.038 L0,-0.19 -0.038,-0.229 -0.076,-0.19" stroke-linejoin="round" stroke-linecap="round"/><path id="4" d="M0.571,-0.8 h-0.381 L0.152,-0.457 0.19,-0.495 0.305,-0.533 h0.114 L0.533,-0.495 0.61,-0.419 0.648,-0.305 v0.076 L0.61,-0.114 0.533,-0.038 0.419,0 h-0.114 L0.19,-0.038 0.152,-0.076 0.114,-0.152" stroke-linejoin="round" stroke-linecap="round"/><path id="5" d="M-0.8,-0.152 h0.8 M-0.8,-0.152 L0,-0.457 M-0.8,-0.762 L0,-0.457 M-0.8,-0.762 h0.8" stroke-linejoin="round" stroke-linecap="round"/><path id="6" d="M0.152,-0.61 v-0.038 L0.19,-0.724 0.229,-0.762 0.305,-0.8 h0.152 L0.533,-0.762 0.571,-0.724 0.61,-0.648 v0.076 L0.571,-0.495 0.495,-0.381 0.114,0 h0.533" stroke-linejoin="round" stroke-linecap="round"/><path id="7" d="M0.229,-0.648 L0.305,-0.686 0.419,-0.8 v0.8" stroke-linejoin="round" stroke-linecap="round"/><path id="8" d="M-0.533,-0.61 l0.114,0.038 0.076,0.076 0.038,0.114 v0.038 L-0.343,-0.229 -0.419,-0.152 -0.533,-0.114 h-0.038 L-0.686,-0.152 -0.762,-0.229 -0.8,-0.343 v-0.038 L-0.762,-0.495 -0.686,-0.571 -0.533,-0.61 h0.19 l0.19,0.038 0.114,0.076 L0,-0.381 v0.076 L-0.038,-0.19 -0.114,-0.152" stroke-linejoin="round" stroke-linecap="round"/><path id="9" d="M0.495,-0.8 L0.114,-0.267 h0.571 M0.495,-0.8 v0.8" stroke-linejoin="round" stroke-linecap="round"/><path id="a" d="M0.152,-0.8 v0.8" stroke-linejoin="round" stroke-linecap="round"/><path id="b" d="M-0.648,-0.229 L-0.686,-0.305 -0.8,-0.419 h0.8" stroke-linejoin="round" stroke-linecap="round"/><path id="c" d="M-0.8,-0.19 v-0.419 l0.305,0.229 v-0.114 L-0.457,-0.571 -0.419,-0.61 -0.305,-0.648 h0.076 L-0.114,-0.61 l0.076,0.076 L0,-0.419 v0.114 L-0.038,-0.19 -0.076,-0.152 -0.152,-0.114" stroke-linejoin="round" stroke-linecap="round"/><path id="d" d="M-0.8,-0.343 L0,-0.038 M-0.8,-0.343 L0,-0.648 M-0.267,-0.152 v-0.381" stroke-linejoin="round" stroke-linecap="round"/><path id="e" d="M0.152,-0.8 v0.8 M0.152,-0.8 L0.686,0 M0.686,-0.8 v0.8" stroke-linejoin="round" stroke-linecap="round"/><path id="f" d="M-0.8,-0.114 L0,-0.648 M-0.8,-0.648 L0,-0.114" stroke-linejoin="round" stroke-linecap="round"/><path id="g" d="M0.152,-0.8 v0.8 M0.152,-0.8 L0.457,0 M0.762,-0.8 L0.457,0 M0.762,-0.8 v0.8" stroke-linejoin="round" stroke-linecap="round"/><path id="h" d="M0.305,-0.8 L0.19,-0.762 0.152,-0.686 v0.076 L0.19,-0.533 0.267,-0.495 0.419,-0.457 0.533,-0.419 0.61,-0.343 0.648,-0.267 v0.114 L0.61,-0.076 0.571,-0.038 0.457,0 h-0.152 L0.19,-0.038 0.152,-0.076 0.114,-0.152 v-0.114 L0.152,-0.343 0.229,-0.419 0.343,-0.457 0.495,-0.495 0.571,-0.533 0.61,-0.61 v-0.076 L0.571,-0.762 0.457,-0.8 h-0.152" stroke-linejoin="round" stroke-linecap="round"/><path id="i" d="M-0.8,-0.571 v0.381 l0.343,0.038 L-0.495,-0.19 -0.533,-0.305 v-0.114 L-0.495,-0.533 -0.419,-0.61 -0.305,-0.648 h0.076 L-0.114,-0.61 l0.076,0.076 L0,-0.419 v0.114 L-0.038,-0.19 -0.076,-0.152 -0.152,-0.114" stroke-linejoin="round" stroke-linecap="round"/><path id="j" d="M-0.8,-0.152 h0.8 M-0.8,-0.152 L0,-0.686 M-0.8,-0.686 h0.8" stroke-linejoin="round" stroke-linecap="round"/><path id="k" d="M-0.61,-0.152 h-0.038 L-0.724,-0.19 -0.762,-0.229 -0.8,-0.305 v-0.152 L-0.762,-0.533 -0.724,-0.571 -0.648,-0.61 h0.076 l0.076,0.038 0.114,0.076 L0,-0.114 v-0.533" stroke-linejoin="round" stroke-linecap="round"/><path id="l" d="M-0.8,-0.305 L-0.762,-0.19 l0.076,0.038 h0.076 L-0.533,-0.19 -0.495,-0.267 -0.457,-0.419 -0.419,-0.533 -0.343,-0.61 -0.267,-0.648 h0.114 L-0.076,-0.61 l0.038,0.038 L0,-0.457 v0.152 L-0.038,-0.19 -0.076,-0.152 -0.152,-0.114 h-0.114 L-0.343,-0.152 -0.419,-0.229 -0.457,-0.343 -0.495,-0.495 -0.533,-0.571 -0.61,-0.61 h-0.076 L-0.762,-0.571 -0.8,-0.457 v0.152" stroke-linejoin="round" stroke-linecap="round"/><path id="m" d="M-0.8,-0.495 l0.533,0.381 v-0.571 M-0.8,-0.495 h0.8" stroke-linejoin="round" stroke-linecap="round"/><path id="n" d="M-0.8,-0.152 h0.8" stroke-linejoin="round" stroke-linecap="round"/><path id="o" d="M0.19,-0.8 h0.419 L0.381,-0.495 h0.114 L0.571,-0.457 0.61,-0.419 0.648,-0.305 v0.076 L0.61,-0.114 0.533,-0.038 0.419,0 h-0.114 L0.19,-0.038 0.152,-0.076 0.114,-0.152" stroke-linejoin="round" stroke-linecap="round"/><pattern id="p" y="51.219" x="52" height="1" patternUnits="userSpaceOnUse" width="1"><g stroke="#000" stroke-width="0.1" fill="none"><circle cy="0.5" cx="0.5" r="0.242"/><circle cy="0.5" cx="0.5" r="0.4"/></g></pattern><pattern id="q" y="77.81" x="13" height="1" patternUnits="userSpaceOnUse" width="1"><circle cy="0.5" cx="0.5" r="0.286" stroke="#000" stroke-width="0.1" fill="none"/></pattern></defs><g stroke="#000" stroke-width="0.1" fill="none"><path d="M1,5.719 h60.25 v9 h-5.75 v40.5 h-54.5 Z" stroke="#f00"/><g><g><path d="M54.8,54.619 v-43.8 h-51.08 v43.8 Z M39.4,38.619 h-11.8 v-11.8 h11.8 Z" fill="#fff"/><path d="M11.2,10.819 v43.8 M12.2,10.819 v43.8"/><rect y="26.419" x="27.2" height="12.6" width="12.6"/><path d="M39.6,10.819 v1 h-12.2 v-1"/><path d="M27.4,54.619 v-1 h12.2 v1"/><path d="M6.56,10.819 A2.7,2.7,0,0,1,9.26,8.119 h51.46 v1.8 l-51.46,0 A0.9,0.9,0,0,0,8.36,10.819"/><g><path d="M6.926,37.991 L6.783,38.133 6.712,38.347 v0.285 L6.783,38.846 6.926,38.988 h0.142 L7.211,38.917 7.282,38.846 7.353,38.703 7.496,38.276 7.567,38.133 7.638,38.062 7.781,37.991 h0.214 L8.137,38.133 8.208,38.347 v0.285 L8.137,38.846 7.994,38.988" stroke-linejoin="round" stroke-linecap="round"/><path d="M7.211,37.207 L7.282,37.35 7.424,37.492 7.638,37.563 h0.142 L7.994,37.492 8.137,37.35 8.208,37.207 v-0.214 L8.137,36.851 7.994,36.708 7.781,36.637 h-0.142 L7.424,36.708 7.282,36.851 7.211,36.993 v0.214" stroke-linejoin="round" stroke-linecap="round"/><path d="M7.424,35.355 L7.282,35.497 7.211,35.64 v0.214 L7.282,35.996 7.424,36.138 7.638,36.21 h0.142 L7.994,36.138 8.137,35.996 8.208,35.854 v-0.214 L8.137,35.497 7.994,35.355" stroke-linejoin="round" stroke-linecap="round"/><path d="M6.712,34.856 h1.496 M7.211,34.144 L7.923,34.856 M7.638,34.571 L8.208,34.073" stroke-linejoin="round" stroke-linecap="round"/><path d="M7.638,33.716 v-0.855 h-0.142 L7.353,32.933 7.282,33.004 7.211,33.146 v0.214 L7.282,33.503 7.424,33.645 7.638,33.716 h0.142 L7.994,33.645 8.137,33.503 8.208,33.36 v-0.214 L8.137,33.004 7.994,32.862" stroke-linejoin="round" stroke-linecap="round"/><path d="M6.712,32.292 h1.211 L8.137,32.22 8.208,32.078 v-0.142 M7.211,32.505 v-0.499" stroke-linejoin="round" stroke-linecap="round"/><path d="M6.712,30.012 l1.496,0.57 M6.712,30.012 L8.208,29.442 M7.709,30.368 v-0.712" stroke-linejoin="round" stroke-linecap="round"/><path d="M6.712,29.086 h1.496 M6.712,29.086 L8.208,28.516 M6.712,27.946 l1.496,0.57 M6.712,27.946 h1.496" stroke-linejoin="round" stroke-linecap="round"/><path d="M6.712,26.735 L7.709,27.447 v-1.069 M6.712,26.735 h1.496" stroke-linejoin="round" stroke-linecap="round"/></g><g stroke="none" fill="url(#p)"><rect y="15.219" x="52" height="35" width="1"/><rect y="14.219" x="51" height="36" width="1"/><rect y="13.219" x="40" height="39" width="11"/><rect y="39.219" x="38" height="13" width="2"/><rect y="13.219" x="38" height="13" width="2"/><rect y="43.219" x="36" height="9" width="2"/><rect y="39.219" x="36" height="3" width="2"/><rect y="23.219" x="36" height="3" width="2"/><rect y="13.219" x="36" height="9" width="2"/><rect y="39.219" x="31" height="13" width="5"/><rect y="13.219" x="31" height="13" width="5"/><rect y="39.219" x="30" height="13" width="1"/><rect y="23.219" x="30" height="3" width="1"/><rect y="13.219" x="30" height="9" width="1"/><rect y="43.219" x="29" height="9" width="1"/><rect y="39.219" x="29" height="3" width="1"/><rect y="23.219" x="29" height="3" width="1"/><rect y="13.219" x="29" height="9" width="1"/><rect y="43.219" x="28" height="9" width="1"/><rect y="39.219" x="28" height="3" width="1"/><rect y="13.219" x="28" height="13" width="1"/><rect y="39.219" x="27" height="13" width="1"/><rect y="13.219" x="27" height="13" width="1"/><rect y="13.219" x="16" height="39" width="11"/><rect y="14.219" x="15" height="37" width="1"/><rect y="15.219" x="14" height="35" width="1"/></g><path d="M36.1,42.679 A0.36,0.36,0,0,1,36.46,42.319 h1.08 A0.36,0.36,0,0,1,37.9,42.679 v0.08 A0.36,0.36,0,0,1,37.54,43.119 h-1.08 A0.36,0.36,0,0,1,36.1,42.759 Z"/><path d="M36.1,22.679 A0.36,0.36,0,0,1,36.46,22.319 h1.08 A0.36,0.36,0,0,1,37.9,22.679 v0.08 A0.36,0.36,0,0,1,37.54,23.119 h-1.08 A0.36,0.36,0,0,1,36.1,22.759 Z"/><path d="M29.1,22.679 A0.36,0.36,0,0,1,29.46,22.319 h1.08 A0.36,0.36,0,0,1,30.9,22.679 v0.08 A0.36,0.36,0,0,1,30.54,23.119 h-1.08 A0.36,0.36,0,0,1,29.1,22.759 Z"/><path d="M28.1,42.679 A0.36,0.36,0,0,1,28.46,42.319 h1.08 A0.36,0.36,0,0,1,29.9,42.679 v0.08 A0.36,0.36,0,0,1,29.54,43.119 h-1.08 A0.36,0.36,0,0,1,28.1,42.759 Z"/><path d="M50.79,52.419 L53.2,50.009 v-34.58 L50.79,13.019 h-34.58 L13.8,15.429 v34.58 l2.41,2.41 Z"/><path d="M54.4,54.219 h-1.6 l1.6,-1.6 Z"/></g><g><path d="M7.46,77.495 A0.9,0.9,0,0,1,7.46,75.695 h39.49 A0.9,0.9,0,0,0,47.73,75.245 A2.7,2.7,0,0,1,50.068,73.895 h10.652 v1.8 h-10.652 A0.9,0.9,0,0,0,49.289,76.145 A2.7,2.7,0,0,1,46.95,77.495 l-39.49,-0" fill="#fff"/><path d="M7.46,75.695 A0.9,0.9,0,0,1,7.46,77.495"/><path d="M3.72,73.095 h7.48 l1,2.6 h42.6 v2.329 h-51.08 Z" fill="#fff"/><rect y="78.024" x="3.72" height="0.571" width="7.48"/><rect y="78.024" x="53.5" height="0.571" width="1.3"/><g stroke="none" fill="url(#q)"><rect y="77.81" x="14" height="1" width="13"/><rect y="77.81" x="40" height="1" width="13"/></g><path d="M1.72,78.595 h55.08"/></g></g><g stroke="#00f"><g><g><path d="M27.4,10.319 v-7.1"/><path d="M39.6,10.319 v-7.1"/><g><path d="M25.4,3.719 h1.45"/><path stroke="none" d="M26.395,3.424 L27.35,3.719 26.395,4.015" fill="#00f"/></g><g><g><use y="3.452" x="41.65" xlink:href="#7"/><use y="3.452" x="42.412" xlink:href="#6"/><use y="3.452" x="43.174" xlink:href="#1"/><use y="3.452" x="43.555" xlink:href="#6"/><use y="3.452" x="44.317" xlink:href="#0"/><use y="3.452" x="45.688" xlink:href="#g"/><use y="3.452" x="46.602" xlink:href="#a"/><use y="3.452" x="46.907" xlink:href="#e"/><path d="M48.774,2.5 L48.698,2.576 48.621,2.69 48.545,2.843 48.507,3.033 v0.152 l0.038,0.19 L48.621,3.529 48.698,3.643 48.774,3.719" stroke-linejoin="round" stroke-linecap="round"/><use y="3.452" x="48.888" xlink:href="#6"/><path d="M49.764,2.919 L50.183,3.338 M50.183,2.919 L49.764,3.338" stroke-linejoin="round" stroke-linecap="round"/><path d="M50.412,2.5 L50.488,2.576 50.564,2.69 50.64,2.843 l0.038,0.19 v0.152 L50.64,3.376 50.564,3.529 50.488,3.643 50.412,3.719" stroke-linejoin="round" stroke-linecap="round"/></g><path d="M40.15,3.719 h10.631"/><path stroke="none" d="M40.605,4.015 L39.65,3.719 40.605,3.424" fill="#00f"/></g></g><g><path d="M1,5.219 v-4"/><path d="M61.25,5.219 v-4"/><g><g><path d="M30.02,0.767 L29.982,0.69 29.868,0.652 h-0.076 L29.677,0.69 29.601,0.805 29.563,0.995 v0.19 L29.601,1.338 29.677,1.414 29.792,1.452 h0.038 L29.944,1.414 30.02,1.338 30.058,1.224 v-0.038 L30.02,1.071 29.944,0.995 29.83,0.957 h-0.038 L29.677,0.995 29.601,1.071 29.563,1.186" stroke-linejoin="round" stroke-linecap="round"/><use y="1.452" x="30.173" xlink:href="#0"/><use y="1.452" x="30.935" xlink:href="#1"/><use y="1.452" x="31.315" xlink:href="#6"/><use y="1.452" x="32.077" xlink:href="#4"/></g><path d="M1.55,1.719 h59.15"/><path stroke="none" d="M60.245,1.424 L61.2,1.719 60.245,2.015" fill="#00f"/><path stroke="none" d="M2.005,2.015 L1.05,1.719 2.005,1.424" fill="#00f"/></g></g><g><path d="M39.9,26.819 h23.85"/><path d="M39.9,38.619 h23.85"/><g><g><use y="35.767" x="62.983" xlink:href="#b"/><use y="35.005" x="62.983" xlink:href="#b"/><use y="34.243" x="62.983" xlink:href="#3"/><use y="33.862" x="62.983" xlink:href="#l"/><use y="33.1" x="62.983" xlink:href="#2"/><use y="31.729" x="62.983" xlink:href="#5"/><use y="30.814" x="62.983" xlink:href="#n"/><use y="30.51" x="62.983" xlink:href="#j"/></g><path d="M63.25,27.369 v10.7"/><path stroke="none" d="M63.546,37.614 L63.25,38.569 62.954,37.614" fill="#00f"/><path stroke="none" d="M62.954,27.824 L63.25,26.869 l0.296,0.955" fill="#00f"/></g></g><g><path d="M50.5,51.719 h13.25"/><path d="M56,55.219 h7.75"/><g><g><use y="49.719" x="62.983" xlink:href="#c"/><use y="48.957" x="62.983" xlink:href="#3"/><use y="48.576" x="62.983" xlink:href="#i"/><use y="47.814" x="62.983" xlink:href="#2"/><use y="46.443" x="62.983" xlink:href="#5"/><use y="45.529" x="62.983" xlink:href="#n"/><use y="45.224" x="62.983" xlink:href="#j"/></g><path d="M63.25,51.169 v-6.783"/><path stroke="none" d="M63.546,50.714 L63.25,51.669 62.954,50.714" fill="#00f"/></g><g><path d="M63.25,55.769 v1.45"/><path stroke="none" d="M62.954,56.224 L63.25,55.269 l0.296,0.955" fill="#00f"/></g></g><g><path d="M61.75,14.719 h4"/><path d="M51,51.719 h14.75"/><g><g><use y="36.419" x="64.983" xlink:href="#c"/><path d="M64.183,35.01 l0.8,0.381 M64.183,35.543 v-0.533" stroke-linejoin="round" stroke-linecap="round"/><use y="34.895" x="64.983" xlink:href="#3"/><use y="34.514" x="64.983" xlink:href="#2"/><use y="33.752" x="64.983" xlink:href="#2"/><use y="32.381" x="64.983" xlink:href="#5"/><use y="31.467" x="64.983" xlink:href="#d"/><use y="30.781" x="64.983" xlink:href="#f"/></g><path d="M65.25,15.269 v35.9"/><path stroke="none" d="M65.546,50.714 L65.25,51.669 64.954,50.714" fill="#00f"/><path stroke="none" d="M64.954,15.724 L65.25,14.769 l0.296,0.955" fill="#00f"/></g></g><g><path d="M51.29,13.019 h16.46"/><path d="M51.29,52.419 h16.46"/><g><g><use y="34.433" x="66.983" xlink:href="#c"/><use y="33.671" x="66.983" xlink:href="#8"/><use y="32.91" x="66.983" xlink:href="#3"/><use y="32.529" x="66.983" xlink:href="#m"/><use y="31.767" x="66.983" xlink:href="#2"/></g><path d="M67.25,13.569 v38.3"/><path stroke="none" d="M67.546,51.414 L67.25,52.369 66.954,51.414" fill="#00f"/><path stroke="none" d="M66.954,14.024 L67.25,13.069 l0.296,0.955" fill="#00f"/></g></g><g><path d="M61.75,5.719 h8"/><path d="M56,55.219 h13.75"/><g><g><use y="32.183" x="68.983" xlink:href="#m"/><use y="31.421" x="68.983" xlink:href="#8"/><use y="30.66" x="68.983" xlink:href="#3"/><use y="30.279" x="68.983" xlink:href="#i"/><use y="29.517" x="68.983" xlink:href="#2"/></g><path d="M69.25,6.269 v48.4"/><path stroke="none" d="M69.546,54.214 L69.25,55.169 68.954,54.214" fill="#00f"/><path stroke="none" d="M68.954,6.724 L69.25,5.769 69.546,6.724" fill="#00f"/></g></g><g><path d="M17.258,51.719 v6"/><path d="M17.742,51.719 v6"/><g><path d="M15.258,57.219 h1.45"/><path stroke="none" d="M16.252,56.924 l0.955,0.296 L16.252,57.515" fill="#00f"/></g><g><g><use y="56.952" x="19.792" xlink:href="#0"/><use y="56.952" x="20.554" xlink:href="#1"/><use y="56.952" x="20.935" xlink:href="#9"/><use y="56.952" x="21.697" xlink:href="#h"/><use y="56.952" x="22.459" xlink:href="#4"/></g><path d="M18.292,57.219 h4.879"/><path stroke="none" d="M18.748,57.515 L17.792,57.219 18.748,56.924" fill="#00f"/></g></g><g><path d="M52.5,49.719 v8"/><path d="M55.5,55.719 v2"/><g><g><use y="56.952" x="45.117" xlink:href="#o"/><use y="56.952" x="45.879" xlink:href="#1"/><use y="56.952" x="46.26" xlink:href="#0"/><use y="56.952" x="47.021" xlink:href="#0"/><use y="56.952" x="48.393" xlink:href="#g"/><use y="56.952" x="49.307" xlink:href="#a"/><use y="56.952" x="49.612" xlink:href="#e"/></g><path d="M45.167,57.219 h6.783"/><path stroke="none" d="M51.495,56.924 L52.45,57.219 51.495,57.515" fill="#00f"/></g><g><path d="M56.05,57.219 h1.45"/><path stroke="none" d="M56.505,57.515 L55.55,57.219 56.505,56.924" fill="#00f"/></g></g><g><path d="M27.6,39.119 v18.6"/><path d="M39.4,39.119 v18.6"/><g><g><use y="56.952" x="30.452" xlink:href="#7"/><use y="56.952" x="31.214" xlink:href="#7"/><use y="56.952" x="31.976" xlink:href="#1"/><use y="56.952" x="32.357" xlink:href="#h"/><use y="56.952" x="33.119" xlink:href="#0"/><use y="56.952" x="34.49" xlink:href="#g"/><use y="56.952" x="35.405" xlink:href="#a"/><use y="56.952" x="35.71" xlink:href="#e"/></g><path d="M28.15,57.219 h10.7"/><path stroke="none" d="M38.395,56.924 L39.35,57.219 38.395,57.515" fill="#00f"/><path stroke="none" d="M28.605,57.515 L27.65,57.219 28.605,56.924" fill="#00f"/></g></g><g><path d="M13.8,50.509 v9.21"/><path d="M53.2,50.509 v9.21"/><g><g><use y="58.952" x="31.786" xlink:href="#o"/><path d="M33.157,58.419 L33.119,58.533 33.043,58.61 32.929,58.648 h-0.038 L32.776,58.61 32.7,58.533 32.662,58.419 v-0.038 L32.7,58.267 32.776,58.19 32.89,58.152 h0.038 L33.043,58.19 l0.076,0.076 0.038,0.152 v0.19 L33.119,58.8 33.043,58.914 32.929,58.952 h-0.076 L32.738,58.914 32.7,58.838" stroke-linejoin="round" stroke-linecap="round"/><use y="58.952" x="33.31" xlink:href="#1"/><use y="58.952" x="33.69" xlink:href="#9"/><use y="58.952" x="34.452" xlink:href="#0"/></g><path d="M14.35,59.219 h38.3"/><path stroke="none" d="M52.195,58.924 L53.15,59.219 52.195,59.515" fill="#00f"/><path stroke="none" d="M14.805,59.515 L13.85,59.219 14.805,58.924" fill="#00f"/></g></g><g><path d="M3.72,55.119 v6.6"/><path d="M54.8,55.119 v6.6"/><g><g><use y="60.952" x="27.546" xlink:href="#4"/><use y="60.952" x="28.308" xlink:href="#7"/><use y="60.952" x="29.07" xlink:href="#1"/><use y="60.952" x="29.45" xlink:href="#0"/><use y="60.952" x="30.212" xlink:href="#h"/></g><path d="M4.27,61.219 h49.98"/><path stroke="none" d="M53.795,60.924 L54.75,61.219 53.795,61.515" fill="#00f"/><path stroke="none" d="M4.725,61.515 L3.77,61.219 4.725,60.924" fill="#00f"/></g></g><g><path d="M1,55.719 v8"/><path d="M55.5,55.719 v8"/><g><g><use y="62.952" x="26.536" xlink:href="#4"/><use y="62.952" x="27.298" xlink:href="#9"/><use y="62.952" x="28.06" xlink:href="#1"/><use y="62.952" x="28.44" xlink:href="#4"/><use y="62.952" x="29.202" xlink:href="#0"/></g><path d="M1.55,63.219 h53.4"/><path stroke="none" d="M54.495,62.924 L55.45,63.219 54.495,63.515" fill="#00f"/><path stroke="none" d="M2.005,63.515 L1.05,63.219 2.005,62.924" fill="#00f"/></g></g><g stroke-linecap="square" stroke-dasharray=".1,.2,.5,.2"><line y1="32.719" x2="56" x1="33.5" y2="32.719"/><line y1="32.719" x2="33.5" x1="33.5" y2="5.219"/><line y1="32.719" x2="0.5" x1="33.5" y2="32.719"/><line y1="32.719" x2="33.5" x1="33.5" y2="55.719"/></g><g><path d="M62,59.719 h-2 L58.354,58.073"/><path stroke="none" d="M58.467,58.604 L58,57.719 l0.884,0.467" fill="#00f"/><g><path d="M63.014,59.119 l-0.457,1.2 M63.014,59.119 l0.457,1.2 M62.729,59.919 h0.571" stroke-linejoin="round" stroke-linecap="round"/><path d="M63.871,59.348 L63.986,59.29 64.157,59.119 v1.2" stroke-linejoin="round" stroke-linecap="round"/></g></g></g><g><g><path d="M3.22,73.095 h-2"/><path d="M11.7,75.695 h-10.48"/><g><g><use y="71.095" x="1.453" xlink:href="#k"/><use y="70.333" x="1.453" xlink:href="#3"/><path d="M0.768,69.343 L0.691,69.381 0.653,69.495 v0.076 L0.691,69.686 0.806,69.762 0.996,69.8 h0.19 L1.339,69.762 1.415,69.686 1.453,69.571 v-0.038 L1.415,69.419 1.339,69.343 1.225,69.305 h-0.038 L1.072,69.343 0.996,69.419 0.958,69.533 v0.038 L0.996,69.686 1.072,69.762 1.187,69.8" stroke-linejoin="round" stroke-linecap="round"/><use y="68.581" x="1.453" xlink:href="#5"/><use y="67.667" x="1.453" xlink:href="#d"/><use y="66.981" x="1.453" xlink:href="#f"/></g><path d="M1.72,72.545 v-6.326"/><path stroke="none" d="M2.016,72.09 L1.72,73.045 1.424,72.09" fill="#00f"/></g><g><path d="M1.72,76.245 v1.45"/><path stroke="none" d="M1.424,76.701 L1.72,75.745 2.016,76.701" fill="#00f"/></g></g><g><path d="M61.22,73.895 h2.53"/><path d="M55.3,75.695 h8.45"/><g><g><use y="71.895" x="62.983" xlink:href="#b"/><use y="71.133" x="62.983" xlink:href="#3"/><use y="70.752" x="62.983" xlink:href="#l"/><use y="69.99" x="62.983" xlink:href="#2"/><use y="68.619" x="62.983" xlink:href="#5"/><use y="67.705" x="62.983" xlink:href="#d"/><use y="67.019" x="62.983" xlink:href="#f"/></g><path d="M63.25,73.345 v-7.088"/><path stroke="none" d="M63.546,72.89 L63.25,73.845 62.954,72.89" fill="#00f"/></g><g><path d="M63.25,76.245 v1.45"/><path stroke="none" d="M62.954,76.701 L63.25,75.745 l0.296,0.955" fill="#00f"/></g></g><g><path d="M55.3,75.695 h10.45"/><path d="M55.3,78.595 h10.45"/><g><g><use y="73.695" x="64.983" xlink:href="#k"/><use y="72.933" x="64.983" xlink:href="#3"/><use y="72.552" x="64.983" xlink:href="#8"/><use y="71.79" x="64.983" xlink:href="#2"/></g><path d="M65.25,75.145 v-4.117"/><path stroke="none" d="M65.546,74.69 L65.25,75.645 64.954,74.69" fill="#00f"/></g><g><path d="M65.25,79.145 v1.45"/><path stroke="none" d="M64.954,79.601 L65.25,78.645 l0.296,0.955" fill="#00f"/></g></g></g></g></g></svg>
