<?xml version="1.0" encoding="UTF-8" standalone="no"?>
<svg xmlns:xlink="http://www.w3.org/1999/xlink" height="102mm" width="97.343mm" xmlns="http://www.w3.org/2000/svg" version="1.1" viewBox="0 0 48.671 51"><defs><rect id="a" y="-0.8" x="-0.405" height="1.6" width="0.81"/><rect id="b" y="-0.405" x="-0.8" height="0.81" width="1.6"/><rect id="c" y="-9.607" x="-5.46" height="19.213" width="10.919"/><path id="d" d="M0.343,-0.8 L0.229,-0.762 0.152,-0.648 0.114,-0.457 v0.114 l0.038,0.19 L0.229,-0.038 0.343,0 h0.076 L0.533,-0.038 0.61,-0.152 0.648,-0.343 v-0.114 L0.61,-0.648 0.533,-0.762 0.419,-0.8 h-0.076" stroke-linejoin="round" stroke-linecap="round"/></defs><g stroke="#000" stroke-width="0.1" fill="#fff"><g><g><path d="M7.171,5.833 v40 h40 v-40 Z"/><path d="M7.771,6.433 v2 l2,-2 Z"/><path d="M8.421,11.083 A4,4,0,0,1,12.421,7.083 h29.5 A4,4,0,0,1,45.921,11.083 v29.5 A4,4,0,0,1,41.921,44.583 h-29.5 A4,4,0,0,1,8.421,40.583 Z"/><g stroke-dasharray=".25,.25"><use y="25.833" x="27.171" xlink:href="#c"/><g><use y="19.433" x="12.871" xlink:href="#b"/><use y="23.633" x="12.871" xlink:href="#b"/><use y="27.833" x="12.871" xlink:href="#b"/><use y="32.033" x="12.871" xlink:href="#b"/><use y="37.733" x="12.871" xlink:href="#b"/><use y="17.133" x="16.171" xlink:href="#b"/><use y="19.233" x="16.171" xlink:href="#b"/><use y="21.333" x="16.171" xlink:href="#b"/><use y="23.433" x="16.171" xlink:href="#b"/><use y="25.533" x="16.171" xlink:href="#b"/><use y="27.633" x="16.171" xlink:href="#b"/><use y="29.633" x="16.171" xlink:href="#b"/><use y="31.733" x="16.171" xlink:href="#b"/><use y="33.833" x="16.171" xlink:href="#b"/><use y="35.933" x="16.171" xlink:href="#b"/><use y="38.033" x="16.171" xlink:href="#b"/><use y="16.733" x="41.471" xlink:href="#b"/><use y="18.833" x="41.471" xlink:href="#b"/><use y="21.833" x="41.721" xlink:href="#a"/><use y="24.433" x="41.721" xlink:href="#a"/><use y="30.333" x="41.471" xlink:href="#b"/><use y="33.033" x="41.471" xlink:href="#b"/><use y="35.233" x="41.471" xlink:href="#b"/><use y="11.483" x="15.471" xlink:href="#a"/><use y="11.483" x="18.271" xlink:href="#a"/><use y="11.483" x="20.371" xlink:href="#a"/><use y="11.483" x="22.471" xlink:href="#a"/><use y="11.483" x="24.571" xlink:href="#a"/><use y="11.483" x="26.671" xlink:href="#a"/><use y="11.483" x="28.721" xlink:href="#a"/><use y="11.483" x="30.821" xlink:href="#a"/><use y="11.483" x="35.021" xlink:href="#a"/><use y="39.983" x="13.971" xlink:href="#a"/><use y="40.333" x="16.071" xlink:href="#a"/><use y="40.333" x="18.171" xlink:href="#a"/><use y="40.333" x="20.271" xlink:href="#a"/><use y="40.333" x="22.371" xlink:href="#a"/><use y="40.333" x="24.471" xlink:href="#a"/><use y="40.333" x="26.571" xlink:href="#a"/><use y="40.333" x="28.771" xlink:href="#a"/><use y="40.333" x="30.871" xlink:href="#a"/><use y="40.333" x="32.971" xlink:href="#a"/><use y="40.333" x="37.171" xlink:href="#a"/><use y="40.333" x="39.271" xlink:href="#a"/></g></g></g></g><g stroke="#00f" fill="none"><g><g stroke-linecap="square" stroke-dasharray=".1,.2,.5,.2"><line y1="25.833" x2="47.671" x1="27.171" y2="25.833"/><line y1="25.833" x2="27.171" x1="27.171" y2="5.333"/><line y1="25.833" x2="6.671" x1="27.171" y2="25.833"/><line y1="25.833" x2="27.171" x1="27.171" y2="46.333"/></g><g><path d="M3.171,3.833 h2 L6.318,4.98"/><path stroke="none" d="M6.205,4.449 L6.671,5.333 5.787,4.867" fill="#00f"/><g><path d="M1.014,3.233 L0.557,4.433 M1.014,3.233 l0.457,1.2 M0.729,4.033 h0.571" stroke-linejoin="round" stroke-linecap="round"/><path d="M1.871,3.462 L1.986,3.405 2.157,3.233 v1.2" stroke-linejoin="round" stroke-linecap="round"/></g></g><g><g><g><path d="M25.19,3.071 L25.229,3.033 25.305,2.995 h0.076 L25.457,3.033 25.61,3.071 25.686,3.11 h0.076 L25.838,3.071 25.876,3.033 v-0.038 M25.19,3.376 L25.229,3.338 25.305,3.3 h0.076 L25.457,3.338 25.61,3.376 25.686,3.414 h0.076 L25.838,3.376 25.876,3.338 v-0.038" stroke-linejoin="round" stroke-linecap="round"/><path d="M26.829,2.919 L26.905,2.881 27.019,2.767 v0.8" stroke-linejoin="round" stroke-linecap="round"/><use y="3.567" x="27.362" xlink:href="#d"/><path d="M28.314,3.49 L28.276,3.529 28.314,3.567 28.352,3.529 28.314,3.49" stroke-linejoin="round" stroke-linecap="round"/><path d="M29.114,3.033 L29.076,3.148 29,3.224 28.886,3.262 h-0.038 L28.733,3.224 28.657,3.148 28.619,3.033 v-0.038 L28.657,2.881 28.733,2.805 28.848,2.767 h0.038 L29,2.805 29.076,2.881 29.114,3.033 v0.19 L29.076,3.414 29,3.529 28.886,3.567 h-0.076 L28.695,3.529 28.657,3.452" stroke-linejoin="round" stroke-linecap="round"/></g><path d="M22.262,3.833 h9.819"/><path stroke="none" d="M31.626,3.538 L32.581,3.833 31.626,4.129" fill="#00f"/><path stroke="none" d="M22.717,4.129 L21.762,3.833 22.717,3.538" fill="#00f"/></g><path d="M21.712,15.727 v-12.393"/><path d="M32.631,15.727 v-12.393"/></g><g><g><g><path d="M26.905,0.767 L26.524,1.3 h0.571 M26.905,0.767 v0.8" stroke-linejoin="round" stroke-linecap="round"/><use y="1.567" x="27.171" xlink:href="#d"/></g><path d="M7.721,1.833 h38.9"/><path stroke="none" d="M46.166,1.538 L47.121,1.833 46.166,2.129" fill="#00f"/><path stroke="none" d="M8.177,2.129 L7.221,1.833 8.177,1.538" fill="#00f"/></g><path d="M7.171,5.333 v-4"/><path d="M47.171,5.333 v-4"/></g><g><g><g><path d="M4.41,27.814 L4.371,27.776 4.333,27.7 v-0.076 L4.371,27.548 4.41,27.395 4.448,27.319 v-0.076 L4.41,27.167 4.371,27.129 h-0.038 M4.714,27.814 L4.676,27.776 4.638,27.7 v-0.076 L4.676,27.548 4.714,27.395 4.752,27.319 v-0.076 L4.714,27.167 4.676,27.129 h-0.038" stroke-linejoin="round" stroke-linecap="round"/><path d="M4.257,26.176 L4.219,26.1 4.105,25.986 h0.8" stroke-linejoin="round" stroke-linecap="round"/><path d="M4.371,25.033 L4.486,25.071 4.562,25.148 4.6,25.262 v0.038 L4.562,25.414 4.486,25.49 4.371,25.529 h-0.038 L4.219,25.49 4.143,25.414 4.105,25.3 v-0.038 L4.143,25.148 4.219,25.071 4.371,25.033 h0.19 l0.19,0.038 L4.867,25.148 4.905,25.262 v0.076 L4.867,25.452 4.79,25.49" stroke-linejoin="round" stroke-linecap="round"/><path d="M4.829,24.69 L4.867,24.729 4.905,24.69 4.867,24.652 4.829,24.69" stroke-linejoin="round" stroke-linecap="round"/><path d="M4.295,24.348 h-0.038 L4.181,24.31 4.143,24.271 4.105,24.195 v-0.152 L4.143,23.967 4.181,23.929 4.257,23.89 h0.076 L4.41,23.929 4.524,24.005 4.905,24.386 v-0.533" stroke-linejoin="round" stroke-linecap="round"/></g><path d="M5.171,16.777 v18.113"/><path stroke="none" d="M5.467,34.434 L5.171,35.39 4.876,34.434" fill="#00f"/><path stroke="none" d="M4.876,17.232 L5.171,16.277 5.467,17.232" fill="#00f"/></g><path d="M21.212,16.227 h-16.541"/><path d="M21.212,35.44 h-16.541"/></g><g><g><g><path d="M2.105,26.1 L2.638,26.481 v-0.571 M2.105,26.1 h0.8" stroke-linejoin="round" stroke-linecap="round"/><path d="M2.105,25.49 L2.143,25.605 2.257,25.681 l0.19,0.038 h0.114 L2.752,25.681 2.867,25.605 2.905,25.49 v-0.076 L2.867,25.3 2.752,25.224 2.562,25.186 h-0.114 L2.257,25.224 2.143,25.3 2.105,25.414 v0.076" stroke-linejoin="round" stroke-linecap="round"/></g><path d="M3.171,6.383 v38.9"/><path stroke="none" d="M3.467,44.828 L3.171,45.783 2.876,44.828" fill="#00f"/><path stroke="none" d="M2.876,6.839 L3.171,5.883 3.467,6.839" fill="#00f"/></g><path d="M6.671,5.833 h-4"/><path d="M6.671,45.833 h-4"/></g><g><path d="M22.295,47.867 v1.6 M21.762,47.867 h1.067" stroke-linejoin="round" stroke-linecap="round"/><path d="M23.59,47.867 L23.438,47.943 23.286,48.095 23.21,48.248 23.133,48.476 v0.381 L23.21,49.086 l0.076,0.152 L23.438,49.39 23.59,49.467 h0.305 L24.048,49.39 24.2,49.238 24.276,49.086 24.352,48.857 v-0.381 L24.276,48.248 24.2,48.095 24.048,47.943 23.895,47.867 h-0.305" stroke-linejoin="round" stroke-linecap="round"/><path d="M24.886,47.867 v1.6 M24.886,47.867 h0.686 L25.8,47.943 l0.076,0.076 0.076,0.152 v0.229 L25.876,48.552 25.8,48.629 25.571,48.705 h-0.686" stroke-linejoin="round" stroke-linecap="round"/><path d="M27.476,47.867 l0.61,1.6 M28.695,47.867 l-0.61,1.6" stroke-linejoin="round" stroke-linecap="round"/><path d="M29.076,47.867 v1.6" stroke-linejoin="round" stroke-linecap="round"/><path d="M29.686,47.867 v1.6 M29.686,47.867 h0.99 M29.686,48.629 h0.61 M29.686,49.467 h0.99" stroke-linejoin="round" stroke-linecap="round"/><path d="M30.981,47.867 l0.381,1.6 M31.743,47.867 l-0.381,1.6 M31.743,47.867 l0.381,1.6 M32.505,47.867 l-0.381,1.6" stroke-linejoin="round" stroke-linecap="round"/><path d="M21.686,50 h10.971" stroke-linecap="square"/></g></g></g></g></svg>
