<?xml version="1.0" encoding="UTF-8" standalone="no"?>
<!-- Created with Inkscape (http://www.inkscape.org/) -->

<svg
   xmlns:dc="http://purl.org/dc/elements/1.1/"
   xmlns:cc="http://creativecommons.org/ns#"
   xmlns:rdf="http://www.w3.org/1999/02/22-rdf-syntax-ns#"
   xmlns:svg="http://www.w3.org/2000/svg"
   xmlns="http://www.w3.org/2000/svg"
   xmlns:sodipodi="http://sodipodi.sourceforge.net/DTD/sodipodi-0.dtd"
   xmlns:inkscape="http://www.inkscape.org/namespaces/inkscape"
   width="283.11765mm"
   height="85.724998mm"
   viewBox="0 0 283.11765 85.724998"
   version="1.1"
   id="svg8"
   inkscape:version="0.92.2 (5c3e80d, 2017-08-06)"
   sodipodi:docname="vrm_general.svg">
  <defs
     id="defs2" />
  <sodipodi:namedview
     id="base"
     pagecolor="#ffffff"
     bordercolor="#666666"
     borderopacity="1.0"
     inkscape:pageopacity="0.0"
     inkscape:pageshadow="2"
     inkscape:zoom="1.4142136"
     inkscape:cx="679.78723"
     inkscape:cy="64.428534"
     inkscape:document-units="mm"
     inkscape:current-layer="layer1"
     showgrid="false"
     fit-margin-top="0"
     fit-margin-left="0"
     fit-margin-right="0"
     fit-margin-bottom="0"
     inkscape:window-width="3200"
     inkscape:window-height="1727"
     inkscape:window-x="0"
     inkscape:window-y="0"
     inkscape:window-maximized="1" />
  <metadata
     id="metadata5">
    <rdf:RDF>
      <cc:Work
         rdf:about="">
        <dc:format>image/svg+xml</dc:format>
        <dc:type
           rdf:resource="http://purl.org/dc/dcmitype/StillImage" />
        <dc:title></dc:title>
      </cc:Work>
    </rdf:RDF>
  </metadata>
  <g
     inkscape:label="Layer 1"
     inkscape:groupmode="layer"
     id="layer1"
     transform="translate(115.6229,-157.56458)">
    <path
       sodipodi:nodetypes="cc"
       inkscape:connector-curvature="0"
       id="path5440"
       d="m 86.698082,201.91423 c 11.7798,-9.74585 15.785008,3.5579 30.185878,0"
       style="fill:none;fill-rule:evenodd;stroke:#ffff00;stroke-width:1.46724832;stroke-linecap:butt;stroke-linejoin:miter;stroke-miterlimit:4;stroke-dasharray:none;stroke-opacity:1" />
    <path
       style="fill:none;fill-rule:evenodd;stroke:#ffff00;stroke-width:1.6030221;stroke-linecap:butt;stroke-linejoin:miter;stroke-miterlimit:4;stroke-dasharray:none;stroke-opacity:1"
       d="m 21.115522,198.94814 c 14.302727,9.581 19.165736,-3.49772 36.65087,0"
       id="path4676"
       inkscape:connector-curvature="0"
       sodipodi:nodetypes="cc" />
    <rect
       style="fill:#b3b3b3;stroke-width:0.49310684;stroke-linejoin:round"
       id="rect815"
       width="137.84792"
       height="85.724998"
       x="-115.6229"
       y="157.56458" />
    <g
       id="g4622"
       transform="translate(-158.75004)">
      <g
         style="fill:#4d4d4d"
         id="g4598">
        <circle
           style="fill:#4d4d4d;fill-opacity:1;stroke:none;stroke-width:1.80962217;stroke-linejoin:round;stroke-miterlimit:4;stroke-dasharray:none"
           id="circle821"
           cx="84.269791"
           cy="200.42708"
           r="5.1550355" />
        <path
           style="fill:#4d4d4d;fill-opacity:1;stroke:none;stroke-width:24.00378036;stroke-linejoin:miter;stroke-miterlimit:4;stroke-dasharray:none"
           d="m 250.67794,679.72408 c -6.26389,-6.26833 -11.24343,-11.63233 -11.06564,-11.91999 0.64258,-1.03972 8.17036,-6.83461 13.30563,-10.2427 6.23081,-4.13514 17.89109,-9.97114 25.08457,-12.55488 6.00386,-2.15646 14.67165,-4.41483 21.41543,-5.57973 6.31932,-1.09159 25.15185,-1.52808 32.07354,-0.74339 22.89529,2.59557 44.00921,11.32732 61.80639,25.5603 l 4.62992,3.70271 -11.59614,11.60402 -11.59614,11.60402 -2.28379,-1.90547 c -9.09707,-7.59012 -24.02942,-14.51105 -36.57314,-16.95111 -7.73766,-1.50517 -9.16206,-1.63516 -17.79958,-1.62437 -19.15042,0.0239 -37.01139,6.03243 -52.21161,17.56422 l -3.80056,2.88333 z"
           id="path4571"
           inkscape:connector-curvature="0"
           transform="scale(0.26458333)" />
        <path
           style="fill:#4d4d4d;fill-opacity:1;stroke:none;stroke-width:6.35100031;stroke-linejoin:miter;stroke-miterlimit:4;stroke-dasharray:none"
           d="m 76.844458,188.77541 -2.553637,-2.55616 0.646076,-0.48153 c 1.027935,-0.76613 3.695742,-2.02099 5.077846,-2.38847 3.432347,-0.91261 7.018951,-0.70579 10.278808,0.59271 1.120841,0.44647 2.586945,1.2648 3.391861,1.89324 l 0.507648,0.39634 -2.547358,2.54987 -2.547358,2.54987 -0.882161,-0.44425 c -1.310949,-0.66018 -2.363192,-0.9006 -3.968107,-0.90664 -1.532943,-0.006 -2.721467,0.27671 -4.107047,0.97615 l -0.742935,0.37503 z"
           id="path4573"
           inkscape:connector-curvature="0" />
        <path
           style="fill:#4d4d4d;fill-opacity:1;stroke:none;stroke-width:24.00378036;stroke-linejoin:miter;stroke-miterlimit:4;stroke-dasharray:none"
           d="m 396.20575,825.25191 -11.45607,-11.4642 1.66597,-1.89743 c 6.48501,-7.38602 13.55465,-21.57576 16.45907,-33.0356 2.88663,-11.38964 3.31873,-26.62704 1.07278,-37.8299 -2.79413,-13.93722 -8.90979,-27.17047 -17.46478,-37.7908 l -2.60193,-3.23008 11.53005,-11.51992 11.53005,-11.51991 1.73423,2 c 14.69133,16.94279 24.22988,37.49876 28.07369,60.5 1.42166,8.50716 1.29898,28.72609 -0.22602,37.25028 -3.54812,19.83263 -10.64854,36.70376 -21.77044,51.72814 -2.73514,3.69485 -6.26612,7.93672 -6.78215,8.1476 -0.16961,0.0693 -5.46361,-5.03287 -11.76445,-11.33818 z"
           id="path4575"
           inkscape:connector-curvature="0"
           transform="scale(0.26458333)" />
        <path
           style="fill:#4d4d4d;fill-opacity:1;stroke:none;stroke-width:6.35100031;stroke-linejoin:miter;stroke-miterlimit:4;stroke-dasharray:none"
           d="m 95.91612,207.8471 -2.55157,-2.55409 0.464669,-0.98511 c 0.656447,-1.3917 0.869899,-2.34757 0.869899,-3.89553 0,-1.63593 -0.222191,-2.56529 -0.970055,-4.05743 l -0.574884,-1.14701 2.543257,-2.54075 2.54326,-2.54075 0.693523,0.97578 c 3.170991,4.46155 3.853361,10.39866 1.773671,15.43215 -0.44118,1.06779 -1.451321,2.86542 -2.005401,3.56877 l -0.234799,0.29806 z"
           id="path4577"
           inkscape:connector-curvature="0" />
        <path
           style="fill:#4d4d4d;fill-opacity:1;stroke:none;stroke-width:24.00378036;stroke-linejoin:miter;stroke-miterlimit:4;stroke-dasharray:none"
           d="m 308.66793,876.70294 c -18.43414,-1.63141 -35.37238,-7.06652 -51.14953,-16.41276 -7.46257,-4.42076 -18.37396,-12.57696 -19.03693,-14.22999 -0.19482,-0.48575 21.88979,-22.84612 22.56436,-22.84612 0.21243,0 1.6768,1.05281 3.25417,2.33959 7.03374,5.73795 18.02865,11.70487 26.8794,14.58743 27.56269,8.97673 56.73677,4.10126 79.90896,-13.3541 l 4.93347,-3.71634 11.50609,11.5061 11.5061,11.50609 -4.78308,3.90429 c -14.0097,11.43571 -32.76898,20.61891 -49.33301,24.14993 -11.6217,2.47743 -25.86081,3.48532 -36.25,2.56588 z"
           id="path4579"
           inkscape:connector-curvature="0"
           transform="scale(0.26458333)" />
        <path
           style="fill:#4d4d4d;fill-opacity:1;stroke:none;stroke-width:6.35100031;stroke-linejoin:miter;stroke-miterlimit:4;stroke-dasharray:none"
           d="m 81.615041,217.86008 c -2.545517,-0.42658 -5.277088,-1.63347 -7.28884,-3.22042 l -0.330729,-0.2609 2.512237,-2.51835 c 1.381731,-1.38509 2.556579,-2.51835 2.610774,-2.51835 0.05419,0 0.382204,0.17425 0.728908,0.38723 0.346705,0.21297 1.106623,0.55062 1.688706,0.75033 0.912752,0.31316 1.27671,0.36453 2.645833,0.37345 1.816373,0.0118 2.934256,-0.25826 4.421378,-1.06824 l 0.849503,-0.4627 2.523935,2.52888 2.523934,2.52888 -0.463021,0.38375 c -0.717557,0.59471 -2.363978,1.55459 -3.517984,2.05102 -2.652252,1.14095 -5.993704,1.53324 -8.904634,1.04542 z"
           id="path4581"
           inkscape:connector-curvature="0" />
        <path
           style="fill:#4d4d4d;fill-opacity:1;stroke:none;stroke-width:6.35100031;stroke-linejoin:miter;stroke-miterlimit:4;stroke-dasharray:none"
           d="m 69.509625,209.62308 c -3.204585,-4.36552 -3.764946,-10.76551 -1.399386,-15.98264 0.220755,-0.48687 0.794729,-1.47608 1.275498,-2.19825 l 0.874125,-1.31304 2.574017,2.57402 2.57402,2.57402 -0.398909,0.64936 c -0.219401,0.35715 -0.565592,1.12561 -0.769316,1.70769 -0.33143,0.94698 -0.370724,1.23928 -0.373449,2.77813 -0.0033,1.8651 0.219589,2.84293 0.959006,4.20722 l 0.344348,0.63534 -2.503977,2.50658 c -1.377186,1.37862 -2.544141,2.50659 -2.593235,2.50659 -0.04909,0 -0.302326,-0.29026 -0.562742,-0.64502 z"
           id="path4583"
           inkscape:connector-curvature="0" />
        <path
           style="fill:#4d4d4d;fill-opacity:1;stroke:none;stroke-width:24.00378036;stroke-linejoin:miter;stroke-miterlimit:4;stroke-dasharray:none"
           d="m 227.23965,834.7276 c -1.02124,-1.13039 -3.18941,-3.85254 -4.81815,-6.04922 -11.61328,-15.66283 -19.29053,-34.32289 -22.30522,-54.21431 -1.27247,-8.39596 -1.268,-25.65617 0.009,-34 2.46216,-16.09013 8.03932,-31.67967 16.00932,-44.75 3.2172,-5.27602 10.3922,-15.0036 12.62287,-17.11361 l 1.44159,-1.3636 11.42552,11.43362 11.42551,11.43362 -2.75726,3.42998 c -11.92143,14.8301 -18.84102,34.70629 -18.86193,54.17999 -0.0202,18.85768 7.22723,39.51775 18.91136,53.90986 l 1.75346,2.15986 -11.49953,11.49954 -11.49954,11.49953 z"
           id="path4585"
           inkscape:connector-curvature="0"
           transform="scale(0.26458333)" />
      </g>
      <circle
         style="fill:#4d4d4d;fill-opacity:1;stroke:none;stroke-width:1.18268716;stroke-linejoin:round;stroke-miterlimit:4;stroke-dasharray:none"
         id="circle4587"
         cx="115.48486"
         cy="231.71472"
         r="3.3690979" />
      <circle
         r="3.3690979"
         cy="169.21432"
         cx="115.48486"
         id="circle4600"
         style="fill:#4d4d4d;fill-opacity:1;stroke:none;stroke-width:1.18268716;stroke-linejoin:round;stroke-miterlimit:4;stroke-dasharray:none" />
      <circle
         style="fill:#4d4d4d;fill-opacity:1;stroke:none;stroke-width:1.18268716;stroke-linejoin:round;stroke-miterlimit:4;stroke-dasharray:none"
         id="circle4602"
         cx="53.030739"
         cy="169.21432"
         r="3.3690979" />
      <circle
         r="3.3690979"
         cy="231.71472"
         cx="53.030739"
         id="circle4604"
         style="fill:#4d4d4d;fill-opacity:1;stroke:none;stroke-width:1.18268716;stroke-linejoin:round;stroke-miterlimit:4;stroke-dasharray:none" />
    </g>
    <g
       id="g4640"
       transform="matrix(0.80791015,0,0,0.80791015,-125.11969,43.945348)">
      <rect
         y="205.71507"
         x="129.43729"
         height="29.36875"
         width="38.629166"
         id="rect4606"
         style="fill:none;fill-opacity:1;stroke:#4d4d4d;stroke-width:3;stroke-linejoin:miter;stroke-miterlimit:4;stroke-dasharray:none;stroke-opacity:1" />
      <path
         sodipodi:nodetypes="ccccccc"
         inkscape:connector-curvature="0"
         id="rect4624"
         d="m 140.911,210.63713 h 15.681 l 5,5.39087 v 14.13377 H 135.911 V 216.028 Z"
         style="fill:none;fill-opacity:1;stroke:#4d4d4d;stroke-width:2;stroke-linejoin:miter;stroke-miterlimit:4;stroke-dasharray:none;stroke-opacity:1" />
      <rect
         y="221.19687"
         x="142.31931"
         height="4.1010418"
         width="2.9314582"
         id="rect4629"
         style="fill:#4d4d4d;fill-opacity:1;stroke:none;stroke-width:1.32932425;stroke-linejoin:miter;stroke-miterlimit:4;stroke-dasharray:none;stroke-opacity:1" />
      <rect
         style="fill:#4d4d4d;fill-opacity:1;stroke:none;stroke-width:1.32932425;stroke-linejoin:miter;stroke-miterlimit:4;stroke-dasharray:none;stroke-opacity:1"
         id="rect4631"
         width="2.9314582"
         height="4.1010418"
         x="152.25223"
         y="221.19687" />
      <rect
         y="215.9052"
         x="147.28577"
         height="4.1010418"
         width="2.9314582"
         id="rect4633"
         style="fill:#4d4d4d;fill-opacity:1;stroke:none;stroke-width:1.32932425;stroke-linejoin:miter;stroke-miterlimit:4;stroke-dasharray:none;stroke-opacity:1" />
    </g>
    <g
       id="g4674"
       transform="translate(-156.86199,5.2916667)">
      <path
         inkscape:connector-curvature="0"
         id="rect4645"
         d="m 152.2959,188.78097 h 15.58221 v 10.32321 H 152.2959 Z"
         style="fill:#4d4d4d;fill-opacity:1;stroke:none;stroke-width:2.94466901;stroke-linejoin:miter;stroke-miterlimit:4;stroke-dasharray:none;stroke-opacity:1" />
      <path
         sodipodi:nodetypes="ccccc"
         inkscape:connector-curvature="0"
         style="fill:#4d4d4d;fill-opacity:1;stroke:none;stroke-width:2.94466901;stroke-linejoin:miter;stroke-miterlimit:4;stroke-dasharray:none;stroke-opacity:1"
         d="m 135.96274,186.92246 15.58221,1.85851 v 10.32321 h -15.58221 z"
         id="path4650" />
      <ellipse
         transform="rotate(90)"
         ry="3.5529263"
         rx="2.8023515"
         cy="-143.75385"
         cx="193.94258"
         id="path4656"
         style="fill:none;fill-opacity:1;stroke:#ffffff;stroke-width:1.48933971;stroke-linejoin:miter;stroke-miterlimit:4;stroke-dasharray:none;stroke-opacity:1" />
      <path
         sodipodi:nodetypes="ccc"
         inkscape:connector-curvature="0"
         id="ellipse4660"
         d="m 156.56603,193.94258 h 7.04195 z"
         style="fill:none;fill-opacity:1;stroke:#ffffff;stroke-width:1.49481404;stroke-linejoin:miter;stroke-miterlimit:4;stroke-dasharray:none;stroke-opacity:1" />
    </g>
    <rect
       style="fill:#008000;fill-opacity:1;stroke:#333333;stroke-width:1.71741617;stroke-linejoin:miter;stroke-miterlimit:4;stroke-dasharray:none;stroke-opacity:1"
       id="rect4678"
       width="49.302368"
       height="51.347168"
       x="117.33368"
       y="175.67952"
       rx="4.4869008"
       ry="4.4869008" />
    <rect
       y="188.37981"
       x="129.52821"
       height="25.946585"
       width="24.913313"
       id="rect4680"
       style="fill:#4d4d4d;fill-opacity:1;stroke:#808080;stroke-width:0.86783922;stroke-linejoin:miter;stroke-miterlimit:4;stroke-dasharray:none;stroke-opacity:1" />
    <g
       id="g4691"
       transform="translate(17.997882,1.0583333)">
      <circle
         r="1.5434816"
         cy="180.95825"
         cx="116.84328"
         id="path4682"
         style="fill:#ffffff;fill-opacity:1;stroke:none;stroke-width:2.53846145;stroke-linejoin:miter;stroke-miterlimit:4;stroke-dasharray:none;stroke-opacity:1" />
      <circle
         style="fill:#ffffff;fill-opacity:1;stroke:none;stroke-width:2.53846145;stroke-linejoin:miter;stroke-miterlimit:4;stroke-dasharray:none;stroke-opacity:1"
         id="circle4684"
         cx="123.98701"
         cy="180.95825"
         r="1.5434816" />
      <circle
         r="1.5434816"
         cy="180.95825"
         cx="131.13074"
         id="circle4686"
         style="fill:#ffffff;fill-opacity:1;stroke:none;stroke-width:2.53846145;stroke-linejoin:miter;stroke-miterlimit:4;stroke-dasharray:none;stroke-opacity:1" />
    </g>
    <g
       transform="translate(17.997882,39.687503)"
       id="g4699">
      <circle
         style="fill:#ffffff;fill-opacity:1;stroke:none;stroke-width:2.53846145;stroke-linejoin:miter;stroke-miterlimit:4;stroke-dasharray:none;stroke-opacity:1"
         id="circle4693"
         cx="116.84328"
         cy="180.95825"
         r="1.5434816" />
      <circle
         r="1.5434816"
         cy="180.95825"
         cx="123.98701"
         id="circle4695"
         style="fill:#ffffff;fill-opacity:1;stroke:none;stroke-width:2.53846145;stroke-linejoin:miter;stroke-miterlimit:4;stroke-dasharray:none;stroke-opacity:1" />
      <circle
         style="fill:#ffffff;fill-opacity:1;stroke:none;stroke-width:2.53846145;stroke-linejoin:miter;stroke-miterlimit:4;stroke-dasharray:none;stroke-opacity:1"
         id="circle4697"
         cx="131.13074"
         cy="180.95825"
         r="1.5434816" />
    </g>
    <g
       transform="rotate(90,132.04893,209.41502)"
       id="g4707">
      <circle
         style="fill:#ffffff;fill-opacity:1;stroke:none;stroke-width:2.53846145;stroke-linejoin:miter;stroke-miterlimit:4;stroke-dasharray:none;stroke-opacity:1"
         id="circle4701"
         cx="116.84328"
         cy="180.95825"
         r="1.5434816" />
      <circle
         r="1.5434816"
         cy="180.95825"
         cx="123.98701"
         id="circle4703"
         style="fill:#ffffff;fill-opacity:1;stroke:none;stroke-width:2.53846145;stroke-linejoin:miter;stroke-miterlimit:4;stroke-dasharray:none;stroke-opacity:1" />
      <circle
         style="fill:#ffffff;fill-opacity:1;stroke:none;stroke-width:2.53846145;stroke-linejoin:miter;stroke-miterlimit:4;stroke-dasharray:none;stroke-opacity:1"
         id="circle4705"
         cx="131.13074"
         cy="180.95825"
         r="1.5434816" />
    </g>
    <g
       id="g4715"
       transform="rotate(90,113.52808,190.89418)">
      <circle
         r="1.5434816"
         cy="180.95825"
         cx="116.84328"
         id="circle4709"
         style="fill:#ffffff;fill-opacity:1;stroke:none;stroke-width:2.53846145;stroke-linejoin:miter;stroke-miterlimit:4;stroke-dasharray:none;stroke-opacity:1" />
      <circle
         style="fill:#ffffff;fill-opacity:1;stroke:none;stroke-width:2.53846145;stroke-linejoin:miter;stroke-miterlimit:4;stroke-dasharray:none;stroke-opacity:1"
         id="circle4711"
         cx="123.98701"
         cy="180.95825"
         r="1.5434816" />
      <circle
         r="1.5434816"
         cy="180.95825"
         cx="131.13074"
         id="circle4713"
         style="fill:#ffffff;fill-opacity:1;stroke:none;stroke-width:2.53846145;stroke-linejoin:miter;stroke-miterlimit:4;stroke-dasharray:none;stroke-opacity:1" />
    </g>
    <rect
       style="fill:#4d4d4d;fill-opacity:1;stroke:#4d4d4d;stroke-width:0.20623191;stroke-linejoin:miter;stroke-miterlimit:4;stroke-dasharray:none;stroke-opacity:1"
       id="rect5434"
       width="29.911905"
       height="22.458452"
       x="57.010712"
       y="188.13953" />
    <text
       xml:space="preserve"
       style="font-size:10.4599905px;line-height:0%;font-family:'DejaVu Sans';-inkscape-font-specification:'DejaVu Sans';letter-spacing:0px;word-spacing:0px;fill:#ffffff;stroke:none;stroke-width:0.13074988px;stroke-linecap:butt;stroke-linejoin:miter;stroke-opacity:1"
       x="60.712471"
       y="203.18143"
       id="text5438"><tspan
         sodipodi:role="line"
         id="tspan5436"
         x="60.712471"
         y="203.18143"
         style="fill:#ffffff;stroke:none;stroke-width:0.13074988px">VRM</tspan></text>
    <text
       xml:space="preserve"
       style="font-size:8.53659821px;line-height:0%;font-family:'DejaVu Sans';-inkscape-font-specification:'DejaVu Sans';letter-spacing:0px;word-spacing:0px;fill:#000000;stroke:none;stroke-width:0.10670748px;stroke-linecap:butt;stroke-linejoin:miter;stroke-opacity:1"
       x="27.581347"
       y="193.54788"
       id="text5444"><tspan
         sodipodi:role="line"
         id="tspan5442"
         x="27.581347"
         y="193.54788"
         style="font-weight:bold;fill:#000000;stroke:none;stroke-width:0.10670748px">12 V</tspan></text>
    <text
       id="text5448"
       y="193.54788"
       x="90.023003"
       style="font-size:8.53659821px;line-height:0%;font-family:'DejaVu Sans';-inkscape-font-specification:'DejaVu Sans';letter-spacing:0px;word-spacing:0px;fill:#000000;stroke:none;stroke-width:0.10670748px;stroke-linecap:butt;stroke-linejoin:miter;stroke-opacity:1"
       xml:space="preserve"><tspan
         style="font-weight:bold;fill:#000000;stroke:none;stroke-width:0.10670748px"
         y="193.54788"
         x="90.023003"
         id="tspan5446"
         sodipodi:role="line">1.2 V</tspan></text>
  </g>
</svg>
