<?xml version="1.0" encoding="UTF-8" standalone="no"?>
<!-- Created with Inkscape (http://www.inkscape.org/) -->

<svg
   xmlns:dc="http://purl.org/dc/elements/1.1/"
   xmlns:cc="http://creativecommons.org/ns#"
   xmlns:rdf="http://www.w3.org/1999/02/22-rdf-syntax-ns#"
   xmlns:svg="http://www.w3.org/2000/svg"
   xmlns="http://www.w3.org/2000/svg"
   xmlns:sodipodi="http://sodipodi.sourceforge.net/DTD/sodipodi-0.dtd"
   xmlns:inkscape="http://www.inkscape.org/namespaces/inkscape"
   width="188.80667mm"
   height="130.66888mm"
   viewBox="0 0 669.00002 462.99998"
   id="svg2"
   version="1.1"
   inkscape:version="0.91 r13725"
   sodipodi:docname="skylake edram setup.svg">
  <defs
     id="defs4">
    <marker
       inkscape:isstock="true"
       style="overflow:visible"
       id="marker15200"
       refX="0"
       refY="0"
       orient="auto"
       inkscape:stockid="Arrow1Lend">
      <path
         transform="matrix(-0.8,0,0,-0.8,-10,0)"
         style="fill:#000000;fill-opacity:1;fill-rule:evenodd;stroke:#000000;stroke-width:1pt;stroke-opacity:1"
         d="M 0,0 5,-5 -12.5,0 5,5 0,0 Z"
         id="path15202"
         inkscape:connector-curvature="0" />
    </marker>
    <marker
       inkscape:isstock="true"
       style="overflow:visible"
       id="marker15064"
       refX="0"
       refY="0"
       orient="auto"
       inkscape:stockid="Arrow1Lstart">
      <path
         transform="matrix(0.8,0,0,0.8,10,0)"
         style="fill:#000000;fill-opacity:1;fill-rule:evenodd;stroke:#000000;stroke-width:1pt;stroke-opacity:1"
         d="M 0,0 5,-5 -12.5,0 5,5 0,0 Z"
         id="path15066"
         inkscape:connector-curvature="0" />
    </marker>
    <marker
       inkscape:stockid="Arrow1Lend"
       orient="auto"
       refY="0"
       refX="0"
       id="marker13444"
       style="overflow:visible"
       inkscape:isstock="true"
       inkscape:collect="always">
      <path
         inkscape:connector-curvature="0"
         id="path13446"
         d="M 0,0 5,-5 -12.5,0 5,5 0,0 Z"
         style="fill:#000000;fill-opacity:1;fill-rule:evenodd;stroke:#000000;stroke-width:1pt;stroke-opacity:1"
         transform="matrix(-0.8,0,0,-0.8,-10,0)" />
    </marker>
    <marker
       inkscape:stockid="Arrow1Lstart"
       orient="auto"
       refY="0"
       refX="0"
       id="marker13320"
       style="overflow:visible"
       inkscape:isstock="true"
       inkscape:collect="always">
      <path
         inkscape:connector-curvature="0"
         id="path13322"
         d="M 0,0 5,-5 -12.5,0 5,5 0,0 Z"
         style="fill:#000000;fill-opacity:1;fill-rule:evenodd;stroke:#000000;stroke-width:1pt;stroke-opacity:1"
         transform="matrix(0.8,0,0,0.8,10,0)" />
    </marker>
    <marker
       inkscape:isstock="true"
       style="overflow:visible"
       id="marker11760"
       refX="0"
       refY="0"
       orient="auto"
       inkscape:stockid="Arrow1Lend">
      <path
         inkscape:connector-curvature="0"
         transform="matrix(-0.8,0,0,-0.8,-10,0)"
         style="fill:#000000;fill-opacity:1;fill-rule:evenodd;stroke:#000000;stroke-width:1pt;stroke-opacity:1"
         d="M 0,0 5,-5 -12.5,0 5,5 0,0 Z"
         id="path11762" />
    </marker>
    <marker
       inkscape:isstock="true"
       style="overflow:visible"
       id="marker11648"
       refX="0"
       refY="0"
       orient="auto"
       inkscape:stockid="Arrow1Lstart">
      <path
         inkscape:connector-curvature="0"
         transform="matrix(0.8,0,0,0.8,10,0)"
         style="fill:#000000;fill-opacity:1;fill-rule:evenodd;stroke:#000000;stroke-width:1pt;stroke-opacity:1"
         d="M 0,0 5,-5 -12.5,0 5,5 0,0 Z"
         id="path11650" />
    </marker>
    <marker
       inkscape:isstock="true"
       style="overflow:visible"
       id="marker8822"
       refX="0"
       refY="0"
       orient="auto"
       inkscape:stockid="Arrow1Lend">
      <path
         transform="matrix(-0.8,0,0,-0.8,-10,0)"
         style="fill:#000000;fill-opacity:1;fill-rule:evenodd;stroke:#000000;stroke-width:1pt;stroke-opacity:1"
         d="M 0,0 5,-5 -12.5,0 5,5 0,0 Z"
         id="path8824"
         inkscape:connector-curvature="0" />
    </marker>
    <marker
       inkscape:isstock="true"
       style="overflow:visible"
       id="marker8722"
       refX="0"
       refY="0"
       orient="auto"
       inkscape:stockid="Arrow1Lstart">
      <path
         transform="matrix(0.8,0,0,0.8,10,0)"
         style="fill:#000000;fill-opacity:1;fill-rule:evenodd;stroke:#000000;stroke-width:1pt;stroke-opacity:1"
         d="M 0,0 5,-5 -12.5,0 5,5 0,0 Z"
         id="path8724"
         inkscape:connector-curvature="0" />
    </marker>
    <marker
       inkscape:stockid="Arrow1Lend"
       orient="auto"
       refY="0"
       refX="0"
       id="marker8366"
       style="overflow:visible"
       inkscape:isstock="true">
      <path
         id="path8368"
         d="M 0,0 5,-5 -12.5,0 5,5 0,0 Z"
         style="fill:#000000;fill-opacity:1;fill-rule:evenodd;stroke:#000000;stroke-width:1pt;stroke-opacity:1"
         transform="matrix(-0.8,0,0,-0.8,-10,0)"
         inkscape:connector-curvature="0" />
    </marker>
    <marker
       inkscape:stockid="Arrow1Lstart"
       orient="auto"
       refY="0"
       refX="0"
       id="marker8278"
       style="overflow:visible"
       inkscape:isstock="true">
      <path
         id="path8280"
         d="M 0,0 5,-5 -12.5,0 5,5 0,0 Z"
         style="fill:#000000;fill-opacity:1;fill-rule:evenodd;stroke:#000000;stroke-width:1pt;stroke-opacity:1"
         transform="matrix(0.8,0,0,0.8,10,0)"
         inkscape:connector-curvature="0" />
    </marker>
    <marker
       inkscape:isstock="true"
       style="overflow:visible"
       id="marker7235"
       refX="0"
       refY="0"
       orient="auto"
       inkscape:stockid="Arrow1Lend">
      <path
         transform="matrix(-0.8,0,0,-0.8,-10,0)"
         style="fill:#000000;fill-opacity:1;fill-rule:evenodd;stroke:#000000;stroke-width:1pt;stroke-opacity:1"
         d="M 0,0 5,-5 -12.5,0 5,5 0,0 Z"
         id="path7237"
         inkscape:connector-curvature="0" />
    </marker>
    <marker
       inkscape:isstock="true"
       style="overflow:visible"
       id="marker7171"
       refX="0"
       refY="0"
       orient="auto"
       inkscape:stockid="Arrow1Lstart">
      <path
         transform="matrix(0.8,0,0,0.8,10,0)"
         style="fill:#000000;fill-opacity:1;fill-rule:evenodd;stroke:#000000;stroke-width:1pt;stroke-opacity:1"
         d="M 0,0 5,-5 -12.5,0 5,5 0,0 Z"
         id="path7173"
         inkscape:connector-curvature="0" />
    </marker>
    <marker
       inkscape:stockid="Arrow1Lend"
       orient="auto"
       refY="0"
       refX="0"
       id="marker6975"
       style="overflow:visible"
       inkscape:isstock="true"
       inkscape:collect="always">
      <path
         id="path6977"
         d="M 0,0 5,-5 -12.5,0 5,5 0,0 Z"
         style="fill:#000000;fill-opacity:1;fill-rule:evenodd;stroke:#000000;stroke-width:1pt;stroke-opacity:1"
         transform="matrix(-0.8,0,0,-0.8,-10,0)"
         inkscape:connector-curvature="0" />
    </marker>
    <marker
       inkscape:stockid="Arrow1Lstart"
       orient="auto"
       refY="0"
       refX="0"
       id="marker6923"
       style="overflow:visible"
       inkscape:isstock="true"
       inkscape:collect="always">
      <path
         id="path6925"
         d="M 0,0 5,-5 -12.5,0 5,5 0,0 Z"
         style="fill:#000000;fill-opacity:1;fill-rule:evenodd;stroke:#000000;stroke-width:1pt;stroke-opacity:1"
         transform="matrix(0.8,0,0,0.8,10,0)"
         inkscape:connector-curvature="0" />
    </marker>
    <marker
       inkscape:stockid="Arrow1Lend"
       orient="auto"
       refY="0"
       refX="0"
       id="marker6827"
       style="overflow:visible"
       inkscape:isstock="true">
      <path
         id="path6829"
         d="M 0,0 5,-5 -12.5,0 5,5 0,0 Z"
         style="fill:#000000;fill-opacity:1;fill-rule:evenodd;stroke:#000000;stroke-width:1pt;stroke-opacity:1"
         transform="matrix(-0.8,0,0,-0.8,-10,0)"
         inkscape:connector-curvature="0" />
    </marker>
    <marker
       inkscape:stockid="Arrow1Lstart"
       orient="auto"
       refY="0"
       refX="0"
       id="marker6787"
       style="overflow:visible"
       inkscape:isstock="true">
      <path
         id="path6789"
         d="M 0,0 5,-5 -12.5,0 5,5 0,0 Z"
         style="fill:#000000;fill-opacity:1;fill-rule:evenodd;stroke:#000000;stroke-width:1pt;stroke-opacity:1"
         transform="matrix(0.8,0,0,0.8,10,0)"
         inkscape:connector-curvature="0" />
    </marker>
    <marker
       inkscape:isstock="true"
       style="overflow:visible"
       id="marker6699"
       refX="0"
       refY="0"
       orient="auto"
       inkscape:stockid="Arrow1Lend"
       inkscape:collect="always">
      <path
         transform="matrix(-0.8,0,0,-0.8,-10,0)"
         style="fill:#000000;fill-opacity:1;fill-rule:evenodd;stroke:#000000;stroke-width:1pt;stroke-opacity:1"
         d="M 0,0 5,-5 -12.5,0 5,5 0,0 Z"
         id="path6701"
         inkscape:connector-curvature="0" />
    </marker>
    <marker
       inkscape:isstock="true"
       style="overflow:visible"
       id="marker6671"
       refX="0"
       refY="0"
       orient="auto"
       inkscape:stockid="Arrow1Lstart"
       inkscape:collect="always">
      <path
         transform="matrix(0.8,0,0,0.8,10,0)"
         style="fill:#000000;fill-opacity:1;fill-rule:evenodd;stroke:#000000;stroke-width:1pt;stroke-opacity:1"
         d="M 0,0 5,-5 -12.5,0 5,5 0,0 Z"
         id="path6673"
         inkscape:connector-curvature="0" />
    </marker>
    <marker
       inkscape:stockid="Arrow1Lend"
       orient="auto"
       refY="0"
       refX="0"
       id="Arrow1Lend"
       style="overflow:visible"
       inkscape:isstock="true"
       inkscape:collect="always">
      <path
         id="path4288"
         d="M 0,0 5,-5 -12.5,0 5,5 0,0 Z"
         style="fill:#000000;fill-opacity:1;fill-rule:evenodd;stroke:#000000;stroke-width:1pt;stroke-opacity:1"
         transform="matrix(-0.8,0,0,-0.8,-10,0)"
         inkscape:connector-curvature="0" />
    </marker>
    <marker
       inkscape:stockid="Arrow1Lstart"
       orient="auto"
       refY="0"
       refX="0"
       id="Arrow1Lstart"
       style="overflow:visible"
       inkscape:isstock="true"
       inkscape:collect="always">
      <path
         id="path4285"
         d="M 0,0 5,-5 -12.5,0 5,5 0,0 Z"
         style="fill:#000000;fill-opacity:1;fill-rule:evenodd;stroke:#000000;stroke-width:1pt;stroke-opacity:1"
         transform="matrix(0.8,0,0,0.8,10,0)"
         inkscape:connector-curvature="0" />
    </marker>
  </defs>
  <sodipodi:namedview
     id="base"
     pagecolor="#ffffff"
     bordercolor="#666666"
     borderopacity="1.0"
     inkscape:pageopacity="0.0"
     inkscape:pageshadow="2"
     inkscape:zoom="2.8284271"
     inkscape:cx="304.53101"
     inkscape:cy="252.19431"
     inkscape:document-units="px"
     inkscape:current-layer="layer1"
     showgrid="false"
     fit-margin-top="0"
     fit-margin-left="0"
     fit-margin-right="0"
     fit-margin-bottom="0"
     inkscape:window-width="3200"
     inkscape:window-height="1727"
     inkscape:window-x="0"
     inkscape:window-y="0"
     inkscape:window-maximized="1" />
  <metadata
     id="metadata7">
    <rdf:RDF>
      <cc:Work
         rdf:about="">
        <dc:format>image/svg+xml</dc:format>
        <dc:type
           rdf:resource="http://purl.org/dc/dcmitype/StillImage" />
        <dc:title />
      </cc:Work>
    </rdf:RDF>
  </metadata>
  <g
     inkscape:label="Layer 1"
     inkscape:groupmode="layer"
     id="layer1"
     transform="translate(-25,-21.362206)">
    <path
       style="opacity:1;fill:#f4e3d7;fill-opacity:1;stroke:#000000;stroke-width:2;stroke-linejoin:miter;stroke-miterlimit:4;stroke-dasharray:none;stroke-opacity:1"
       d="m 26,22.362206 189,0 0,203.000004 -189,0 z"
       id="rect4136" />
    <path
       style="opacity:1;fill:#e3dbdb;fill-opacity:1;stroke:#000000;stroke-width:2;stroke-linejoin:miter;stroke-miterlimit:4;stroke-dasharray:none;stroke-opacity:1"
       d="m 446,22.362206 247,0 0,203.000004 -247,0 z"
       id="rect4142" />
    <g
       style="font-style:normal;font-variant:normal;font-weight:normal;font-stretch:normal;font-size:50px;line-height:125%;font-family:'Bitstream Charter';-inkscape-font-specification:'Bitstream Charter';letter-spacing:0px;word-spacing:0px;fill:#000000;fill-opacity:1;stroke:none;stroke-width:1px;stroke-linecap:butt;stroke-linejoin:miter;stroke-opacity:1"
       id="text4144">
      <path
         d="m 474.70001,50.412207 0,2.05 3.55,0.25 0.85,0.7 0,10.4 c -1.95,0.45 -3.65,0.65 -5.1,0.65 -7.85,0 -12.85,-5.65 -12.85,-15.1 0,-9 4.8,-14.35 12.45,-14.35 2,0 3.85,0.45 5.7,1.3 l 0.7,0.9 0.75,4.55 2.8,0 0,-7.95 c -3.3,-0.95 -6.55,-1.45 -9.6,-1.45 -11.05,0 -17.95,6.8 -17.95,17.35 0,6.55 3.25,12.35 8.65,15.4 2.3,1.3 5.25,2 8.6,2 2.95,0 6.4,-0.6 10.35,-1.75 l 0,-11.95 0.85,-0.7 2.75,-0.25 0,-2.05 -12.5,0 z"
         style=""
         id="path4366" />
      <path
         d="m 490.16797,66.512207 12.6,0 0,-2.05 -3.55,-0.25 -0.85,-0.7 0,-9.85 c 1.55,0.15 2.8,0.25 3.75,0.25 8.05,0 12.95,-4.35 12.95,-10.75 0,-7.6 -4.3,-10.2 -13.9,-10.2 l -11.4,0 0,2 3.25,0.3 0.85,0.7 0,27.55 -0.85,0.7 -2.85,0.25 0,2.05 z m 8.2,-15.25 0,-15.9 c 0.9,-0.1 1.8,-0.1 2.6,-0.1 6.4,0 9.45,2.45 9.45,7.8 0,5.5 -3.05,8.45 -8.75,8.45 -0.75,0 -1.85,-0.1 -3.3,-0.25 z"
         style=""
         id="path4368" />
      <path
         d="m 517.69766,32.962207 0,2 2.85,0.3 0.85,0.7 0,18.55 c 0,3.7 0.25,6.45 2.2,8.8 1.9,2.3 5.6,3.8 10.35,3.8 4.75,0 8.45,-1.5 10.35,-3.8 1.95,-2.35 2.2,-5.15 2.2,-8.8 l 0,-18.2 0.9,-0.9 3,-0.45 0,-2 -10.55,0 0,2 3,0.45 0.95,0.9 0,17.75 c 0,6.8 -2.6,9.95 -8.9,9.95 -6.4,0 -8.95,-3.15 -8.95,-9.95 l 0,-18.1 0.9,-0.7 3.1,-0.3 0,-2 -12.25,0 z"
         style=""
         id="path4370" />
    </g>
    <g
       style="font-style:normal;font-variant:normal;font-weight:normal;font-stretch:normal;font-size:50px;line-height:125%;font-family:'Bitstream Charter';-inkscape-font-specification:'Bitstream Charter';letter-spacing:0px;word-spacing:0px;fill:#000000;fill-opacity:1;stroke:none;stroke-width:1px;stroke-linecap:butt;stroke-linejoin:miter;stroke-opacity:1"
       id="text4152">
      <path
         d="m 63.249998,67.362207 0,-7.9 -2.8,0 -1.1,5.55 -0.8,0.8 c -1.5,0.45 -2.95,0.65 -4.35,0.65 -8.1,0 -13.05,-5.6 -13.05,-15.1 0,-8.95 4.85,-14.35 12.3,-14.35 1.95,0 3.75,0.45 5.6,1.3 l 0.65,0.9 0.75,4.55 2.8,0 0,-7.7 c -3.65,-1.15 -6.95,-1.7 -9.9,-1.7 -10.4,0 -17.35,6.95 -17.35,17.35 0,6.55 3.3,12.35 8.65,15.4 2.3,1.3 5.2,2 8.5,2 3.35,0 6.8,-0.6 10.1,-1.75 z"
         style=""
         id="path4373" />
      <path
         d="m 67.140623,68.512207 12.6,0 0,-2.05 -3.55,-0.25 -0.85,-0.7 0,-9.85 c 1.55,0.15 2.8,0.25 3.75,0.25 8.05,0 12.95,-4.35 12.95,-10.75 0,-7.6 -4.3,-10.2 -13.9,-10.2 l -11.4,0 0,2 3.25,0.3 0.85,0.7 0,27.55 -0.85,0.7 -2.85,0.25 0,2.05 z m 8.2,-15.25 0,-15.9 c 0.9,-0.1 1.8,-0.1 2.6,-0.1 6.4,0 9.45,2.45 9.45,7.8 0,5.5 -3.05,8.45 -8.75,8.45 -0.75,0 -1.85,-0.1 -3.3,-0.25 z"
         style=""
         id="path4375" />
      <path
         d="m 94.670311,34.962207 0,2 2.85,0.3 0.85,0.7 0,18.55 c 0,3.7 0.25,6.45 2.199999,8.8 1.9,2.3 5.6,3.8 10.35,3.8 4.75,0 8.45,-1.5 10.35,-3.8 1.95,-2.35 2.2,-5.15 2.2,-8.8 l 0,-18.2 0.9,-0.9 3,-0.45 0,-2 -10.55,0 0,2 3,0.45 0.95,0.9 0,17.75 c 0,6.8 -2.6,9.95 -8.9,9.95 -6.4,0 -8.95,-3.15 -8.95,-9.95 l 0,-18.1 0.9,-0.7 3.1,-0.3 0,-2 -12.249999,0 z"
         style=""
         id="path4377" />
    </g>
    <path
       style="opacity:1;fill:#f6ffd5;fill-opacity:1;stroke:#000000;stroke-width:2;stroke-linejoin:miter;stroke-miterlimit:4;stroke-dasharray:none;stroke-opacity:1"
       d="m 501,85.564636 137,0 0,112.595134 -137,0 z"
       id="rect4156" />
    <g
       style="font-style:normal;font-variant:normal;font-weight:normal;font-stretch:normal;font-size:31.25px;line-height:125%;font-family:'Bitstream Charter';-inkscape-font-specification:'Bitstream Charter';text-align:center;letter-spacing:0px;word-spacing:0px;text-anchor:middle;fill:#000000;fill-opacity:1;stroke:none;stroke-width:1px;stroke-linecap:butt;stroke-linejoin:miter;stroke-opacity:1"
       id="text4158">
      <path
         d="m 522.75269,123.58096 0,1.28125 2.21875,0.15625 0.53125,0.4375 0,6.5 c -1.21875,0.28125 -2.28125,0.40625 -3.1875,0.40625 -4.90625,0 -8.03125,-3.53125 -8.03125,-9.4375 0,-5.625 3,-8.96875 7.78125,-8.96875 1.25,0 2.40625,0.28125 3.5625,0.8125 l 0.4375,0.5625 0.46875,2.84375 1.75,0 0,-4.96875 c -2.0625,-0.59375 -4.09375,-0.90625 -6,-0.90625 -6.90625,0 -11.21875,4.25 -11.21875,10.84375 0,4.09375 2.03125,7.71875 5.40625,9.625 1.4375,0.8125 3.28125,1.25 5.375,1.25 1.84375,0 4,-0.375 6.46875,-1.09375 l 0,-7.46875 0.53125,-0.4375 1.71875,-0.15625 0,-1.28125 -7.8125,0 z"
         style=""
         id="path4381" />
      <path
         d="m 532.32642,133.64346 7.53125,0 0,-1.125 -2.1875,-0.15625 -0.53125,-0.5 0,-8.9375 c 1.28125,-1.5 2.375,-2.28125 3.40625,-2.28125 0.65625,0 1.1875,0.25 1.59375,0.75 l 1,0 0,-2.6875 c -0.65625,-0.28125 -1.25,-0.40625 -1.875,-0.40625 -0.25,0 -0.53125,0 -0.78125,0.0625 -1.125,0.90625 -2.25,1.90625 -3.34375,3.03125 l 0,-2.9375 -1.1875,0 -3.625,1.125 0,0.96875 2.21875,0 0,11.3125 -0.5625,0.5 -1.65625,0.15625 0,1.125 z"
         style=""
         id="path4383" />
      <path
         d="m 553.78931,131.83096 0.40625,1.8125 4.40625,0 0,-1.125 -1.65625,-0.15625 -0.5625,-0.5 0,-9.0625 c 0,-3.15625 -1.375,-4.5 -4.65625,-4.5 -3.9375,0 -6.3125,1.625 -6.3125,3.53125 0,0.75 0.25,0.96875 0.96875,0.96875 l 2.15625,0 0,-2.625 c 0.84375,-0.34375 1.59375,-0.5 2.375,-0.5 2.25,0 2.875,1.03125 2.875,3.5 l 0,1 c -6.25,1.5 -9.125,2.4375 -9.125,5.6875 0,2.34375 1.53125,4 4,4 1.5,0 3.15625,-0.6875 5.125,-2.03125 z m 0,-1.0625 c -1.5625,0.90625 -2.84375,1.40625 -3.875,1.40625 -1.5625,0 -2.5,-1.03125 -2.5,-2.5625 0,-2.28125 1.96875,-3.125 6.375,-4.34375 l 0,5.5 z"
         style=""
         id="path4385" />
      <path
         d="m 559.9397,140.45596 7.34375,0 0,-1.125 -2,-0.15625 -0.53125,-0.5 0,-5.21875 c 1.15625,0.1875 2.125,0.28125 2.90625,0.28125 4.625,0 7.6875,-3.1875 7.6875,-8.125 0,-4.375 -2.5625,-7.3125 -6,-7.3125 -1.46875,0 -2.9375,0.625 -4.59375,1.875 l 0,-1.71875 -1.1875,0 -3.625,1.125 0,0.96875 2.21875,0 0,18.125 -0.53125,0.5 -1.6875,0.15625 0,1.125 z m 4.8125,-8.625 0,-10.5 c 1.1875,-0.6875 2.21875,-1.0625 3.28125,-1.0625 2.71875,0 4.5625,2.15625 4.5625,5.75 0,3.84375 -2.125,6.3125 -5.1875,6.3125 -0.75,0 -1.625,-0.15625 -2.65625,-0.5 z"
         style=""
         id="path4387" />
      <path
         d="m 580.83911,110.64346 -3.8125,1.125 0,0.96875 2.40625,0 0,19.125 -0.53125,0.5 -1.6875,0.15625 0,1.125 6.84375,0 0,-1.125 -1.46875,-0.15625 -0.5625,-0.5 0,-10.46875 c 1.34375,-0.6875 2.5,-1.03125 3.5,-1.03125 2.3125,0 3.15625,0.9375 3.15625,3.21875 l 0,8.28125 -0.53125,0.5 -1.46875,0.15625 0,1.125 6.8125,0 0,-1.125 -1.65625,-0.15625 -0.5625,-0.5 0,-8.8125 c 0,-3.125 -1.46875,-4.75 -4.1875,-4.75 -1.34375,0 -2.96875,0.71875 -5.0625,1.875 l 0,-9.53125 -1.1875,0 z"
         style=""
         id="path4389" />
      <path
         d="m 598.88452,111.51846 c -1,0 -1.8125,0.78125 -1.8125,1.8125 0,1 0.8125,1.78125 1.8125,1.78125 1,0 1.8125,-0.78125 1.8125,-1.78125 0,-1 -0.8125,-1.8125 -1.8125,-1.8125 z m -0.125,6.9375 -3.59375,1.125 0,0.96875 2.1875,0 0,11.3125 -0.53125,0.5 -1.65625,0.15625 0,1.125 7.03125,0 0,-1.125 -1.6875,-0.15625 -0.5625,-0.5 0,-13.40625 -1.1875,0 z"
         style=""
         id="path4391" />
      <path
         d="m 616.0813,132.33096 0,-1.625 c -1.3125,0.875 -2.59375,1.3125 -3.96875,1.3125 -3.25,0 -5.3125,-2.28125 -5.3125,-6.125 0,-3.9375 1.90625,-6.34375 4.59375,-6.34375 0.53125,0 1.03125,0.15625 1.5,0.4375 l 0,2.5625 c 0.46875,0.3125 0.9375,0.46875 1.40625,0.46875 1.0625,0 1.75,-0.65625 1.75,-1.65625 0,-1.8125 -1.6875,-3.0625 -4.6875,-3.0625 -4.375,0 -7.40625,3.15625 -7.40625,7.8125 0,4.625 2.78125,7.75 7.03125,7.75 1.6875,0 3.375,-0.53125 5.09375,-1.53125 z"
         style=""
         id="path4393" />
      <path
         d="m 627.46606,118.98721 c -1.0625,-0.46875 -2.28125,-0.6875 -3.65625,-0.6875 -3.5625,0 -5.53125,1.625 -5.53125,4.375 0,2.09375 1.375,3.09375 4.03125,4.28125 2.0625,0.9375 3.1875,1.5 3.1875,3.125 0,1.46875 -1.125,2.53125 -2.9375,2.53125 -0.90625,0 -1.78125,-0.25 -2.65625,-0.75 l -0.375,-2.65625 -1.5,0 0,4.0625 c 1.09375,0.40625 2.46875,0.65625 4.0625,0.65625 3.6875,0 5.84375,-1.78125 5.84375,-4.6875 0,-1.15625 -0.4375,-2.09375 -1.1875,-2.6875 -1.03125,-0.84375 -2.21875,-1.28125 -3.3125,-1.8125 -1.75,-0.84375 -2.65625,-1.5 -2.65625,-2.84375 0,-1.40625 0.9375,-2.25 2.59375,-2.25 0.75,0 1.5,0.21875 2.3125,0.65625 l 0.25,2.21875 1.53125,0 0,-3.53125 z"
         style=""
         id="path4395" />
      <path
         d="m 540.33398,171.98721 0,-4.9375 -1.75,0 -0.6875,3.46875 -0.5,0.5 c -0.9375,0.28125 -1.84375,0.40625 -2.71875,0.40625 -5.0625,0 -8.15625,-3.5 -8.15625,-9.4375 0,-5.59375 3.03125,-8.96875 7.6875,-8.96875 1.21875,0 2.34375,0.28125 3.5,0.8125 l 0.40625,0.5625 0.46875,2.84375 1.75,0 0,-4.8125 c -2.28125,-0.71875 -4.34375,-1.0625 -6.1875,-1.0625 -6.5,0 -10.84375,4.34375 -10.84375,10.84375 0,4.09375 2.0625,7.71875 5.40625,9.625 1.4375,0.8125 3.25,1.25 5.3125,1.25 2.09375,0 4.25,-0.375 6.3125,-1.09375 z"
         style=""
         id="path4397" />
      <path
         d="m 552.17187,170.89346 0.40625,1.8125 4.40625,0 0,-1.125 -1.65625,-0.15625 -0.5625,-0.5 0,-9.0625 c 0,-3.15625 -1.375,-4.5 -4.65625,-4.5 -3.9375,0 -6.3125,1.625 -6.3125,3.53125 0,0.75 0.25,0.96875 0.96875,0.96875 l 2.15625,0 0,-2.625 c 0.84375,-0.34375 1.59375,-0.5 2.375,-0.5 2.25,0 2.875,1.03125 2.875,3.5 l 0,1 c -6.25,1.5 -9.125,2.4375 -9.125,5.6875 0,2.34375 1.53125,4 4,4 1.5,0 3.15625,-0.6875 5.125,-2.03125 z m 0,-1.0625 c -1.5625,0.90625 -2.84375,1.40625 -3.875,1.40625 -1.5625,0 -2.5,-1.03125 -2.5,-2.5625 0,-2.28125 1.96875,-3.125 6.375,-4.34375 l 0,5.5 z"
         style=""
         id="path4399" />
      <path
         d="m 570.88477,171.39346 0,-1.625 c -1.3125,0.875 -2.59375,1.3125 -3.96875,1.3125 -3.25,0 -5.3125,-2.28125 -5.3125,-6.125 0,-3.9375 1.90625,-6.34375 4.59375,-6.34375 0.53125,0 1.03125,0.15625 1.5,0.4375 l 0,2.5625 c 0.46875,0.3125 0.9375,0.46875 1.40625,0.46875 1.0625,0 1.75,-0.65625 1.75,-1.65625 0,-1.8125 -1.6875,-3.0625 -4.6875,-3.0625 -4.375,0 -7.40625,3.15625 -7.40625,7.8125 0,4.625 2.78125,7.75 7.03125,7.75 1.6875,0 3.375,-0.53125 5.09375,-1.53125 z"
         style=""
         id="path4401" />
      <path
         d="m 575.92578,149.70596 -3.8125,1.125 0,0.96875 2.40625,0 0,19.125 -0.53125,0.5 -1.6875,0.15625 0,1.125 6.84375,0 0,-1.125 -1.46875,-0.15625 -0.5625,-0.5 0,-10.46875 c 1.34375,-0.6875 2.5,-1.03125 3.5,-1.03125 2.3125,0 3.15625,0.9375 3.15625,3.21875 l 0,8.28125 -0.53125,0.5 -1.46875,0.15625 0,1.125 6.8125,0 0,-1.125 -1.65625,-0.15625 -0.5625,-0.5 0,-8.8125 c 0,-3.125 -1.46875,-4.75 -4.1875,-4.75 -1.34375,0 -2.96875,0.71875 -5.0625,1.875 l 0,-9.53125 -1.1875,0 z"
         style=""
         id="path4403" />
      <path
         d="m 603.15869,169.39346 c -1.78125,1.1875 -3.34375,1.8125 -4.90625,1.8125 -3.15625,0 -5.25,-2.375 -5.25,-6.375 0,-0.0937 0,-0.21875 0,-0.34375 l 10.125,0 c 0.0312,-0.34375 0.0312,-0.65625 0.0312,-0.96875 0,-3.84375 -2.21875,-6.15625 -5.625,-6.15625 -4.1875,0 -7.21875,3.21875 -7.21875,7.9375 0,4.59375 2.84375,7.6875 6.96875,7.6875 1.96875,0 4,-0.625 5.875,-1.875 l 0,-1.71875 z m -2.78125,-6.21875 -7.21875,0 c 0.1875,-2.65625 1.96875,-4.40625 3.96875,-4.40625 2.09375,0 3.25,1.375 3.25,3.90625 0,0.15625 0,0.34375 0,0.5 z"
         style=""
         id="path4405" />
      <path
         d="m 615.22852,158.04971 c -1.0625,-0.46875 -2.28125,-0.6875 -3.65625,-0.6875 -3.5625,0 -5.53125,1.625 -5.53125,4.375 0,2.09375 1.375,3.09375 4.03125,4.28125 2.0625,0.9375 3.1875,1.5 3.1875,3.125 0,1.46875 -1.125,2.53125 -2.9375,2.53125 -0.90625,0 -1.78125,-0.25 -2.65625,-0.75 l -0.375,-2.65625 -1.5,0 0,4.0625 c 1.09375,0.40625 2.46875,0.65625 4.0625,0.65625 3.6875,0 5.84375,-1.78125 5.84375,-4.6875 0,-1.15625 -0.4375,-2.09375 -1.1875,-2.6875 -1.03125,-0.84375 -2.21875,-1.28125 -3.3125,-1.8125 -1.75,-0.84375 -2.65625,-1.5 -2.65625,-2.84375 0,-1.40625 0.9375,-2.25 2.59375,-2.25 0.75,0 1.5,0.21875 2.3125,0.65625 l 0.25,2.21875 1.53125,0 0,-3.53125 z"
         style=""
         id="path4407" />
    </g>
    <path
       style="opacity:1;fill:#f6ffd5;fill-opacity:1;stroke:#000000;stroke-width:2;stroke-linejoin:miter;stroke-miterlimit:4;stroke-dasharray:none;stroke-opacity:1"
       d="m 45.45459,84.4543 68.09082,0 0,46.81583 -68.09082,0 z"
       id="rect4166" />
    <g
       style="font-style:normal;font-variant:normal;font-weight:normal;font-stretch:normal;font-size:31.25px;line-height:125%;font-family:'Bitstream Charter';-inkscape-font-specification:'Bitstream Charter';letter-spacing:0px;word-spacing:0px;fill:#000000;fill-opacity:1;stroke:none;stroke-width:1px;stroke-linecap:butt;stroke-linejoin:miter;stroke-opacity:1"
       id="text4168">
      <path
         d="m 51.493359,115.87472 11.975,0 0,-4.55 -1.3,0 -0.425,3 -0.35,0.4 -5.65,0 0,-14.125 0.425,-0.35 1.425,-0.15 0,-1.000002 -6.1,0 0,1.000002 1.575,0.15 0.425,0.35 0,13.775 -0.425,0.35 -1.575,0.125 0,1.025 z"
         style="font-size:25px"
         id="path4411" />
      <path
         d="m 71.581641,98.799718 -5.425,1.625002 0,1.05 3.925,-0.7 0,13.45 -0.3,0.425 -2.875,0.15 0,1.075 8.375,0 0,-1.05 -2.7,-0.125 -0.3,-0.375 0,-15.525002 -0.7,0 z"
         style="font-size:25px"
         id="path4413" />
      <path
         d="m 84.722656,99.099718 -6.175,0 0,1.000002 1.425,0.15 0.425,0.35 0,13.775 -0.425,0.35 -1.425,0.125 0,1.025 6.175,0 c 2.5,0 4.4,-0.275 6.1,-1.55 2.05,-1.55 3.125,-3.875 3.125,-6.85 0,-5.25 -3.3,-8.375002 -9.225,-8.375002 z m -2.075,1.150002 1.975,0 c 4.575,0 6.8,2.35 6.8,7.225 0,4.85 -2.225,7.25 -6.8,7.25 l -1.975,0 0,-14.475 z"
         style="font-size:25px"
         id="path4415" />
      <path
         d="m 101.53164,97.299718 0,1.85 c -2.949999,0.5 -4.574999,2.225002 -4.574999,4.500002 0,2.325 1.525,3.85 4.574999,4.55 l 0,6.525 c -1.25,0 -2.324999,-0.2 -3.199999,-0.625 l -0.225,-0.325 -0.45,-2.725 -1.15,0 0,4.2 c 1.225,0.325 2.9,0.55 5.024999,0.625 l 0,2.55 1.05,0 0,-2.55 c 3.1,-0.55 4.925,-2.425 4.925,-4.8 0,-2.5 -1.525,-3.775 -4.925,-4.7 l 0,-6.125 c 0.825,0 1.6,0.15 2.35,0.425 l 0.375,0.525 0.375,2.325 1.125,0 0,-3.900002 c -1.525,-0.35 -2.875,-0.55 -4.025,-0.55 -0.075,0 -0.125,0 -0.2,0 l 0,-1.775 -1.05,0 z m 0,3.025002 0,5.75 c -1.649999,-0.525 -2.449999,-1.475 -2.449999,-2.875 0,-1.45 0.875,-2.525 2.449999,-2.875 z m 1.1,8.2 c 1.875,0.55 2.8,1.55 2.8,3 0,1.6 -1.05,2.825 -2.8,3.1 l 0,-6.1 z"
         style="font-size:25px"
         id="path4417" />
    </g>
    <path
       style="opacity:1;fill:#f6ffd5;fill-opacity:1;stroke:#000000;stroke-width:2;stroke-linejoin:miter;stroke-miterlimit:4;stroke-dasharray:none;stroke-opacity:1"
       d="m 127.45459,84.4543 68.09082,0 0,46.81583 -68.09082,0 z"
       id="rect4179" />
    <g
       style="font-style:normal;font-variant:normal;font-weight:normal;font-stretch:normal;font-size:31.25px;line-height:125%;font-family:'Bitstream Charter';-inkscape-font-specification:'Bitstream Charter';letter-spacing:0px;word-spacing:0px;fill:#000000;fill-opacity:1;stroke:none;stroke-width:1px;stroke-linecap:butt;stroke-linejoin:miter;stroke-opacity:1"
       id="text4181">
      <path
         d="m 133.49336,115.87472 11.975,0 0,-4.55 -1.3,0 -0.425,3 -0.35,0.4 -5.65,0 0,-14.125 0.425,-0.35 1.425,-0.15 0,-1.000002 -6.1,0 0,1.000002 1.575,0.15 0.425,0.35 0,13.775 -0.425,0.35 -1.575,0.125 0,1.025 z"
         style="font-size:25px"
         id="path4421" />
      <path
         d="m 153.58164,98.799718 -5.425,1.625002 0,1.05 3.925,-0.7 0,13.45 -0.3,0.425 -2.875,0.15 0,1.075 8.375,0 0,-1.05 -2.7,-0.125 -0.3,-0.375 0,-15.525002 -0.7,0 z"
         style="font-size:25px"
         id="path4423" />
      <path
         d="m 160.59766,115.87472 6.325,0 0,-1.025 -1.6,-0.125 -0.425,-0.35 0,-13.775 0.425,-0.35 1.6,-0.15 0,-1.000002 -6.325,0 0,1.000002 1.6,0.15 0.425,0.35 0,13.775 -0.425,0.35 -1.6,0.125 0,1.025 z"
         style="font-size:25px"
         id="path4425" />
      <path
         d="m 174.30312,97.299718 0,1.85 c -2.95,0.5 -4.575,2.225002 -4.575,4.500002 0,2.325 1.525,3.85 4.575,4.55 l 0,6.525 c -1.25,0 -2.325,-0.2 -3.2,-0.625 l -0.225,-0.325 -0.45,-2.725 -1.15,0 0,4.2 c 1.225,0.325 2.9,0.55 5.025,0.625 l 0,2.55 1.05,0 0,-2.55 c 3.1,-0.55 4.925,-2.425 4.925,-4.8 0,-2.5 -1.525,-3.775 -4.925,-4.7 l 0,-6.125 c 0.825,0 1.6,0.15 2.35,0.425 l 0.375,0.525 0.375,2.325 1.125,0 0,-3.900002 c -1.525,-0.35 -2.875,-0.55 -4.025,-0.55 -0.075,0 -0.125,0 -0.2,0 l 0,-1.775 -1.05,0 z m 0,3.025002 0,5.75 c -1.65,-0.525 -2.45,-1.475 -2.45,-2.875 0,-1.45 0.875,-2.525 2.45,-2.875 z m 1.1,8.2 c 1.875,0.55 2.8,1.55 2.8,3 0,1.6 -1.05,2.825 -2.8,3.1 l 0,-6.1 z"
         style="font-size:25px"
         id="path4427" />
    </g>
    <path
       style="opacity:1;fill:#f6ffd5;fill-opacity:1;stroke:#000000;stroke-width:2;stroke-linejoin:miter;stroke-miterlimit:4;stroke-dasharray:none;stroke-opacity:1"
       d="m 77.685539,141.73759 87.628931,0 0,60.24926 -87.628931,0 z"
       id="rect4187" />
    <g
       style="font-style:normal;font-variant:normal;font-weight:normal;font-stretch:normal;font-size:31.25px;line-height:125%;font-family:'Bitstream Charter';-inkscape-font-specification:'Bitstream Charter';letter-spacing:0px;word-spacing:0px;fill:#000000;fill-opacity:1;stroke:none;stroke-width:1px;stroke-linecap:butt;stroke-linejoin:miter;stroke-opacity:1"
       id="text4189">
      <path
         d="m 97.325439,181.87784 14.968751,0 0,-5.6875 -1.625,0 -0.53125,3.75 -0.4375,0.5 -7.0625,0 0,-17.65625 0.53125,-0.4375 1.78125,-0.1875 0,-1.25 -7.625001,0 0,1.25 1.96875,0.1875 0.53125,0.4375 0,17.21875 -0.53125,0.4375 -1.96875,0.15625 0,1.28125 z"
         style="font-size:31.25px"
         id="path4431" />
      <path
         d="m 117.12329,179.40909 c 6.90625,-5.5 10.6875,-9.03125 10.6875,-12.96875 0,-3.53125 -2.46875,-5.90625 -6.5,-5.90625 -3.875,0 -6.625,2.21875 -6.625,4.40625 0,1.0625 0.65625,1.75 1.75,1.75 0.5,0 0.96875,-0.15625 1.40625,-0.46875 l 0,-3.34375 c 0.9375,-0.53125 1.84375,-0.75 2.78125,-0.75 2.59375,0 4.15625,1.75 4.15625,4.71875 0,4.09375 -3.90625,7.5 -10.75,13.0625 l 0,1.96875 14.46875,0 0,-5.125 -1.40625,0 -0.5625,2.65625 -9.40625,0 z"
         style="font-size:31.25px"
         id="path4433" />
      <path
         d="m 138.20581,158.65909 0,2.3125 c -3.6875,0.625 -5.71875,2.78125 -5.71875,5.625 0,2.90625 1.90625,4.8125 5.71875,5.6875 l 0,8.15625 c -1.5625,0 -2.90625,-0.25 -4,-0.78125 l -0.28125,-0.40625 -0.5625,-3.40625 -1.4375,0 0,5.25 c 1.53125,0.40625 3.625,0.6875 6.28125,0.78125 l 0,3.1875 1.3125,0 0,-3.1875 c 3.875,-0.6875 6.15625,-3.03125 6.15625,-6 0,-3.125 -1.90625,-4.71875 -6.15625,-5.875 l 0,-7.65625 c 1.03125,0 2,0.1875 2.9375,0.53125 l 0.46875,0.65625 0.46875,2.90625 1.40625,0 0,-4.875 c -1.90625,-0.4375 -3.59375,-0.6875 -5.03125,-0.6875 -0.0937,0 -0.15625,0 -0.25,0 l 0,-2.21875 -1.3125,0 z m 0,3.78125 0,7.1875 c -2.0625,-0.65625 -3.0625,-1.84375 -3.0625,-3.59375 0,-1.8125 1.09375,-3.15625 3.0625,-3.59375 z m 1.375,10.25 c 2.34375,0.6875 3.5,1.9375 3.5,3.75 0,2 -1.3125,3.53125 -3.5,3.875 l 0,-7.625 z"
         style="font-size:31.25px"
         id="path4435" />
    </g>
    <path
       style="opacity:1;fill:#f4e3d7;fill-opacity:1;stroke:#000000;stroke-width:2;stroke-linejoin:miter;stroke-miterlimit:4;stroke-dasharray:none;stroke-opacity:1"
       d="m 234,22.362206 189,0 0,203.000004 -189,0 z"
       id="rect4219" />
    <g
       style="font-style:normal;font-variant:normal;font-weight:normal;font-stretch:normal;font-size:50px;line-height:125%;font-family:'Bitstream Charter';-inkscape-font-specification:'Bitstream Charter';letter-spacing:0px;word-spacing:0px;fill:#000000;fill-opacity:1;stroke:none;stroke-width:1px;stroke-linecap:butt;stroke-linejoin:miter;stroke-opacity:1"
       id="text4221">
      <path
         d="m 271.25001,67.362207 0,-7.9 -2.8,0 -1.1,5.55 -0.8,0.8 c -1.5,0.45 -2.95,0.65 -4.35,0.65 -8.1,0 -13.05,-5.6 -13.05,-15.1 0,-8.95 4.85,-14.35 12.3,-14.35 1.95,0 3.75,0.45 5.6,1.3 l 0.65,0.9 0.75,4.55 2.8,0 0,-7.7 c -3.65,-1.15 -6.95,-1.7 -9.9,-1.7 -10.4,0 -17.35,6.95 -17.35,17.35 0,6.55 3.3,12.35 8.65,15.4 2.3,1.3 5.2,2 8.5,2 3.35,0 6.8,-0.6 10.1,-1.75 z"
         style=""
         id="path4439" />
      <path
         d="m 275.14063,68.512207 12.6,0 0,-2.05 -3.55,-0.25 -0.85,-0.7 0,-9.85 c 1.55,0.15 2.8,0.25 3.75,0.25 8.05,0 12.95,-4.35 12.95,-10.75 0,-7.6 -4.3,-10.2 -13.9,-10.2 l -11.4,0 0,2 3.25,0.3 0.85,0.7 0,27.55 -0.85,0.7 -2.85,0.25 0,2.05 z m 8.2,-15.25 0,-15.9 c 0.9,-0.1 1.8,-0.1 2.6,-0.1 6.4,0 9.45,2.45 9.45,7.8 0,5.5 -3.05,8.45 -8.75,8.45 -0.75,0 -1.85,-0.1 -3.3,-0.25 z"
         style=""
         id="path4441" />
      <path
         d="m 302.67032,34.962207 0,2 2.85,0.3 0.85,0.7 0,18.55 c 0,3.7 0.25,6.45 2.2,8.8 1.9,2.3 5.6,3.8 10.35,3.8 4.75,0 8.45,-1.5 10.35,-3.8 1.95,-2.35 2.2,-5.15 2.2,-8.8 l 0,-18.2 0.9,-0.9 3,-0.45 0,-2 -10.55,0 0,2 3,0.45 0.95,0.9 0,17.75 c 0,6.8 -2.6,9.95 -8.9,9.95 -6.4,0 -8.95,-3.15 -8.95,-9.95 l 0,-18.1 0.9,-0.7 3.1,-0.3 0,-2 -12.25,0 z"
         style=""
         id="path4443" />
    </g>
    <path
       style="opacity:1;fill:#f6ffd5;fill-opacity:1;stroke:#000000;stroke-width:2;stroke-linejoin:miter;stroke-miterlimit:4;stroke-dasharray:none;stroke-opacity:1"
       d="m 253.45459,84.4543 68.09082,0 0,46.81583 -68.09082,0 z"
       id="rect4227" />
    <g
       style="font-style:normal;font-variant:normal;font-weight:normal;font-stretch:normal;font-size:31.25px;line-height:125%;font-family:'Bitstream Charter';-inkscape-font-specification:'Bitstream Charter';letter-spacing:0px;word-spacing:0px;fill:#000000;fill-opacity:1;stroke:none;stroke-width:1px;stroke-linecap:butt;stroke-linejoin:miter;stroke-opacity:1"
       id="text4229">
      <path
         d="m 259.49336,115.87472 11.975,0 0,-4.55 -1.3,0 -0.425,3 -0.35,0.4 -5.65,0 0,-14.125 0.425,-0.35 1.425,-0.15 0,-1.000002 -6.1,0 0,1.000002 1.575,0.15 0.425,0.35 0,13.775 -0.425,0.35 -1.575,0.125 0,1.025 z"
         style="font-size:25px"
         id="path4447" />
      <path
         d="m 279.58164,98.799718 -5.425,1.625002 0,1.05 3.925,-0.7 0,13.45 -0.3,0.425 -2.875,0.15 0,1.075 8.375,0 0,-1.05 -2.7,-0.125 -0.3,-0.375 0,-15.525002 -0.7,0 z"
         style="font-size:25px"
         id="path4449" />
      <path
         d="m 292.72266,99.099718 -6.175,0 0,1.000002 1.425,0.15 0.425,0.35 0,13.775 -0.425,0.35 -1.425,0.125 0,1.025 6.175,0 c 2.5,0 4.4,-0.275 6.1,-1.55 2.05,-1.55 3.125,-3.875 3.125,-6.85 0,-5.25 -3.3,-8.375002 -9.225,-8.375002 z m -2.075,1.150002 1.975,0 c 4.575,0 6.8,2.35 6.8,7.225 0,4.85 -2.225,7.25 -6.8,7.25 l -1.975,0 0,-14.475 z"
         style="font-size:25px"
         id="path4451" />
      <path
         d="m 309.53164,97.299718 0,1.85 c -2.95,0.5 -4.575,2.225002 -4.575,4.500002 0,2.325 1.525,3.85 4.575,4.55 l 0,6.525 c -1.25,0 -2.325,-0.2 -3.2,-0.625 l -0.225,-0.325 -0.45,-2.725 -1.15,0 0,4.2 c 1.225,0.325 2.9,0.55 5.025,0.625 l 0,2.55 1.05,0 0,-2.55 c 3.1,-0.55 4.925,-2.425 4.925,-4.8 0,-2.5 -1.525,-3.775 -4.925,-4.7 l 0,-6.125 c 0.825,0 1.6,0.15 2.35,0.425 l 0.375,0.525 0.375,2.325 1.125,0 0,-3.900002 c -1.525,-0.35 -2.875,-0.55 -4.025,-0.55 -0.075,0 -0.125,0 -0.2,0 l 0,-1.775 -1.05,0 z m 0,3.025002 0,5.75 c -1.65,-0.525 -2.45,-1.475 -2.45,-2.875 0,-1.45 0.875,-2.525 2.45,-2.875 z m 1.1,8.2 c 1.875,0.55 2.8,1.55 2.8,3 0,1.6 -1.05,2.825 -2.8,3.1 l 0,-6.1 z"
         style="font-size:25px"
         id="path4453" />
    </g>
    <path
       style="opacity:1;fill:#f6ffd5;fill-opacity:1;stroke:#000000;stroke-width:2;stroke-linejoin:miter;stroke-miterlimit:4;stroke-dasharray:none;stroke-opacity:1"
       d="m 335.45459,84.4543 68.09082,0 0,46.81583 -68.09082,0 z"
       id="rect4235" />
    <g
       style="font-style:normal;font-variant:normal;font-weight:normal;font-stretch:normal;font-size:31.25px;line-height:125%;font-family:'Bitstream Charter';-inkscape-font-specification:'Bitstream Charter';letter-spacing:0px;word-spacing:0px;fill:#000000;fill-opacity:1;stroke:none;stroke-width:1px;stroke-linecap:butt;stroke-linejoin:miter;stroke-opacity:1"
       id="text4237">
      <path
         d="m 341.49336,115.87472 11.975,0 0,-4.55 -1.3,0 -0.425,3 -0.35,0.4 -5.65,0 0,-14.125 0.425,-0.35 1.425,-0.15 0,-1.000002 -6.1,0 0,1.000002 1.575,0.15 0.425,0.35 0,13.775 -0.425,0.35 -1.575,0.125 0,1.025 z"
         style="font-size:25px"
         id="path4457" />
      <path
         d="m 361.58164,98.799718 -5.425,1.625002 0,1.05 3.925,-0.7 0,13.45 -0.3,0.425 -2.875,0.15 0,1.075 8.375,0 0,-1.05 -2.7,-0.125 -0.3,-0.375 0,-15.525002 -0.7,0 z"
         style="font-size:25px"
         id="path4459" />
      <path
         d="m 368.59766,115.87472 6.325,0 0,-1.025 -1.6,-0.125 -0.425,-0.35 0,-13.775 0.425,-0.35 1.6,-0.15 0,-1.000002 -6.325,0 0,1.000002 1.6,0.15 0.425,0.35 0,13.775 -0.425,0.35 -1.6,0.125 0,1.025 z"
         style="font-size:25px"
         id="path4461" />
      <path
         d="m 382.30313,97.299718 0,1.85 c -2.95001,0.5 -4.57501,2.225002 -4.57501,4.500002 0,2.325 1.525,3.85 4.57501,4.55 l 0,6.525 c -1.25,0 -2.32501,-0.2 -3.20001,-0.625 l -0.225,-0.325 -0.44999,-2.725 -1.15001,0 0,4.2 c 1.225,0.325 2.90001,0.55 5.02501,0.625 l 0,2.55 1.04999,0 0,-2.55 c 3.1,-0.55 4.925,-2.425 4.925,-4.8 0,-2.5 -1.525,-3.775 -4.925,-4.7 l 0,-6.125 c 0.82501,0 1.6,0.15 2.35,0.425 l 0.375,0.525 0.375,2.325 1.125,0 0,-3.900002 c -1.52499,-0.35 -2.875,-0.55 -4.02499,-0.55 -0.075,0 -0.125,0 -0.20001,0 l 0,-1.775 -1.04999,0 z m 0,3.025002 0,5.75 c -1.65001,-0.525 -2.45001,-1.475 -2.45001,-2.875 0,-1.45 0.875,-2.525 2.45001,-2.875 z m 1.09999,8.2 c 1.875,0.55 2.8,1.55 2.8,3 0,1.6 -1.05,2.825 -2.8,3.1 l 0,-6.1 z"
         style="font-size:25px"
         id="path4463" />
    </g>
    <path
       style="opacity:1;fill:#f6ffd5;fill-opacity:1;stroke:#000000;stroke-width:2;stroke-linejoin:miter;stroke-miterlimit:4;stroke-dasharray:none;stroke-opacity:1"
       d="m 285.68555,141.73759 87.62893,0 0,60.24926 -87.62893,0 z"
       id="rect4243" />
    <g
       style="font-style:normal;font-variant:normal;font-weight:normal;font-stretch:normal;font-size:31.25px;line-height:125%;font-family:'Bitstream Charter';-inkscape-font-specification:'Bitstream Charter';letter-spacing:0px;word-spacing:0px;fill:#000000;fill-opacity:1;stroke:none;stroke-width:1px;stroke-linecap:butt;stroke-linejoin:miter;stroke-opacity:1"
       id="text4245">
      <path
         d="m 305.32544,181.87784 14.96875,0 0,-5.6875 -1.625,0 -0.53125,3.75 -0.4375,0.5 -7.0625,0 0,-17.65625 0.53125,-0.4375 1.78125,-0.1875 0,-1.25 -7.625,0 0,1.25 1.96875,0.1875 0.53125,0.4375 0,17.21875 -0.53125,0.4375 -1.96875,0.15625 0,1.28125 z"
         style="font-size:31.25px"
         id="path4467" />
      <path
         d="m 325.12329,179.40909 c 6.90625,-5.5 10.6875,-9.03125 10.6875,-12.96875 0,-3.53125 -2.46875,-5.90625 -6.5,-5.90625 -3.875,0 -6.625,2.21875 -6.625,4.40625 0,1.0625 0.65625,1.75 1.75,1.75 0.5,0 0.96875,-0.15625 1.40625,-0.46875 l 0,-3.34375 c 0.9375,-0.53125 1.84375,-0.75 2.78125,-0.75 2.59375,0 4.15625,1.75 4.15625,4.71875 0,4.09375 -3.90625,7.5 -10.75,13.0625 l 0,1.96875 14.46875,0 0,-5.125 -1.40625,0 -0.5625,2.65625 -9.40625,0 z"
         style="font-size:31.25px"
         id="path4469" />
      <path
         d="m 346.20581,158.65909 0,2.3125 c -3.6875,0.625 -5.71875,2.78125 -5.71875,5.625 0,2.90625 1.90625,4.8125 5.71875,5.6875 l 0,8.15625 c -1.5625,0 -2.90625,-0.25 -4,-0.78125 l -0.28125,-0.40625 -0.5625,-3.40625 -1.4375,0 0,5.25 c 1.53125,0.40625 3.625,0.6875 6.28125,0.78125 l 0,3.1875 1.3125,0 0,-3.1875 c 3.875,-0.6875 6.15625,-3.03125 6.15625,-6 0,-3.125 -1.90625,-4.71875 -6.15625,-5.875 l 0,-7.65625 c 1.03125,0 2,0.1875 2.9375,0.53125 l 0.46875,0.65625 0.46875,2.90625 1.40625,0 0,-4.875 c -1.90625,-0.4375 -3.59375,-0.6875 -5.03125,-0.6875 -0.0937,0 -0.15625,0 -0.25,0 l 0,-2.21875 -1.3125,0 z m 0,3.78125 0,7.1875 c -2.0625,-0.65625 -3.0625,-1.84375 -3.0625,-3.59375 0,-1.8125 1.09375,-3.15625 3.0625,-3.59375 z m 1.375,10.25 c 2.34375,0.6875 3.5,1.9375 3.5,3.75 0,2 -1.3125,3.53125 -3.5,3.875 l 0,-7.625 z"
         style="font-size:31.25px"
         id="path4471" />
    </g>
    <path
       style="opacity:1;fill:#f6ffd5;fill-opacity:1;stroke:#000000;stroke-width:1.99999988;stroke-linejoin:miter;stroke-miterlimit:4;stroke-dasharray:none;stroke-opacity:1"
       d="m 26,240.71078 666.96362,0 0,51.67548 -666.96362,0 z"
       id="rect4249" />
    <g
       style="font-style:normal;font-variant:normal;font-weight:normal;font-stretch:normal;font-size:31.25px;line-height:125%;font-family:'Bitstream Charter';-inkscape-font-specification:'Bitstream Charter';letter-spacing:0px;word-spacing:0px;fill:#000000;fill-opacity:1;stroke:none;stroke-width:1px;stroke-linecap:butt;stroke-linejoin:miter;stroke-opacity:1"
       id="text4269">
      <path
         d="m 330.47234,281.05255 17.9625,0 0,-6.825 -1.95,0 -0.6375,4.5 -0.525,0.6 -8.475,0 0,-21.1875 0.6375,-0.525 2.1375,-0.225 0,-1.5 -9.15,0 0,1.5 2.3625,0.225 0.6375,0.525 0,20.6625 -0.6375,0.525 -2.3625,0.1875 0,1.5375 z"
         style="font-size:37.5px"
         id="path4475" />
      <path
         d="m 360.82976,267.81505 c 3.675,-1.05 5.5875,-3.1875 5.5875,-6.075 0,-3.7875 -2.8875,-6.3 -7.3875,-6.3 -4.6875,0 -7.9125,2.5125 -7.9125,4.9875 0,1.2 0.825,2.025 2.025,2.025 0.6,0 1.0875,-0.15 1.5375,-0.4875 l 0,-3.525 c 1.0875,-0.75 2.25,-1.0875 3.5625,-1.0875 2.8875,0 4.7625,1.9125 4.7625,4.875 0,3.0375 -2.025,4.8375 -5.8125,4.8375 -0.2625,0 -0.525,-0.0375 -0.7875,-0.0375 l 0,2.2125 c 0.7125,-0.1125 1.3875,-0.15 1.9875,-0.15 3.6,0 5.55,1.725 5.55,4.6875 0,3.3375 -2.475,5.925 -5.8875,5.925 -1.125,0 -2.175,-0.3 -3.1875,-0.9 l -1.1625,-3.1875 c -0.4125,-0.15 -0.7875,-0.1875 -1.125,-0.1875 -1.2,0 -2.1,0.825 -2.1,1.9125 0,1.9125 2.9625,4.125 7.425,4.125 5.775,0 9.4875,-3.4125 9.4875,-7.6125 0,-3.4125 -2.4,-5.7375 -6.5625,-6.0375 z"
         style="font-size:37.5px"
         id="path4477" />
      <path
         d="m 379.52878,253.19005 0,2.775 c -4.425,0.75 -6.8625,3.3375 -6.8625,6.75 0,3.4875 2.2875,5.775 6.8625,6.825 l 0,9.7875 c -1.875,0 -3.4875,-0.3 -4.8,-0.9375 l -0.3375,-0.4875 -0.675,-4.0875 -1.725,0 0,6.3 c 1.8375,0.4875 4.35,0.825 7.5375,0.9375 l 0,3.825 1.575,0 0,-3.825 c 4.65,-0.825 7.3875,-3.6375 7.3875,-7.2 0,-3.75 -2.2875,-5.6625 -7.3875,-7.05 l 0,-9.1875 c 1.2375,0 2.4,0.225 3.525,0.6375 l 0.5625,0.7875 0.5625,3.4875 1.6875,0 0,-5.85 c -2.2875,-0.525 -4.3125,-0.825 -6.0375,-0.825 -0.1125,0 -0.1875,0 -0.3,0 l 0,-2.6625 -1.575,0 z m 0,4.5375 0,8.625 c -2.475,-0.7875 -3.675,-2.2125 -3.675,-4.3125 0,-2.175 1.3125,-3.7875 3.675,-4.3125 z m 1.65,12.3 c 2.8125,0.825 4.2,2.325 4.2,4.5 0,2.4 -1.575,4.2375 -4.2,4.65 l 0,-9.15 z"
         style="font-size:37.5px"
         id="path4479" />
    </g>
    <path
       style="opacity:1;fill:#f6ffd5;fill-opacity:1;stroke:#000000;stroke-width:1.99999988;stroke-linejoin:miter;stroke-miterlimit:4;stroke-dasharray:none;stroke-opacity:1"
       d="m 386,302.71078 306.96362,0 0,100.64605 -306.96362,0 z"
       id="rect4273" />
    <g
       style="font-style:normal;font-variant:normal;font-weight:normal;font-stretch:normal;font-size:31.25px;line-height:125%;font-family:'Bitstream Charter';-inkscape-font-specification:'Bitstream Charter';letter-spacing:0px;word-spacing:0px;fill:#000000;fill-opacity:1;stroke:none;stroke-width:1px;stroke-linecap:butt;stroke-linejoin:miter;stroke-opacity:1"
       id="text4275">
      <path
         d="m 429.22977,363.55255 c 1.725,0.75 4.05,1.2 6.75,1.2 6,0 9.7125,-3.1125 9.7125,-7.5375 0,-1.65 -0.5625,-3.0375 -1.65,-4.125 -1.725,-1.6875 -3.75,-2.2875 -5.6625,-3.075 -3.45,-1.4625 -5.25,-2.4 -5.25,-4.9125 0,-2.7375 1.9125,-4.5375 5.1,-4.5375 1.3125,0 2.4375,0.2625 3.375,0.7875 l 0.5625,0.6375 0.5625,3.5625 1.95,0 0,-5.8125 c -2.2125,-0.7125 -4.3125,-1.05 -6.375,-1.05 -5.325,0 -8.6625,2.9625 -8.6625,7.2 0,3.6375 2.175,5.025 6.3375,6.825 4.0875,1.7625 6.2625,2.4375 6.2625,5.55 0,2.625 -2.025,4.5 -5.6625,4.5 -1.6875,0 -3.1125,-0.3 -4.2,-0.8625 l -0.4875,-0.6375 -0.45,-4.3125 -2.2125,0 0,6.6 z"
         style="font-size:37.5px"
         id="path4483" />
      <path
         d="m 453.62879,337.75255 c -1.2,0 -2.175,0.9375 -2.175,2.175 0,1.2 0.975,2.1375 2.175,2.1375 1.2,0 2.175,-0.9375 2.175,-2.1375 0,-1.2 -0.975,-2.175 -2.175,-2.175 z m -0.15,8.325 -4.3125,1.35 0,1.1625 2.625,0 0,13.575 -0.6375,0.6 -1.9875,0.1875 0,1.35 8.4375,0 0,-1.35 -2.025,-0.1875 -0.675,-0.6 0,-16.0875 -1.425,0 z"
         style="font-size:37.5px"
         id="path4485" />
      <path
         d="m 472.68992,339.21505 0,7.05 c -1.1625,-0.2625 -2.2875,-0.4125 -3.3375,-0.4125 -5.7,0 -9.675,4.0125 -9.675,10.0125 0,5.25 3.15,8.775 7.2375,8.775 2.0625,0 3.8625,-0.75 5.775,-2.2875 l 0,1.95 5.55,0 0,-1.35 -1.8,-0.1875 -0.6375,-0.6 0,-25.4625 -1.425,0 -4.575,1.35 0,1.1625 2.8875,0 z m 0,21.75 c -1.3875,0.8625 -2.7375,1.3125 -4.0875,1.3125 -3.375,0 -5.625,-2.6625 -5.625,-7.05 0,-4.6875 2.625,-7.725 6.4125,-7.725 0.9,0 2.025,0.225 3.3,0.6 l 0,12.8625 z"
         style="font-size:37.5px"
         id="path4487" />
      <path
         d="m 496.29442,360.32755 c -2.1375,1.425 -4.0125,2.175 -5.8875,2.175 -3.7875,0 -6.3,-2.85 -6.3,-7.65 0,-0.1125 0,-0.2625 0,-0.4125 l 12.15,0 c 0.0375,-0.4125 0.0375,-0.7875 0.0375,-1.1625 0,-4.6125 -2.6625,-7.3875 -6.75,-7.3875 -5.025,0 -8.6625,3.8625 -8.6625,9.525 0,5.5125 3.4125,9.225 8.3625,9.225 2.3625,0 4.8,-0.75 7.05,-2.25 l 0,-2.0625 z m -3.3375,-7.4625 -8.6625,0 c 0.225,-3.1875 2.3625,-5.2875 4.7625,-5.2875 2.5125,0 3.9,1.65 3.9,4.6875 0,0.1875 0,0.4125 0,0.6 z"
         style="font-size:37.5px"
         id="path4489" />
      <path
         d="m 507.5907,336.44005 0,2.775 c -4.425,0.75 -6.8625,3.3375 -6.8625,6.75 0,3.4875 2.2875,5.775 6.8625,6.825 l 0,9.7875 c -1.875,0 -3.4875,-0.3 -4.8,-0.9375 l -0.3375,-0.4875 -0.675,-4.0875 -1.725,0 0,6.3 c 1.8375,0.4875 4.35,0.825 7.5375,0.9375 l 0,3.825 1.575,0 0,-3.825 c 4.65,-0.825 7.3875,-3.6375 7.3875,-7.2 0,-3.75 -2.2875,-5.6625 -7.3875,-7.05 l 0,-9.1875 c 1.2375,0 2.4,0.225 3.525,0.6375 l 0.5625,0.7875 0.5625,3.4875 1.6875,0 0,-5.85 c -2.2875,-0.525 -4.3125,-0.825 -6.0375,-0.825 -0.1125,0 -0.1875,0 -0.3,0 l 0,-2.6625 -1.575,0 z m 0,4.5375 0,8.625 c -2.475,-0.7875 -3.675,-2.2125 -3.675,-4.3125 0,-2.175 1.3125,-3.7875 3.675,-4.3125 z m 1.65,12.3 c 2.8125,0.825 4.2,2.325 4.2,4.5 0,2.4 -1.575,4.2375 -4.2,4.65 l 0,-9.15 z"
         style="font-size:37.5px"
         id="path4491" />
      <path
         d="m 543.62762,337.37755 c -6.675,0.825 -10.5,6.4875 -10.5,16.2375 0,9.6 3.975,15.2625 10.5,16.0125 l 0,-1.575 c -5.025,-0.8625 -7.3125,-5.5875 -7.3125,-14.4 0,-9 2.175,-13.8 7.3125,-14.7 l 0,-1.575 z"
         style="font-size:37.5px"
         id="path4493" />
      <path
         d="m 561.62645,360.32755 c -2.1375,1.425 -4.0125,2.175 -5.8875,2.175 -3.7875,0 -6.3,-2.85 -6.3,-7.65 0,-0.1125 0,-0.2625 0,-0.4125 l 12.15,0 c 0.0375,-0.4125 0.0375,-0.7875 0.0375,-1.1625 0,-4.6125 -2.6625,-7.3875 -6.75,-7.3875 -5.025,0 -8.6625,3.8625 -8.6625,9.525 0,5.5125 3.4125,9.225 8.3625,9.225 2.3625,0 4.8,-0.75 7.05,-2.25 l 0,-2.0625 z m -3.3375,-7.4625 -8.6625,0 c 0.225,-3.1875 2.3625,-5.2875 4.7625,-5.2875 2.5125,0 3.9,1.65 3.9,4.6875 0,0.1875 0,0.4125 0,0.6 z"
         style="font-size:37.5px"
         id="path4495" />
      <path
         d="m 573.71024,339.14005 -9.2625,0 0,1.5 2.1375,0.225 0.6375,0.525 0,20.6625 -0.6375,0.525 -2.1375,0.1875 0,1.5375 9.2625,0 c 3.75,0 6.6,-0.4125 9.15,-2.325 3.075,-2.325 4.6875,-5.8125 4.6875,-10.275 0,-7.875 -4.95,-12.5625 -13.8375,-12.5625 z m -3.1125,1.725 2.9625,0 c 6.8625,0 10.2,3.525 10.2,10.8375 0,7.275 -3.3375,10.875 -10.2,10.875 l -2.9625,0 0,-21.7125 z"
         style="font-size:37.5px"
         id="path4497" />
      <path
         d="m 590.44871,339.14005 0,1.5 2.1375,0.225 0.6375,0.525 0,20.6625 -0.6375,0.525 -2.1375,0.1875 0,1.5375 8.925,0 0,-1.5375 -2.1375,-0.1875 -0.6375,-0.525 0,-8.925 c 0.675,-0.0375 1.3125,-0.075 1.875,-0.075 3.4125,0 4.875,0.975 5.8875,4.05 0.7875,2.4 0.9375,4.8375 2.7375,6.4125 0.8625,0.75 2.1,1.0875 3.7875,1.0875 0.8625,0 1.8,-0.1125 2.925,-0.3375 l 0,-1.425 c -0.1125,0 -0.225,0 -0.3375,0 -2.85,0 -4.05,-0.45 -4.875,-2.6625 -0.675,-1.7625 -0.7125,-3.825 -1.7625,-5.55 -0.75,-1.2375 -2.025,-2.025 -3.8625,-2.5125 4.05,-0.9 6.075,-3 6.075,-6.225 0,-4.6125 -2.9625,-6.75 -9.0375,-6.75 l -9.5625,0 z m 6.15,1.725 1.8,0 c 4.65,0 6.9,1.425 6.9,5.325 0,3.7125 -2.1375,5.175 -6.6375,5.175 -0.225,0 -0.9,0 -2.0625,-0.0375 l 0,-10.4625 z"
         style="font-size:37.5px"
         id="path4499" />
      <path
         d="m 624.10438,338.84005 -8.775,23.475 -2.175,0.45 0,1.5375 7.35,0 0,-1.5375 -2.4375,-0.1875 -0.375,-0.525 2.6625,-7.1625 8.85,0 2.7,7.1625 -0.2625,0.525 -2.325,0.1875 0,1.5375 8.5125,0 0,-1.5375 -2.25,-0.45 -9,-23.475 -2.475,0 z m 0.6,3.9375 3.8625,10.3875 -7.575,0 3.7125,-10.3875 z"
         style="font-size:37.5px"
         id="path4501" />
      <path
         d="m 638.56707,364.30255 7.9125,0 0,-1.5375 -2.2875,-0.3 -0.675,-0.7125 0,-20.475 8.55,23.025 1.6125,0 8.8875,-23.4 0,21.15 -0.375,0.525 -2.475,0.1875 0,1.5375 8.9625,0 0,-1.5375 -2.3625,-0.1875 -0.45,-0.525 0,-20.6625 0.45,-0.525 2.3625,-0.225 0,-1.5 -8.025,0 0,1.1625 -7.125,18.675 -7.05,-18.825 0,-1.0125 -7.95,0 0,1.5 2.475,0.225 0.4875,0.525 0,20.3625 -0.675,0.7125 -2.25,0.3 0,1.5375 z"
         style="font-size:37.5px"
         id="path4503" />
      <path
         d="m 671.01336,337.37755 0,1.575 c 5.1375,0.9 7.3125,5.7 7.3125,14.7 0,8.8125 -2.2875,13.5375 -7.3125,14.4 l 0,1.575 c 6.525,-0.75 10.5,-6.4125 10.5,-16.0125 0,-9.75 -3.825,-15.4125 -10.5,-16.2375 z"
         style="font-size:37.5px"
         id="path4505" />
    </g>
    <path
       style="fill:none;fill-rule:evenodd;stroke:#000000;stroke-width:1;stroke-linecap:butt;stroke-linejoin:miter;stroke-miterlimit:4;stroke-dasharray:none;stroke-opacity:1;marker-start:url(#Arrow1Lstart);marker-end:url(#Arrow1Lend)"
       d="m 120.5,207.88776 0,50.6993"
       id="path4279"
       inkscape:connector-curvature="0"
       sodipodi:nodetypes="cc" />
    <path
       sodipodi:nodetypes="cc"
       inkscape:connector-curvature="0"
       id="path6669"
       d="m 328.5,207.88776 0,50.6993"
       style="fill:none;fill-rule:evenodd;stroke:#000000;stroke-width:1;stroke-linecap:butt;stroke-linejoin:miter;stroke-miterlimit:4;stroke-dasharray:none;stroke-opacity:1;marker-start:url(#marker6671);marker-end:url(#marker6699)" />
    <path
       style="fill:none;fill-rule:evenodd;stroke:#000000;stroke-width:1;stroke-linecap:butt;stroke-linejoin:miter;stroke-miterlimit:4;stroke-dasharray:none;stroke-opacity:1;marker-start:url(#marker6787);marker-end:url(#marker6827)"
       d="m 569.5,207.88776 0,50.6993"
       id="path6785"
       inkscape:connector-curvature="0"
       sodipodi:nodetypes="cc" />
    <path
       style="opacity:1;fill:#ffaaaa;fill-opacity:1;stroke:#000000;stroke-width:1.99999988;stroke-linejoin:miter;stroke-miterlimit:4;stroke-dasharray:none;stroke-opacity:1"
       d="m 253.5,325.36218 116.5,0 0,68 -116.5,0 z"
       id="rect7131" />
    <path
       style="fill:none;fill-rule:evenodd;stroke:#000000;stroke-width:1;stroke-linecap:butt;stroke-linejoin:miter;stroke-miterlimit:4;stroke-dasharray:none;stroke-opacity:1;marker-start:url(#marker6923);marker-end:url(#marker6975)"
       d="m 317.4818,270.83992 0,63.29497"
       id="path6921"
       inkscape:connector-curvature="0"
       sodipodi:nodetypes="cc" />
    <g
       style="font-style:normal;font-variant:normal;font-weight:normal;font-stretch:normal;font-size:25px;line-height:125%;font-family:'Bitstream Charter';-inkscape-font-specification:'Bitstream Charter';text-align:center;letter-spacing:0px;word-spacing:0px;text-anchor:middle;fill:#000000;fill-opacity:1;stroke:none;stroke-width:1px;stroke-linecap:butt;stroke-linejoin:miter;stroke-opacity:1"
       id="text7133">
      <path
         d="m 273.74512,352.54968 c 1.15,0.5 2.7,0.8 4.5,0.8 4,0 6.475,-2.075 6.475,-5.025 0,-1.1 -0.375,-2.025 -1.1,-2.75 -1.15,-1.125 -2.5,-1.525 -3.775,-2.05 -2.3,-0.975 -3.5,-1.6 -3.5,-3.275 0,-1.825 1.275,-3.025 3.4,-3.025 0.875,0 1.625,0.175 2.25,0.525 l 0.375,0.425 0.375,2.375 1.3,0 0,-3.875 c -1.475,-0.475 -2.875,-0.7 -4.25,-0.7 -3.55,0 -5.775,1.975 -5.775,4.8 0,2.425 1.45,3.35 4.225,4.55 2.725,1.175 4.175,1.625 4.175,3.7 0,1.75 -1.35,3 -3.775,3 -1.125,0 -2.075,-0.2 -2.8,-0.575 l -0.325,-0.425 -0.3,-2.875 -1.475,0 0,4.4 z"
         style=""
         id="path4509" />
      <path
         d="m 286.13613,341.02468 0,0.925 1.525,0.15 4.2,10.85 c -0.625,1.775 -1.35,3.025 -2.025,3.75 l -2.4,-0.95 c -0.425,0.4 -0.65,0.85 -0.65,1.35 0,0.825 0.675,1.4 1.725,1.4 1.625,0 2.825,-1.375 4,-4.2 l 5,-12.15 1.45,-0.2 0,-0.925 -4.45,0 0,0.925 1.35,0.1 0.2,0.4 -3.125,7.775 -3,-7.775 0.3,-0.4 1.325,-0.1 0,-0.925 -5.425,0 z"
         style=""
         id="path4511" />
      <path
         d="m 307.11465,341.32468 c -0.85,-0.375 -1.825,-0.55 -2.925,-0.55 -2.85,0 -4.425,1.3 -4.425,3.5 0,1.675 1.1,2.475 3.225,3.425 1.65,0.75 2.55,1.2 2.55,2.5 0,1.175 -0.9,2.025 -2.35,2.025 -0.725,0 -1.425,-0.2 -2.125,-0.6 l -0.3,-2.125 -1.2,0 0,3.25 c 0.875,0.325 1.975,0.525 3.25,0.525 2.95,0 4.675,-1.425 4.675,-3.75 0,-0.925 -0.35,-1.675 -0.95,-2.15 -0.825,-0.675 -1.775,-1.025 -2.65,-1.45 -1.4,-0.675 -2.125,-1.2 -2.125,-2.275 0,-1.125 0.75,-1.8 2.075,-1.8 0.6,0 1.2,0.175 1.85,0.525 l 0.2,1.775 1.225,0 0,-2.825 z"
         style=""
         id="path4513" />
      <path
         d="m 310.72441,342.52468 0,8.075 c 0,1.775 0.525,2.525 2.6,2.525 0.975,0 2.1,-0.175 3.275,-0.55 l 0,-0.925 c -0.575,0.125 -1.15,0.2 -1.725,0.2 -1.75,0 -2.075,-0.825 -2.075,-2.725 l 0,-6.6 3.8,0 0,-1.175 -3.8,0 0,-2.65 -0.925,0 -1.075,2.325 -1.65,0.725 0,0.775 1.575,0 z"
         style=""
         id="path4515" />
      <path
         d="m 328.07402,350.39968 c -1.425,0.95 -2.675,1.45 -3.925,1.45 -2.525,0 -4.2,-1.9 -4.2,-5.1 0,-0.075 0,-0.175 0,-0.275 l 8.1,0 c 0.025,-0.275 0.025,-0.525 0.025,-0.775 0,-3.075 -1.775,-4.925 -4.5,-4.925 -3.35,0 -5.775,2.575 -5.775,6.35 0,3.675 2.275,6.15 5.575,6.15 1.575,0 3.2,-0.5 4.7,-1.5 l 0,-1.375 z m -2.225,-4.975 -5.775,0 c 0.15,-2.125 1.575,-3.525 3.175,-3.525 1.675,0 2.6,1.1 2.6,3.125 0,0.125 0,0.275 0,0.4 z"
         style=""
         id="path4517" />
      <path
         d="m 340.47988,342.44968 c -0.575,-1.1 -1.525,-1.675 -2.75,-1.675 -1.05,0 -2.35,0.525 -4,1.5 l 0,-1.375 -0.95,0 -2.9,0.9 0,0.775 1.775,0 0,9.05 -0.425,0.4 -1.35,0.125 0,0.9 5.475,0 0,-0.9 -1.2,-0.125 -0.425,-0.4 0,-8.375 c 1.1,-0.55 2.025,-0.825 2.85,-0.825 1.5,0 2.2,0.825 2.2,2.575 l 0,6.625 -0.425,0.4 -1.2,0.125 0,0.9 5.325,0 0,-0.9 -1.175,-0.125 -0.45,-0.4 0,-8.375 c 1.075,-0.525 2.025,-0.825 2.825,-0.825 1.55,0 2.25,0.825 2.25,2.575 l 0,6.625 -0.45,0.4 -1.175,0.125 0,0.9 5.45,0 0,-0.9 -1.325,-0.125 -0.425,-0.4 0,-7.05 c 0,-2.475 -1.25,-3.8 -3.225,-3.8 -1,0 -2.425,0.575 -4.3,1.675 z"
         style=""
         id="path4519" />
      <path
         d="m 286.40078,367.32468 -5.85,15.65 -1.45,0.3 0,1.025 4.9,0 0,-1.025 -1.625,-0.125 -0.25,-0.35 1.775,-4.775 5.9,0 1.8,4.775 -0.175,0.35 -1.55,0.125 0,1.025 5.675,0 0,-1.025 -1.5,-0.3 -6,-15.65 -1.65,0 z m 0.4,2.625 2.575,6.925 -5.05,0 2.475,-6.925 z"
         style=""
         id="path4521" />
      <path
         d="m 304.49258,372.72468 c -0.95,-0.475 -1.875,-0.7 -2.825,-0.7 -2.95,0 -4.85,1.7 -4.85,4.125 0,1.875 1.175,3.35 3.1,3.775 -0.8,0.95 -1.2,1.725 -1.2,2.375 0,0.4 0.1,0.775 0.25,1.125 -1.7,0.3 -2.7,1.5 -2.7,3.1 0,2 1.65,3.225 4.525,3.225 1.9,0 3.625,-0.575 4.95,-1.65 0.975,-0.8 1.5,-1.875 1.5,-2.8 0,-1.85 -1.3,-2.625 -4.25,-3.075 l -2.4,-0.375 c -0.025,-0.275 -0.05,-0.475 -0.05,-0.6 0,-0.4 0.1,-0.775 0.275,-1.125 0.15,0 0.3,0 0.425,0 2.9,0 4.775,-1.675 4.775,-3.9 0,-0.875 -0.225,-1.6 -0.7,-2.325 l 2.75,0 0,-1.175 -3.575,0 z m -3.075,0.275 c 1.45,0 2.45,1.175 2.45,3.075 0,1.875 -1,3.075 -2.45,3.075 -1.45,0 -2.45,-1.2 -2.45,-3.075 0,-1.925 1,-3.075 2.45,-3.075 z m -1,10.55 2.425,0.45 c 1.75,0.325 2.55,0.6 2.55,1.95 0,1.4 -1.5,2.65 -3.725,2.65 -2.05,0 -3.4,-1.15 -3.4,-2.6 0,-1.1 0.775,-2.025 2.15,-2.45 z"
         style=""
         id="path4523" />
      <path
         d="m 319.55352,381.64968 c -1.425,0.95 -2.675,1.45 -3.925,1.45 -2.525,0 -4.2,-1.9 -4.2,-5.1 0,-0.075 0,-0.175 0,-0.275 l 8.1,0 c 0.025,-0.275 0.025,-0.525 0.025,-0.775 0,-3.075 -1.775,-4.925 -4.5,-4.925 -3.35,0 -5.775,2.575 -5.775,6.35 0,3.675 2.275,6.15 5.575,6.15 1.575,0 3.2,-0.5 4.7,-1.5 l 0,-1.375 z m -2.225,-4.975 -5.775,0 c 0.15,-2.125 1.575,-3.525 3.175,-3.525 1.675,0 2.6,1.1 2.6,3.125 0,0.125 0,0.275 0,0.4 z"
         style=""
         id="path4525" />
      <path
         d="m 321.35937,384.29968 5.47501,0 0,-0.9 -1.20001,-0.125 -0.42499,-0.4 0,-8.375 c 1.07499,-0.55 2,-0.825 2.79999,-0.825 1.85,0 2.525,0.75 2.525,2.575 l 0,6.625 -0.425,0.4 -1.2,0.125 0,0.9 5.475,0 0,-0.9 -1.35,-0.125 -0.425,-0.4 0,-7.05 c 0,-2.5 -1.2,-3.8 -3.375,-3.8 -1.075,0 -2.35,0.575 -4.02499,1.5 l 0,-1.375 -0.95001,0 -2.9,0.9 0,0.775 1.775,0 0,9.05 -0.42499,0.4 -1.35001,0.125 0,0.9 z"
         style=""
         id="path4527" />
      <path
         d="m 337.01836,373.77468 0,8.075 c 0,1.775 0.525,2.525 2.6,2.525 0.975,0 2.1,-0.175 3.275,-0.55 l 0,-0.925 c -0.575,0.125 -1.15,0.2 -1.725,0.2 -1.75,0 -2.075,-0.825 -2.075,-2.725 l 0,-6.6 3.8,0 0,-1.175 -3.8,0 0,-2.65 -0.925,0 -1.075,2.325 -1.65,0.725 0,0.775 1.575,0 z"
         style=""
         id="path4529" />
    </g>
    <path
       style="opacity:1;fill:#d7eef4;fill-opacity:1;stroke:#000000;stroke-width:1.99999988;stroke-linejoin:miter;stroke-miterlimit:4;stroke-dasharray:none;stroke-opacity:1"
       d="m 33.5,328.36221 116.5,0 0,65 -116.5,0 z"
       id="rect7147" />
    <g
       style="font-style:normal;font-variant:normal;font-weight:normal;font-stretch:normal;font-size:25px;line-height:125%;font-family:'Bitstream Charter';-inkscape-font-specification:'Bitstream Charter';text-align:center;letter-spacing:0px;word-spacing:0px;text-anchor:middle;fill:#000000;fill-opacity:1;stroke:none;stroke-width:1px;stroke-linecap:butt;stroke-linejoin:miter;stroke-opacity:1"
       id="text7149">
      <path
         d="m 57.69278,352.82473 -6.175,0 0,1 1.425,0.15 0.425,0.35 0,13.775 -0.425,0.35 -1.425,0.125 0,1.025 6.175,0 c 2.5,0 4.4,-0.275 6.1,-1.55 2.05,-1.55 3.125,-3.875 3.125,-6.85 0,-5.25 -3.3,-8.375 -9.225,-8.375 z m -2.075,1.15 1.975,0 c 4.575,0 6.8,2.35 6.8,7.225 0,4.85 -2.225,7.25 -6.8,7.25 l -1.975,0 0,-14.475 z"
         style=""
         id="path4533" />
      <path
         d="m 79.226764,366.94973 c -1.425,0.95 -2.675,1.45 -3.925,1.45 -2.525,0 -4.2,-1.9 -4.2,-5.1 0,-0.075 0,-0.175 0,-0.275 l 8.1,0 c 0.025,-0.275 0.025,-0.525 0.025,-0.775 0,-3.075 -1.775,-4.925 -4.5,-4.925 -3.35,0 -5.775,2.575 -5.775,6.35 0,3.675 2.275,6.15 5.575,6.15 1.575,0 3.2,-0.5 4.7,-1.5 l 0,-1.375 z m -2.225,-4.975 -5.775,0 c 0.15,-2.125 1.575,-3.525 3.175,-3.525 1.675,0 2.6,1.1 2.6,3.125 0,0.125 0,0.275 0,0.4 z"
         style=""
         id="path4535" />
      <path
         d="m 80.157623,357.57473 0,0.925 1.525,0.15 4.025,10.95 1.4,0 4.375,-10.9 1.475,-0.2 0,-0.925 -4.425,0 0,0.925 1.35,0.1 0.2,0.4 -3.2,8.175 -2.925,-8.175 0.3,-0.4 1.325,-0.1 0,-0.925 -5.425,0 z"
         style=""
         id="path4537" />
      <path
         d="m 96.486139,351.89973 c -0.8,0 -1.45,0.625 -1.45,1.45 0,0.8 0.65,1.425 1.45,1.425 0.8,0 1.45,-0.625 1.45,-1.425 0,-0.8 -0.65,-1.45 -1.45,-1.45 z m -0.1,5.55 -2.875,0.9 0,0.775 1.75,0 0,9.05 -0.425,0.4 -1.325,0.125 0,0.9 5.625,0 0,-0.9 -1.35,-0.125 -0.45,-0.4 0,-10.725 -0.95,0 z"
         style=""
         id="path4539" />
      <path
         d="m 110.24356,368.54973 0,-1.3 c -1.05,0.7 -2.075,1.05 -3.175,1.05 -2.6,0 -4.25,-1.825 -4.25,-4.9 0,-3.15 1.525,-5.075 3.675,-5.075 0.425,0 0.825,0.125 1.2,0.35 l 0,2.05 c 0.375,0.25 0.75,0.375 1.125,0.375 0.85,0 1.4,-0.525 1.4,-1.325 0,-1.45 -1.35,-2.45 -3.75,-2.45 -3.5,0 -5.925,2.525 -5.925,6.25 0,3.7 2.225,6.2 5.625,6.2 1.35,0 2.7,-0.425 4.075,-1.225 z"
         style=""
         id="path4541" />
      <path
         d="m 121.95137,366.94973 c -1.425,0.95 -2.675,1.45 -3.925,1.45 -2.525,0 -4.2,-1.9 -4.2,-5.1 0,-0.075 0,-0.175 0,-0.275 l 8.1,0 c 0.025,-0.275 0.025,-0.525 0.025,-0.775 0,-3.075 -1.775,-4.925 -4.5,-4.925 -3.35,0 -5.775,2.575 -5.775,6.35 0,3.675 2.275,6.15 5.575,6.15 1.575,0 3.2,-0.5 4.7,-1.5 l 0,-1.375 z m -2.225,-4.975 -5.775,0 c 0.15,-2.125 1.575,-3.525 3.175,-3.525 1.675,0 2.6,1.1 2.6,3.125 0,0.125 0,0.275 0,0.4 z"
         style=""
         id="path4543" />
      <path
         d="m 131.60723,357.87473 c -0.85,-0.375 -1.825,-0.55 -2.925,-0.55 -2.85,0 -4.425,1.3 -4.425,3.5 0,1.675 1.1,2.475 3.225,3.425 1.65,0.75 2.55,1.2 2.55,2.5 0,1.175 -0.9,2.025 -2.35,2.025 -0.725,0 -1.425,-0.2 -2.125,-0.6 l -0.3,-2.125 -1.2,0 0,3.25 c 0.875,0.325 1.975,0.525 3.25,0.525 2.95,0 4.675,-1.425 4.675,-3.75 0,-0.925 -0.35,-1.675 -0.95,-2.15 -0.825,-0.675 -1.775,-1.025 -2.65,-1.45 -1.4,-0.675 -2.125,-1.2 -2.125,-2.275 0,-1.125 0.75,-1.8 2.075,-1.8 0.6,0 1.2,0.175 1.85,0.525 l 0.2,1.775 1.225,0 0,-2.825 z"
         style=""
         id="path4545" />
    </g>
    <path
       style="opacity:1;fill:#f4e3d7;fill-opacity:1;stroke:#000000;stroke-width:1;stroke-linejoin:miter;stroke-miterlimit:4;stroke-dasharray:none;stroke-opacity:1"
       d="m 188.88672,358.49736 -19.52344,13.60526 19.52344,11.40076 0,-11.06916 25.72656,0 0,11.06916 19.52344,-11.40076 -19.52344,-13.60526 0,11.06794 -25.72656,0 z"
       id="rect7845"
       inkscape:connector-curvature="0"
       sodipodi:nodetypes="ccccccccccc" />
    <g
       style="font-style:normal;font-variant:normal;font-weight:normal;font-stretch:normal;font-size:25px;line-height:125%;font-family:'Bitstream Charter';-inkscape-font-specification:'Bitstream Charter';letter-spacing:0px;word-spacing:0px;fill:#000000;fill-opacity:1;stroke:none;stroke-width:1px;stroke-linecap:butt;stroke-linejoin:miter;stroke-opacity:1"
       id="text7898">
      <path
         d="m 177.71718,354.96942 6.3,0 0,-1.025 -1.775,-0.125 -0.425,-0.35 0,-4.925 c 0.775,0.075 1.4,0.125 1.875,0.125 4.025,0 6.475,-2.175 6.475,-5.375 0,-3.8 -2.15,-5.1 -6.95,-5.1 l -5.7,0 0,1 1.625,0.15 0.425,0.35 0,13.775 -0.425,0.35 -1.425,0.125 0,1.025 z m 4.1,-7.625 0,-7.95 c 0.45,-0.05 0.9,-0.05 1.3,-0.05 3.2,0 4.725,1.225 4.725,3.9 0,2.75 -1.525,4.225 -4.375,4.225 -0.375,0 -0.925,-0.05 -1.65,-0.125 z"
         style="font-size:25px"
         id="path4548" />
      <path
         d="m 205.55703,354.39442 0,-3.95 -1.4,0 -0.55,2.775 -0.4,0.4 c -0.75,0.225 -1.475,0.325 -2.175,0.325 -4.05,0 -6.525,-2.8 -6.525,-7.55 0,-4.475 2.425,-7.175 6.15,-7.175 0.975,0 1.875,0.225 2.8,0.65 l 0.325,0.45 0.375,2.275 1.4,0 0,-3.85 c -1.825,-0.575 -3.475,-0.85 -4.95,-0.85 -5.2,0 -8.675,3.475 -8.675,8.675 0,3.275 1.65,6.175 4.325,7.7 1.15,0.65 2.6,1 4.25,1 1.675,0 3.4,-0.3 5.05,-0.875 z"
         style="font-size:25px"
         id="path4550" />
      <path
         d="m 207.55234,354.96942 6.325,0 0,-1.025 -1.6,-0.125 -0.425,-0.35 0,-13.775 0.425,-0.35 1.6,-0.15 0,-1 -6.325,0 0,1 1.6,0.15 0.425,0.35 0,13.775 -0.425,0.35 -1.6,0.125 0,1.025 z"
         style="font-size:25px"
         id="path4552" />
      <path
         d="m 225.98281,352.31942 c -1.425,0.95 -2.675,1.45 -3.925,1.45 -2.525,0 -4.2,-1.9 -4.2,-5.1 0,-0.075 0,-0.175 0,-0.275 l 8.1,0 c 0.025,-0.275 0.025,-0.525 0.025,-0.775 0,-3.075 -1.775,-4.925 -4.5,-4.925 -3.35,0 -5.775,2.575 -5.775,6.35 0,3.675 2.275,6.15 5.575,6.15 1.575,0 3.2,-0.5 4.7,-1.5 l 0,-1.375 z m -2.225,-4.975 -5.775,0 c 0.15,-2.125 1.575,-3.525 3.175,-3.525 1.675,0 2.6,1.1 2.6,3.125 0,0.125 0,0.275 0,0.4 z"
         style="font-size:25px"
         id="path4554" />
    </g>
    <path
       style="opacity:1;fill:#e5d5ff;fill-opacity:1;stroke:#000000;stroke-width:1.99999988;stroke-linejoin:miter;stroke-miterlimit:4;stroke-dasharray:none;stroke-opacity:1"
       d="m 475.5,418.36221 54.25,0 0,65 -54.25,0 z"
       id="rect7902" />
    <g
       style="font-style:normal;font-variant:normal;font-weight:normal;font-stretch:normal;font-size:25px;line-height:125%;font-family:'Bitstream Charter';-inkscape-font-specification:'Bitstream Charter';text-align:center;letter-spacing:0px;word-spacing:0px;text-anchor:middle;fill:#000000;fill-opacity:1;stroke:none;stroke-width:1px;stroke-linecap:butt;stroke-linejoin:miter;stroke-opacity:1"
       id="text7904">
      <path
         d="m 484.85959,459.59973 5.275,0 0,-1.025 -1.525,-0.2 -0.45,-0.475 0,-13.65 5.7,15.35 1.075,0 5.925,-15.6 0,14.1 -0.25,0.35 -1.65,0.125 0,1.025 5.975,0 0,-1.025 -1.575,-0.125 -0.3,-0.35 0,-13.775 0.3,-0.35 1.575,-0.15 0,-1 -5.35,0 0,0.775 -4.75,12.45 -4.7,-12.55 0,-0.675 -5.3,0 0,1 1.65,0.15 0.325,0.35 0,13.575 -0.45,0.475 -1.5,0.2 0,1.025 z"
         style=""
         id="path4558" />
      <path
         d="m 520.41545,459.02473 0,-3.95 -1.4,0 -0.55,2.775 -0.4,0.4 c -0.75,0.225 -1.475,0.325 -2.175,0.325 -4.05,0 -6.525,-2.8 -6.525,-7.55 0,-4.475 2.425,-7.175 6.15,-7.175 0.975,0 1.875,0.225 2.8,0.65 l 0.325,0.45 0.375,2.275 1.4,0 0,-3.85 c -1.825,-0.575 -3.475,-0.85 -4.95,-0.85 -5.2,0 -8.675,3.475 -8.675,8.675 0,3.275 1.65,6.175 4.325,7.7 1.15,0.65 2.6,1 4.25,1 1.675,0 3.4,-0.3 5.05,-0.875 z"
         style=""
         id="path4560" />
    </g>
    <path
       style="opacity:1;fill:#d7e3f4;fill-opacity:1;stroke:#000000;stroke-width:2;stroke-linejoin:miter;stroke-miterlimit:4;stroke-dasharray:none;stroke-opacity:1"
       d="m 607.70929,414.36221 81.54069,0 0,44.5 -81.54069,0 z"
       id="rect8260" />
    <g
       style="font-style:normal;font-variant:normal;font-weight:normal;font-stretch:normal;font-size:25px;line-height:125%;font-family:'Bitstream Charter';-inkscape-font-specification:'Bitstream Charter';text-align:center;letter-spacing:0px;word-spacing:0px;text-anchor:middle;fill:#000000;fill-opacity:1;stroke:none;stroke-width:1px;stroke-linecap:butt;stroke-linejoin:miter;stroke-opacity:1"
       id="text8536">
      <path
         d="m 629.53314,428.12472 -6.175,0 0,1 1.425,0.15 0.425,0.35 0,13.775 -0.425,0.35 -1.425,0.125 0,1.025 6.175,0 c 2.5,0 4.4,-0.275 6.1,-1.55 2.05,-1.55 3.125,-3.875 3.125,-6.85 0,-5.25 -3.3,-8.375 -9.225,-8.375 z m -2.075,1.15 1.975,0 c 4.575,0 6.8,2.35 6.8,7.225 0,4.85 -2.225,7.25 -6.8,7.25 l -1.975,0 0,-14.475 z"
         style=""
         id="path4564" />
      <path
         d="m 646.86713,428.12472 -6.175,0 0,1 1.425,0.15 0.425,0.35 0,13.775 -0.425,0.35 -1.425,0.125 0,1.025 6.175,0 c 2.5,0 4.4,-0.275 6.1,-1.55 2.05,-1.55 3.125,-3.875 3.125,-6.85 0,-5.25 -3.3,-8.375 -9.225,-8.375 z m -2.075,1.15 1.975,0 c 4.575,0 6.8,2.35 6.8,7.225 0,4.85 -2.225,7.25 -6.8,7.25 l -1.975,0 0,-14.475 z"
         style=""
         id="path4566" />
      <path
         d="m 658.02611,428.12472 0,1 1.425,0.15 0.425,0.35 0,13.775 -0.425,0.35 -1.425,0.125 0,1.025 5.95,0 0,-1.025 -1.425,-0.125 -0.425,-0.35 0,-5.95 c 0.45,-0.025 0.875,-0.05 1.25,-0.05 2.275,0 3.25,0.65 3.925,2.7 0.525,1.6 0.625,3.225 1.825,4.275 0.575,0.5 1.4,0.725 2.525,0.725 0.575,0 1.2,-0.075 1.95,-0.225 l 0,-0.95 c -0.075,0 -0.15,0 -0.225,0 -1.9,0 -2.7,-0.3 -3.25,-1.775 -0.45,-1.175 -0.475,-2.55 -1.175,-3.7 -0.5,-0.825 -1.35,-1.35 -2.575,-1.675 2.7,-0.6 4.05,-2 4.05,-4.15 0,-3.075 -1.975,-4.5 -6.025,-4.5 l -6.375,0 z m 4.1,1.15 1.2,0 c 3.1,0 4.6,0.95 4.6,3.55 0,2.475 -1.425,3.45 -4.425,3.45 -0.15,0 -0.6,0 -1.375,-0.025 l 0,-6.975 z"
         style=""
         id="path4568" />
    </g>
    <path
       style="opacity:1;fill:#d7e3f4;fill-opacity:1;stroke:#000000;stroke-width:2;stroke-linejoin:miter;stroke-miterlimit:4;stroke-dasharray:none;stroke-opacity:1"
       d="m 591.5,438.36221 81.5407,0 0,44.5 -81.5407,0 z"
       id="rect8262" />
    <g
       style="font-style:normal;font-variant:normal;font-weight:normal;font-stretch:normal;font-size:25px;line-height:125%;font-family:'Bitstream Charter';-inkscape-font-specification:'Bitstream Charter';text-align:center;letter-spacing:0px;word-spacing:0px;text-anchor:middle;fill:#000000;fill-opacity:1;stroke:none;stroke-width:1px;stroke-linecap:butt;stroke-linejoin:miter;stroke-opacity:1"
       id="text8532">
      <path
         d="m 613.32385,452.12472 -6.175,0 0,1 1.425,0.15 0.425,0.35 0,13.775 -0.425,0.35 -1.425,0.125 0,1.025 6.175,0 c 2.5,0 4.4,-0.275 6.1,-1.55 2.05,-1.55 3.125,-3.875 3.125,-6.85 0,-5.25 -3.3,-8.375 -9.225,-8.375 z m -2.075,1.15 1.975,0 c 4.575,0 6.8,2.35 6.8,7.225 0,4.85 -2.225,7.25 -6.8,7.25 l -1.975,0 0,-14.475 z"
         style=""
         id="path4572" />
      <path
         d="m 630.65784,452.12472 -6.175,0 0,1 1.425,0.15 0.425,0.35 0,13.775 -0.425,0.35 -1.425,0.125 0,1.025 6.175,0 c 2.5,0 4.4,-0.275 6.1,-1.55 2.05,-1.55 3.125,-3.875 3.125,-6.85 0,-5.25 -3.3,-8.375 -9.225,-8.375 z m -2.075,1.15 1.975,0 c 4.575,0 6.8,2.35 6.8,7.225 0,4.85 -2.225,7.25 -6.8,7.25 l -1.975,0 0,-14.475 z"
         style=""
         id="path4574" />
      <path
         d="m 641.81682,452.12472 0,1 1.425,0.15 0.425,0.35 0,13.775 -0.425,0.35 -1.425,0.125 0,1.025 5.95,0 0,-1.025 -1.425,-0.125 -0.425,-0.35 0,-5.95 c 0.45,-0.025 0.875,-0.05 1.25,-0.05 2.275,0 3.25,0.65 3.925,2.7 0.525,1.6 0.625,3.225 1.825,4.275 0.575,0.5 1.4,0.725 2.525,0.725 0.575,0 1.2,-0.075 1.95,-0.225 l 0,-0.95 c -0.075,0 -0.15,0 -0.225,0 -1.9,0 -2.7,-0.3 -3.25,-1.775 -0.45,-1.175 -0.475,-2.55 -1.175,-3.7 -0.5,-0.825 -1.35,-1.35 -2.575,-1.675 2.7,-0.6 4.05,-2 4.05,-4.15 0,-3.075 -1.975,-4.5 -6.025,-4.5 l -6.375,0 z m 4.1,1.15 1.2,0 c 3.1,0 4.6,0.95 4.6,3.55 0,2.475 -1.425,3.45 -4.425,3.45 -0.15,0 -0.6,0 -1.375,-0.025 l 0,-6.975 z"
         style=""
         id="path4576" />
    </g>
    <path
       style="opacity:1;fill:#e5d5ff;fill-opacity:1;stroke:#000000;stroke-width:2;stroke-linejoin:miter;stroke-miterlimit:4;stroke-dasharray:none;stroke-opacity:1"
       d="m 319,414.47311 113.75,0 0,34.88909 -113.75,0 z"
       id="rect11618" />
    <g
       style="font-style:normal;font-variant:normal;font-weight:normal;font-stretch:normal;font-size:20px;line-height:125%;font-family:'Bitstream Charter';-inkscape-font-specification:'Bitstream Charter';text-align:center;letter-spacing:0px;word-spacing:0px;text-anchor:middle;fill:#000000;fill-opacity:1;stroke:none;stroke-width:1px;stroke-linecap:butt;stroke-linejoin:miter;stroke-opacity:1"
       id="text11622">
      <path
         d="m 332.23563,438.52972 c -1.14,0.76 -2.14,1.16 -3.14,1.16 -2.02,0 -3.36,-1.52 -3.36,-4.08 0,-0.06 0,-0.14 0,-0.22 l 6.48,0 c 0.02,-0.22 0.02,-0.42 0.02,-0.62 0,-2.46 -1.42,-3.94 -3.6,-3.94 -2.68,0 -4.62,2.06 -4.62,5.08 0,2.94 1.82,4.92 4.46,4.92 1.26,0 2.56,-0.4 3.76,-1.2 l 0,-1.1 z m -1.78,-3.98 -4.62,0 c 0.12,-1.7 1.26,-2.82 2.54,-2.82 1.34,0 2.08,0.88 2.08,2.5 0,0.1 0,0.22 0,0.32 z"
         style=""
         id="path4580" />
      <path
         d="m 338.68032,427.22972 -4.94,0 0,0.8 1.14,0.12 0.34,0.28 0,11.02 -0.34,0.28 -1.14,0.1 0,0.82 4.94,0 c 2,0 3.52,-0.22 4.88,-1.24 1.64,-1.24 2.5,-3.1 2.5,-5.48 0,-4.2 -2.64,-6.7 -7.38,-6.7 z m -1.66,0.92 1.58,0 c 3.66,0 5.44,1.88 5.44,5.78 0,3.88 -1.78,5.8 -5.44,5.8 l -1.58,0 0,-11.58 z"
         style=""
         id="path4582" />
      <path
         d="m 347.60751,427.22972 0,0.8 1.14,0.12 0.34,0.28 0,11.02 -0.34,0.28 -1.14,0.1 0,0.82 4.76,0 0,-0.82 -1.14,-0.1 -0.34,-0.28 0,-4.76 c 0.36,-0.02 0.7,-0.04 1,-0.04 1.82,0 2.6,0.52 3.14,2.16 0.42,1.28 0.5,2.58 1.46,3.42 0.46,0.4 1.12,0.58 2.02,0.58 0.46,0 0.96,-0.06 1.56,-0.18 l 0,-0.76 c -0.06,0 -0.12,0 -0.18,0 -1.52,0 -2.16,-0.24 -2.6,-1.42 -0.36,-0.94 -0.38,-2.04 -0.94,-2.96 -0.4,-0.66 -1.08,-1.08 -2.06,-1.34 2.16,-0.48 3.24,-1.6 3.24,-3.32 0,-2.46 -1.58,-3.6 -4.82,-3.6 l -5.1,0 z m 3.28,0.92 0.96,0 c 2.48,0 3.68,0.76 3.68,2.84 0,1.98 -1.14,2.76 -3.54,2.76 -0.12,0 -0.48,0 -1.1,-0.02 l 0,-5.58 z"
         style=""
         id="path4584" />
      <path
         d="m 365.5572,427.06972 -4.68,12.52 -1.16,0.24 0,0.82 3.92,0 0,-0.82 -1.3,-0.1 -0.2,-0.28 1.42,-3.82 4.72,0 1.44,3.82 -0.14,0.28 -1.24,0.1 0,0.82 4.54,0 0,-0.82 -1.2,-0.24 -4.8,-12.52 -1.32,0 z m 0.32,2.1 2.06,5.54 -4.04,0 1.98,-5.54 z"
         style=""
         id="path4586" />
      <path
         d="m 373.27063,440.64972 4.22,0 0,-0.82 -1.22,-0.16 -0.36,-0.38 0,-10.92 4.56,12.28 0.86,0 4.74,-12.48 0,11.28 -0.2,0.28 -1.32,0.1 0,0.82 4.78,0 0,-0.82 -1.26,-0.1 -0.24,-0.28 0,-11.02 0.24,-0.28 1.26,-0.12 0,-0.8 -4.28,0 0,0.62 -3.8,9.96 -3.76,-10.04 0,-0.54 -4.24,0 0,0.8 1.32,0.12 0.26,0.28 0,10.86 -0.36,0.38 -1.2,0.16 0,0.82 z"
         style=""
         id="path4588" />
      <path
         d="m 407.2622,440.18972 0,-3.16 -1.12,0 -0.44,2.22 -0.32,0.32 c -0.6,0.18 -1.18,0.26 -1.74,0.26 -3.24,0 -5.22,-2.24 -5.22,-6.04 0,-3.58 1.94,-5.74 4.92,-5.74 0.78,0 1.5,0.18 2.24,0.52 l 0.26,0.36 0.3,1.82 1.12,0 0,-3.08 c -1.46,-0.46 -2.78,-0.68 -3.96,-0.68 -4.16,0 -6.94,2.78 -6.94,6.94 0,2.62 1.32,4.94 3.46,6.16 0.92,0.52 2.08,0.8 3.4,0.8 1.34,0 2.72,-0.24 4.04,-0.7 z"
         style=""
         id="path4590" />
      <path
         d="m 409.91845,432.22972 0,6.46 c 0,1.42 0.42,2.02 2.08,2.02 0.78,0 1.68,-0.14 2.62,-0.44 l 0,-0.74 c -0.46,0.1 -0.92,0.16 -1.38,0.16 -1.4,0 -1.66,-0.66 -1.66,-2.18 l 0,-5.28 3.04,0 0,-0.94 -3.04,0 0,-2.12 -0.74,0 -0.86,1.86 -1.32,0.58 0,0.62 1.26,0 z"
         style=""
         id="path4592" />
      <path
         d="m 415.43813,440.64972 4.82,0 0,-0.72 -1.4,-0.1 -0.34,-0.32 0,-5.72 c 0.82,-0.96 1.52,-1.46 2.18,-1.46 0.42,0 0.76,0.16 1.02,0.48 l 0.64,0 0,-1.72 c -0.42,-0.18 -0.8,-0.26 -1.2,-0.26 -0.16,0 -0.34,0 -0.5,0.04 -0.72,0.58 -1.44,1.22 -2.14,1.94 l 0,-1.88 -0.76,0 -2.32,0.72 0,0.62 1.42,0 0,7.24 -0.36,0.32 -1.06,0.1 0,0.72 z"
         style=""
         id="path4594" />
      <path
         d="m 423.05438,440.64972 4.68,0 0,-0.72 -1.14,-0.1 -0.36,-0.32 0,-13.58 -0.76,0 -2.44,0.72 0,0.62 1.54,0 0,12.24 -0.34,0.32 -1.18,0.1 0,0.72 z"
         style=""
         id="path4596" />
    </g>
    <path
       style="opacity:1;fill:#e5d5ff;fill-opacity:1;stroke:#000000;stroke-width:2;stroke-linejoin:miter;stroke-miterlimit:4;stroke-dasharray:none;stroke-opacity:1"
       d="m 328.5,450.36221 94.75,0 0,31 -94.75,0 z"
       id="rect11628" />
    <g
       style="font-style:normal;font-variant:normal;font-weight:normal;font-stretch:normal;font-size:20px;line-height:125%;font-family:'Bitstream Charter';-inkscape-font-specification:'Bitstream Charter';text-align:center;letter-spacing:0px;word-spacing:0px;text-anchor:middle;fill:#000000;fill-opacity:1;stroke:none;stroke-width:1px;stroke-linecap:butt;stroke-linejoin:miter;stroke-opacity:1"
       id="text11630">
      <path
         d="m 333.75733,472.64972 4.22,0 0,-0.82 -1.22,-0.16 -0.36,-0.38 0,-10.92 4.56,12.28 0.86,0 4.74,-12.48 0,11.28 -0.2,0.28 -1.32,0.1 0,0.82 4.78,0 0,-0.82 -1.26,-0.1 -0.24,-0.28 0,-11.02 0.24,-0.28 1.26,-0.12 0,-0.8 -4.28,0 0,0.62 -3.8,9.96 -3.76,-10.04 0,-0.54 -4.24,0 0,0.8 1.32,0.12 0.26,0.28 0,10.86 -0.36,0.38 -1.2,0.16 0,0.82 z"
         style=""
         id="path4600" />
      <path
         d="m 351.64202,472.24972 c 0.92,0.4 2.16,0.64 3.6,0.64 3.2,0 5.18,-1.66 5.18,-4.02 0,-0.88 -0.3,-1.62 -0.88,-2.2 -0.92,-0.9 -2,-1.22 -3.02,-1.64 -1.84,-0.78 -2.8,-1.28 -2.8,-2.62 0,-1.46 1.02,-2.42 2.72,-2.42 0.7,0 1.3,0.14 1.8,0.42 l 0.3,0.34 0.3,1.9 1.04,0 0,-3.1 c -1.18,-0.38 -2.3,-0.56 -3.4,-0.56 -2.84,0 -4.62,1.58 -4.62,3.84 0,1.94 1.16,2.68 3.38,3.64 2.18,0.94 3.34,1.3 3.34,2.96 0,1.4 -1.08,2.4 -3.02,2.4 -0.9,0 -1.66,-0.16 -2.24,-0.46 l -0.26,-0.34 -0.24,-2.3 -1.18,0 0,3.52 z"
         style=""
         id="path4602" />
      <path
         d="m 366.75483,457.78972 0,1.48 c -2.36,0.4 -3.66,1.78 -3.66,3.6 0,1.86 1.22,3.08 3.66,3.64 l 0,5.22 c -1,0 -1.86,-0.16 -2.56,-0.5 l -0.18,-0.26 -0.36,-2.18 -0.92,0 0,3.36 c 0.98,0.26 2.32,0.44 4.02,0.5 l 0,2.04 0.84,0 0,-2.04 c 2.48,-0.44 3.94,-1.94 3.94,-3.84 0,-2 -1.22,-3.02 -3.94,-3.76 l 0,-4.9 c 0.66,0 1.28,0.12 1.88,0.34 l 0.3,0.42 0.3,1.86 0.9,0 0,-3.12 c -1.22,-0.28 -2.3,-0.44 -3.22,-0.44 -0.06,0 -0.1,0 -0.16,0 l 0,-1.42 -0.84,0 z m 0,2.42 0,4.6 c -1.32,-0.42 -1.96,-1.18 -1.96,-2.3 0,-1.16 0.7,-2.02 1.96,-2.3 z m 0.88,6.56 c 1.5,0.44 2.24,1.24 2.24,2.4 0,1.28 -0.84,2.26 -2.24,2.48 l 0,-4.88 z"
         style=""
         id="path4604" />
      <path
         d="m 378.57452,459.22972 0,3.08 1.1,0 0.28,-1.86 0.28,-0.3 3.08,0 0,11.3 -0.36,0.28 -1.34,0.1 0,0.82 5.22,0 0,-0.82 -1.34,-0.1 -0.36,-0.28 0,-11.3 3.08,0 0.28,0.3 0.28,1.86 1.1,0 0,-3.08 -11.3,0 z"
         style=""
         id="path4606" />
      <path
         d="m 396.88764,471.48972 0.26,1.16 2.82,0 0,-0.72 -1.06,-0.1 -0.36,-0.32 0,-5.8 c 0,-2.02 -0.88,-2.88 -2.98,-2.88 -2.52,0 -4.04,1.04 -4.04,2.26 0,0.48 0.16,0.62 0.62,0.62 l 1.38,0 0,-1.68 c 0.54,-0.22 1.02,-0.32 1.52,-0.32 1.44,0 1.84,0.66 1.84,2.24 l 0,0.64 c -4,0.96 -5.84,1.56 -5.84,3.64 0,1.5 0.98,2.56 2.56,2.56 0.96,0 2.02,-0.44 3.28,-1.3 z m 0,-0.68 c -1,0.58 -1.82,0.9 -2.48,0.9 -1,0 -1.6,-0.66 -1.6,-1.64 0,-1.46 1.26,-2 4.08,-2.78 l 0,3.52 z"
         style=""
         id="path4608" />
      <path
         d="m 407.74389,463.38972 c -0.76,-0.38 -1.5,-0.56 -2.26,-0.56 -2.36,0 -3.88,1.36 -3.88,3.3 0,1.5 0.94,2.68 2.48,3.02 -0.64,0.76 -0.96,1.38 -0.96,1.9 0,0.32 0.08,0.62 0.2,0.9 -1.36,0.24 -2.16,1.2 -2.16,2.48 0,1.6 1.32,2.58 3.62,2.58 1.52,0 2.9,-0.46 3.96,-1.32 0.78,-0.64 1.2,-1.5 1.2,-2.24 0,-1.48 -1.04,-2.1 -3.4,-2.46 l -1.92,-0.3 c -0.02,-0.22 -0.04,-0.38 -0.04,-0.48 0,-0.32 0.08,-0.62 0.22,-0.9 0.12,0 0.24,0 0.34,0 2.32,0 3.82,-1.34 3.82,-3.12 0,-0.7 -0.18,-1.28 -0.56,-1.86 l 2.2,0 0,-0.94 -2.86,0 z m -2.46,0.22 c 1.16,0 1.96,0.94 1.96,2.46 0,1.5 -0.8,2.46 -1.96,2.46 -1.16,0 -1.96,-0.96 -1.96,-2.46 0,-1.54 0.8,-2.46 1.96,-2.46 z m -0.8,8.44 1.94,0.36 c 1.4,0.26 2.04,0.48 2.04,1.56 0,1.12 -1.2,2.12 -2.98,2.12 -1.64,0 -2.72,-0.92 -2.72,-2.08 0,-0.88 0.62,-1.62 1.72,-1.96 z"
         style=""
         id="path4610" />
      <path
         d="m 417.71264,463.26972 c -0.68,-0.3 -1.46,-0.44 -2.34,-0.44 -2.28,0 -3.54,1.04 -3.54,2.8 0,1.34 0.88,1.98 2.58,2.74 1.32,0.6 2.04,0.96 2.04,2 0,0.94 -0.72,1.62 -1.88,1.62 -0.58,0 -1.14,-0.16 -1.7,-0.48 l -0.24,-1.7 -0.96,0 0,2.6 c 0.7,0.26 1.58,0.42 2.6,0.42 2.36,0 3.74,-1.14 3.74,-3 0,-0.74 -0.28,-1.34 -0.76,-1.72 -0.66,-0.54 -1.42,-0.82 -2.12,-1.16 -1.12,-0.54 -1.7,-0.96 -1.7,-1.82 0,-0.9 0.6,-1.44 1.66,-1.44 0.48,0 0.96,0.14 1.48,0.42 l 0.16,1.42 0.98,0 0,-2.26 z"
         style=""
         id="path4612" />
    </g>
    <path
       sodipodi:nodetypes="cc"
       inkscape:connector-curvature="0"
       id="path11646"
       d="m 413.04529,390.42203 0,35.68742"
       style="fill:none;fill-rule:evenodd;stroke:#000000;stroke-width:1;stroke-linecap:butt;stroke-linejoin:miter;stroke-miterlimit:4;stroke-dasharray:none;stroke-opacity:1;marker-start:url(#marker11648);marker-end:url(#marker11760)" />
    <path
       style="fill:none;fill-rule:evenodd;stroke:#000000;stroke-width:1.00000012;stroke-linecap:butt;stroke-linejoin:miter;stroke-miterlimit:4;stroke-dasharray:none;stroke-opacity:1;marker-start:url(#marker13320);marker-end:url(#marker13444)"
       d="m 596.33109,468.86227 -72.1916,0"
       id="path13318"
       inkscape:connector-curvature="0"
       sodipodi:nodetypes="cc" />
    <path
       style="fill:none;fill-rule:evenodd;stroke:#000000;stroke-width:0.99999982;stroke-linecap:butt;stroke-linejoin:miter;stroke-miterlimit:4;stroke-dasharray:none;stroke-opacity:1;marker-start:url(#marker8278);marker-end:url(#marker8366)"
       d="m 354.98181,422.92689 0,-57.06438"
       id="path8276"
       inkscape:connector-curvature="0"
       sodipodi:nodetypes="cc" />
    <path
       sodipodi:nodetypes="cc"
       inkscape:connector-curvature="0"
       id="path15062"
       d="m 473.77658,448.86224 -39.08262,0"
       style="fill:none;fill-rule:evenodd;stroke:#000000;stroke-width:1;stroke-linecap:butt;stroke-linejoin:miter;stroke-miterlimit:4;stroke-dasharray:none;stroke-opacity:1;marker-start:url(#marker15064);marker-end:url(#marker15200)" />
  </g>
</svg>
