<?xml version="1.0" encoding="UTF-8" standalone="no"?>
<svg
   xmlns:dc="http://purl.org/dc/elements/1.1/"
   xmlns:cc="http://creativecommons.org/ns#"
   xmlns:rdf="http://www.w3.org/1999/02/22-rdf-syntax-ns#"
   xmlns:svg="http://www.w3.org/2000/svg"
   xmlns="http://www.w3.org/2000/svg"
   xmlns:sodipodi="http://sodipodi.sourceforge.net/DTD/sodipodi-0.dtd"
   xmlns:inkscape="http://www.inkscape.org/namespaces/inkscape"
   id="svg8"
   version="1.1"
   viewBox="0 0 800 800"
   height="800mm"
   width="800mm"
   sodipodi:docname="architecture.svg"
   inkscape:version="0.92.2 (5c3e80d, 2017-08-06)">
  <sodipodi:namedview
     pagecolor="#ffffff"
     bordercolor="#666666"
     borderopacity="1"
     objecttolerance="10"
     gridtolerance="10"
     guidetolerance="10"
     inkscape:pageopacity="0"
     inkscape:pageshadow="2"
     inkscape:window-width="3200"
     inkscape:window-height="1727"
     id="namedview7"
     showgrid="false"
     inkscape:zoom="1"
     inkscape:cx="498.51513"
     inkscape:cy="448.27126"
     inkscape:window-x="0"
     inkscape:window-y="0"
     inkscape:window-maximized="1"
     inkscape:current-layer="svg8" />
  <defs
     id="defs2" />
  <metadata
     id="metadata5">
    <rdf:RDF>
      <cc:Work
         rdf:about="">
        <dc:format>image/svg+xml</dc:format>
        <dc:type
           rdf:resource="http://purl.org/dc/dcmitype/StillImage" />
        <dc:title></dc:title>
      </cc:Work>
    </rdf:RDF>
  </metadata>
  <g
     transform="translate(0,503)"
     id="layer1">
    <path
       id="rect815"
       transform="matrix(0.26458333,0,0,0.26458333,0,-503)"
       d="M 231.42773 198.74023 L 231.42773 897.9082 L 930.5957 897.9082 L 930.5957 198.74023 L 231.42773 198.74023 z M 2130.5957 198.74023 L 2130.5957 1745.4844 L 2829.7637 1745.4844 L 2829.7637 198.74023 L 2130.5957 198.74023 z M 1121.0234 407.3125 L 944.03906 555.88477 L 1121.0234 689.33789 L 1121.0234 618.68359 L 1939.6172 618.68359 L 1939.6172 689.33789 L 2116.6035 555.88477 L 1939.6172 407.3125 L 1939.6172 468.63672 L 1121.0234 468.63672 L 1121.0234 407.3125 z M 231.42773 1158.7402 L 231.42773 1857.9062 L 930.5957 1857.9062 L 930.5957 1158.7402 L 231.42773 1158.7402 z M 1121.0234 1367.3105 L 944.03906 1515.8828 L 1121.0234 1649.3359 L 1121.0234 1578.6816 L 1939.6172 1578.6816 L 1939.6172 1649.3359 L 2116.6035 1515.8828 L 1939.6172 1367.3105 L 1939.6172 1428.6348 L 1121.0234 1428.6348 L 1121.0234 1367.3105 z M 2409.8203 1777.5566 L 2409.8203 2074.1074 L 2339.166 2074.1074 L 2472.6191 2251.0938 L 2621.1914 2074.1074 L 2559.8672 2074.1074 L 2559.8672 1777.5566 L 2409.8203 1777.5566 z M 387.88086 1877.5 L 312.48633 1977.4883 L 352.40234 1977.4883 L 352.40234 2176.2988 L 312.48633 2176.2988 L 387.88086 2276.2891 L 471.81836 2176.2988 L 437.17188 2176.2988 L 437.17188 1977.4883 L 471.81836 1977.4883 L 387.88086 1877.5 z M 647.88086 1877.5 L 572.48633 1977.4883 L 612.40234 1977.4883 L 612.40234 2176.2988 L 572.48633 2176.2988 L 647.88086 2276.2891 L 731.81836 2176.2988 L 697.17383 2176.2988 L 697.17383 1977.4883 L 731.81836 1977.4883 L 647.88086 1877.5 z M 1903.9668 2283.207 L 1903.9668 2537.9062 L 2158.668 2537.9062 L 2158.668 2283.207 L 1903.9668 2283.207 z M 2258.668 2283.207 L 2258.668 2537.9062 L 2513.3672 2537.9062 L 2513.3672 2283.207 L 2258.668 2283.207 z M 2613.3691 2283.207 L 2613.3691 2537.9062 L 2868.0684 2537.9062 L 2868.0684 2283.207 L 2613.3691 2283.207 z M 231.42773 2295.8828 L 231.42773 2577.9062 L 1336.3105 2577.9062 L 1336.3105 2295.8828 L 231.42773 2295.8828 z M 231.42773 2655.8828 L 231.42773 2937.9062 L 1336.3105 2937.9062 L 1336.3105 2655.8828 L 231.42773 2655.8828 z M 1903.9668 2683.207 L 1903.9668 2937.9062 L 2158.668 2937.9062 L 2158.668 2683.207 L 1903.9668 2683.207 z M 2258.668 2683.207 L 2258.668 2937.9062 L 2513.3672 2937.9062 L 2513.3672 2683.207 L 2258.668 2683.207 z M 2613.3691 2683.207 L 2613.3691 2937.9062 L 2868.0684 2937.9062 L 2868.0684 2683.207 L 2613.3691 2683.207 z "
       style="opacity:1;fill:#000000;fill-opacity:1;stroke:none;stroke-width:0.49999997;stroke-linecap:square;stroke-linejoin:miter;stroke-miterlimit:4;stroke-dasharray:none;stroke-dashoffset:0;stroke-opacity:1" />
  </g>
</svg>
