<svg width="220.76mm" height="220.14mm" viewBox="0 0 220.76482 220.13539" xmlns="http://www.w3.org/2000/svg"><g transform="translate(375.32 -433.81)"><path transform="matrix(.26458 0 0 .26458 -357.06 33.9)" d="m323.05 1511.5a417.19 417.19 0 0 0 -255.3 107.61h255.3zm56.568 0.4375v107.17h248.9a417.19 417.19 0 0 0 -248.9 -107.17zm-320 163.74v143.43h263.43v-143.43zm320 0v143.43h263.43v-143.43zm-376.57 19.152a417.19 417.19 0 0 0 -57.285 124.28h57.285zm696.57 8.6993v115.58h50.77a417.19 417.19 0 0 0 -50.77 -115.58zm-764.95 172.15a417.19 417.19 0 0 0 -3.707 51.715 417.19 417.19 0 0 0 10.572 91.717h61.512v-143.43zm124.95 0v143.43h263.43v-143.43zm320 0v143.43h263.43v-143.43zm320 0v143.43h54.994a417.19 417.19 0 0 0 10.74 -91.717 417.19 417.19 0 0 0 -3.6816 -51.715zm-740.89 200a417.19 417.19 0 0 0 44.326 84.383v-84.383zm100.89 0v143.43h263.43v-143.43zm320 0v143.43h263.43v-143.43zm320 0v75.936a417.19 417.19 0 0 0 38.34 -75.936zm-579.89 200a417.19 417.19 0 0 0 203.32 67.828v-67.828zm259.89 0v67.279a417.19 417.19 0 0 0 197.48 -67.279z"/></g></svg>
