<?xml version="1.0" encoding="UTF-8" standalone="no"?>
<!-- Created with Inkscape (http://www.inkscape.org/) -->

<svg
   xmlns:dc="http://purl.org/dc/elements/1.1/"
   xmlns:cc="http://creativecommons.org/ns#"
   xmlns:rdf="http://www.w3.org/1999/02/22-rdf-syntax-ns#"
   xmlns:svg="http://www.w3.org/2000/svg"
   xmlns="http://www.w3.org/2000/svg"
   xmlns:sodipodi="http://sodipodi.sourceforge.net/DTD/sodipodi-0.dtd"
   xmlns:inkscape="http://www.inkscape.org/namespaces/inkscape"
   width="157.83221"
   height="180.91425"
   id="svg2"
   version="1.1"
   inkscape:version="0.91 r13725"
   sodipodi:docname="k6-iii logo.svg">
  <defs
     id="defs4" />
  <sodipodi:namedview
     id="base"
     pagecolor="#ffffff"
     bordercolor="#666666"
     borderopacity="1.0"
     inkscape:pageopacity="0.0"
     inkscape:pageshadow="2"
     inkscape:zoom="1.979899"
     inkscape:cx="52.473121"
     inkscape:cy="50.06036"
     inkscape:document-units="px"
     inkscape:current-layer="layer1"
     showgrid="false"
     inkscape:window-width="1366"
     inkscape:window-height="707"
     inkscape:window-x="0"
     inkscape:window-y="0"
     inkscape:window-maximized="1"
     fit-margin-top="0"
     fit-margin-left="0"
     fit-margin-right="0"
     fit-margin-bottom="0" />
  <metadata
     id="metadata7">
    <rdf:RDF>
      <cc:Work
         rdf:about="">
        <dc:format>image/svg+xml</dc:format>
        <dc:type
           rdf:resource="http://purl.org/dc/dcmitype/StillImage" />
        <dc:title></dc:title>
      </cc:Work>
    </rdf:RDF>
  </metadata>
  <g
     inkscape:label="Layer 1"
     inkscape:groupmode="layer"
     id="layer1"
     transform="translate(-101.07391,-649.99623)">
    <path
       id="path3318"
       style="fill:#009a68;fill-opacity:1;fill-rule:evenodd;stroke:none"
       d="m 206.2757,749.92596 -28.82363,0 0,-57.95961 31.77107,0 c -15.88022,2.32952 -23.87158,11.0268 -23.87158,28.90389 0,18.47471 8.0929,26.5502 20.92414,29.05572 z m 18.92437,-18.61106 c 0,-6.58919 -3.9367,-9.1595 -8.35593,-9.1595 -4.41826,0 -8.35496,2.57031 -8.35496,9.1595 0,6.66753 3.9367,9.23881 8.35496,9.23881 4.49949,0 8.35593,-3.2946 8.35593,-9.23881 z m 29.95019,-39.34855 0,57.95961 -27.45434,0 c 10.60228,-1.94176 19.67669,-7.35024 19.67669,-19.57516 0,-12.85542 -10.12168,-18.47761 -21.93273,-18.47761 -8.27372,0 -13.25575,2.2483 -18.39637,6.90831 0,-12.53243 2.08777,-17.67499 9.47958,-17.67499 2.08778,0 3.69495,0.5628 4.82054,1.60717 1.12463,1.04437 1.76673,2.65154 1.76673,4.82054 l 22.17351,0 c 0,-9.19238 -6.76036,-13.94233 -16.95456,-15.56787 l 26.82095,0 z m -6.9847,51.69339 -3.31974,0 0,0.7446 1.23293,0 0,3.46479 0.85194,0 0,-3.46479 1.23487,0 0,-0.7446 z m 4.42116,0 -1.23487,0 -0.72622,3.31781 -0.0116,0 -0.73977,-3.31781 -1.24454,0 0,4.20939 0.79682,0 0,-3.51798 0.01,0 0.74556,3.51798 0.8355,0 0.76103,-3.51798 0.0116,0 0,3.51798 0.79681,0 0,-4.20939"
       inkscape:connector-curvature="0" />
    <path
       id="path3320"
       style="fill:#231f20;fill-opacity:1;fill-rule:evenodd;stroke:none"
       d="m 150.56825,811.72169 c -0.23982,-0.34812 -0.50864,-0.65176 -0.80455,-0.91575 l -1.15461,-1.30837 0.0222,0.5628 c -2.06359,-0.99988 -5.08356,-0.82872 -9.2533,-0.17019 l -10.42533,1.64488 -3.60404,14.05934 c -0.32298,-0.18179 -0.59761,-0.35392 -0.61985,-0.41871 -0.0561,-0.16729 -1.89727,3.84966 -1.89727,3.84966 l 1.29289,1.34995 0,-0.002 0,0.002 11.45035,-0.0986 c 5.81656,-0.0503 8.1103,-0.88965 10.84114,-2.96291 2.03265,-1.57139 3.74425,-4.78863 4.56621,-8.08613 0.84323,-3.38743 0.56474,-6.01867 -0.41388,-7.50593 z m -7.91787,8.02424 c -0.99408,3.96087 -3.63015,5.85814 -7.25643,6.01577 l -2.20672,0.0957 2.77532,-10.94944 2.24733,-0.28043 c 3.69107,-0.45933 5.44619,1.11786 4.4405,5.11837"
       inkscape:connector-curvature="0" />
    <path
       id="path3322"
       style="fill:#231f20;fill-opacity:1;fill-rule:evenodd;stroke:none"
       d="m 123.30247,813.87232 -0.91673,-1.02696 -0.42355,0.42258 c -1.48435,-0.3752 -3.59824,-0.26206 -6.06991,0.12668 -3.04318,0.4806 -5.61059,1.10819 -7.59199,2.1661 -0.84323,0.43419 -1.56172,0.9467 -2.15739,1.54818 l -0.71946,-0.74846 -2.1748,2.23282 1.15364,0.71075 5.95097,-0.67014 c 0.49608,-1.65552 2.37304,-3.0364 4.93562,-2.95131 1.91854,0.0638 1.46211,1.48823 1.17104,2.61189 -0.41001,1.583 -1.50466,2.30149 -3.23271,2.46878 l -0.87514,0.0851 0.21371,-0.35972 -2.95711,0.1112 -0.72623,1.89727 1.1169,0.89255 0.22241,0.22338 0.0339,-0.0126 0.95443,0.0793 1.24358,-0.0493 c 2.08777,-0.14892 3.00933,0.39744 2.54516,2.18737 -0.33361,1.28129 -1.44471,2.25023 -3.25301,2.30439 -0.9438,0.028 -1.48726,-0.17987 -1.7793,-0.55023 -0.2872,-0.39261 -0.99795,-1.20296 -0.81519,-1.99397 l -1.37605,-1.09176 -0.79102,1.47179 -4.55074,0.23982 c -0.005,0.0271 -0.007,0.0522 -0.01,0.0764 -0.69915,-0.63919 -1.22037,-1.09369 -1.22037,-1.09369 l -0.0735,0.96605 c 0,0 -0.0512,1.90984 2.50262,3.5963 0,0 0.24852,0.27463 1.10529,0.48157 1.38186,0.50285 3.36519,0.69625 5.96451,0.68561 5.57674,-0.0261 10.8276,-1.53948 11.71048,-5.44136 0.20307,-0.89545 0.22241,-1.15654 -0.0948,-2.12258 0,0 -0.65079,-1.41474 -1.37605,-1.91565 -0.23885,-0.16439 -0.45353,-0.27656 -0.6479,-0.35682 1.83442,-0.67594 3.22111,-1.80734 3.752,-3.87868 0.41485,-1.6178 0.1025,-2.67571 -0.74363,-3.32264"
       inkscape:connector-curvature="0" />
    <path
       id="path3324"
       style="fill:#009a68;fill-opacity:1;fill-rule:evenodd;stroke:none"
       d="m 107.77521,824.48621 c -0.18373,0.79102 0.43128,1.44278 0.71848,1.83442 0.39648,0.39744 1.02503,0.43515 1.96884,0.40614 1.80733,-0.0561 2.91843,-1.02503 3.25205,-2.30535 0.46609,-1.78993 -0.45643,-2.33532 -2.5442,-2.1864 l -2.24733,0.16052 0.68561,-2.57128 2.3566,-0.27366 c 2.63123,-0.30364 2.87685,-0.44676 3.49573,-2.43009 0.29204,-1.12367 -0.14892,-2.34403 -2.05102,-2.09165 -1.47276,0.19534 -3.50734,1.21554 -3.92412,2.8111 l -6.26816,0.73493 c 0.53573,-2.02492 1.85666,-3.40774 3.79938,-4.4115 1.98237,-1.05404 4.54881,-1.68549 7.59296,-2.16223 5.46843,-0.86451 9.22623,-0.39164 8.15285,3.79841 -0.67787,2.638 -3.03834,3.85256 -5.65314,4.44341 l -0.0135,0.0503 c 3.30233,0.0677 4.66775,1.31127 4.03242,3.77907 -0.99795,3.87577 -6.13373,5.41525 -11.70951,5.44039 -6.12503,0.0281 -8.8491,-1.07821 -8.26889,-4.70836 l 6.62498,-0.31815"
       inkscape:connector-curvature="0" />
    <path
       id="path3326"
       style="fill:#009a68;fill-opacity:1;fill-rule:evenodd;stroke:none"
       d="m 127.66948,810.1387 10.42532,-1.64391 c 5.73824,-0.90706 9.30843,-0.90222 11.1912,1.83248 0.97668,1.48629 1.25614,4.11752 0.41291,7.50495 -0.82196,3.29654 -2.53356,6.51378 -4.56621,8.08613 -2.7318,2.07134 -5.02362,2.9107 -10.84114,2.96292 l -11.45035,0.0986 4.82827,-18.8412 z m 4.23453,14.32334 2.20672,-0.0967 c 3.62628,-0.15569 6.26235,-2.0549 7.25643,-6.0148 1.00472,-4.00245 -0.7504,-5.57771 -4.4405,-5.11741 l -2.24733,0.27947 -2.77532,10.94944"
       inkscape:connector-curvature="0" />
    <path
       id="path3328"
       style="fill:#231f20;fill-opacity:1;fill-rule:evenodd;stroke:none"
       d="m 155.23407,812.75833 10.57908,0 3.33134,10.88368 0.0706,0 2.44654,-10.88368 6.27589,0 -3.64756,16.23511 -10.2474,0 -3.53635,-11.55769 -0.0474,0 -2.59739,11.55769 -6.27588,0 3.64852,-16.23511"
       inkscape:connector-curvature="0" />
    <path
       id="path3330"
       style="fill:#231f20;fill-opacity:1;fill-rule:evenodd;stroke:none"
       d="m 199.65169,826.61073 c -2.23379,1.6855 -5.45683,2.80916 -9.87896,2.80916 -8.39267,0 -10.65354,-3.68527 -9.56179,-8.54352 0.70689,-3.14858 2.54904,-5.42009 4.81958,-6.74682 1.8876,-1.10046 4.16103,-1.79864 8.5822,-1.79864 8.39267,0 10.65354,3.68721 9.56178,8.54546 -0.55989,2.49585 -1.8083,4.45307 -3.52281,5.73436 z m -6.8677,-10.59261 c -2.37787,0 -4.45694,1.52884 -5.20347,4.85825 -0.74847,3.32651 0.64403,4.85825 3.02093,4.85825 2.37788,0 4.45598,-1.53174 5.20445,-4.85825 0.74749,-3.32941 -0.645,-4.85825 -3.02191,-4.85825"
       inkscape:connector-curvature="0" />
    <path
       id="path3332"
       style="fill:#231f20;fill-opacity:1;fill-rule:evenodd;stroke:none"
       d="m 207.3162,812.75833 6.98954,0 0.003,10.14199 0.0725,0 5.48681,-10.14199 8.05905,0 0.88385,10.14199 0.0706,0 4.53817,-10.14199 6.49056,0 -7.71383,16.23511 -9.10535,0 -0.84807,-9.87026 -0.0725,0 -5.30792,9.87026 -9.17691,0 -0.3694,-16.23511"
       inkscape:connector-curvature="0" />
    <path
       id="path3334"
       style="fill:#231f20;fill-opacity:1;fill-rule:evenodd;stroke:none"
       d="m 240.98068,824.73087 7.92464,0 -0.97571,4.34187 -7.92367,0 0.97474,-4.34187 z m 3.07122,-17.13057 10.24836,0 -5.21604,13.91816 -6.60467,0 1.57235,-13.91816"
       inkscape:connector-curvature="0" />
    <path
       id="path3336"
       style="fill:#231f20;fill-opacity:1;fill-rule:evenodd;stroke:none"
       d="m 252.9919,829.22649 -0.89255,0 0,-3.51604 -1.28999,0 0,-0.75234 3.47156,0 0,0.75234 -1.28902,0 0,3.51604"
       inkscape:connector-curvature="0" />
    <path
       id="path3338"
       style="fill:#231f20;fill-opacity:1;fill-rule:evenodd;stroke:none"
       d="m 258.90613,829.22649 -0.83356,0 0,-3.5673 -0.0126,0 -0.79681,3.5673 -0.87514,0 -0.77941,-3.5673 -0.0116,0 0,3.5673 -0.83453,0 0,-4.26838 1.3045,0 0.77361,3.36713 0.0116,0 0.762,-3.36713 1.29193,0 0,4.26838"
       inkscape:connector-curvature="0" />
    <path
       id="path3340"
       style="fill:#231f20;fill-opacity:1;fill-rule:evenodd;stroke:none"
       d="m 126.34758,719.73207 20.13603,-27.79764 29.04121,0 -22.53614,26.18951 25.01458,31.81459 -29.5837,0 -22.07198,-30.20646 z m -23.85224,-27.79764 23.5428,0 0,58.0041 -23.5428,0 0,-58.0041"
       inkscape:connector-curvature="0" />
    <path
       id="path3342"
       style="fill:#231f20;fill-opacity:1;fill-rule:evenodd;stroke:none"
       d="m 138.41875,683.56401 -8.52515,0 -2.60899,-6.28943 -14.20729,0 -2.37594,6.28943 -8.38494,0 12.80997,-31.77108 9.17788,0 14.11446,31.77108 z m -18.58688,-24.17716 -4.65808,12.34387 9.78226,0 -5.12418,-12.34387"
       inkscape:connector-curvature="0" />
    <path
       id="path3344"
       style="fill:#231f20;fill-opacity:1;fill-rule:evenodd;stroke:none"
       d="m 169.38625,651.79293 6.89477,0 0,31.77108 -7.9198,0 0,-19.84496 -8.57157,9.96889 -1.2107,0 -8.57156,-9.96889 0,19.84496 -7.91884,0 0,-31.77108 6.89381,0 10.20194,11.78687 10.20195,-11.78687"
       inkscape:connector-curvature="0" />
    <path
       id="path3346"
       style="fill:#231f20;fill-opacity:1;fill-rule:evenodd;stroke:none"
       d="m 196.34839,651.79293 c 11.60024,0 17.56088,7.22162 17.56088,15.93244 0,9.12953 -5.77595,15.83864 -18.44666,15.83864 l -13.13585,0 0,-31.77108 14.02163,0 z m -6.1028,25.94775 5.16963,0 c 7.96719,0 10.34216,-5.40365 10.34216,-10.06173 0,-5.45006 -2.93487,-10.06173 -10.43402,-10.06173 l -5.07777,0 0,20.12346"
       inkscape:connector-curvature="0" />
    <path
       id="path3348"
       style="fill:#009a68;fill-opacity:1;fill-rule:evenodd;stroke:none"
       d="m 220.50137,649.99623 9.56082,10.10427 15.02055,0 0,15.02442 10.10717,9.55888 0,-34.68757 -34.68854,0"
       inkscape:connector-curvature="0" />
    <path
       id="path3350"
       style="fill:#009a68;fill-opacity:1;fill-rule:evenodd;stroke:none"
       d="m 229.92487,661.3315 -10.10621,9.83158 0,13.92977 13.92976,0 9.83255,-10.10525 -13.6561,0 0,-13.6561"
       inkscape:connector-curvature="0" />
    <path
       id="path3352"
       style="fill:#009a68;fill-opacity:1;fill-rule:evenodd;stroke:#000000;stroke-opacity:1"
       d="m 219.27133,750.85719 2.6148,-7.61713 -69.42351,0 -2.61576,7.61713 6.1057,0 -11.38363,32.65105 -6.02447,0 -2.61576,7.6152 69.25041,0 2.61576,-7.6152 -5.60768,0 11.70661,-32.65105 5.37753,0 z m -52.82576,32.65105 -8.14705,0 11.38363,-32.65105 8.14608,0 -11.38266,32.65105 z m 22.33017,0 -8.60058,0 11.38363,-32.65105 8.79688,0 -11.57993,32.65105"
       inkscape:connector-curvature="0" />
    <path
       id="path3354"
       style="fill:#231f20;fill-opacity:1;fill-rule:evenodd;stroke:none"
       d="m 116.28102,798.09364 3.46576,0 c 1.39346,0 2.31115,0.61888 2.01041,2.03749 -0.26496,1.24647 -1.20103,1.97076 -3.06832,1.97076 l -1.45245,0 -0.46803,2.20091 -1.80637,0 1.319,-6.20916 z m 1.21069,2.80432 1.11013,0 c 0.67884,0 1.17105,-0.17212 1.30256,-0.79198 0.11411,-0.53282 -0.18083,-0.80842 -0.82583,-0.80842 l -1.24647,0 -0.34039,1.6004"
       inkscape:connector-curvature="0" />
    <path
       id="path3356"
       style="fill:#231f20;fill-opacity:1;fill-rule:evenodd;stroke:none"
       d="m 130.92443,798.09364 3.79165,0 c 1.49596,0 2.23282,0.54249 2.00267,1.62554 -0.16729,0.79101 -0.92929,1.34221 -1.8934,1.50563 l -0.003,0.0155 c 0.51735,0.0367 0.98151,0.15568 1.10529,0.54249 0.18083,0.56763 -0.0619,1.87599 0.059,2.52002 l -1.91757,0 c -0.0706,-0.60148 0.14505,-1.49693 0.0648,-1.92628 -0.0522,-0.2843 -0.29591,-0.43032 -1.01826,-0.43032 l -1.20393,0 -0.49994,2.3566 -1.80638,0 1.319,-6.20916 z m 1.24358,2.64767 1.43504,0 c 0.82582,0 1.14784,-0.25723 1.24841,-0.72913 0.12667,-0.60244 -0.32202,-0.71462 -1.19039,-0.71462 l -1.18749,0 -0.30557,1.44375"
       inkscape:connector-curvature="0" />
    <path
       id="path3358"
       style="fill:#231f20;fill-opacity:1;fill-rule:evenodd;stroke:none"
       d="m 149.1129,797.93021 c 2.59739,0 3.39324,1.3925 2.99483,3.26849 -0.39744,1.87503 -1.78607,3.26753 -4.38345,3.26753 -2.59642,0 -3.39324,-1.3925 -2.99483,-3.26753 0.39841,-1.87599 1.78607,-3.26849 4.38345,-3.26849 z m -1.11786,5.26343 c 1.37509,0 2.02395,-0.90318 2.25507,-1.99494 0.23208,-1.09272 -0.0319,-1.9959 -1.40797,-1.9959 -1.37605,0 -2.02395,0.90318 -2.25603,1.9959 -0.23112,1.09176 0.0329,1.99494 1.40893,1.99494"
       inkscape:connector-curvature="0" />
    <path
       id="path3360"
       style="fill:#231f20;fill-opacity:1;fill-rule:evenodd;stroke:none"
       d="m 165.03664,800.13113 c 0.0522,-0.68755 -0.45643,-0.92833 -1.14494,-0.92833 -1.17782,0 -1.92048,0.82582 -2.16126,1.96012 -0.23402,1.10143 0.0416,2.03072 1.26291,2.03072 0.68754,0 1.36735,-0.24078 1.5888,-0.99795 l 1.90887,0 c -0.46706,1.83248 -2.07327,2.27054 -3.9483,2.27054 -1.85762,0 -3.17082,-0.94574 -2.67958,-3.25882 0.49511,-2.33146 2.14096,-3.2772 4.35928,-3.2772 1.58299,0 2.99482,0.55893 2.67281,2.20092 l -1.85859,0"
       inkscape:connector-curvature="0" />
    <path
       id="path3362"
       style="fill:#231f20;fill-opacity:1;fill-rule:evenodd;stroke:none"
       d="m 176.53341,798.09364 5.33209,0 -0.2698,1.27161 -3.52668,0 -0.24465,1.15365 3.33618,0 -0.26883,1.27355 -3.33812,0 -0.26302,1.2368 3.60404,0 -0.27173,1.27355 -5.40751,0 1.31803,-6.20916"
       inkscape:connector-curvature="0" />
    <path
       id="path3364"
       style="fill:#231f20;fill-opacity:1;fill-rule:evenodd;stroke:none"
       d="m 192.40589,802.29046 c -0.15085,0.79101 0.17213,0.97184 1.01536,0.97184 1.06661,0 1.30933,-0.3781 1.36832,-0.6537 0.088,-0.41291 -0.31234,-0.55023 -0.99699,-0.68657 l -0.85,-0.17407 c -0.98151,-0.1963 -1.97656,-0.5744 -1.72417,-1.76285 0.32394,-1.52111 1.84602,-2.0549 3.26655,-2.0549 2.27054,0 2.76661,0.69722 2.56354,1.93402 l -1.75415,0 c 0.0832,-0.63629 -0.41195,-0.73009 -0.95444,-0.73009 -0.79101,0 -1.19135,0.26689 -1.26388,0.61018 -0.0899,0.42065 0.45353,0.53282 1.08788,0.67111 l 0.79682,0.17212 c 1.08595,0.23209 1.93595,0.60148 1.67486,1.83249 -0.36746,1.72804 -2.18061,2.04619 -3.57213,2.04619 -2.50359,0 -2.69699,-1.07435 -2.46394,-2.17577 l 1.80637,0"
       inkscape:connector-curvature="0" />
    <path
       id="path3366"
       style="fill:#231f20;fill-opacity:1;fill-rule:evenodd;stroke:none"
       d="m 206.43816,802.29046 c -0.15182,0.79101 0.17116,0.97184 1.01342,0.97184 1.06661,0 1.3103,-0.3781 1.36929,-0.6537 0.087,-0.41291 -0.31235,-0.55023 -0.99795,-0.68657 l -0.84904,-0.17407 c -0.98055,-0.1963 -1.97656,-0.5744 -1.72321,-1.76285 0.32202,-1.52111 1.84602,-2.0549 3.26462,-2.0549 2.27054,0 2.76662,0.69722 2.56548,1.93402 l -1.75512,0 c 0.0841,-0.63629 -0.41195,-0.73009 -0.95444,-0.73009 -0.79101,0 -1.19039,0.26689 -1.26388,0.61018 -0.0899,0.42065 0.45353,0.53282 1.08692,0.67111 l 0.79875,0.17212 c 1.08595,0.23209 1.93595,0.60148 1.67389,1.83249 -0.36747,1.72804 -2.18061,2.04619 -3.5731,2.04619 -2.50359,0 -2.69602,-1.07435 -2.46394,-2.17577 l 1.80831,0"
       inkscape:connector-curvature="0" />
    <path
       id="path3368"
       style="fill:#231f20;fill-opacity:1;fill-rule:evenodd;stroke:none"
       d="m 223.44398,797.93021 c 2.59738,0 3.39226,1.3925 2.99482,3.26849 -0.39744,1.87503 -1.78703,3.26753 -4.38248,3.26753 -2.59835,0 -3.39517,-1.3925 -2.99773,-3.26753 0.39938,-1.87599 1.788,-3.26849 4.38539,-3.26849 z m -1.11883,5.26343 c 1.37605,0 2.02491,-0.90318 2.25603,-1.99494 0.23305,-1.09272 -0.0329,-1.9959 -1.40893,-1.9959 -1.37606,0 -2.02299,0.90318 -2.2541,1.9959 -0.23305,1.09176 0.0309,1.99494 1.407,1.99494"
       inkscape:connector-curvature="0" />
    <path
       id="path3370"
       style="fill:#231f20;fill-opacity:1;fill-rule:evenodd;stroke:none"
       d="m 234.66805,798.09364 3.79358,0 c 1.49692,0 2.23379,0.54249 2.00267,1.62554 -0.16826,0.79101 -0.93026,1.34221 -1.8934,1.50563 l -0.005,0.0155 c 0.51832,0.0367 0.98345,0.15568 1.10819,0.54249 0.17987,0.56763 -0.0638,1.87599 0.0571,2.52002 l -1.91758,0 c -0.0696,-0.60148 0.14505,-1.49693 0.0648,-1.92628 -0.0503,-0.2843 -0.29494,-0.43032 -1.01826,-0.43032 l -1.20393,0 -0.49994,2.3566 -1.80637,0 1.31803,-6.20916 z m 1.24261,2.64767 1.4389,0 c 0.82486,0 1.14591,-0.25723 1.24648,-0.72913 0.12764,-0.60244 -0.32201,-0.71462 -1.18942,-0.71462 l -1.18749,0 -0.30847,1.44375"
       inkscape:connector-curvature="0" />
  </g>
</svg>
