<?xml version="1.0" encoding="UTF-8" standalone="no"?>
<svg
   xmlns:dc="http://purl.org/dc/elements/1.1/"
   xmlns:cc="http://creativecommons.org/ns#"
   xmlns:rdf="http://www.w3.org/1999/02/22-rdf-syntax-ns#"
   xmlns:svg="http://www.w3.org/2000/svg"
   xmlns="http://www.w3.org/2000/svg"
   version="1.1"
   id="svg2"
   height="879.0976"
   width="1166.192">
  <defs
     id="defs4" />
  <metadata
     id="metadata7">
    <rdf:RDF>
      <cc:Work
         rdf:about="">
        <dc:format>image/svg+xml</dc:format>
        <dc:type
           rdf:resource="http://purl.org/dc/dcmitype/StillImage" />
        <dc:title></dc:title>
      </cc:Work>
    </rdf:RDF>
  </metadata>
  <g
     transform="translate(1147.0049,-93.335038)"
     id="layer1">
    <g
       transform="matrix(0,0.43430518,-0.43430518,0,-17.260112,1167.7089)"
       id="g4346">
      <rect
         ry="48.844002"
         rx="48.844002"
         y="407.82944"
         x="-1414.6133"
         height="563.25"
         width="937.15588"
         id="rect5039"
         style="fill:#d5ffe6;fill-opacity:1;fill-rule:evenodd;stroke:none" />
      <rect
         ry="48.844002"
         rx="48.844002"
         y="428.7352"
         x="-1404.3917"
         height="302.37006"
         width="435.29434"
         id="rect5041"
         style="fill:#5fd3bc;fill-opacity:1;fill-rule:evenodd;stroke:none" />
      <rect
         style="fill:#ffe6d5;fill-opacity:1;fill-rule:evenodd;stroke:none"
         id="rect5043"
         width="285.64761"
         height="317.06244"
         x="-878.74493"
         y="423.2352"
         rx="48.844006"
         ry="48.844002" />
      <path
         style="fill:#e5d5ff;fill-opacity:1;fill-rule:evenodd;stroke:none"
         d="m -557.03706,481.09225 c -14.1805,0 -25.6031,9.5036 -25.6031,21.30165 l 0,247.36795 -572.72784,0 c -14.1803,0 -25.6028,9.5036 -25.6028,21.30165 l 0,156.75833 c 0,11.798 11.4225,21.3017 25.6028,21.3017 l 533.98414,0 146.18935,0 c 14.1803,0 25.5652,-9.5037 25.5652,-21.3017 l 0,-228.78756 0,-196.64037 c 0,-11.79805 -11.3849,-21.30165 -25.5652,-21.30165 z"
         id="path5045" />
      <rect
         style="fill:#fff6d5;fill-opacity:1;fill-rule:evenodd;stroke:none"
         id="rect5047"
         width="941.04559"
         height="480.79901"
         x="-1414.09"
         y="-83.92057"
         rx="48.844002"
         ry="48.844002" />
    </g>
    <g
       id="g4353"
       transform="matrix(0,0.43430518,-0.43430518,0,-17.260112,707.70895)">
      <rect
         style="fill:#d5ffe6;fill-opacity:1;fill-rule:evenodd;stroke:none"
         id="rect4355"
         width="937.15588"
         height="563.25"
         x="-1414.6133"
         y="407.82944"
         rx="48.844002"
         ry="48.844002" />
      <rect
         style="fill:#5fd3bc;fill-opacity:1;fill-rule:evenodd;stroke:none"
         id="rect4357"
         width="435.29434"
         height="302.37006"
         x="-1404.3917"
         y="428.7352"
         rx="48.844002"
         ry="48.844002" />
      <rect
         ry="48.844002"
         rx="48.844006"
         y="423.2352"
         x="-878.74493"
         height="317.06244"
         width="285.64761"
         id="rect4359"
         style="fill:#ffe6d5;fill-opacity:1;fill-rule:evenodd;stroke:none" />
      <path
         id="path4361"
         d="m -557.03706,481.09225 c -14.1805,0 -25.6031,9.5036 -25.6031,21.30165 l 0,247.36795 -572.72784,0 c -14.1803,0 -25.6028,9.5036 -25.6028,21.30165 l 0,156.75833 c 0,11.798 11.4225,21.3017 25.6028,21.3017 l 533.98414,0 146.18935,0 c 14.1803,0 25.5652,-9.5037 25.5652,-21.3017 l 0,-228.78756 0,-196.64037 c 0,-11.79805 -11.3849,-21.30165 -25.5652,-21.30165 z"
         style="fill:#e5d5ff;fill-opacity:1;fill-rule:evenodd;stroke:none" />
      <rect
         ry="48.844002"
         rx="48.844002"
         y="-83.92057"
         x="-1414.09"
         height="480.79901"
         width="941.04559"
         id="rect4363"
         style="fill:#fff6d5;fill-opacity:1;fill-rule:evenodd;stroke:none" />
    </g>
    <g
       transform="matrix(0,-0.43430518,0.43430518,0,-1110.5578,-101.9413)"
       id="g4365">
      <rect
         ry="48.844002"
         rx="48.844002"
         y="407.82944"
         x="-1414.6133"
         height="563.25"
         width="937.15588"
         id="rect4367"
         style="fill:#d5ffe6;fill-opacity:1;fill-rule:evenodd;stroke:none" />
      <rect
         ry="48.844002"
         rx="48.844002"
         y="428.7352"
         x="-1404.3917"
         height="302.37006"
         width="435.29434"
         id="rect4369"
         style="fill:#5fd3bc;fill-opacity:1;fill-rule:evenodd;stroke:none" />
      <rect
         style="fill:#ffe6d5;fill-opacity:1;fill-rule:evenodd;stroke:none"
         id="rect4371"
         width="285.64761"
         height="317.06244"
         x="-878.74493"
         y="423.2352"
         rx="48.844006"
         ry="48.844002" />
      <path
         style="fill:#e5d5ff;fill-opacity:1;fill-rule:evenodd;stroke:none"
         d="m -557.03706,481.09225 c -14.1805,0 -25.6031,9.5036 -25.6031,21.30165 l 0,247.36795 -572.72784,0 c -14.1803,0 -25.6028,9.5036 -25.6028,21.30165 l 0,156.75833 c 0,11.798 11.4225,21.3017 25.6028,21.3017 l 533.98414,0 146.18935,0 c 14.1803,0 25.5652,-9.5037 25.5652,-21.3017 l 0,-228.78756 0,-196.64037 c 0,-11.79805 -11.3849,-21.30165 -25.5652,-21.30165 z"
         id="path4373" />
      <rect
         style="fill:#fff6d5;fill-opacity:1;fill-rule:evenodd;stroke:none"
         id="rect4375"
         width="941.04559"
         height="480.79901"
         x="-1414.09"
         y="-83.92057"
         rx="48.844002"
         ry="48.844002" />
    </g>
    <g
       id="g4377"
       transform="matrix(0,-0.43430518,0.43430518,0,-1110.5578,358.05873)">
      <rect
         style="fill:#d5ffe6;fill-opacity:1;fill-rule:evenodd;stroke:none"
         id="rect4379"
         width="937.15588"
         height="563.25"
         x="-1414.6133"
         y="407.82944"
         rx="48.844002"
         ry="48.844002" />
      <rect
         style="fill:#5fd3bc;fill-opacity:1;fill-rule:evenodd;stroke:none"
         id="rect4381"
         width="435.29434"
         height="302.37006"
         x="-1404.3917"
         y="428.7352"
         rx="48.844002"
         ry="48.844002" />
      <rect
         ry="48.844002"
         rx="48.844006"
         y="423.2352"
         x="-878.74493"
         height="317.06244"
         width="285.64761"
         id="rect4383"
         style="fill:#ffe6d5;fill-opacity:1;fill-rule:evenodd;stroke:none" />
      <path
         id="path4385"
         d="m -557.03706,481.09225 c -14.1805,0 -25.6031,9.5036 -25.6031,21.30165 l 0,247.36795 -572.72784,0 c -14.1803,0 -25.6028,9.5036 -25.6028,21.30165 l 0,156.75833 c 0,11.798 11.4225,21.3017 25.6028,21.3017 l 533.98414,0 146.18935,0 c 14.1803,0 25.5652,-9.5037 25.5652,-21.3017 l 0,-228.78756 0,-196.64037 c 0,-11.79805 -11.3849,-21.30165 -25.5652,-21.30165 z"
         style="fill:#e5d5ff;fill-opacity:1;fill-rule:evenodd;stroke:none" />
      <rect
         ry="48.844002"
         rx="48.844002"
         y="-83.92057"
         x="-1414.09"
         height="480.79901"
         width="941.04559"
         id="rect4387"
         style="fill:#fff6d5;fill-opacity:1;fill-rule:evenodd;stroke:none" />
    </g>
    <g
       transform="matrix(0,1,-1,0,-25.025141,1093.3839)"
       id="g4397">
      <rect
         ry="21.213203"
         rx="21.213202"
         y="-518.9845"
         x="140.34593"
         height="87.244583"
         width="380.30817"
         id="rect4391"
         style="fill:#f4d7d7;fill-opacity:1;fill-rule:evenodd;stroke:none"
         transform="scale(-1,-1)" />
      <text
         xml:space="preserve"
         style="font-style:normal;font-variant:normal;font-weight:normal;font-stretch:normal;font-size:43.75px;line-height:125%;font-family:sans-serif;-inkscape-font-specification:sans-serif;text-align:center;letter-spacing:0px;word-spacing:0px;text-anchor:middle;fill:#000000;fill-opacity:1;stroke:none;stroke-width:1px;stroke-linecap:butt;stroke-linejoin:miter;stroke-opacity:1"
         x="-331.48267"
         y="488.76706"
         id="text4393"><tspan
           x="-331.48267"
           y="488.76706"
           id="tspan4395">L3$ Slice</tspan></text>
    </g>
    <g
       id="g4402"
       transform="matrix(0,1,-1,0,-25.025141,633.38382)">
      <rect
         transform="scale(-1,-1)"
         style="fill:#f4d7d7;fill-opacity:1;fill-rule:evenodd;stroke:none"
         id="rect4404"
         width="380.30817"
         height="87.244583"
         x="140.34593"
         y="-518.9845"
         rx="21.213202"
         ry="21.213203" />
      <text
         id="text4406"
         y="488.76706"
         x="-331.48267"
         style="font-style:normal;font-variant:normal;font-weight:normal;font-stretch:normal;font-size:43.75px;line-height:125%;font-family:sans-serif;-inkscape-font-specification:sans-serif;text-align:center;letter-spacing:0px;word-spacing:0px;text-anchor:middle;fill:#000000;fill-opacity:1;stroke:none;stroke-width:1px;stroke-linecap:butt;stroke-linejoin:miter;stroke-opacity:1"
         xml:space="preserve"><tspan
           id="tspan4408"
           y="488.76706"
           x="-331.48267">L3$ Slice</tspan></text>
    </g>
    <g
       transform="matrix(0,1,-1,0,-143.02514,633.38382)"
       id="g4410">
      <rect
         ry="21.213203"
         rx="21.213202"
         y="-518.9845"
         x="140.34593"
         height="87.244583"
         width="380.30817"
         id="rect4412"
         style="fill:#f4d7d7;fill-opacity:1;fill-rule:evenodd;stroke:none"
         transform="scale(-1,-1)" />
      <text
         xml:space="preserve"
         style="font-style:normal;font-variant:normal;font-weight:normal;font-stretch:normal;font-size:43.75px;line-height:125%;font-family:sans-serif;-inkscape-font-specification:sans-serif;text-align:center;letter-spacing:0px;word-spacing:0px;text-anchor:middle;fill:#000000;fill-opacity:1;stroke:none;stroke-width:1px;stroke-linecap:butt;stroke-linejoin:miter;stroke-opacity:1"
         x="-331.48267"
         y="488.76706"
         id="text4414"><tspan
           x="-331.48267"
           y="488.76706"
           id="tspan4416">L3$ Slice</tspan></text>
    </g>
    <g
       id="g4418"
       transform="matrix(0,1,-1,0,-143.02514,1093.3839)">
      <rect
         transform="scale(-1,-1)"
         style="fill:#f4d7d7;fill-opacity:1;fill-rule:evenodd;stroke:none"
         id="rect4420"
         width="380.30817"
         height="87.244583"
         x="140.34593"
         y="-518.9845"
         rx="21.213202"
         ry="21.213203" />
      <text
         id="text4422"
         y="488.76706"
         x="-331.48267"
         style="font-style:normal;font-variant:normal;font-weight:normal;font-stretch:normal;font-size:43.75px;line-height:125%;font-family:sans-serif;-inkscape-font-specification:sans-serif;text-align:center;letter-spacing:0px;word-spacing:0px;text-anchor:middle;fill:#000000;fill-opacity:1;stroke:none;stroke-width:1px;stroke-linecap:butt;stroke-linejoin:miter;stroke-opacity:1"
         xml:space="preserve"><tspan
           id="tspan4424"
           y="488.76706"
           x="-331.48267">L3$ Slice</tspan></text>
    </g>
    <rect
       style="fill:#d4aa00;fill-opacity:1;fill-rule:evenodd;stroke:none"
       id="rect4426"
       width="89.183289"
       height="56.244583"
       x="-475.04282"
       y="876.18121"
       rx="11.932419"
       ry="14.05374" />
    <rect
       ry="14.05374"
       rx="11.932419"
       y="416.18121"
       x="-475.04282"
       height="56.244583"
       width="89.183289"
       id="rect4428"
       style="fill:#d4aa00;fill-opacity:1;fill-rule:evenodd;stroke:none" />
    <rect
       style="fill:#d4aa00;fill-opacity:1;fill-rule:evenodd;stroke:none"
       id="rect4430"
       width="89.183289"
       height="56.244583"
       x="-715.04285"
       y="134.18123"
       rx="11.932419"
       ry="14.05374" />
    <rect
       ry="14.05374"
       rx="11.932419"
       y="594.18121"
       x="-715.04285"
       height="56.244583"
       width="89.183289"
       id="rect4432"
       style="fill:#d4aa00;fill-opacity:1;fill-rule:evenodd;stroke:none" />
    <text
       id="text4434"
       y="778.80945"
       x="-193.95169"
       style="font-style:normal;font-variant:normal;font-weight:normal;font-stretch:normal;font-size:43.75px;line-height:125%;font-family:sans-serif;-inkscape-font-specification:sans-serif;text-align:center;letter-spacing:0px;word-spacing:0px;text-anchor:middle;fill:#000000;fill-opacity:1;stroke:none;stroke-width:1px;stroke-linecap:butt;stroke-linejoin:miter;stroke-opacity:1"
       xml:space="preserve"><tspan
         style="font-weight:bold"
         id="tspan4436"
         y="778.80945"
         x="-193.95169">Core</tspan></text>
    <text
       xml:space="preserve"
       style="font-style:normal;font-variant:normal;font-weight:normal;font-stretch:normal;font-size:43.75px;line-height:125%;font-family:sans-serif;-inkscape-font-specification:sans-serif;text-align:center;letter-spacing:0px;word-spacing:0px;text-anchor:middle;fill:#000000;fill-opacity:1;stroke:none;stroke-width:1px;stroke-linecap:butt;stroke-linejoin:miter;stroke-opacity:1"
       x="-193.95169"
       y="318.80945"
       id="text4438"><tspan
         x="-193.95169"
         y="318.80945"
         id="tspan4440"
         style="font-weight:bold">Core</tspan></text>
    <text
       id="text4442"
       y="318.80939"
       x="-929.95172"
       style="font-style:normal;font-variant:normal;font-weight:normal;font-stretch:normal;font-size:43.75px;line-height:125%;font-family:sans-serif;-inkscape-font-specification:sans-serif;text-align:center;letter-spacing:0px;word-spacing:0px;text-anchor:middle;fill:#000000;fill-opacity:1;stroke:none;stroke-width:1px;stroke-linecap:butt;stroke-linejoin:miter;stroke-opacity:1"
       xml:space="preserve"><tspan
         style="font-weight:bold"
         id="tspan4444"
         y="318.80939"
         x="-929.95172">Core</tspan></text>
    <text
       xml:space="preserve"
       style="font-style:normal;font-variant:normal;font-weight:normal;font-stretch:normal;font-size:43.75px;line-height:125%;font-family:sans-serif;-inkscape-font-specification:sans-serif;text-align:center;letter-spacing:0px;word-spacing:0px;text-anchor:middle;fill:#000000;fill-opacity:1;stroke:none;stroke-width:1px;stroke-linecap:butt;stroke-linejoin:miter;stroke-opacity:1"
       x="-929.95172"
       y="778.80945"
       id="text4446"><tspan
         x="-929.95172"
         y="778.80945"
         id="tspan4448"
         style="font-weight:bold">Core</tspan></text>
  </g>
</svg>
