<?xml version="1.0" encoding="UTF-8" standalone="no"?>
<!-- Created with Inkscape (http://www.inkscape.org/) -->

<svg
   xmlns:dc="http://purl.org/dc/elements/1.1/"
   xmlns:cc="http://creativecommons.org/ns#"
   xmlns:rdf="http://www.w3.org/1999/02/22-rdf-syntax-ns#"
   xmlns:svg="http://www.w3.org/2000/svg"
   xmlns="http://www.w3.org/2000/svg"
   version="1.1"
   width="190"
   height="200"
   id="svg3781">
  <defs
     id="defs3783" />
  <metadata
     id="metadata3786">
    <rdf:RDF>
      <cc:Work
         rdf:about="">
        <dc:format>image/svg+xml</dc:format>
        <dc:type
           rdf:resource="http://purl.org/dc/dcmitype/StillImage" />
        <dc:title></dc:title>
      </cc:Work>
    </rdf:RDF>
  </metadata>
  <g
     transform="translate(-347.138,-380.79076)"
     id="layer1">
    <path
       d="m 470.8999,409.99076 -32,0"
       id="path4509"
       style="fill:none;stroke:#000000;stroke-width:2" />
    <circle
       cx="129.10001"
       cy="85.5"
       r="3.5"
       transform="matrix(0,1,-1,0,540.3999,276.99076)"
       id="circle4511"
       style="fill:none;stroke:#000000;stroke-width:2" />
    <path
       d="m 477.0999,416.99076 -43.3,0"
       id="path4513"
       style="fill:none;stroke:#000000;stroke-width:2.29999995" />
    <path
       d="m 484.7499,427.19076 -14.8,0 -0.05,-10.2 -30,0 0,9.4 -14.75,0 0,14.4 14.75,0 0,12.8 30,0 0.05,-12.8 14.8,0 z"
       id="path4515"
       style="fill:none;stroke:#000000;stroke-width:2" />
    <path
       d="m 438.8999,460.59076 32,0"
       id="path4519"
       style="fill:none;stroke:#000000;stroke-width:2" />
    <path
       d="m 432.6999,453.59076 43.3,0"
       id="path4521"
       style="fill:none;stroke:#000000;stroke-width:2.29999995" />
    <g
       transform="matrix(0,1,-1,0,1142.1275,323.69916)"
       id="g4525">
      <path
         d="m 166.29157,671.22761 v 32"
         id="path4527"
         style="fill:none;stroke:#000000;stroke-width:2" />
      <circle
         cx="129.10001"
         cy="85.5"
         r="3.5"
         transform="translate(33.29157,601.72761)"
         id="circle4529"
         style="fill:none;stroke:#000000;stroke-width:2" />
      <path
         d="m 173.29157,665.02761 v 43.3"
         id="path4531"
         style="fill:none;stroke:#000000;stroke-width:2.29999995" />
      <path
         d="m 183.49158,657.37761 0,14.8 -10.20001,0.05 0,30 9.40001,0 0,14.75 14.4,0 0,-14.75 12.80003,0 0,-30 -12.80003,-0.05 0,-14.8 z"
         id="path4533"
         style="fill:none;stroke:#000000;stroke-width:2" />
    </g>
    <path
       d="m 454.8999,459.99076 0,22.6"
       id="path4537"
       style="fill:none;stroke:#000000;stroke-width:2" />
    <path
       d="m 485.1499,433.99076 17.8,-0.01 0,80.3377 -18.2,0.071"
       id="path4539"
       style="fill:none;stroke:#000000;stroke-width:2" />
    <path
       d="m 502.46608,474.18516 18.11764,0"
       id="path4541"
       style="fill:none;stroke:#000000;stroke-width:2" />
    <rect
       width="5.4118996"
       height="5"
       x="500.24988"
       y="471.69089"
       id="rect4543"
       style="fill:#00000c;fill-opacity:1;fill-rule:evenodd;stroke:#000000;stroke-width:0.99999988;stroke-linejoin:miter;stroke-miterlimit:4;stroke-opacity:1;stroke-dasharray:none;stroke-dashoffset:0" />
    <path
       d="m 399.5499,472.18516 55.35,0"
       id="path4547"
       style="fill:none;stroke:#000000;stroke-width:2" />
    <rect
       width="5.4118996"
       height="5"
       x="451.94989"
       y="469.69089"
       id="rect4549"
       style="fill:#00000c;fill-opacity:1;fill-rule:evenodd;stroke:#000000;stroke-width:0.99999988;stroke-linejoin:miter;stroke-miterlimit:4;stroke-opacity:1;stroke-dasharray:none;stroke-dashoffset:0" />
    <path
       d="m 376.44147,425.74076 v 32"
       id="path4553"
       style="fill:none;stroke:#000000;stroke-width:2" />
    <circle
       cx="129.10001"
       cy="85.5"
       r="3.5"
       transform="translate(243.44147,356.24076)"
       id="circle4555"
       style="fill:none;stroke:#000000;stroke-width:2" />
    <path
       d="m 383.44147,415.19076 0,47.65"
       id="path4557"
       style="fill:none;stroke:#000000;stroke-width:2.29999995;stroke-miterlimit:4;stroke-dasharray:none" />
    <path
       d="m 394.7499,405.59076 0.0762,21.15 -11.38465,0 0,30 16.10843,0.05 0,32 -16.00005,-0.05 0,30 14.40005,0 0,11.65"
       id="path4559"
       style="fill:none;stroke:#000000;stroke-width:2" />
    <path
       d="m 355.84466,441.74076 12.90205,0"
       id="path4573"
       style="fill:none;stroke:#000000;stroke-width:1.99999988" />
    <path
       d="m 402.1999,405.79076 -14.45,0 7.225,-6.8736 z"
       id="path5834"
       style="fill:none;stroke:#000000;stroke-width:1.99999988;stroke-miterlimit:4;stroke-dasharray:none" />
    <path
       d="m 425.1499,433.39076 -9.6,0"
       id="path5836"
       style="fill:none;stroke:#000000;stroke-width:2" />
    <path
       d="m 376.5499,487.74076 v 32"
       id="path4563"
       style="fill:none;stroke:#000000;stroke-width:2" />
    <path
       d="m 383.5499,481.54076 v 43.3"
       id="path4565"
       style="fill:none;stroke:#000000;stroke-width:2.29999995" />
    <rect
       width="5.4118996"
       height="5"
       x="396.84991"
       y="469.59091"
       id="rect4569"
       style="fill:#00000c;fill-opacity:1;fill-rule:evenodd;stroke:#000000;stroke-width:0.99999988;stroke-linejoin:miter;stroke-miterlimit:4;stroke-opacity:1;stroke-dasharray:none;stroke-dashoffset:0" />
    <path
       d="m 457.1499,532.62546 0,18.5653 -100.80634,0 -0.14209,-165.4 98.69843,0 0,16.6"
       id="path4571"
       style="fill:none;stroke:#000000;stroke-width:2" />
    <path
       d="m 356.18519,503.74076 20.32942,0"
       id="path4577"
       style="fill:none;stroke:#000000;stroke-width:1.99999988" />
    <g
       transform="matrix(0.39026947,0,0,0.47983474,533.4264,320.74326)"
       id="g4579">
      <g
         id="g4581">
        <path
           d="m -321,439 -47.77885,0"
           id="path4583"
           style="fill:none;stroke:#000000;stroke-width:4.62170076;stroke-linecap:butt;stroke-linejoin:miter;stroke-opacity:1" />
        <path
           d="m -330.59822,445 -28.58241,0"
           id="path4585"
           style="fill:none;stroke:#000000;stroke-width:4.62170076;stroke-linecap:butt;stroke-linejoin:miter;stroke-opacity:1" />
        <path
           d="m -335.64674,451 -18.48537,0"
           id="path4587"
           style="fill:none;stroke:#000000;stroke-width:4.62170076;stroke-linecap:butt;stroke-linejoin:miter;stroke-opacity:1" />
      </g>
    </g>
    <text
       x="390.95654"
       y="543.80151"
       id="text4589"
       xml:space="preserve"
       style="font-size:6.60923243px;font-style:normal;font-variant:normal;font-weight:normal;font-stretch:normal;line-height:125%;letter-spacing:0px;word-spacing:0px;fill:#000000;fill-opacity:1;stroke:none;font-family:Sans;-inkscape-font-specification:Courier"><tspan
         x="390.95654"
         y="543.80151"
         id="tspan4591">GND</tspan></text>
    <rect
       width="5.4118996"
       height="5"
       x="353.638"
       y="501.19077"
       id="rect4593"
       style="fill:#00000c;fill-opacity:1;fill-rule:evenodd;stroke:#000000;stroke-width:0.99999988;stroke-linejoin:miter;stroke-miterlimit:4;stroke-opacity:1;stroke-dasharray:none;stroke-dashoffset:0" />
    <rect
       width="5.4118996"
       height="5"
       x="353.638"
       y="439.19077"
       id="rect4595"
       style="fill:#00000c;fill-opacity:1;fill-rule:evenodd;stroke:#000000;stroke-width:0.99999988;stroke-linejoin:miter;stroke-miterlimit:4;stroke-opacity:1;stroke-dasharray:none;stroke-dashoffset:0" />
    <g
       transform="matrix(0.78895464,0,0,0.78895464,245.20828,-383.09248)"
       id="g4597">
      <path
         d="m 193.6,983.432 0,0.72 1.152,0.216 4.23,11.232 1.242,0 4.14,-11.232 1.116,-0.216 0,-0.72 -3.582,0 0,0.72 1.116,0.108 0.18,0.252 -3.258,9.072 -3.384,-9.072 0.198,-0.252 1.044,-0.108 0,-0.72 -4.194,0"
         id="path4599"
         style="font-size:18px;font-style:normal;font-variant:normal;font-weight:normal;font-stretch:normal;line-height:125%;letter-spacing:0px;word-spacing:0px;fill:#000000;fill-opacity:1;stroke:none;font-family:Bitstream Charter;-inkscape-font-specification:Bitstream Charter" />
      <path
         d="m 209.46838,987.66729 0,2.19963 c -0.36271,-0.0819 -0.71371,-0.1287 -1.04132,-0.1287 -1.77842,0 -3.01864,1.25192 -3.01864,3.12394 0,1.63802 0.98282,2.73784 2.25813,2.73784 0.64351,0 1.20512,-0.234 1.80183,-0.71371 l 0,0.60841 1.73162,0 0,-0.42121 -0.56161,-0.0585 -0.1989,-0.1872 0,-7.94441 -0.4446,0 -1.42742,0.4212 0,0.36271 0.90091,0 m 0,6.7861 c -0.43291,0.2691 -0.85411,0.4095 -1.27532,0.4095 -1.05301,0 -1.75502,-0.83071 -1.75502,-2.19963 0,-1.46252 0.81901,-2.41023 2.00072,-2.41023 0.28081,0 0.63181,0.0702 1.02962,0.1872 l 0,4.01316"
         id="path4601"
         style="font-size:11.70016479px;font-style:normal;font-variant:normal;font-weight:normal;font-stretch:normal;line-height:125%;letter-spacing:0px;word-spacing:0px;baseline-shift:sub;fill:#000000;fill-opacity:1;stroke:none;font-family:Bitstream Charter;-inkscape-font-specification:Bitstream Charter" />
      <path
         d="m 216.07257,987.66729 0,2.19963 c -0.3627,-0.0819 -0.71371,-0.1287 -1.04131,-0.1287 -1.77843,0 -3.01864,1.25192 -3.01864,3.12394 0,1.63802 0.98281,2.73784 2.25813,2.73784 0.64351,0 1.20511,-0.234 1.80182,-0.71371 l 0,0.60841 1.73163,0 0,-0.42121 -0.56161,-0.0585 -0.1989,-0.1872 0,-7.94441 -0.44461,0 -1.42742,0.4212 0,0.36271 0.90091,0 m 0,6.7861 c -0.4329,0.2691 -0.85411,0.4095 -1.27532,0.4095 -1.05301,0 -1.75502,-0.83071 -1.75502,-2.19963 0,-1.46252 0.81901,-2.41023 2.00073,-2.41023 0.2808,0 0.63181,0.0702 1.02961,0.1872 l 0,4.01316"
         id="path4603"
         style="font-size:11.70016479px;font-style:normal;font-variant:normal;font-weight:normal;font-stretch:normal;line-height:125%;letter-spacing:0px;word-spacing:0px;baseline-shift:sub;fill:#000000;fill-opacity:1;stroke:none;font-family:Bitstream Charter;-inkscape-font-specification:Bitstream Charter" />
    </g>
    <path
       d="m 425.1499,513.39076 -9.6,0"
       id="path5850"
       style="fill:none;stroke:#000000;stroke-width:2" />
    <path
       d="m 411.03877,431.52366 c -1.30664,0 -2.21192,0.1493 -2.71582,0.4481 -0.50391,0.2988 -0.75586,0.8087 -0.75586,1.5293 0,0.5742 0.1875,1.0314 0.5625,1.3711 0.38086,0.3341 0.89648,0.5011 1.54688,0.5011 0.89648,0 1.61425,-0.3165 2.15332,-0.9492 0.54491,-0.6387 0.81737,-1.4855 0.81738,-2.5402 l 0,-0.3602 -1.6084,0 m 3.22559,-0.6681 0,5.6162 -1.61719,0 0,-1.4941 c -0.36915,0.5976 -0.82911,1.04 -1.37988,1.3271 -0.55079,0.2814 -1.22462,0.422 -2.02149,0.422 -1.00781,0 -1.81055,-0.2813 -2.4082,-0.8438 -0.5918,-0.5683 -0.8877,-1.3271 -0.8877,-2.2763 0,-1.1075 0.36914,-1.9424 1.10743,-2.5049 0.74413,-0.5625 1.85156,-0.8437 3.32226,-0.8438 l 2.26758,0 0,-0.1583 c -1e-5,-0.7441 -0.2461,-1.3183 -0.73828,-1.7226 -0.48634,-0.4102 -1.17188,-0.6152 -2.05664,-0.6152 -0.56251,0 -1.11036,0.067 -1.64356,0.2021 -0.5332,0.1348 -1.0459,0.3369 -1.53808,0.6064 l 0,-1.4941 c 0.59179,-0.2284 1.16601,-0.3984 1.72265,-0.5098 0.55664,-0.1171 1.09863,-0.1757 1.62598,-0.1757 1.42382,0 2.4873,0.3691 3.19043,1.1075 0.70312,0.7383 1.05468,1.8573 1.05469,3.3573"
       id="path5852"
       style="font-size:18px;font-style:normal;font-variant:normal;font-weight:normal;font-stretch:normal;line-height:125%;letter-spacing:0px;word-spacing:0px;fill:#000000;fill-opacity:1;stroke:none;font-family:Sans;-inkscape-font-specification:Courier" />
    <path
       d="m 411.47783,514.02276 c -10e-6,-1.1895 -0.2461,-2.1211 -0.73828,-2.7949 -0.48634,-0.6797 -1.15724,-1.0196 -2.0127,-1.0196 -0.85547,0 -1.5293,0.3399 -2.02148,1.0196 -0.48633,0.6738 -0.7295,1.6054 -0.7295,2.7949 0,1.1894 0.24317,2.124 0.7295,2.8037 0.49218,0.6738 1.16601,1.0107 2.02148,1.0107 0.85546,0 1.52636,-0.3369 2.0127,-1.0107 0.49218,-0.6797 0.73827,-1.6143 0.73828,-2.8037 m -5.50196,-3.4365 c 0.33984,-0.586 0.76758,-1.0196 1.28321,-1.3008 0.52148,-0.2871 1.14257,-0.4307 1.86328,-0.4307 1.1953,0 2.16503,0.4746 2.90918,1.4238 0.74999,0.9493 1.12499,2.1973 1.125,3.7442 -1e-5,1.5469 -0.37501,2.7949 -1.125,3.7441 -0.74415,0.9492 -1.71388,1.4239 -2.90918,1.4239 -0.72071,0 -1.3418,-0.1407 -1.86328,-0.4219 -0.51563,-0.2871 -0.94337,-0.7236 -1.28321,-1.3096 l 0,1.4766 -1.62597,0 0,-13.6758 1.62597,0 0,5.3262"
       id="path7513-7"
       style="font-size:18px;font-style:normal;font-variant:normal;font-weight:normal;font-stretch:normal;line-height:125%;letter-spacing:0px;word-spacing:0px;fill:#000000;fill-opacity:1;stroke:none;font-family:Sans;-inkscape-font-specification:Courier" />
    <path
       d="m 406.67568,550.74246 0,14.8965"
       id="path5913"
       style="fill:none;stroke:#000000;stroke-width:2" />
    <rect
       width="5.4118996"
       height="5"
       x="403.94989"
       y="548.4906"
       id="rect5915"
       style="fill:#00000c;fill-opacity:1;fill-rule:evenodd;stroke:#000000;stroke-width:0.99999988;stroke-linejoin:miter;stroke-miterlimit:4;stroke-opacity:1;stroke-dasharray:none;stroke-dashoffset:0" />
    <path
       d="m 526.01983,473.15876 c -10e-6,1.1894 0.24316,2.124 0.72949,2.8037 0.49218,0.6738 1.16601,1.0107 2.02148,1.0107 0.85546,0 1.52929,-0.3369 2.02149,-1.0107 0.49218,-0.6797 0.73827,-1.6143 0.73828,-2.8037 -10e-6,-1.1895 -0.2461,-2.1211 -0.73828,-2.7949 -0.4922,-0.6797 -1.16603,-1.0196 -2.02149,-1.0196 -0.85547,0 -1.5293,0.3399 -2.02148,1.0196 -0.48633,0.6738 -0.7295,1.6054 -0.72949,2.7949 m 5.51074,3.4365 c -0.33985,0.5859 -0.77052,1.0225 -1.29199,1.3096 -0.51564,0.2812 -1.13673,0.4218 -1.86329,0.4218 -1.18945,0 -2.15918,-0.4746 -2.90917,-1.4238 -0.74415,-0.9492 -1.11622,-2.1973 -1.11622,-3.7441 0,-1.5469 0.37207,-2.7949 1.11622,-3.7442 0.74999,-0.9492 1.71972,-1.4238 2.90917,-1.4238 0.72656,0 1.34765,0.1436 1.86329,0.4307 0.52147,0.2812 0.95214,0.7148 1.29199,1.3007 l 0,-1.4941 1.61719,0 0,13.5879 -1.61719,0 0,-5.2207"
       id="path5925"
       style="font-size:18px;font-style:normal;font-variant:normal;font-weight:normal;font-stretch:normal;line-height:125%;letter-spacing:0px;word-spacing:0px;fill:#000000;fill-opacity:1;stroke:none;font-family:Sans;-inkscape-font-specification:Courier" />
    <g
       transform="translate(793.11719,-572.00924)"
       id="g5970">
      <path
         d="m -390.84488,1140.9914 0,1.5293 c -0.45704,-0.2344 -0.93165,-0.4102 -1.42383,-0.5273 -0.49219,-0.1172 -1.00196,-0.1758 -1.52929,-0.1758 -0.80274,0 -1.40626,0.123 -1.81055,0.3691 -0.39844,0.2461 -0.59766,0.6153 -0.59766,1.1074 0,0.375 0.14355,0.6709 0.43067,0.8877 0.2871,0.211 0.86425,0.4131 1.73144,0.6065 l 0.55371,0.123 c 1.14843,0.2461 1.96289,0.5948 2.44336,1.0459 0.48632,0.4453 0.72949,1.0694 0.72949,1.8721 0,0.9141 -0.36328,1.6377 -1.08984,2.1709 -0.72071,0.5332 -1.71387,0.7998 -2.97949,0.7998 -0.52735,0 -1.07813,-0.053 -1.65234,-0.1582 -0.56837,-0.1 -1.16895,-0.252 -1.80176,-0.457 l 0,-1.67 c 0.59765,0.3106 1.18652,0.545 1.7666,0.7032 0.58007,0.1523 1.15429,0.2285 1.72266,0.2285 0.76171,0 1.34765,-0.1289 1.75781,-0.3867 0.41015,-0.2637 0.61523,-0.6328 0.61523,-1.1075 0,-0.4394 -0.14942,-0.7763 -0.44824,-1.0107 -0.29297,-0.2344 -0.94044,-0.46 -1.94238,-0.6768 l -0.5625,-0.1318 c -1.00196,-0.2109 -1.72559,-0.5332 -2.1709,-0.9668 -0.44532,-0.4394 -0.66797,-1.04 -0.66797,-1.8017 0,-0.9258 0.32812,-1.6407 0.98437,-2.1446 0.65625,-0.5039 1.58789,-0.7558 2.79493,-0.7558 0.59765,0 1.16015,0.044 1.6875,0.1318 0.52733,0.088 1.01366,0.2197 1.45898,0.3955"
         id="path5927"
         style="font-size:18px;font-style:normal;font-variant:normal;font-weight:normal;font-stretch:normal;line-height:125%;letter-spacing:0px;word-spacing:0px;fill:#000000;fill-opacity:1;stroke:none;font-family:Sans;-inkscape-font-specification:Courier" />
      <path
         d="m -379.31363,1145.2189 0,0.7911 -7.43555,0 c 0.0703,1.1132 0.4043,1.9628 1.00196,2.5488 0.60351,0.5801 1.4414,0.8701 2.51367,0.8701 0.62109,0 1.22167,-0.076 1.80176,-0.2285 0.58593,-0.1524 1.166,-0.3809 1.74023,-0.6856 l 0,1.5293 c -0.58009,0.2461 -1.17481,0.4336 -1.78418,0.5625 -0.60938,0.1289 -1.22754,0.1934 -1.85449,0.1934 -1.57032,0 -2.81543,-0.457 -3.73535,-1.3711 -0.91407,-0.9141 -1.3711,-2.1504 -1.3711,-3.709 0,-1.6113 0.4336,-2.8886 1.30079,-3.832 0.87304,-0.9492 2.04784,-1.4238 3.52441,-1.4238 1.32421,0 2.37011,0.4277 3.13769,1.2832 0.77343,0.8496 1.16015,2.0068 1.16016,3.4716 m -1.61719,-0.4746 c -0.0117,-0.8847 -0.26075,-1.5908 -0.74707,-2.1181 -0.48047,-0.5274 -1.11914,-0.791 -1.91601,-0.7911 -0.90235,10e-5 -1.62598,0.255 -2.1709,0.7647 -0.53907,0.5098 -0.84961,1.2276 -0.93164,2.1533 l 5.76562,-0.01"
         id="path5929"
         style="font-size:18px;font-style:normal;font-variant:normal;font-weight:normal;font-stretch:normal;line-height:125%;letter-spacing:0px;word-spacing:0px;fill:#000000;fill-opacity:1;stroke:none;font-family:Sans;-inkscape-font-specification:Courier" />
      <path
         d="m -376.65933,1136.8693 1.61719,0 0,13.6758 -1.61719,0 0,-13.6758"
         id="path5931"
         style="font-size:18px;font-style:normal;font-variant:normal;font-weight:normal;font-stretch:normal;line-height:125%;letter-spacing:0px;word-spacing:0px;fill:#000000;fill-opacity:1;stroke:none;font-family:Sans;-inkscape-font-specification:Courier" />
    </g>
  </g>
</svg>
